<?xml version="1.0" encoding="UTF-8"?>
<svg width="16px" height="16px" viewBox="0 0 16 16" version="1.1" xmlns="http://www.w3.org/2000/svg" xmlns:xlink="http://www.w3.org/1999/xlink">
    <!-- Generator: Sketch 62 (91390) - https://sketch.com -->
    <!--<title>icon/16/cross-list</title>-->
    <desc>Created with Sketch.</desc>
    <g id="icon/16/cross-list" stroke="none" stroke-width="1" fill="none" fill-rule="evenodd">
        <g id="close" transform="translate(1.000000, 0.000000)" fill="#FF3333" fill-rule="nonzero">
            <path d="M8.89814951,8.00018621 L13.6514564,2.4087307 C14.1698583,1.79895417 14.1020925,0.878578123 13.5000646,0.353275103 C12.8989543,-0.171629457 11.990604,-0.103359987 11.4718743,0.50641654 L6.99985461,5.76688466 L3.52829365,0.50641654 C3.00989169,-0.103758447 2.10147582,-0.172027917 1.49964457,0.353275103 C0.897616712,0.878578123 0.830244119,1.79902058 1.34864608,2.4087307 L5.1015597,8.00018621 L0.348646077,13.5913761 C-0.169755881,14.2011526 -0.102383288,15.1215287 0.499644574,15.6468317 C0.77116661,15.8838489 1.105277,16 1.43788003,16 C1.84165682,16 2.24359857,15.8282638 2.52829365,15.4936902 L6.99985461,10.2332221 L10.4718743,15.4936902 C10.7561762,15.828463 11.1580524,16 11.5622224,16 C11.8944322,16 12.2286081,15.8838489 12.5001302,15.6468317 C13.102158,15.1215287 13.1699239,14.2010862 12.6515219,13.5913761 L8.89814951,8.00018621 Z" id="Path"></path>
        </g>
    </g>
</svg>