<?xml version="1.0" encoding="UTF-8"?>
<svg width="16px" height="16px" viewBox="0 0 16 16" version="1.1" xmlns="http://www.w3.org/2000/svg" xmlns:xlink="http://www.w3.org/1999/xlink">
    <!-- Generator: Sketch 62 (91390) - https://sketch.com -->
    <!--<title>icon/16/delete-small</title>-->
    <desc>Created with Sketch.</desc>
    <g id="icon/16/delete-small" stroke="none" stroke-width="1" fill="none" fill-rule="evenodd">
        <g id="081-trash" transform="translate(1.000000, 0.000000)" fill="#92A6BC">
            <path d="M11.0087671,6.474283 L2.99137622,6.474283 L3.74353242,14.0134231 C3.7644414,14.2277436 3.94876987,14.3900451 4.17755702,14.3900451 L9.82258626,14.3900451 C10.0509397,14.3900451 10.2357288,14.2274679 10.2566039,14.0134947 L11.0087671,6.474283 Z M1.17868047,4.864328 L12.8214628,4.864328 L11.8980308,14.1662891 C11.796497,15.2128014 10.9027303,16 9.82258626,16 L4.17755702,16 C3.09741301,16 2.20364629,15.2128014 2.10211244,14.1662891 L1.17868047,4.864328 Z M8.53846491,1.924328 C8.53846491,1.6974527 8.34417519,1.509245 8.10321637,1.509245 L5.8975,1.509245 C5.65590302,1.509245 5.46153509,1.69738078 5.46153509,1.924328 L5.46153509,2.22371029 L8.53846491,2.22371029 L8.53846491,1.924328 Z M14,2.22371029 L14,3.83366519 L0,3.83366519 L0,2.22371029 L3.81254386,2.22371029 L3.81254386,2.02432848 C3.81254386,0.905888759 4.74870801,0 5.8975,0 L8.10321637,0 C9.2514138,0 10.1874561,0.906007941 10.1874561,2.02432848 L10.1874561,2.22371029 L14,2.22371029 Z" id="Combined-Shape"></path>
        </g>
    </g>
</svg>