<svg xmlns="http://www.w3.org/2000/svg" version="1.0" width="316.000000pt" height="322.000000pt" viewBox="0 0 316.000000 322.000000" preserveAspectRatio="xMidYMid meet">

<g transform="translate(0.000000,322.000000) scale(0.100000,-0.100000)" fill="#267801" stroke="none">
<path d="M1490 3180 c-262 -49 -499 -326 -625 -730 -22 -68 -29 -77 -68 -86 -37 -8 -196 -70 -282 -110 -167 -77 -354 -243 -419 -373 -124 -245 -76 -531 122 -728 128 -128 277 -214 506 -294 59 -20 112 -41 116 -46 4 -4 15 -33 25 -63 75 -239 177 -424 302 -547 84 -84 155 -129 255 -164 71 -25 98 -29 188 -29 128 1 172 10 275 60 206 100 357 303 474 639 20 57 43 108 51 112 8 4 56 22 105 39 117 40 211 84 300 140 73 46 225 169 225 182 0 13 -55 45 -137 81 -124 53 -136 54 -183 17 -60 -47 -231 -132 -244 -121 -8 7 -9 40 -2 116 5 58 7 107 5 109 -8 8 -155 34 -226 41 l-73 7 0 -68 c0 -38 -7 -116 -15 -174 -8 -58 -15 -108 -15 -111 0 -13 -32 -18 -202 -35 -296 -28 -836 -6 -858 35 -30 58 -49 541 -30 794 6 93 15 190 19 215 l6 47 105 13 c143 19 701 21 835 3 55 -7 106 -18 112 -25 15 -13 43 -211 43 -296 0 -31 2 -59 5 -62 5 -4 165 14 218 26 15 3 39 8 53 12 l27 5 -7 92 c-4 51 -9 100 -12 110 -10 32 26 31 99 -4 39 -19 99 -53 134 -76 34 -24 69 -43 76 -43 35 0 258 97 271 118 6 11 -83 97 -149 144 -69 49 -248 142 -315 163 -30 10 -59 21 -65 25 -5 4 -33 13 -62 20 -51 11 -53 14 -71 63 -11 29 -25 70 -32 92 -16 54 -47 125 -90 210 -110 217 -248 354 -427 426 -68 27 -92 32 -188 35 -60 1 -130 -1 -155 -6z m246 -311 c78 -34 139 -84 197 -162 63 -84 127 -205 127 -242 0 -23 -3 -25 -37 -20 -188 25 -544 33 -673 16 -36 -5 -90 -11 -120 -13 -49 -3 -55 -1 -58 17 -3 25 91 191 149 262 58 71 110 112 178 140 75 30 170 31 237 2z m-952 -881 c-3 -35 -8 -70 -11 -78 -13 -42 -21 -429 -12 -584 6 -92 8 -171 4 -174 -7 -7 -92 34 -187 89 -272 159 -330 417 -136 609 66 65 147 121 240 165 104 50 109 49 102 -27z m621 -1249 c124 -11 389 -7 573 7 68 6 82 4 82 -8 0 -21 -75 -171 -112 -226 -46 -67 -125 -140 -183 -170 -58 -29 -167 -41 -230 -23 -69 18 -146 73 -208 146 -63 75 -160 257 -150 282 5 12 16 14 52 9 25 -4 105 -11 176 -17z" fill="#267801"/>
</g>
</svg>