<?xml version="1.0" encoding="UTF-8"?>
<svg width="16px" height="16px" viewBox="0 0 16 16" version="1.1" xmlns="http://www.w3.org/2000/svg" xmlns:xlink="http://www.w3.org/1999/xlink">
    <!-- Generator: Sketch 62 (91390) - https://sketch.com -->
    <!--<title>icon/16/lock-small</title>-->
    <desc>Created with Sketch.</desc>
    <g id="icon/16/lock-small" stroke="none" stroke-width="1" fill="none" fill-rule="evenodd">
        <g id="126-padlock" transform="translate(1.500000, 0.000000)" fill="#92A6BC">
            <path d="M7.43760906,0 C9.28420214,0 10.7920819,1.46238888 10.7920819,3.26861902 L10.7920819,6 L13,6 L13,12.0718563 C13,14.240163 11.222216,16 9.04061809,16 L3.95938191,16 C1.77778404,16 0,14.240163 0,12.0718563 L0,6 L2.2079181,6 L2.2079181,3.26861902 C2.2079181,1.46238888 3.71579786,0 5.56239094,0 L7.43760906,0 Z M6.5,8.56287425 C5.70165906,8.56287425 5.05099073,9.20697395 5.05099073,10.005988 C5.05099073,10.4383622 5.24372154,10.837523 5.56412375,11.1074052 L5.56412375,11.1074052 L5.56412375,12.251497 C5.56412375,12.7694482 5.98454857,13.1856287 6.49896031,13.1856287 C7.01330246,13.1856287 7.43379686,12.7694242 7.43379686,12.251497 L7.43379686,12.251497 L7.43379686,11.1092174 C7.75540866,10.8393121 7.94900927,10.4393622 7.94900927,10.005988 C7.94900927,9.20697395 7.29834094,8.56287425 6.5,8.56287425 Z M7.43760906,1.86826347 L5.56239094,1.86826347 C4.73962616,1.86826347 4.07759122,2.50146603 4.07759122,3.26861902 L4.07759122,6 L8.92240878,6 L8.92240878,3.26861902 C8.92240878,2.50143196 8.26043326,1.86826347 7.43760906,1.86826347 Z" id="Shape"></path>
        </g>
    </g>
</svg>