<?xml version="1.0" encoding="UTF-8"?>
<svg width="16px" height="16px" viewBox="0 0 16 16" version="1.1" xmlns="http://www.w3.org/2000/svg" xmlns:xlink="http://www.w3.org/1999/xlink">
    <!-- Generator: Sketch 62 (91390) - https://sketch.com -->
    <!--<title>icon/16/search-small</title>-->
    <desc>Created with Sketch.</desc>
    <g id="icon/16/search-small" stroke="none" stroke-width="1" fill="none" fill-rule="evenodd">
        <g id="079-search" fill="#92A6BC">
            <path d="M10.0121951,0 C13.3140319,0 16,2.68596807 16,5.98780488 C16,9.28964168 13.3140319,11.9756098 10.0121951,11.9756098 C8.68474436,11.9756098 7.42158917,11.5396074 6.38767201,10.7506853 L5.54070996,11.5975745 L6.40293724,12.4598971 L3.45580742,15.4070269 C3.07370293,15.7891314 2.56473557,16 2.02439024,16 C1.48404492,16 0.975077554,15.7891314 0.592973067,15.4070269 C0.21086858,15.0249224 0,14.5159551 0,13.9756098 C0,13.4352644 0.21086858,12.9262971 0.592973067,12.5441926 L3.54010289,9.59706276 L4.40242547,10.45929 L5.24931468,9.61232799 C4.46039265,8.57841083 4.02439024,7.31525564 4.02439024,5.98780488 C4.02439024,2.68596807 6.71035832,0 10.0121951,0 Z M3.51273136,11.5 L1.70450527,13.3083146 C1.57281975,13.4398913 1.5,13.6156621 1.5,13.8019017 C1.5,13.9881414 1.57281975,14.1639122 1.70455769,14.2955413 C1.83617037,14.427154 2.01193535,14.5 2.19809826,14.5 C2.38426117,14.5 2.56002616,14.427154 2.6916854,14.2954947 L2.6916854,14.2954947 L4.5,12.4872686 L3.51273136,11.5 Z M10.0121951,1.6097561 C7.59823544,1.6097561 5.63414634,3.5738452 5.63414634,5.98780488 C5.63414634,8.40176456 7.59823544,10.3658537 10.0121951,10.3658537 C12.4261548,10.3658537 14.3902439,8.40176456 14.3902439,5.98780488 C14.3902439,3.5738452 12.4261548,1.6097561 10.0121951,1.6097561 Z" id="Shape"></path>
        </g>
    </g>
</svg>