<?xml version="1.0" encoding="UTF-8"?>
<svg width="16px" height="16px" viewBox="0 0 16 16" version="1.1" xmlns="http://www.w3.org/2000/svg" xmlns:xlink="http://www.w3.org/1999/xlink">
    <!-- Generator: Sketch 62 (91390) - https://sketch.com -->
    <!--<title>icon/16/settings-small</title>-->
    <desc>Created with Sketch.</desc>
    <g id="icon/16/settings-small" stroke="none" stroke-width="1" fill="none" fill-rule="evenodd">
        <g id="106-settings" fill="#FFFFFF">
            <path d="M9.47080077,16 L6.52919922,16 L6.38173827,14.5532227 C6.34003905,14.1439453 6.07509765,13.7911133 5.69033202,13.6326172 L5.66171875,13.6206055 C5.27109375,13.4572266 4.83007812,13.5170899 4.51064452,13.7768555 L3.38876952,14.6888672 L1.35595702,12.6052735 L2.23779297,11.4932617 C2.49101562,11.1740235 2.54785155,10.737793 2.38623047,10.3546875 C2.3798828,10.3397461 2.37382812,10.3248047 2.36767577,10.309961 C2.20888672,9.92490235 1.8560547,9.6600586 1.44677735,9.61826173 L-2.84217094e-14,9.47080078 L-2.84217094e-14,6.52919923 L1.44677735,6.38173828 C1.8560547,6.34003905 2.20888672,6.07509765 2.36757812,5.69033203 L2.3794922,5.66132813 C2.5428711,5.27109375 2.48291015,4.83007813 2.22314452,4.51054688 L1.315625,3.39433595 L3.39433595,1.315625 L4.51064452,2.22314453 C4.83007812,2.48291015 5.27109375,2.5428711 5.66152345,2.3794922 L5.690625,2.3673828 C6.07509765,2.20888673 6.34003905,1.8560547 6.38183595,1.44677735 L6.52919922,8.52651283e-14 L9.47080077,8.52651283e-14 L9.61640625,1.42890625 C9.6591797,1.84765625 9.93183595,2.21015625 10.328125,2.37509765 L10.3488281,2.38378905 C10.7388672,2.54785155 11.183789,2.49208985 11.5099609,2.2383789 L12.6456055,1.35546875 L14.6445312,3.35439453 L13.7616211,4.48984375 C13.5079101,4.81621095 13.4521484,5.2609375 13.6161133,5.65078125 L13.6245117,5.67109375 C13.7898437,6.06816405 14.1523437,6.3408203 14.5710937,6.38359375 L16,6.52919923 L16,9.47080078 L14.5532226,9.61826173 C14.1439453,9.65996095 13.7911133,9.92490235 13.6324219,10.309668 L13.6206055,10.3382813 C13.4572265,10.7289063 13.5171875,11.1699219 13.7768555,11.4894531 L14.6844726,12.6056641 L12.605664,14.684375 L11.4894531,13.7768555 C11.1699219,13.5170899 10.7290039,13.4572266 10.3386719,13.6205078 L10.3103515,13.6322266 C9.92490235,13.7911133 9.6600586,14.1439453 9.61826172,14.5532227 L9.47080077,16 Z M8,11.59375 C6.01845702,11.59375 4.40625,9.98154298 4.40625,8 C4.40625,6.01845703 6.01845702,4.40625 8,4.40625 C9.98154297,4.40625 11.59375,6.01845703 11.59375,8 C11.59375,9.98154298 9.98154297,11.59375 8,11.59375 Z" id="Shape"></path>
        </g>
    </g>
</svg>