<?xml version="1.0" encoding="UTF-8"?>
<svg width="16px" height="16px" viewBox="0 0 16 16" version="1.1" xmlns="http://www.w3.org/2000/svg" xmlns:xlink="http://www.w3.org/1999/xlink">
    <!-- Generator: Sketch 62 (91390) - https://sketch.com -->
    <!--<title>icon/16/star-small-select</title>-->
    <desc>Created with Sketch.</desc>
    <g id="icon/16/star-small-select" stroke="none" stroke-width="1" fill="none" fill-rule="evenodd">
        <path d="M10.7536123,5.01766735 L15.3801508,5.66196254 C15.6526905,5.7038726 15.8777771,5.89095626 15.963524,6.14828181 C16.0513843,6.41194956 15.9772024,6.70138135 15.7767678,6.88241902 L12.4675212,10.0469803 L12.4291089,10.1264247 L13.2164992,14.5582662 C13.2372613,14.6300242 13.245631,14.6873744 13.245631,14.7556744 C13.245631,15.1500555 12.9168886,15.4721352 12.5162222,15.4721352 C12.4013819,15.4721352 12.2890265,15.4452069 12.1784565,15.3909587 L8.08923751,13.2852499 L7.99848937,13.2745219 L3.87998393,15.4128046 C3.77213083,15.4709095 3.65621622,15.5 3.53361298,15.5 C3.38069466,15.5 3.22937937,15.451873 3.11058294,15.3657618 C2.88105738,15.20508 2.76615795,14.9324011 2.81458157,14.6635865 L3.59351885,10.2010939 L3.57657763,10.1140964 L0.227865152,6.93375065 C0.0237010258,6.7444846 -0.0513401734,6.45610482 0.0357583157,6.1947232 C0.121781861,5.93656748 0.347473042,5.75017686 0.624749146,5.70756967 L5.20056474,5.05206692 L5.27969884,5.00929418 L7.33137144,0.901989972 C7.45449364,0.655445807 7.70771521,0.5 7.98542317,0.5 C8.26135385,0.5 8.5143613,0.653667931 8.63872262,0.897396899 L10.7104157,4.97833876 L10.7536123,5.01766735 Z" id="Shape" fill="#373737"></path>
    </g>
</svg>