<?xml version="1.0" encoding="UTF-8"?>
<svg width="46px" height="46px" viewBox="0 0 46 46" version="1.1" xmlns="http://www.w3.org/2000/svg" xmlns:xlink="http://www.w3.org/1999/xlink">
    <!-- Generator: Sketch 63.1 (92452) - https://sketch.com -->
    <!--<title>illustrazione/functional/beni</title>-->
    <desc>Created with Sketch.</desc>
    <g id="illustrazione/functional/beni" stroke="none" stroke-width="1" fill="none" fill-rule="evenodd">
        <g id="groceries" transform="translate(5.000000, 0.000000)">
            <path d="M5.08663636,17.1785357 C4.81254545,17.1785357 4.54418182,17.0397143 4.38954545,16.7875357 C3.88718182,15.9702143 2.94872727,15.02475 1.87118182,15.05925 C1.413,15.0346071 1.04154545,14.7158929 1.02845455,14.2632857 C1.01454545,13.8090357 1.36963636,13.4303571 1.82127273,13.4163929 C3.54518182,13.3646429 5.01545455,14.6764643 5.78209091,15.9258571 C6.01936364,16.3119286 5.89990909,16.8179286 5.51536364,17.0561429 C5.382,17.1391071 5.23309091,17.1785357 5.08663636,17.1785357 Z" id="Path" fill="#284A3D" fill-rule="nonzero"></path>
            <path d="M21.8323636,6.24039286 C21.7227273,4.64025 20.3980909,3.37525 18.7764545,3.37525 C18.7715455,3.37525 18.7674545,3.37607143 18.7625455,3.37607143 C18.7911818,3.13375 18.7748182,2.87746429 18.6970909,2.6105 C18.4778182,1.85971429 17.82,1.28307143 17.046,1.19025 C16.4110909,1.11467857 15.8285455,1.34303571 15.4202727,1.748 C15.0316364,1.39560714 14.5227273,1.17546429 13.9581818,1.17546429 C12.7480909,1.17546429 11.7679091,2.16035714 11.7679091,3.37442857 C11.7679091,3.37853571 11.7687273,3.38182143 11.7687273,3.38592857 C10.2984545,3.49764286 9.13909091,4.72896429 9.13909091,6.23382143 C9.13909091,6.46382143 9.16936364,6.68642857 9.22009091,6.90082143 C7.47,6.97392857 6.07254545,8.418 6.07254545,10.1931071 C6.07254545,10.7943929 6.23536364,11.35625 6.51518182,11.8417143 C5.97763636,12.2852857 5.634,12.9580357 5.634,13.7112857 C5.634,14.3996429 5.92445455,15.0165357 6.38427273,15.456 C8.35772727,13.8369643 10.431,19.2518214 12.8724545,23.575 C13.6832727,25.0108571 22.4435455,23.4813571 23.1414545,24.3734286 C23.9367273,23.6555 24.4505455,11.1533571 24.4726364,10.0551071 C24.507,8.29314286 23.3926364,6.78992857 21.8323636,6.24039286 Z" id="Path" fill="#76D37E" fill-rule="nonzero"></path>
            <path d="M22.9524545,22.6163929 L23.5358182,22.2656429 C24.6158182,21.6150714 25.9641818,21.6150714 27.0433636,22.2656429 L27.6267273,22.6163929 C28.7067273,23.2669643 30.0550909,23.2669643 31.1342727,22.6163929 L32.7829091,21.8803929 C33.0250909,21.2018929 33.1936364,20.7106786 33.2607273,20.493 C34.7989091,15.5258214 35.7897273,10.2957857 35.9247273,5.07889286 C35.9787273,2.98096429 34.2507273,-0.290785714 31.3797273,1.196 C28.5578182,2.6565 26.5369091,8.25782143 25.1165455,10.9176071 C23.0989091,14.697 21.5034545,18.8074286 20.367,22.9958929 C21.2326364,23.2152143 22.1637273,23.0911786 22.9524545,22.6163929 Z" id="Path" fill="#C6805A" fill-rule="nonzero"></path>
            <path d="M1.68136364,21.7727857 L2.78181818,22.4356786 C4.04590909,23.1971429 5.625,23.1971429 6.88909091,22.4356786 L7.17218182,22.2648214 C8.25218182,21.61425 9.60054545,21.61425 10.6797273,22.2648214 L11.2630909,22.6155714 C11.8971818,22.9975357 12.6237273,23.1486786 13.3339091,23.0821429 C13.8575455,21.38425 13.6816364,19.2616786 12.87,17.825 C10.1405455,12.9908929 7.87009091,13.9757857 5.68554545,16.0745357 C5.26663636,16.4770357 4.75445455,16.7719286 4.19645455,16.9321071 C1.80081818,17.6196429 0.0327272727,18.7441786 1.03827273,21.8064643 C1.21581818,21.6766786 1.46290909,21.6413571 1.68136364,21.7727857 Z" id="Path" fill="#EE5019" fill-rule="nonzero"></path>
            <path d="M25.0298182,20.8281429 C24.9430909,20.8281429 24.8539091,20.8141786 24.7671818,20.7846071 C24.3392727,20.6383929 24.1101818,20.1718214 24.2558182,19.7422143 C24.8015455,18.1305714 26.5540909,17.2680714 28.1569091,17.8102143 C28.9088182,18.0673214 29.7278182,17.6615357 29.9830909,16.9066429 C30.1279091,16.4770357 30.591,16.2453929 31.0213636,16.3924286 C31.4492727,16.5386429 31.6783636,17.0052143 31.5327273,17.4348214 C30.9878182,19.0472857 29.2369091,19.9130714 27.6316364,19.3668214 C26.8805455,19.1105357 26.0615455,19.5171429 25.8054545,20.2703929 C25.6884545,20.61375 25.3701818,20.8281429 25.0298182,20.8281429 Z" id="Path" fill="#8A512E"></path>
            <path d="M26.9648182,15.10525 C26.8780909,15.10525 26.7889091,15.0912857 26.7021818,15.0617143 C26.2742727,14.9155 26.0451818,14.4489286 26.1908182,14.0193214 C26.4550909,13.2381429 27.0065455,12.6064643 27.7429091,12.24175 C28.4792727,11.8770357 29.313,11.822 30.0919091,12.0873214 C30.8454545,12.34525 31.6628182,11.9386429 31.9180909,11.1829286 C32.0629091,10.7525 32.5276364,10.5216786 32.9555455,10.6687143 C33.3834545,10.8149286 33.6125455,11.2815 33.4669091,11.7111071 C32.922,13.3243929 31.1710909,14.1885357 29.5658182,13.6439286 C29.2017273,13.5190714 28.8106364,13.5445357 28.4661818,13.7153929 C28.1217273,13.88625 27.864,14.1811429 27.7396364,14.5475 C27.6242727,14.8900357 27.306,15.10525 26.9648182,15.10525 Z" id="Path" fill="#8A512E"></path>
            <path d="M28.9006364,9.38153571 C28.8139091,9.38153571 28.7247273,9.36757143 28.6371818,9.338 C28.2092727,9.19178571 27.9801818,8.72521429 28.1258182,8.29560714 C28.6036364,6.88110714 30.141,6.12210714 31.5499091,6.60017857 C31.8199091,6.69217857 32.1079091,6.67410714 32.3623636,6.54842857 C32.6168182,6.42275 32.8074545,6.20425 32.8990909,5.934 C33.0439091,5.50439286 33.5078182,5.27357143 33.9373636,5.41978571 C34.3652727,5.566 34.5943636,6.03257143 34.4487273,6.46217857 C34.2163636,7.14807143 33.7328182,7.70253571 33.0864545,8.02207143 C32.4392727,8.34242857 31.707,8.38925 31.0238182,8.15678571 C30.4690909,7.96703571 29.8636364,8.26685714 29.6754545,8.82460714 C29.5592727,9.16632143 29.241,9.38153571 28.9006364,9.38153571 Z" id="Path" fill="#8A512E"></path>
            <path d="M15.03,12.3994643 C14.2568182,13.432 13.0369091,14.6542857 13.5065455,16.813 L14.7698182,22.6163929 C14.7698182,22.6163929 14.7706364,22.6163929 14.7706364,22.6163929 L15.354,22.2656429 C16.434,21.6150714 17.7823636,21.6150714 18.8615455,22.2656429 L19.4449091,22.6163929 C19.9194545,22.90225 20.367,22.9967143 20.367,22.9967143 C21.2195455,19.8563929 22.3298182,16.7596071 23.6822727,13.8139643 C23.049,12.2236786 21.6965455,11.6913929 20.7147273,11.1467857 C20.709,11.1435 20.7032727,11.1402143 20.6983636,11.13775 C20.0773636,10.7804286 20.0389091,9.92696429 20.5060909,9.38317857 C20.6901818,9.16878571 20.7752727,8.87389286 20.7114545,8.57817857 L20.6124545,8.12475 C20.5036364,7.62532143 20.0078182,7.30660714 19.5111818,7.41585714 L14.5390909,8.50507143 C14.0416364,8.61432143 13.7241818,9.11210714 13.833,9.61071429 L13.932,10.0641429 C13.9974545,10.3664286 14.2052727,10.6005357 14.4687273,10.7147143 C15.0733636,10.97675 15.4423636,11.6544286 15.1330909,12.2384643 C15.1036364,12.2935 15.0692727,12.3468929 15.03,12.3994643 Z" id="Path" fill="#E9EDF2" fill-rule="nonzero"></path>
            <path d="M20.2467273,9.77417857 L14.6184545,11.0087857 C13.9974545,11.1451429 13.3772727,10.7459286 13.2414545,10.1224643 L13.1604545,9.75117857 C13.0246364,9.12771429 13.4222727,8.50507143 14.0432727,8.36871429 L19.6715455,7.13410714 C20.2925455,6.99775 20.9127273,7.39696429 21.0485455,8.02042857 L21.1295455,8.39171429 C21.2653636,9.016 20.8677273,9.63782143 20.2467273,9.77417857 Z" id="Path" fill="#FFFFFF"></path>
            <path d="M34.2130909,21.6298571 L32.7853636,42.1893929 C32.6806364,44.2421429 30.9927273,45.8521429 28.9456364,45.8521429 L5.97845455,45.8521429 C3.93136364,45.8521429 2.24345455,44.2421429 2.13872727,42.1893929 L0.745363636,22.30425 C0.721636364,21.8368571 1.22645455,21.5321071 1.62654545,21.7727857 L2.727,22.4356786 C3.99109091,23.1971429 5.57018182,23.1971429 6.83427273,22.4356786 L7.11736364,22.2648214 C8.19736364,21.61425 9.54572727,21.61425 10.6249091,22.2648214 L11.2082727,22.6163929 C12.2882727,23.2669643 13.6366364,23.2669643 14.7158182,22.6163929 L15.2991818,22.2648214 C16.3791818,21.61425 17.7275455,21.61425 18.8067273,22.2648214 L19.3900909,22.6163929 C20.4700909,23.2669643 21.8184545,23.2669643 22.8976364,22.6163929 L23.481,22.2648214 C24.561,21.61425 25.9093636,21.61425 26.9885455,22.2648214 L27.5719091,22.6163929 C28.6519091,23.2669643 30.0002727,23.2669643 31.0794545,22.6163929 L33.8506364,21.3801429 C34.0265455,21.3012857 34.2229091,21.4368214 34.2130909,21.6298571 Z" id="Path" fill="#FAE7B7" fill-rule="nonzero"></path>
            <path d="M10.5627273,35.3214286 L4.83545455,35.3214286 C4.38381818,35.3214286 4.01727273,34.95425 4.01727273,34.5 C4.01727273,34.04575 4.38381818,33.6785714 4.83545455,33.6785714 L10.5627273,33.6785714 C11.0143636,33.6785714 11.3809091,34.04575 11.3809091,34.5 C11.3809091,34.95425 11.0143636,35.3214286 10.5627273,35.3214286 Z" id="Path" fill="#F6D57D" fill-rule="nonzero"></path>
            <path d="M12.1990909,38.6071429 L4.83545455,38.6071429 C4.38381818,38.6071429 4.01727273,38.2399643 4.01727273,37.7857143 C4.01727273,37.3314643 4.38381818,36.9642857 4.83545455,36.9642857 L12.1990909,36.9642857 C12.6507273,36.9642857 13.0172727,37.3314643 13.0172727,37.7857143 C13.0172727,38.2399643 12.6507273,38.6071429 12.1990909,38.6071429 Z" id="Path" fill="#F6D57D" fill-rule="nonzero"></path>
            <path d="M13.8354545,41.8928571 L4.83545455,41.8928571 C4.38381818,41.8928571 4.01727273,41.5256786 4.01727273,41.0714286 C4.01727273,40.6171786 4.38381818,40.25 4.83545455,40.25 L13.8354545,40.25 C14.2870909,40.25 14.6536364,40.6171786 14.6536364,41.0714286 C14.6536364,41.5256786 14.2870909,41.8928571 13.8354545,41.8928571 Z" id="Path" fill="#F6D57D" fill-rule="nonzero"></path>
            <path d="M18.7445455,41.8928571 L17.1081818,41.8928571 C16.6565455,41.8928571 16.29,41.5256786 16.29,41.0714286 C16.29,40.6171786 16.6565455,40.25 17.1081818,40.25 L18.7445455,40.25 C19.1961818,40.25 19.5627273,40.6171786 19.5627273,41.0714286 C19.5627273,41.5256786 19.1961818,41.8928571 18.7445455,41.8928571 Z" id="Path" fill="#F6D57D" fill-rule="nonzero"></path>
        </g>
    </g>
</svg>