<?xml version="1.0" encoding="UTF-8"?>
<svg width="46px" height="46px" viewBox="0 0 46 46" version="1.1" xmlns="http://www.w3.org/2000/svg" xmlns:xlink="http://www.w3.org/1999/xlink">
    <!-- Generator: Sketch 63.1 (92452) - https://sketch.com -->
    <!--<title>illustrazione/functional/formazione</title>-->
    <desc>Created with Sketch.</desc>
    <g id="illustrazione/functional/formazione" stroke="none" stroke-width="1" fill="none" fill-rule="evenodd">
        <g id="university" transform="translate(0.000000, 4.000000)" fill-rule="nonzero">
            <path d="M40.7058672,29.867411 C40.7058672,31.8354863 39.5221758,33.6109658 37.6980781,34.3886507 C34.5817578,35.7173219 29.2902305,37.4631507 23,37.4631507 C16.7097695,37.4631507 11.4182422,35.717411 8.30192187,34.3886507 C6.47782422,33.6109658 5.29413281,31.8353973 5.29413281,29.867411 L5.29413281,10.8167123 L40.7058672,10.8167123 L40.7058672,29.867411 L40.7058672,29.867411 Z" id="Path" fill="#636363"></path>
            <path d="M5.29422266,10.8167123 L5.29422266,29.867411 C5.29422266,31.8338836 6.47575781,33.6097192 8.29832813,34.3870479 C11.4141992,35.7158973 16.7073437,37.4630616 23,37.4630616 C23.3134648,37.4630616 23.6236953,37.4575411 23.9321289,37.4491712 C23.5410391,36.5110342 23.3760859,35.5855411 23.3261328,34.7806986 C23.2367383,33.3380548 24.0155938,31.9788425 25.2993711,31.2933151 L40.7058672,23.0656507 L40.7058672,10.8167123 L5.29422266,10.8167123 Z" id="Path" fill="#373737"></path>
            <path d="M19.7693086,0.852568493 L1.35744922,10.9017466 C-0.452453125,11.8895685 -0.452453125,14.4673973 1.35744922,15.4552192 L19.7693086,25.5043973 C21.7807305,26.6021849 24.2193594,26.6021849 26.2307813,25.5043973 L44.6426406,15.4552192 C46.452543,14.4673973 46.452543,11.8895685 44.6426406,10.9017466 L26.2307813,0.852568493 C24.2193594,-0.245219178 21.7807305,-0.245219178 19.7693086,0.852568493 Z" id="Path" fill="#636363"></path>
            <ellipse id="Oval" fill="#FFD949" cx="23" cy="13.1780822" rx="3.36348047" ry="2.00021918"></ellipse>
            <path d="M35.3681602,30.9943151 C34.984707,30.9943151 34.6740273,30.686411 34.6740273,30.3063836 L34.6740273,20.9071164 L22.6435,13.7686027 C22.314582,13.5734247 22.2075781,13.1510137 22.4045156,12.8250342 C22.6014531,12.4989658 23.0276719,12.3930068 23.3565898,12.5881849 L35.72475,19.9270411 C35.9341758,20.0512534 36.062293,20.2754589 36.062293,20.5172945 L36.062293,30.3064726 C36.062293,30.686411 35.7515234,30.9943151 35.3681602,30.9943151 Z" id="Path" fill="#FFB900"></path>
            <path d="M37.5295312,33.2006644 L37.5295312,38.0244658 C37.5295312,38.547137 37.1020547,38.9707945 36.5746719,38.9707945 L34.2249883,38.9707945 C33.6976055,38.9707945 33.2701289,38.547137 33.2701289,38.0244658 L33.2701289,33.1306781 C33.2701289,31.951774 34.245293,30.9987671 35.4396758,31.0204041 C36.6121367,31.0416849 37.5295312,32.038589 37.5295312,33.2006644 Z" id="Path" fill="#FFB900"></path>
            <ellipse id="Oval" fill="#FFD949" cx="35.3996953" cy="30.8275411" rx="2.12965625" ry="2.11063014"></ellipse>
        </g>
    </g>
</svg>