<?xml version="1.0" encoding="UTF-8"?>
<svg width="46px" height="46px" viewBox="0 0 46 46" version="1.1" xmlns="http://www.w3.org/2000/svg" xmlns:xlink="http://www.w3.org/1999/xlink">
    <!-- Generator: Sketch 63.1 (92452) - https://sketch.com -->
    <!--<title>illustrazione/functional/spese</title>-->
    <desc>Created with Sketch.</desc>
    <defs>
        <linearGradient x1="56.2924862%" y1="5.31049241%" x2="43.6829286%" y2="94.641772%" id="linearGradient-1">
            <stop stop-color="#DADFE3" offset="0%"></stop>
            <stop stop-color="#C3CBD2" offset="100%"></stop>
        </linearGradient>
        <linearGradient x1="60.8634026%" y1="8.43486138%" x2="39.2033088%" y2="91.6525188%" id="linearGradient-2">
            <stop stop-color="#F1F2F2" offset="0%"></stop>
            <stop stop-color="#ECEDED" offset="33.23%"></stop>
            <stop stop-color="#E6E7E8" offset="100%"></stop>
        </linearGradient>
        <linearGradient x1="32.0345343%" y1="1.55241935%" x2="68.6147893%" y2="100.198387%" id="linearGradient-3">
            <stop stop-color="#3F4042" offset="0%"></stop>
            <stop stop-color="#3D3E40" offset="17.17%"></stop>
            <stop stop-color="#373638" offset="100%"></stop>
        </linearGradient>
        <linearGradient x1="32.3196528%" y1="1.36416667%" x2="68.3201389%" y2="100.394167%" id="linearGradient-4">
            <stop stop-color="#58595B" offset="0%"></stop>
            <stop stop-color="#48484A" offset="56.33%"></stop>
            <stop stop-color="#414042" offset="100%"></stop>
        </linearGradient>
        <linearGradient x1="50%" y1="1.57898386e-13%" x2="50%" y2="100%" id="linearGradient-5">
            <stop stop-color="#FFFFFF" offset="0%"></stop>
            <stop stop-color="#DDDEDE" offset="93.51%"></stop>
            <stop stop-color="#DADBDC" offset="100%"></stop>
        </linearGradient>
        <linearGradient x1="50%" y1="-7.89491929e-14%" x2="50%" y2="100%" id="linearGradient-6">
            <stop stop-color="#FFFFFF" offset="0%"></stop>
            <stop stop-color="#DDDEDE" offset="93.51%"></stop>
            <stop stop-color="#DADBDC" offset="100%"></stop>
        </linearGradient>
        <linearGradient x1="50%" y1="-7.63846154%" x2="50%" y2="98.9653846%" id="linearGradient-7">
            <stop stop-color="#FFC863" offset="0%"></stop>
            <stop stop-color="#FFB76A" offset="100%"></stop>
        </linearGradient>
        <linearGradient x1="50.0062492%" y1="0%" x2="50.0062492%" y2="100%" id="linearGradient-8">
            <stop stop-color="#FFFFFF" offset="0%"></stop>
            <stop stop-color="#DDDEDE" offset="93.51%"></stop>
            <stop stop-color="#DADBDC" offset="100%"></stop>
        </linearGradient>
        <linearGradient x1="50%" y1="0%" x2="50%" y2="100%" id="linearGradient-9">
            <stop stop-color="#FFFFFF" offset="0%"></stop>
            <stop stop-color="#DDDEDE" offset="93.51%"></stop>
            <stop stop-color="#DADBDC" offset="100%"></stop>
        </linearGradient>
        <linearGradient x1="50%" y1="0%" x2="50%" y2="100%" id="linearGradient-10">
            <stop stop-color="#FFFFFF" offset="0%"></stop>
            <stop stop-color="#DDDEDE" offset="93.51%"></stop>
            <stop stop-color="#DADBDC" offset="100%"></stop>
        </linearGradient>
    </defs>
    <g id="illustrazione/functional/spese" stroke="none" stroke-width="1" fill="none" fill-rule="evenodd">
        <g id="calculator" transform="translate(3.000000, 3.000000)" fill-rule="nonzero">
            <polygon id="Path" fill="url(#linearGradient-1)" points="37.5654839 4.10612903 36.4332258 5.0983871 35.7612903 3.75129032 34.6293548 4.74387097 33.9574194 3.39677419 32.8254839 4.38903226 32.1535484 3.04193548 31.0212903 4.03451613 30.3493548 2.68709677 29.2174194 3.67967742 28.5454839 2.33258065 27.4135484 3.32483871 26.7412903 1.97774194 25.6093548 2.97032258 24.9374194 1.62322581 23.8054839 2.61548387 23.1335484 1.2683871 22.0012903 2.26096774 21.3293548 0.913548387 20.1974194 1.90612903 19.526129 0.560322581 13.676129 30.3119355 31.7177419 33.8593548 37.5674194 4.11"></polygon>
            <g id="Group" transform="translate(14.838710, 3.870968)" fill="#A9B2B5">
                <polygon id="Path" transform="translate(13.020019, 1.932243) rotate(11.130111) translate(-13.020019, -1.932243) " points="4.95707531 1.60972549 21.0829621 1.60972549 21.0829621 2.25476096 4.95707531 2.25476096"></polygon>
                <polygon id="Path" transform="translate(12.646409, 3.830841) rotate(11.130111) translate(-12.646409, -3.830841) " points="4.58346596 3.50832323 20.7093527 3.50832323 20.7093527 4.1533587 4.58346596 4.1533587"></polygon>
                <polygon id="Path" transform="translate(12.272800, 5.729439) rotate(11.130111) translate(-12.272800, -5.729439) " points="4.2098566 5.40692097 20.3357434 5.40692097 20.3357434 6.05195645 4.2098566 6.05195645"></polygon>
                <polygon id="Path" transform="translate(11.525835, 9.527013) rotate(11.130111) translate(-11.525835, -9.527013) " points="3.46289209 9.20449517 19.5887789 9.20449517 19.5887789 9.84953064 3.46289209 9.84953064"></polygon>
                <polygon id="Path" transform="translate(11.152543, 11.425350) rotate(11.130111) translate(-11.152543, -11.425350) " points="3.08959919 11.1028326 19.215486 11.1028326 19.215486 11.7478681 3.08959919 11.7478681"></polygon>
                <polygon id="Path" transform="translate(10.405584, 15.222862) rotate(11.130111) translate(-10.405584, -15.222862) " points="2.3426408 14.9003445 18.4685276 14.9003445 18.4685276 15.54538 2.3426408 15.54538"></polygon>
                <polygon id="Path" transform="translate(10.032291, 17.121522) rotate(11.130111) translate(-10.032291, -17.121522) " points="1.9693479 16.7990045 18.0952347 16.7990045 18.0952347 17.44404 1.9693479 17.44404"></polygon>
                <polygon id="Path" transform="translate(9.658682, 19.020120) rotate(11.130111) translate(-9.658682, -19.020120) " points="1.59573854 18.6976023 17.7216253 18.6976023 17.7216253 19.3426377 1.59573854 19.3426377"></polygon>
                <polygon id="Path" transform="translate(8.911717, 22.817694) rotate(11.130111) translate(-8.911717, -22.817694) " points="0.848774024 22.4951765 16.9746608 22.4951765 16.9746608 23.1402119 0.848774024 23.1402119"></polygon>
                <polygon id="Path" transform="translate(8.538108, 24.716292) rotate(11.130111) translate(-8.538108, -24.716292) " points="0.475164669 24.3937742 16.6010515 24.3937742 16.6010515 25.0388097 0.475164669 25.0388097"></polygon>
                <polygon id="Path" transform="translate(8.164815, 26.614952) rotate(11.130111) translate(-8.164815, -26.614952) " points="0.101871766 26.2924342 16.2277586 26.2924342 16.2277586 26.9374697 0.101871766 26.9374697"></polygon>
            </g>
            <polygon id="Path" fill="url(#linearGradient-2)" points="39.9983871 11.2319355 38.7493548 12.0722581 38.2541935 10.6506452 37.0051613 11.4909677 36.51 10.0693548 35.2609677 10.9096774 34.7658065 9.48806452 33.5167742 10.3283871 33.0216129 8.90677419 31.7725806 9.74741935 31.2774194 8.32548387 30.0283871 9.16612903 29.5332258 7.74419355 28.2841935 8.58483871 27.7890323 7.16290323 26.54 8.00354839 26.0448387 6.5816129 24.7958065 7.42225806 24.3006452 6.00064516 23.0512903 6.84096774 22.5567742 5.42064516 12.9703226 34.1867742 30.4145161 40 40 11.236129"></polygon>
            <polygon id="Path" fill="#D1D3D4" transform="translate(30.172201, 11.679755) rotate(18.416834) translate(-30.172201, -11.679755) " points="22.1058426 11.3571002 38.23856 11.3571002 38.23856 12.0024089 22.1058426 12.0024089"></polygon>
            <polygon id="Path" fill="#D1D3D4" transform="translate(29.560613, 13.516611) rotate(18.416834) translate(-29.560613, -13.516611) " points="21.4942539 13.1939569 37.6269712 13.1939569 37.6269712 13.8392656 21.4942539 13.8392656"></polygon>
            <polygon id="Path" fill="#D1D3D4" transform="translate(28.948701, 15.353145) rotate(18.416834) translate(-28.948701, -15.353145) " points="20.8823426 15.0304911 37.01506 15.0304911 37.01506 15.6757998 20.8823426 15.6757998"></polygon>
            <polygon id="Path" fill="#D1D3D4" transform="translate(27.725099, 19.027165) rotate(18.416834) translate(-27.725099, -19.027165) " points="19.6587407 18.7045108 35.791458 18.7045108 35.791458 19.3498195 19.6587407 19.3498195"></polygon>
            <polygon id="Path" fill="#D1D3D4" transform="translate(27.113188, 20.863699) rotate(18.416834) translate(-27.113188, -20.863699) " points="19.0468294 20.541045 35.1795467 20.541045 35.1795467 21.1863537 19.0468294 21.1863537"></polygon>
            <polygon id="Path" fill="#D1D3D4" transform="translate(25.889688, 24.537413) rotate(18.416834) translate(-25.889688, -24.537413) " points="17.8233294 24.2147586 33.9560467 24.2147586 33.9560467 24.8600672 17.8233294 24.8600672"></polygon>
            <polygon id="Path" fill="#D1D3D4" transform="translate(25.277675, 26.374576) rotate(18.416834) translate(-25.277675, -26.374576) " points="17.2113162 26.0519215 33.3440335 26.0519215 33.3440335 26.6972302 17.2113162 26.6972302"></polygon>
            <polygon id="Path" fill="#D1D3D4" transform="translate(24.665764, 28.211110) rotate(18.416834) translate(-24.665764, -28.211110) " points="16.5994049 27.8884557 32.7321222 27.8884557 32.7321222 28.5337643 16.5994049 28.5337643"></polygon>
            <polygon id="Path" fill="#D1D3D4" transform="translate(23.442264, 31.884824) rotate(18.416834) translate(-23.442264, -31.884824) " points="15.3759049 31.5621692 31.5086222 31.5621692 31.5086222 32.2074779 15.3759049 32.2074779"></polygon>
            <polygon id="Path" fill="#D1D3D4" transform="translate(22.830250, 33.721664) rotate(18.416834) translate(-22.830250, -33.721664) " points="14.7638917 33.3990095 30.896609 33.3990095 30.896609 34.0443182 14.7638917 34.0443182"></polygon>
            <polygon id="Path" fill="#D1D3D4" transform="translate(22.218662, 35.558521) rotate(18.416834) translate(-22.218662, -35.558521) " points="14.152303 35.2358663 30.2850203 35.2358663 30.2850203 35.881175 14.152303 35.881175"></polygon>
            <path d="M25.1612903,37.4006452 C25.1612903,38.8354839 24.0135484,40 22.5990323,40 L2.5616129,40 C1.14645161,40 0,38.8354839 0,37.4006452 L0,2.5983871 C0,1.16322581 1.14645161,0 2.5616129,0 L22.5990323,0 C24.0135484,0 25.1612903,1.16322581 25.1612903,2.5983871 L25.1612903,37.4006452 Z" id="Path" fill="url(#linearGradient-3)"></path>
            <path d="M2.56129032,39.3548387 C1.50483871,39.3548387 0.64516129,38.4783871 0.64516129,37.4006452 L0.64516129,2.5983871 C0.64516129,1.52129032 1.50483871,0.64516129 2.56129032,0.64516129 L22.5987097,0.64516129 C23.656129,0.64516129 24.516129,1.52129032 24.516129,2.5983871 L24.516129,37.4006452 C24.516129,38.4780645 23.656129,39.3548387 22.5990323,39.3548387 L2.56129032,39.3548387 Z" id="Path" fill="url(#linearGradient-4)"></path>
            <polygon id="Path" fill="#258EAB" points="2.58064516 4.19354839 22.5806452 4.19354839 22.5806452 12.5806452 2.58064516 12.5806452"></polygon>
            <path d="M3.01870968,24.1935484 L7.30387097,24.1935484 C7.54580645,24.1935484 7.74193548,23.9974194 7.74193548,23.7554839 L7.74193548,21.7283871 C7.74193548,21.4864516 7.54580645,21.2903226 7.30387097,21.2903226 L3.01870968,21.2903226 C2.77677419,21.2903226 2.58064516,21.4864516 2.58064516,21.7283871 L2.58064516,23.7554839 C2.58064516,23.9974194 2.77677419,24.1935484 3.01870968,24.1935484 Z" id="Path" fill="url(#linearGradient-5)"></path>
            <path d="M3.01870968,18.7096774 L7.30387097,18.7096774 C7.54580645,18.7096774 7.74193548,18.5135484 7.74193548,18.2716129 L7.74193548,16.2445161 C7.74193548,16.0025806 7.54580645,15.8064516 7.30387097,15.8064516 L3.01870968,15.8064516 C2.77677419,15.8064516 2.58064516,16.0025806 2.58064516,16.2445161 L2.58064516,18.2716129 C2.58064516,18.5135484 2.77677419,18.7096774 3.01870968,18.7096774 Z" id="Path" fill="url(#linearGradient-6)"></path>
            <path d="M3.01870968,35.1612903 L7.30387097,35.1612903 C7.54580645,35.1612903 7.74193548,34.9651613 7.74193548,34.7232258 L7.74193548,32.696129 C7.74193548,32.4541935 7.54580645,32.2580645 7.30387097,32.2580645 L3.01870968,32.2580645 C2.77677419,32.2580645 2.58064516,32.4541935 2.58064516,32.696129 L2.58064516,34.7232258 C2.58064516,34.9651613 2.77677419,35.1612903 3.01870968,35.1612903 Z" id="Path" fill="url(#linearGradient-5)"></path>
            <path d="M10.4380645,35.1612903 L14.7232258,35.1612903 C14.9651613,35.1612903 15.1612903,34.9651613 15.1612903,34.7232258 L15.1612903,32.696129 C15.1612903,32.4541935 14.9651613,32.2580645 14.7232258,32.2580645 L10.4380645,32.2580645 C10.196129,32.2580645 10,32.4541935 10,32.696129 L10,34.7232258 C10,34.9651613 10.196129,35.1612903 10.4380645,35.1612903 Z" id="Path" fill="url(#linearGradient-5)"></path>
            <path d="M3.01870968,29.6774194 L7.30387097,29.6774194 C7.54580645,29.6774194 7.74193548,29.4812903 7.74193548,29.2393548 L7.74193548,27.2122581 C7.74193548,26.9703226 7.54580645,26.7741935 7.30387097,26.7741935 L3.01870968,26.7741935 C2.77677419,26.7741935 2.58064516,26.9703226 2.58064516,27.2122581 L2.58064516,29.2393548 C2.58064516,29.4812903 2.77677419,29.6774194 3.01870968,29.6774194 Z" id="Path" fill="url(#linearGradient-5)"></path>
            <path d="M10.4380645,29.6774194 L14.7232258,29.6774194 C14.9651613,29.6774194 15.1612903,29.4812903 15.1612903,29.2393548 L15.1612903,27.2122581 C15.1612903,26.9703226 14.9651613,26.7741935 14.7232258,26.7741935 L10.4380645,26.7741935 C10.196129,26.7741935 10,26.9703226 10,27.2122581 L10,29.2393548 C10,29.4812903 10.196129,29.6774194 10.4380645,29.6774194 Z" id="Path" fill="url(#linearGradient-5)"></path>
            <path d="M10.4380645,24.1935484 L14.7232258,24.1935484 C14.9651613,24.1935484 15.1612903,23.9974194 15.1612903,23.7554839 L15.1612903,21.7283871 C15.1612903,21.4864516 14.9651613,21.2903226 14.7232258,21.2903226 L10.4380645,21.2903226 C10.196129,21.2903226 10,21.4864516 10,21.7283871 L10,23.7554839 C10,23.9974194 10.196129,24.1935484 10.4380645,24.1935484 Z" id="Path" fill="url(#linearGradient-5)"></path>
            <path d="M17.8574194,24.1935484 L22.1425806,24.1935484 C22.3845161,24.1935484 22.5806452,23.9974194 22.5806452,23.7554839 L22.5806452,21.7283871 C22.5806452,21.4864516 22.3845161,21.2903226 22.1425806,21.2903226 L17.8574194,21.2903226 C17.6154839,21.2903226 17.4193548,21.4864516 17.4193548,21.7283871 L17.4193548,23.7554839 C17.4193548,23.9974194 17.6154839,24.1935484 17.8574194,24.1935484 Z" id="Path" fill="url(#linearGradient-5)"></path>
            <path d="M17.4193548,16.2445161 L17.4193548,18.2716129 C17.4193548,18.5135484 17.6154839,18.7096774 17.8574194,18.7096774 L22.1425806,18.7096774 C22.3845161,18.7096774 22.5806452,18.5135484 22.5806452,18.2716129 L22.5806452,16.2445161 C22.5806452,16.0025806 22.3845161,15.8064516 22.1425806,15.8064516 L17.8574194,15.8064516 C17.6154839,15.8064516 17.4193548,16.0025806 17.4193548,16.2445161 Z" id="Path" fill="url(#linearGradient-5)"></path>
            <path d="M10.4380645,18.7096774 L14.7232258,18.7096774 C14.9651613,18.7096774 15.1612903,18.5135484 15.1612903,18.2716129 L15.1612903,16.2445161 C15.1612903,16.0025806 14.9651613,15.8064516 14.7232258,15.8064516 L10.4380645,15.8064516 C10.196129,15.8064516 10,16.0025806 10,16.2445161 L10,18.2716129 C10,18.5135484 10.196129,18.7096774 10.4380645,18.7096774 Z" id="Path" fill="url(#linearGradient-6)"></path>
            <path d="M17.4193548,27.2122581 L17.4193548,34.7232258 C17.4193548,34.9651613 17.6154839,35.1612903 17.8574194,35.1612903 L22.1425806,35.1612903 C22.3845161,35.1612903 22.5806452,34.9651613 22.5806452,34.7232258 L22.5806452,27.2122581 C22.5806452,26.9703226 22.3845161,26.7741935 22.1425806,26.7741935 L17.8574194,26.7741935 C17.6154839,26.7741935 17.4193548,26.9703226 17.4193548,27.2122581 Z" id="Path" fill="url(#linearGradient-7)"></path>
            <path d="M19.7977419,7.93129032 C19.0464516,7.62935484 19.0322581,7.23967742 19.0322581,7.21387097 L19.0322581,7.06967742 C19.0322581,6.70870968 19.3216129,6.41516129 19.6774194,6.41516129 C20.0332258,6.41516129 20.3225806,6.70870968 20.3225806,7.06967742 L20.3225806,7.22967742 L20.9677419,7.22967742 L20.9677419,7.06967742 C20.9677419,6.46580645 20.5551613,5.9616129 20,5.81612903 L20,5.16129032 L19.3548387,5.16129032 L19.3548387,5.81612903 C18.8,5.96129032 18.3870968,6.46580645 18.3870968,7.06967742 L18.3877419,7.19225806 C18.3854839,7.22677419 18.3454839,8.04322581 19.5570968,8.52967742 C20.3270968,8.83903226 20.3232258,9.4483871 20.3222581,9.48548387 L20.3222581,9.62967742 C20.3222581,9.99064516 20.0329032,10.2841935 19.6770968,10.2841935 C19.3212903,10.2841935 19.0319355,9.99064516 19.0319355,9.62967742 L19.0319355,9.46967742 L18.3867742,9.46967742 L18.3867742,9.62967742 C18.3867742,10.2335484 18.7993548,10.7377419 19.3545161,10.8832258 L19.3545161,11.6129032 L19.9996774,11.6129032 L19.9996774,10.8832258 C20.5545161,10.7380645 20.9674194,10.2335484 20.9674194,9.62967742 L20.9670968,9.50096774 C20.9693548,9.45709677 21.0048387,8.41612903 19.7977419,7.93129032 L19.7977419,7.93129032 Z" id="Path" fill="url(#linearGradient-8)"></path>
            <polygon id="Path" fill="url(#linearGradient-9)" points="13.5483871 10 16.1290323 10 16.1290323 10.6451613 13.5483871 10.6451613"></polygon>
            <polygon id="Path" fill="url(#linearGradient-10)" points="15.1612903 5.80645161 14.516129 5.80645161 14.516129 6.77419355 13.5483871 6.77419355 13.5483871 7.41935484 14.516129 7.41935484 14.516129 8.38709677 15.1612903 8.38709677 15.1612903 7.41935484 16.1290323 7.41935484 16.1290323 6.77419355 15.1612903 6.77419355"></polygon>
        </g>
    </g>
</svg>