<?xml version="1.0" encoding="UTF-8"?>
<svg width="46px" height="46px" viewBox="0 0 46 46" version="1.1" xmlns="http://www.w3.org/2000/svg" xmlns:xlink="http://www.w3.org/1999/xlink">
    <!-- Generator: Sketch 63.1 (92452) - https://sketch.com -->
    <!--<title>illustrazione/functional/medical</title>-->
    <desc>Created with Sketch.</desc>
    <g id="illustrazione/functional/medical" stroke="none" stroke-width="1" fill="none" fill-rule="evenodd">
        <g id="band-aid" transform="translate(3.000000, 3.000000)" fill-rule="nonzero">
            <path d="M7.46368317,1.27516832 L1.28689109,7.4519604 C-0.428910891,9.16776238 -0.428910891,11.9129505 1.28689109,13.6287525 L26.3371089,38.6788911 C28.0529109,40.3946931 30.798099,40.3946931 32.513901,38.6788911 L38.6906931,32.502099 C40.406495,30.786297 40.406495,28.0411089 38.6906931,26.3253069 L13.6091881,1.27516832 C11.9246733,-0.409346535 9.14819802,-0.409346535 7.46368317,1.27516832 Z" id="Path" fill="#E1B950"></path>
            <path d="M32.4826931,1.27516832 L38.6594851,7.4519604 C40.3752871,9.16776238 40.3752871,11.9129505 38.6594851,13.6287525 L13.6091881,38.6788911 C11.8933861,40.3946931 9.14819802,40.3946931 7.43239604,38.6788911 L1.28681188,32.502099 C-0.428990099,30.786297 -0.428990099,28.0411089 1.28681188,26.3253069 L26.3371089,1.27516832 C28.0216238,-0.409346535 30.7981782,-0.409346535 32.4826931,1.27516832 Z" id="Path" fill="#F6D57D"></path>
            <path d="M22.2816634,11.2578218 L28.6767525,17.6529109 C29.5502574,18.5264158 29.5502574,19.9614257 28.6767525,20.8348515 L20.8466535,28.6649505 C19.9731485,29.5384554 18.5381386,29.5384554 17.6647129,28.6649505 L11.2696238,22.2698614 C10.3961188,21.3963564 10.3961188,19.9613465 11.2696238,19.0879208 L19.0997228,11.2578218 C19.9731485,10.384396 21.4082376,10.384396 22.2816634,11.2578218 Z" id="Path" fill="#FAE7B7"></path>
            <path d="M19.2557624,15.2197228 C18.9438416,15.5316436 18.9438416,16.0308119 19.2557624,16.311604 C19.5676832,16.6235248 20.0668515,16.6235248 20.3476436,16.311604 C20.6595644,15.9996832 20.6595644,15.5005149 20.3476436,15.2197228 C20.0667723,14.9077228 19.567604,14.9077228 19.2557624,15.2197228 Z M17.0719208,17.4034059 C16.76,17.7153267 16.76,18.214495 17.0719208,18.4952871 C17.3838416,18.8072079 17.8830099,18.8072079 18.163802,18.4952871 C18.4757228,18.1833663 18.4757228,17.684198 18.163802,17.4034059 C17.8830099,17.0914059 17.3839208,17.0914059 17.0719208,17.4034059 Z M14.8882376,19.5870891 C14.5763168,19.8990099 14.5763168,20.3981782 14.8882376,20.6789703 C15.2001584,20.9908911 15.6993267,20.9908911 15.9801188,20.6789703 C16.2920396,20.3670495 16.2920396,19.8678812 15.9801188,19.5870891 C15.6993267,19.2751683 15.2002376,19.2751683 14.8882376,19.5870891 Z M21.4393663,17.4034059 C21.1274455,17.7153267 21.1274455,18.214495 21.4393663,18.4952871 C21.7512871,18.8072079 22.2504554,18.8072079 22.5312475,18.4952871 C22.8431683,18.1833663 22.8431683,17.684198 22.5312475,17.4034059 C22.2505347,17.0914059 21.7513663,17.0914059 21.4393663,17.4034059 Z M19.2557624,19.5870891 C18.9438416,19.8990099 18.9438416,20.3981782 19.2557624,20.6789703 C19.5676832,20.9908911 20.0668515,20.9908911 20.3476436,20.6789703 C20.6595644,20.3670495 20.6595644,19.8678812 20.3476436,19.5870891 C20.0667723,19.2751683 19.567604,19.2751683 19.2557624,19.5870891 Z M17.0719208,21.7707723 C16.76,22.0826931 16.76,22.5818614 17.0719208,22.8626535 C17.3838416,23.1745743 17.8830099,23.1745743 18.163802,22.8626535 C18.4757228,22.5507327 18.4757228,22.0515644 18.163802,21.7707723 C17.8830099,21.4588515 17.3839208,21.4588515 17.0719208,21.7707723 Z M23.6230495,19.5870891 C23.3111287,19.8990099 23.3111287,20.3981782 23.6230495,20.6789703 C23.9349703,20.9908911 24.4341386,20.9908911 24.7149307,20.6789703 C25.0268515,20.3670495 25.0268515,19.8678812 24.7149307,19.5870891 C24.4342178,19.2751683 23.9350495,19.2751683 23.6230495,19.5870891 Z M21.4393663,21.7707723 C21.1274455,22.0826931 21.1274455,22.5818614 21.4393663,22.8626535 C21.7512871,23.1745743 22.2504554,23.1745743 22.5312475,22.8626535 C22.8431683,22.5507327 22.8431683,22.0515644 22.5312475,21.7707723 C22.2505347,21.4588515 21.7513663,21.4588515 21.4393663,21.7707723 Z M19.2557624,23.9545347 C18.9438416,24.2664554 18.9438416,24.7656238 19.2557624,25.0464158 C19.5676832,25.3583366 20.0668515,25.3583366 20.3476436,25.0464158 C20.6595644,24.734495 20.6595644,24.2353267 20.3476436,23.9545347 C20.0667723,23.6425347 19.567604,23.6425347 19.2557624,23.9545347 Z M29.5503366,4.92514851 C29.2384158,5.23706931 29.2384158,5.73623762 29.5503366,6.0170297 C29.8622574,6.3289505 30.3614257,6.3289505 30.6422178,6.0170297 C30.9541386,5.70510891 30.9541386,5.20594059 30.6422178,4.92514851 C30.3614257,4.61314851 29.8621782,4.61314851 29.5503366,4.92514851 Z M27.3666535,7.10883168 C27.0547327,7.42075248 27.0547327,7.91992079 27.3666535,8.20071287 C27.6785743,8.51263366 28.1777426,8.51263366 28.4585347,8.20071287 C28.7704554,7.88879208 28.7704554,7.38962376 28.4585347,7.10883168 C28.1776634,6.79683168 27.678495,6.79683168 27.3666535,7.10883168 Z M25.1828911,9.29251485 C24.8709703,9.60443564 24.8709703,10.103604 25.1828911,10.384396 C25.4948119,10.6963168 25.9939802,10.6963168 26.2747723,10.384396 C26.5866931,10.0724752 26.5866931,9.57330693 26.2747723,9.29251485 C25.993901,8.98059406 25.4948119,8.98059406 25.1828911,9.29251485 Z M29.5503366,9.29251485 C29.2384158,9.60443564 29.2384158,10.103604 29.5503366,10.384396 C29.8622574,10.6963168 30.3614257,10.6963168 30.6422178,10.384396 C30.9541386,10.0724752 30.9541386,9.57330693 30.6422178,9.29251485 C30.3614257,8.98059406 29.8621782,8.98059406 29.5503366,9.29251485 Z M35.0407129,9.29251485 C34.7287921,8.98059406 34.2296238,8.98059406 33.9488317,9.29251485 C33.6369109,9.60443564 33.6369109,10.103604 33.9488317,10.384396 C34.2607525,10.6963168 34.7599208,10.6963168 35.0407129,10.384396 C35.3526337,10.072396 35.3526337,9.57330693 35.0407129,9.29251485 Z M32.8569505,11.476198 C32.5450297,11.1642772 32.0458614,11.1642772 31.7650693,11.476198 C31.4531485,11.7881188 31.4531485,12.2872871 31.7650693,12.5680792 C32.0769901,12.88 32.5761584,12.88 32.8569505,12.5680792 C33.1689505,12.2560792 33.1689505,11.7569901 32.8569505,11.476198 Z M29.5503366,13.6598812 C29.2384158,13.971802 29.2384158,14.4709703 29.5503366,14.7517624 C29.8622574,15.0636832 30.3614257,15.0636832 30.6422178,14.7517624 C30.9541386,14.4398416 30.9541386,13.9406733 30.6422178,13.6598812 C30.3614257,13.3479604 29.8621782,13.3479604 29.5503366,13.6598812 Z M9.2730297,25.202297 C8.96110891,25.5142178 8.96110891,26.0133861 9.2730297,26.2941782 C9.5849505,26.606099 10.0841188,26.606099 10.3649109,26.2941782 C10.6768317,25.9822574 10.6768317,25.4830891 10.3649109,25.202297 C10.0841188,24.8903762 9.5849505,24.8903762 9.2730297,25.202297 Z M7.08934653,27.3860594 C6.77742574,27.6979802 6.77742574,28.1971485 7.08934653,28.4779406 C7.40126733,28.7898614 7.90043564,28.7898614 8.18122772,28.4779406 C8.49314851,28.1660198 8.49314851,27.6668515 8.18122772,27.3860594 C7.90043564,27.0740594 7.40126733,27.0740594 7.08934653,27.3860594 Z M4.90558416,29.5697426 C4.59366337,29.8816634 4.59366337,30.3808317 4.90558416,30.6616238 C5.21750495,30.9735446 5.71667327,30.9735446 5.99746535,30.6616238 C6.30938614,30.349703 6.30938614,29.8505347 5.99746535,29.5697426 C5.71667327,29.2578218 5.21758416,29.2578218 4.90558416,29.5697426 Z M9.2730297,29.5697426 C8.96110891,29.8816634 8.96110891,30.3808317 9.2730297,30.6616238 C9.5849505,30.9735446 10.0841188,30.9735446 10.3649109,30.6616238 C10.6768317,30.349703 10.6768317,29.8505347 10.3649109,29.5697426 C10.0841188,29.2578218 9.5849505,29.2578218 9.2730297,29.5697426 Z M13.640396,29.5697426 C13.3284752,29.8816634 13.3284752,30.3808317 13.640396,30.6616238 C13.9523168,30.9735446 14.4514851,30.9735446 14.7322772,30.6616238 C15.044198,30.349703 15.044198,29.8505347 14.7322772,29.5697426 C14.4515644,29.2578218 13.952396,29.2578218 13.640396,29.5697426 Z M11.4567129,31.7534257 C11.1447921,32.0653465 11.1447921,32.5645149 11.4567129,32.8453069 C11.7686337,33.1572277 12.267802,33.1572277 12.5485941,32.8453069 C12.8605149,32.5333861 12.8605149,32.0342178 12.5485941,31.7534257 C12.2678812,31.441505 11.7686337,31.441505 11.4567129,31.7534257 Z M9.2730297,33.9371089 C8.96110891,34.2490297 8.96110891,34.748198 9.2730297,35.0289901 C9.5849505,35.3409109 10.0841188,35.3409109 10.3649109,35.0289901 C10.6768317,34.7170693 10.6768317,34.217901 10.3649109,33.9371089 C10.0841188,33.6251881 9.5849505,33.6251881 9.2730297,33.9371089 Z M33.293703,28.9458218 C32.9817822,29.2577426 32.9817822,29.7569109 33.293703,30.037703 C33.6056238,30.3496238 34.1047921,30.3496238 34.3855842,30.037703 C34.697505,29.7257822 34.697505,29.2266139 34.3855842,28.9458218 C34.1047921,28.633901 33.605703,28.633901 33.293703,28.9458218 Z M31.1100198,26.7621386 C30.798099,27.0740594 30.798099,27.5732277 31.1100198,27.8540198 C31.4219406,28.1659406 31.9211089,28.1659406 32.201901,27.8540198 C32.5138218,27.542099 32.5138218,27.0429307 32.201901,26.7621386 C31.9211089,26.4501386 31.4220198,26.4501386 31.1100198,26.7621386 Z M28.9576238,28.9458218 C28.645703,29.2577426 28.645703,29.7569109 28.9576238,30.037703 C29.2695446,30.3496238 29.7687129,30.3496238 30.049505,30.037703 C30.3614257,29.7257822 30.3614257,29.2266139 30.049505,28.9458218 C29.7374257,28.633901 29.2382574,28.633901 28.9576238,28.9458218 Z M28.9576238,33.2820594 C28.645703,33.5939802 28.645703,34.0931485 28.9576238,34.3739406 C29.2695446,34.6858614 29.7687129,34.6858614 30.049505,34.3739406 C30.3614257,34.0620198 30.3614257,33.5628515 30.049505,33.2820594 C29.7374257,33.0012673 29.2382574,33.0012673 28.9576238,33.2820594 Z M26.7738614,31.098297 C26.4619406,31.4102178 26.4619406,31.9093861 26.7738614,32.1901782 C27.0857822,32.502099 27.5849505,32.502099 27.8657426,32.1901782 C28.1776634,31.8782574 28.1776634,31.3790891 27.8657426,31.098297 C27.5537426,30.8175842 27.0545743,30.8175842 26.7738614,31.098297 Z M6.65259406,9.91643564 C6.34067327,9.60451485 5.84150495,9.60451485 5.56071287,9.91643564 C5.24879208,10.2283564 5.24879208,10.7275248 5.56071287,11.0083168 C5.87263366,11.3202376 6.37180198,11.3202376 6.65259406,11.0083168 C6.96451485,10.6963168 6.96451485,10.1972277 6.65259406,9.91643564 Z M8.83627723,12.1001188 C8.52435644,11.788198 8.02518812,11.788198 7.74439604,12.1001188 C7.43247525,12.4120396 7.43247525,12.9112079 7.74439604,13.192 C8.05631683,13.5039208 8.55548515,13.5039208 8.83627723,13.192 C9.14819802,12.88 9.14819802,12.3809109 8.83627723,12.1001188 Z M11.0200396,9.91643564 C10.7081188,9.60451485 10.2089505,9.60451485 9.92815842,9.91643564 C9.61623762,10.2283564 9.61623762,10.7275248 9.92815842,11.0083168 C10.2400792,11.3202376 10.7392475,11.3202376 11.0200396,11.0083168 C11.3319604,10.6963168 11.3319604,10.1972277 11.0200396,9.91643564 Z M11.0200396,6.64087129 C11.3319604,6.3289505 11.3319604,5.82978218 11.0200396,5.5489901 C10.7081188,5.23706931 10.2089505,5.23706931 9.92815842,5.5489901 C9.61623762,5.86091089 9.61623762,6.36007921 9.92815842,6.64087129 C10.2088713,6.95287129 10.7080396,6.95287129 11.0200396,6.64087129 Z M13.2037228,7.73275248 C12.891802,7.42083168 12.3926337,7.42083168 12.1118416,7.73275248 C11.7999208,8.04467327 11.7999208,8.54384158 12.1118416,8.82463366 C12.4237624,9.13655446 12.9229307,9.13655446 13.2037228,8.82463366 C13.4845149,8.51271287 13.4845149,8.04467327 13.2037228,7.73275248 Z" id="Shape" fill="#C29820"></path>
        </g>
    </g>
</svg>