<?xml version="1.0" encoding="UTF-8"?>
<svg width="46px" height="46px" viewBox="0 0 46 46" version="1.1" xmlns="http://www.w3.org/2000/svg" xmlns:xlink="http://www.w3.org/1999/xlink">
    <!-- Generator: Sketch 63.1 (92452) - https://sketch.com -->
    <!--<title>illustrazione/functional/stipendio</title>-->
    <desc>Created with Sketch.</desc>
    <g id="illustrazione/functional/stipendio" stroke="none" stroke-width="1" fill="none" fill-rule="evenodd">
        <g id="salary" transform="translate(3.000000, 3.000000)" fill-rule="nonzero">
            <path d="M21.7957031,5.0196875 C20.7038281,4.309375 19.2955469,4.309375 18.20375,5.0196875 C18.1922656,5.02710937 0.1015625,16.805 0.08984375,16.8127344 L0.06703125,16.8289844 L0.06703125,39.02375 C0.06703125,39.559375 0.50421875,40 1.045,40 L38.9542969,40 C39.4903125,40 39.9330469,39.5608594 39.9330469,39.0236719 L39.9330469,16.828125 C36.1511719,14.3659375 49.4602344,23.0307812 21.7957031,5.0196875 Z" id="Path" fill="#C29820"></path>
            <path d="M39.9332031,16.8282812 L39.9332031,39.0239062 C39.9332031,39.5611719 39.4904688,39.9998437 38.9540625,39.9998437 L1.04515625,39.9998437 C0.50390625,39.9998437 0.066796875,39.5595312 0.066796875,39.0239062 L0.066796875,16.8290625 C1.62273437,17.8405469 17.2374219,27.993125 18.0469531,28.5190625 C19.2345312,29.2914063 20.7654687,29.2914063 21.9538281,28.5190625 C22.7205469,28.020625 39.5332813,17.0884375 39.9332031,16.8282812 Z" id="Path" fill="#F6D57D"></path>
            <path d="M39.6986719,39.6542188 C39.669375,39.6892188 39.6376562,39.7217969 39.6035156,39.7517969 C39.518125,39.8274219 39.42125,39.8885156 39.3146875,39.9307031 C39.1885938,39.9730469 39.0600781,39.9998438 38.9542969,39.9998438 L1.045,39.9998438 C1.01242187,39.9998438 0.97828125,39.9982031 0.94328125,39.9941406 C0.9253125,39.9925 0.9075,39.9900781 0.890390625,39.9876563 C0.877421875,39.9860156 0.86515625,39.9835938 0.8521875,39.9810938 C0.665078125,39.9428906 0.496640625,39.8517188 0.3640625,39.7232031 C0.34609375,39.7061719 0.3290625,39.6882031 0.3128125,39.6694531 L0.559296875,39.4701563 L15.9678906,27.1678906 C16.1804688,27.3060156 15.1978906,26.6673438 18.0466406,28.5192969 C19.2344531,29.2914063 20.765625,29.2914063 21.9535156,28.5192969 C24.8301563,26.6495313 23.8378906,27.294375 24.0525781,27.1548438 L39.5286719,39.5108594 L39.6986719,39.6542188 Z" id="Path" fill="#FAE7B7"></path>
            <path d="M36.4415625,13.4667187 C31.4641406,17.1828906 26.4085156,20.9553125 17.1009375,27.9035156 C16.8335938,27.7307812 5.87992187,20.6084375 4.41242187,19.6534375 L4.41164062,19.6534375 C4.0903125,19.4448437 3.175,18.8503125 2.51632812,18.4214062 L26.6767187,0.38796875 C27.5403125,-0.25671875 28.761875,-0.079765625 29.4065625,0.783828125 C37.3732813,11.4553906 36.8673438,10.7714062 36.9295313,10.8725781 C37.4586719,11.7184375 37.2659375,12.8480469 36.4415625,13.4667187 Z" id="Path" fill="#76D37E"></path>
            <circle id="Oval" fill="#57AB2D" cx="27.3677344" cy="2.8228125" r="1"></circle>
            <path d="M32.6380469,9.98960938 C31.8058594,10.9367969 31.5713281,12.2678906 31.986875,13.4255469 C32.1195313,13.8032812 31.9803906,14.2121875 31.6685938,14.4450781 C30.5290625,15.2955469 21.8441406,21.7769531 20.2071875,22.9989062 C20.2071875,22.9996875 20.2064063,22.9996875 20.2064063,22.9996875 C14.2660938,27.4328125 24.4857031,19.8046875 15.2484375,26.6997656 C14.1388281,25.9777344 6.64664063,21.1067187 6.64046875,21.1028125 C6.939375,20.3361719 6.95796875,19.4749219 6.674375,18.6840625 C6.541875,18.3140625 6.67679688,17.8996094 6.991875,17.6645312 C14.5748438,12.0053125 13.4079688,12.87625 13.5324219,12.7833594 L24.3823438,4.68507813 C24.6982031,4.45 25.1328906,4.43789063 25.4503906,4.67054688 C26.4594531,5.41007813 27.7942188,5.5440625 28.9299219,5.0228125 C29.3201563,4.84265625 29.7830469,4.95820313 30.0407813,5.303125 C30.1942188,5.50859375 29.3028125,4.31460937 32.685,8.84484375 C32.9417969,9.18898438 32.9207813,9.665625 32.6380469,9.98960938 Z" id="Path" fill="#57AB2D"></path>
            <path d="M37.1871875,18.5951562 C27.7198437,23.68625 31.6357031,21.5805469 18.3773437,28.7097656 C18.1295312,28.5828906 4.71648437,19.8514062 4.41234375,19.6534375 L4.4115625,19.6534375 C4.37453125,19.629375 2.78789062,18.5989062 2.75625,18.5773437 C23.6754688,7.3296875 15.0473437,11.96875 29.455,4.22132812 C30.4042187,3.71078125 31.5861719,4.06539062 32.0967969,5.0146875 C38.4269531,16.7853906 38.0127344,16.0098437 38.0516406,16.1011719 C38.4673437,17.0532812 38.0513281,18.1397656 37.1871875,18.5951562 Z" id="Path" fill="#76D37E"></path>
            <circle id="Oval" fill="#57AB2D" cx="29.7792187" cy="6.73125" r="1"></circle>
            <path d="M33.9363281,14.5960937 C32.9495313,15.4374219 32.5517187,16.7200781 32.7867187,17.8978906 C32.8626563,18.2840625 32.66875,18.6734375 32.3221875,18.8600781 L23.1067188,23.8147656 L23.1059375,23.8147656 C22.8201563,23.9684375 24.1410156,23.258125 20.3114844,25.3174219 C20.3114844,25.3174219 20.3114844,25.3174219 20.3107031,25.3174219 C20.0841406,25.4391406 21.4050781,24.7291406 16.3763281,27.4324219 C14.8542969,26.4511719 6.84703125,21.2367969 6.83203125,21.2271094 C7.055625,20.6169531 7.09671875,19.9633594 6.97585937,19.3714062 C6.89914062,18.9852344 7.09382812,18.5958594 7.44039062,18.4092188 L15.6217969,14.0103125 L26.5532031,8.13296875 C26.8997656,7.94632813 27.3311719,7.9996875 27.6115625,8.2759375 C28.5049219,9.1609375 29.8121875,9.48304687 31.000625,9.13710937 C31.4134375,9.01671875 31.8545313,9.19851562 32.0589844,9.57742187 C34.7358594,14.5561719 34.0310156,13.2452344 34.1521875,13.470625 C34.355625,13.8488281 34.2642969,14.3174219 33.9363281,14.5960937 Z" id="Path" fill="#57AB2D"></path>
            <path d="M34.1778906,9.69070312 C33.9,8.88203125 33.1438281,8.37382812 32.3335156,8.37382812 C31.9386719,8.37382812 31.6650781,8.49625 31.6153125,8.50953125 C31.1808594,8.65898437 2.70664062,18.4497656 2.61976563,18.4892187 C2.72601563,18.5575 3.418125,19.0083594 4.41164063,19.6533594 L4.41242188,19.6533594 C5.62289063,20.4410156 18.0658594,28.5321094 18.0752344,28.5367969 C19.2348437,29.2782812 20.7546875,29.2978125 21.9538281,28.5189844 C22.40125,28.2283594 36.8857031,18.8100781 37.2364844,18.5821094 C35.7002344,14.1157031 35.78875,14.3728125 34.1778906,9.69070312 Z" id="Path" fill="#76D37E"></path>
            <circle id="Oval" fill="#57AB2D" cx="31.6139062" cy="11.0097656" r="1"></circle>
            <path d="M34.8411719,18.3672656 C33.1410938,13.4225781 33.5249219,14.5390625 33.4039844,14.1872656 C33.2634375,13.7809375 32.8578906,13.5296875 32.4304688,13.5821875 C31.1733594,13.7336719 29.95,13.1820312 29.2248438,12.1845312 C28.9938281,11.86625 28.5760938,11.7450781 28.2036719,11.8726562 L7.60671875,18.9570312 C7.30617188,19.0596094 7.08242188,19.3100781 7.01453125,19.6097656 C6.94921875,19.883125 7.08203125,20.3602344 6.76492188,21.1835156 C6.8546875,21.2432812 16.928125,27.7900781 17.7722656,28.3405469 C18.4040625,28.1232031 27.1609375,25.1113281 27.2333594,25.0864062 C35.8971875,19.4525 31.1073438,22.5678125 32.9313281,21.3822656 C33.1744531,20.5901562 33.7063281,19.8885937 34.446875,19.4433594 C34.8153125,19.22125 34.9809375,18.7736719 34.8411719,18.3672656 Z" id="Path" fill="#57AB2D"></path>
            <circle id="Oval" fill="#31760E" cx="19.8859375" cy="21.1736719" r="4.16382813"></circle>
            <path d="M20.0989844,20.4996094 L20.0990625,20.4986719 C19.4957813,20.4695313 19.06375,20.5507031 18.9140625,20.1152344 C18.7829688,19.7340625 19.0434375,19.5210938 19.4246094,19.39 C19.970625,19.2021875 20.1667188,19.4104687 20.4176563,19.3241406 C20.7107813,19.2232813 20.7667969,18.8785938 20.6945313,18.6685156 C20.54625,18.2375 19.9,18.2919531 19.4695313,18.3816406 L19.4038281,18.190625 C19.3115625,17.9223438 19.0182031,17.7791406 18.75,17.8714063 C18.4817188,17.9636719 18.3385156,18.2570313 18.4307812,18.5252344 L18.5171875,18.7766406 C17.9310156,19.186875 17.7390625,19.7890625 17.9769531,20.4808594 C18.3178125,21.4717969 19.1219531,21.4945313 19.7682031,21.5126562 C20.3803906,21.5298438 20.7499219,21.5403125 20.9296094,22.0625781 C21.0764063,22.4892969 20.9169531,22.7760937 20.4421875,22.9394531 C19.6915625,23.1975781 19.5351562,22.6492969 19.1476563,22.7825781 C18.8910156,22.8708594 18.7846094,23.20875 18.8642188,23.4404688 C18.9835938,23.7878125 19.5490625,24.0709375 20.3032031,23.9696875 L20.3675781,24.156875 C20.4598438,24.4250781 20.7532031,24.5683594 21.0214063,24.4760938 C21.2896094,24.3838281 21.4328906,24.0904688 21.340625,23.8222656 L21.2724219,23.6240625 C21.9285938,23.205 22.1453125,22.5075 21.8665625,21.6969531 C21.4916406,20.6067969 20.6564844,20.5180469 20.0989844,20.4996094 Z" id="Path" fill="#76D37E"></path>
            <g id="Group" transform="translate(10.703125, 17.421875)" fill="#31760E">
                <path d="M1.66125,7.40195313 C1.13289063,7.05859375 0.587578125,6.70390625 0.032578125,6.34359375 C0.235,5.30023437 1.7015625,5.19257812 2.04984375,6.20460937 C2.20492188,6.65710938 2.03367188,7.141875 1.66125,7.40195313 Z" id="Path"></path>
                <circle id="Oval" cx="16.909375" cy="1.0946875" r="1.04757813"></circle>
            </g>
            <path d="M32.9313281,21.3822656 C32.9119531,21.4436719 32.8941406,21.5066406 32.8788281,21.5696875 L32.3746875,21.7433594 C32.5613281,21.6222656 32.7471094,21.501875 32.9313281,21.3822656 Z" id="Path" fill="#FFDE55"></path>
            <path d="M39.2043531,16.3573953 C39.2064531,16.3583953 39.2084531,16.3594953 39.2095531,16.3604953 L39.2085531,16.3604953 C39.2074531,16.3594953 39.2053531,16.3583953 39.2043531,16.3573953 Z" id="SVGCleanerId_0" fill="#EEBF00"></path>
            <path d="M39.2072891,16.3590297 C39.2124891,16.3621297 39.2175891,16.3652297 39.2227891,16.3693297 C39.2217891,16.3683297 39.2206891,16.3672297 39.2186891,16.3672297 C39.2165891,16.3651297 39.2155891,16.3641297 39.2145891,16.3641297 C39.2113891,16.3621297 39.2092891,16.3600297 39.2072891,16.3590297 Z" id="SVGCleanerId_1" fill="#EEBF00"></path>
            <path d="M39.2279109,16.3719266 C39.2289109,16.3729266 39.2310109,16.3740266 39.2320109,16.3750266 C39.2310109,16.3750266 39.2299109,16.3740266 39.2279109,16.3729266 L39.2279109,16.3719266 Z" id="SVGCleanerId_2" fill="#EEBF00"></path>
            <path d="M39.2365813,16.3777328 C39.2406813,16.3808328 39.2458813,16.3839328 39.2499813,16.3870328 C39.2499813,16.3870328 39.2499813,16.3870328 39.2489813,16.3870328 C39.2437813,16.3829328 39.2396813,16.3808328 39.2365813,16.3777328 Z" id="SVGCleanerId_3" fill="#EEBF00"></path>
            <path d="M39.2461,16.3844297 C39.2544,16.3896297 39.2616,16.3937297 39.2689,16.3989297 C39.2627,16.3948297 39.2565,16.3917297 39.2513,16.3886297 C39.2492,16.3865297 39.2471,16.3854297 39.2461,16.3844297 Z" id="SVGCleanerId_4" fill="#EEBF00"></path>
            <path d="M39.7448875,16.7085344 C39.7510875,16.7126344 39.7582875,16.7178344 39.7644875,16.7219344 C39.7592875,16.7198344 39.7551875,16.7167344 39.7510875,16.7136344 C39.7489875,16.7116344 39.7468875,16.7105344 39.7448875,16.7085344 Z" id="SVGCleanerId_5" fill="#EEBF00"></path>
            <path d="M39.9332031,37.57625 L39.9332031,39.0239844 C39.9332031,39.56125 39.4904688,39.9999219 38.9540625,39.9999219 L1.04515625,39.9999219 C0.50390625,39.9999219 0.066796875,39.5596094 0.066796875,39.0239844 L0.066796875,16.8290625 C0.3875,17.0375 1.306875,17.6353125 2.57125,18.4577344 L2.57125,36.6002344 C2.57125,37.1358594 3.00828125,37.5761719 3.54960937,37.5761719 L39.9332031,37.5761719 L39.9332031,37.57625 Z" id="Path" fill="#F6D57D"></path>
            <path d="M39.2043531,16.3573953 C39.2064531,16.3583953 39.2084531,16.3594953 39.2095531,16.3604953 L39.2085531,16.3604953 C39.2074531,16.3594953 39.2053531,16.3583953 39.2043531,16.3573953 Z" id="SVGCleanerId_0_1_" fill="#EEBF00"></path>
            <path d="M39.2072891,16.3590297 C39.2124891,16.3621297 39.2175891,16.3652297 39.2227891,16.3693297 C39.2217891,16.3683297 39.2206891,16.3672297 39.2186891,16.3672297 C39.2165891,16.3651297 39.2155891,16.3641297 39.2145891,16.3641297 C39.2113891,16.3621297 39.2092891,16.3600297 39.2072891,16.3590297 Z" id="SVGCleanerId_1_1_" fill="#EEBF00"></path>
            <path d="M39.2279109,16.3719266 C39.2289109,16.3729266 39.2310109,16.3740266 39.2320109,16.3750266 C39.2310109,16.3750266 39.2299109,16.3740266 39.2279109,16.3729266 L39.2279109,16.3719266 Z" id="SVGCleanerId_2_1_" fill="#EEBF00"></path>
            <path d="M39.2365813,16.3777328 C39.2406813,16.3808328 39.2458813,16.3839328 39.2499813,16.3870328 C39.2499813,16.3870328 39.2499813,16.3870328 39.2489813,16.3870328 C39.2437813,16.3829328 39.2396813,16.3808328 39.2365813,16.3777328 Z" id="SVGCleanerId_3_1_" fill="#EEBF00"></path>
            <path d="M39.2461,16.3844297 C39.2544,16.3896297 39.2616,16.3937297 39.2689,16.3989297 C39.2627,16.3948297 39.2565,16.3917297 39.2513,16.3886297 C39.2492,16.3865297 39.2471,16.3854297 39.2461,16.3844297 Z" id="SVGCleanerId_4_1_" fill="#EEBF00"></path>
            <path d="M39.7448875,16.7085344 C39.7510875,16.7126344 39.7582875,16.7178344 39.7644875,16.7219344 C39.7592875,16.7198344 39.7551875,16.7167344 39.7510875,16.7136344 C39.7489875,16.7116344 39.7468875,16.7105344 39.7448875,16.7085344 Z" id="SVGCleanerId_5_1_" fill="#EEBF00"></path>
            <path d="M39.5284375,39.5110938 L37.1047656,37.57625 L3.54960938,37.57625 C3.37992188,37.57625 3.22,37.5326563 3.08101563,37.4575 L0.559609375,39.4707031 L0.312421875,39.6694531 C0.408203125,39.7742969 0.5175,39.85875 0.6509375,39.9166406 C0.667109375,39.9239063 0.6840625,39.9311719 0.701015625,39.936875 C0.72234375,39.9510938 0.886171875,39.9999219 1.04515625,39.9999219 L38.9540625,39.9999219 C38.9678125,39.9999219 38.9807031,39.9999219 38.9944531,39.9982813 C39.0065625,39.9975 39.0186719,39.9975 39.0307812,39.9958594 C39.115625,39.9878125 39.2092969,39.9659375 39.3030469,39.9352344 C39.3110937,39.9320313 39.32,39.92875 39.3289062,39.9247656 C39.3321094,39.923125 39.3353906,39.9223437 39.339375,39.9207031 C39.3514844,39.9150781 39.3644531,39.909375 39.3765625,39.9029687 C39.3886719,39.8973437 39.4,39.8916406 39.4113281,39.8860156 C39.5042187,39.8367188 39.5882812,39.7728906 39.6601562,39.6969531 C39.6739062,39.6832031 39.6860156,39.6686719 39.6989062,39.6541406 L39.5284375,39.5110938 Z" id="Path" fill="#FFEB99"></path>
            <path d="M39.6989063,39.6540625 C39.5195312,39.8641406 39.25375,39.9998438 38.9540625,39.9998438 L1.04515625,39.9998438 C0.87390625,39.9998438 0.7171875,39.948125 0.701015625,39.9367969 C0.587109375,39.8988281 0.440078125,39.8091406 0.312421875,39.669375 C2.39914062,38.0019531 2.93960937,37.5704688 3.05515625,37.4784375 L3.05515625,37.4776563 C3.0559375,37.476875 3.06242188,37.4720313 3.06726562,37.46875 C3.06804687,37.4671094 3.0696875,37.4663281 3.07046875,37.4655469 C3.07125,37.4647656 3.07289062,37.4639063 3.0753125,37.4623438 L3.07851562,37.4591406 C3.07929687,37.4591406 3.08015625,37.4583594 3.0809375,37.4575 C3.21992187,37.5326563 3.37984375,37.57625 3.54953125,37.57625 L37.1047656,37.57625 C37.6123438,37.9828125 35.7800781,36.5150781 39.6989063,39.6540625 Z" id="Path" fill="#F6D57D"></path>
        </g>
    </g>
</svg>