<?xml version="1.0" encoding="UTF-8"?>
<svg width="46px" height="46px" viewBox="0 0 46 46" version="1.1" xmlns="http://www.w3.org/2000/svg" xmlns:xlink="http://www.w3.org/1999/xlink">
    <!-- Generator: Sketch 63.1 (92452) - https://sketch.com -->
    <!--<title>illustrazione/functional/altri-ricavi</title>-->
    <desc>Created with Sketch.</desc>
    <g id="illustrazione/functional/altri-ricavi" stroke="none" stroke-width="1" fill="none" fill-rule="evenodd">
        <g id="bank" transform="translate(1.000000, 1.000000)">
            <g id="Group" transform="translate(7.555122, 0.000000)" fill-rule="nonzero">
                <path d="M28.8143814,28.5478868 C28.8151493,28.2159766 28.7234576,27.8909346 28.5491746,27.6083044 L26.8594888,24.8882029 C26.6488898,24.4699239 26.5397698,24.0077737 26.5412293,23.5395278 L26.5412293,15.1593522 C26.5412293,9.71906341 22.131442,5.3092761 16.6911532,5.3092761 L12.1449444,5.3092761 C6.70465561,5.3092761 2.29486829,9.71906341 2.29486829,15.1593522 L2.29486829,23.5395278 C2.29641366,24.0077737 2.18729366,24.4700098 1.97660878,24.8882029 L0.286922927,27.6083044 C0.11264,27.8909346 0.0209482927,28.2159766 0.0217161322,28.5478868 L0.0217161322,28.5478868 C0.0254985366,29.5215532 0.813549268,30.309518 1.78712976,30.3132956 L27.0487961,30.3132956 C28.0225483,30.309518 28.810599,29.5214673 28.8143814,28.5478868 Z" id="Path" fill="#57AB2D"></path>
                <path d="M17.1707317,16.5574913 C17.1707317,17.4926829 16.5089431,18.3818815 15.3821138,18.7191127 L15.3821138,19.6236934 C15.3821138,20.0530128 14.9886775,20.3902439 14.4878049,20.3902439 C13.9869322,20.3902439 13.5934959,20.0530128 13.5934959,19.6236934 L13.5934959,18.7191127 C13.2178266,18.6118978 12.8779892,18.4278235 12.5918699,18.1825784 C12.2341463,17.8759582 12.2341463,17.4006969 12.5918699,17.0940256 C12.9495935,16.8027364 13.504065,16.8027364 13.8618482,17.0940256 C14.0406504,17.2473868 14.2552846,17.3086597 14.4878049,17.3086597 C14.9349593,17.3086597 15.3821138,17.0327015 15.3821138,16.5574402 C15.3821138,16.1281208 14.9886775,15.7908897 14.4878049,15.7908897 C13.0211382,15.7908897 11.804878,14.7637631 11.804878,13.4912381 C11.804878,12.5714286 12.4130678,11.697561 13.5934959,11.3602276 L13.5934959,10.4250871 C13.5934959,9.99576771 13.9869322,9.65853659 14.4878049,9.65853659 C14.9886775,9.65853659 15.3821138,9.99576771 15.3821138,10.4250871 L15.3821138,11.3602787 C15.7577832,11.4675958 16.0976206,11.620957 16.3837398,11.8662532 C16.7414634,12.1728734 16.7414634,12.6481347 16.3837398,12.954806 C16.0260163,13.2460952 15.4715447,13.2460952 15.1137615,12.954806 C14.9349593,12.8014448 14.7203252,12.7401719 14.4878049,12.7401719 C14.0406504,12.7401719 13.5934959,13.0161301 13.5934959,13.4913914 C13.5934959,13.9207108 13.9869322,14.2579419 14.4878049,14.2579419 C15.9544715,14.2578397 17.1707317,15.2849663 17.1707317,16.5574913 Z" id="Path" fill="#FFFFFF"></path>
                <polygon id="Path" fill="#57AB2D" points="16.691239 5.3092761 20.4797034 0.00540878049 8.35656585 0.00540878049 12.1450302 5.3092761 12.1450302 6.82467902 16.691239 6.82467902"></polygon>
            </g>
            <path d="M36.1042966,27.6083044 L34.4146107,24.8882029 C34.2040117,24.4699239 34.0948917,24.0077737 34.0963512,23.5395278 L34.0963512,15.1593522 C34.1016741,12.9650185 33.3735493,10.8313834 32.027879,9.09774049 C30.0048234,20.24352 22.8824898,26.6688078 16.192,30.3133091 L34.6040898,30.3133091 C35.5829932,30.3170732 36.3801444,29.5267902 36.3839412,28.5471141 C36.3854673,28.2152039 36.2937756,27.890162 36.1194927,27.6083044 L36.1042966,27.6083044 Z" id="Path" fill="#31760E" fill-rule="nonzero"></path>
            <g id="Group" transform="translate(0.000000, 1.459512)" fill="#FFD949" fill-rule="nonzero">
                <path d="M37.1271571,6.12282537 L37.1271571,6.12282537 C36.8695102,4.56801561 35.651161,3.34966634 34.0963512,3.09201951 L34.0963512,3.09201951 C35.651161,2.83437268 36.8695102,1.61602341 37.1271571,0.0612136585 L37.1271571,0.0612136585 C37.3848039,1.61602341 38.6031532,2.83437268 40.1579629,3.09201951 L40.1579629,3.09201951 C38.6031532,3.34966634 37.3848039,4.56810146 37.1271571,6.12282537 Z" id="Path"></path>
                <path d="M3.03080585,21.2767688 L3.03080585,21.2767688 C2.77315902,19.7220449 1.55480976,18.5036098 0,18.2460488 L0,18.2460488 C1.55480976,17.988402 2.77315902,16.7700527 3.03080585,15.2152429 L3.03080585,15.2152429 C3.28845268,16.7700527 4.50680195,17.988402 6.06161171,18.2460488 L6.06161171,18.2460488 C4.50680195,18.5036098 3.28836683,19.7220449 3.03080585,21.2767688 Z" id="Path"></path>
            </g>
            <path d="M43.6206127,26.4414673 C42.9985171,25.3943102 41.6619473,25.0238517 40.5898068,25.6004449 L29.8380956,30.1920702 C29.6487024,30.2723434 29.4448859,30.3140683 29.2395239,30.3132956 L15.911602,30.3132956 C15.0743571,30.3132956 14.396199,29.6351376 14.396199,28.7978927 C14.396199,27.9606478 15.0743571,27.2824898 15.911602,27.2824898 L21.9732137,27.2824898 C24.4842615,27.2824898 26.5194224,25.2473288 26.5194224,22.736281 L13.9112976,22.736281 C11.8215337,22.7378263 9.84552585,23.6887415 8.53926244,25.3200468 L3.78846439,31.0709541 L9.13783415,40.8755278 L29.7245112,35.9277815 C30.614041,35.7224195 31.4748098,35.4072507 32.2855259,34.988199 L42.8932605,29.5554654 C43.9487454,28.8925893 44.2730146,27.5037346 43.6206127,26.4414673 Z" id="Path" fill="#FFCFAB" fill-rule="nonzero"></path>
            <path d="M7.43303805,37.7538888 L9.13783415,40.8756137 L29.7245112,35.9278673 C30.614041,35.7225054 31.4748098,35.4073366 32.2855259,34.9882849 L38.0213229,32.0408429 C28.4894205,34.9579785 15.835879,36.7764449 7.43303805,37.7538888 Z" id="Path" fill="#F2BA95"></path>
            <polygon id="Path" fill="#3D9AE2" points="0 30.3132956 0 43.9518361 9.8500761 43.9518361 12.1231376 41.6787746 3.03080585 28.0402341"></polygon>
            <path d="M0,43.9518361 L9.8500761,43.9518361 L12.1231376,41.6787746 L10.4562029,39.1783727 C7.08601756,40.5694595 3.58241561,41.612839 0,42.2925424 L0,43.9518361 Z" id="Path" fill="#3D9AE2"></path>
            <circle id="Oval" fill="#FFFFFF" fill-rule="nonzero" cx="6.81927024" cy="40.1656039" r="1.51540293"></circle>
        </g>
    </g>
</svg>