<svg xmlns="http://www.w3.org/2000/svg" width="140" height="30" viewBox="0 0 140 30">
    <g fill="none">
        <path fill="#F33" d="M3 0h137l-10.114 12L140 24H0V3c0-1.657 1.343-3 3-3z"/>
        <path fill="#A32903" d="M0 24L5 24 5 30z"/>
        <path fill="#FFF" d="M35.615 16.771c.68 0 1.284-.125 1.814-.375.529-.25.94-.602 1.233-1.057.293-.455.453-.98.48-1.573h-2.044c-.016.484-.149.838-.399 1.06-.25.223-.611.334-1.084.334-.558 0-.952-.195-1.18-.586-.229-.39-.343-1.04-.343-1.951v-.603c.012-.84.137-1.452.375-1.834.238-.383.613-.575 1.125-.575.504 0 .879.114 1.125.34.246.227.377.6.392 1.12h2.051c-.086-.958-.443-1.709-1.072-2.254C37.459 8.272 36.627 8 35.592 8c-.719 0-1.352.17-1.899.513-.547.341-.965.826-1.256 1.453-.291.627-.437 1.358-.437 2.194v.422c0 1.332.322 2.363.967 3.094.644.73 1.527 1.095 2.648 1.095zm8.004 0c.727 0 1.374-.172 1.943-.518.568-.346 1.006-.839 1.315-1.48.309-.64.463-1.377.463-2.209v-.392c-.004-.82-.163-1.548-.478-2.183-.314-.635-.755-1.124-1.321-1.468-.566-.343-1.21-.515-1.934-.515-.73 0-1.381.174-1.954.521-.572.348-1.011.841-1.318 1.48-.307.639-.46 1.376-.46 2.212v.48c.016.805.18 1.518.495 2.139.315.621.753 1.099 1.316 1.433.562.333 1.207.5 1.933.5zm0-1.605c-.547 0-.959-.225-1.236-.674-.278-.449-.416-1.092-.416-1.928l.006-.627c.058-1.546.603-2.32 1.634-2.32.528 0 .933.22 1.216.66.283.439.425 1.082.425 1.93v.393c-.004.828-.146 1.463-.428 1.904-.28.441-.681.662-1.2.662zm6.838 1.488v-1.992l-.2-4.084 2.07 6.076h1.359l2.062-6.07-.2 4.078v1.992h2.063V8.123h-2.707l-1.898 5.936-1.904-5.936H48.4v8.531h2.057zm10.652 0V8.123h-2.05v8.531h2.05zm3.487 0v-5.308l3.023 5.308h2.045V8.123h-2.05v5.309l-3.018-5.309h-2.057v8.531h2.057zm9.96.117c.727 0 1.395-.107 2.005-.322.609-.215 1.072-.498 1.388-.85v-3.503h-3.486v1.412h1.43v1.324c-.262.238-.66.357-1.196.357-.625 0-1.083-.213-1.374-.641-.29-.428-.436-1.068-.436-1.92v-.515c.004-.812.146-1.437.427-1.875.282-.437.68-.656 1.196-.656.43 0 .761.102.996.305.234.203.387.543.457 1.02h1.98c-.097-.966-.44-1.691-1.028-2.178C76.327 8.243 75.502 8 74.439 8c-.726 0-1.366.169-1.918.507-.553.338-.978.82-1.275 1.447-.297.627-.445 1.36-.445 2.2l.006.739c.047 1.218.404 2.17 1.072 2.853.668.684 1.56 1.025 2.678 1.025zm10.876 0c.98 0 1.752-.212 2.314-.638.563-.426.844-1.012.844-1.758 0-.934-.461-1.666-1.383-2.197-.379-.219-.863-.423-1.453-.613-.59-.189-1.002-.373-1.236-.55-.235-.178-.352-.376-.352-.595 0-.25.106-.456.32-.618.212-.162.502-.243.87-.243.363 0 .65.095.864.287.213.191.32.46.32.808h2.05c0-.52-.135-.981-.404-1.385-.27-.405-.648-.716-1.134-.935-.487-.219-1.036-.328-1.65-.328-.629 0-1.195.1-1.699.302-.504.2-.893.482-1.169.843-.275.362-.413.779-.413 1.251 0 .95.553 1.696 1.658 2.239.34.168.778.341 1.313.521.535.18.909.354 1.122.522.213.168.32.402.32.703 0 .265-.1.471-.297.618-.197.146-.466.22-.805.22-.532 0-.915-.109-1.152-.326-.236-.216-.354-.553-.354-1.01h-2.063c0 .562.142 1.06.425 1.49.283.433.705.772 1.266 1.02.56.248 1.186.372 1.878.372zm7.716 0c.727 0 1.374-.172 1.943-.518.568-.346 1.007-.839 1.315-1.48.309-.64.463-1.377.463-2.209v-.392c-.004-.82-.163-1.548-.477-2.183-.315-.635-.755-1.124-1.322-1.468-.566-.343-1.21-.515-1.933-.515-.73 0-1.382.174-1.954.521-.573.348-1.012.841-1.319 1.48-.306.639-.46 1.376-.46 2.212v.48c.016.805.181 1.518.495 2.139.315.621.753 1.099 1.316 1.433.562.333 1.207.5 1.933.5zm0-1.605c-.546 0-.959-.225-1.236-.674-.277-.449-.416-1.092-.416-1.928l.006-.627c.059-1.546.603-2.32 1.635-2.32.527 0 .932.22 1.216.66.283.439.424 1.082.424 1.93v.393c-.004.828-.146 1.463-.427 1.904-.282.441-.682.662-1.202.662zm8.286 1.605c.726 0 1.374-.172 1.942-.518.568-.346 1.007-.839 1.315-1.48.309-.64.463-1.377.463-2.209v-.392c-.004-.82-.163-1.548-.477-2.183-.315-.635-.755-1.124-1.322-1.468-.566-.343-1.21-.515-1.933-.515-.73 0-1.382.174-1.954.521-.572.348-1.012.841-1.319 1.48-.306.639-.46 1.376-.46 2.212v.48c.016.805.181 1.518.496 2.139.314.621.752 1.099 1.315 1.433.563.333 1.207.5 1.934.5zm0-1.605c-.547 0-.96-.225-1.237-.674-.277-.449-.416-1.092-.416-1.928l.006-.627c.059-1.546.604-2.32 1.635-2.32.527 0 .932.22 1.216.66.283.439.424 1.082.424 1.93v.393c-.003.828-.146 1.463-.427 1.904-.281.441-.682.662-1.201.662zm6.837 1.488v-5.308l3.024 5.308h2.045V8.123h-2.05v5.309l-3.019-5.309h-2.056v8.531h2.056zm8.239-2.7l.252-5.831h-2.104l.252 5.83h1.6zm-.815 2.806c.313 0 .574-.093.783-.279.209-.185.313-.422.313-.711 0-.29-.104-.527-.313-.712-.21-.186-.47-.279-.783-.279-.312 0-.573.093-.782.279-.209.185-.313.422-.313.712 0 .289.104.526.313.711.21.186.47.279.782.279z"/>
        <g fill="#FFF">
            <path d="M8.728 0v1.74c1.24.204 2.395.731 3.36 1.536l.219.19.212.2c1.327 1.305 2.059 3.043 2.059 4.89 0 1.164-.3 2.315-.868 3.33-.246.439-1.858-.44-1.61-.883.416-.745.637-1.591.637-2.447 0-2.805-2.324-5.09-5.181-5.09-2.858 0-5.182 2.285-5.182 5.09 0 2.804 2.324 5.088 5.182 5.088.943 0 1.847-.244 2.644-.711.076-.044.8 1.067.892 1.595-1.07.616-2.279.939-3.536.939-1.874 0-3.638-.719-4.964-2.022C1.265 12.14.533 10.402.533 8.555c0-1.846.732-3.584 2.06-4.888C3.632 2.642 4.95 1.976 6.388 1.74V0h2.34zM7.574 7.089l1.887-2.292 1.435 1.142-1.892 2.3.012.047.01.067.009.067.006.136c0 .81-.667 1.466-1.485 1.466-.819 0-1.486-.656-1.486-1.466 0-.768.6-1.398 1.37-1.462l.134-.005zm3.314-5.686L12.072.007l2.084 1.71-1.184 1.395-2.084-1.709zm-9.932.313L3.04.007l1.183 1.396-2.084 1.71L.956 1.715z" transform="translate(7 4)"/>
        </g>
    </g>
</svg>
