<svg xmlns="http://www.w3.org/2000/svg" width="46" height="46" viewBox="0 0 46 46">
    <g fill="none" fill-rule="evenodd">
        <g fill-rule="nonzero">
            <g>
                <path fill="#F99E0A" d="M2.965 30l.018-.008H43v-.011L40.01 3.193C39.935 2.513 39.366 2 38.688 2H1.331C.537 2-.08 2.698.01 3.494L2.965 30z" transform="translate(1 7)"/>
                <path fill="#FFB900" d="M42.393 5.678c.862 0 1.562.69 1.606 1.552l.001.145-.795 23.223c-.025.733-.582 1.323-1.285 1.39l-.133.006h-2.772c.097 0 .19-.01.282-.028-.238.019-.92.028-3.092.032h-.467l-.25.001h-1.116l-.153.001H30.244l-2.996-.001h-2.325l-.624-.001-2.679-.001h-2.979l-.394-.001h-3.778l-.446-.001h-9.51c-.81 0-1.466-.647-1.511-1.454L3 30.397l.987-28.822C4.013.793 4.575.155 5.304.02L5.444 0l8.847.025h2.772c.635.002 1.21.385 1.467.978l1.821 4.214c.121.28.393.46.692.46h21.35z" transform="translate(1 7)"/>
            </g>
        </g>
    </g>
</svg>
