<svg xmlns="http://www.w3.org/2000/svg" width="22" height="18" viewBox="0 0 22 18">
    <g fill="none" fill-rule="evenodd">
        <g fill="#264D7A">
            <g>
                <g>
                    <g>
                        <path d="M22 10.781v4.64C22 16.845 20.844 18 19.422 18H2.578C1.156 18 0 16.844 0 15.422v-4.64h1.719v4.64c0 .474.385.86.86.86h16.843c.474 0 .86-.386.86-.86v-4.64H22z" transform="translate(-1171 -245) translate(140 216) translate(918 18) translate(113 11)"/>
                        <path d="M11.816 0v8.203h5.513l-6.372 6.372-6.372-6.372h5.513V0h1.718zm1.363 9.922H8.735l2.222 2.222 2.222-2.222z" transform="translate(-1171 -245) translate(140 216) translate(918 18) translate(113 11) rotate(-180 10.957 7.287)"/>
                    </g>
                </g>
            </g>
        </g>
    </g>
</svg>
