<svg xmlns="http://www.w3.org/2000/svg" width="80" height="80" viewBox="0 0 80 80">
    <g fill="none" fill-rule="evenodd" opacity=".5">
        <path fill="#264D7A" d="M11.201.527C16.241-.84 21.85.452 25.806 4.409c.263.263.515.534.755.812l.01.011c.289.335.56.68.815 1.032l.071.1.02.03c.1.14.197.282.29.426.1.153.198.307.291.462l.046.076c.108.182.213.366.313.552l.058.11c.151.285.293.574.424.867.067.15.131.3.193.451.163.397.308.8.436 1.207l.008.028c.033.103.063.205.093.308l.002.01-.002-.01c.06.206.114.414.165.623l.03.127c.07.303.131.609.183.915l.025.16.029.183.019.144c.346 2.559.034 5.189-.936 7.618l32.978 29.744 1.16 1.046c2.126 1.918 3.025 4.671 2.672 7.294-.164 1.221-.6 2.414-1.31 3.482-.112.168-.23.332-.356.493-.212.273-.444.537-.695.789l.064-.068-.064.067-.2.193c-.23.216-.47.417-.718.602l-.125.091-.22.153c-.322.215-.655.405-.996.57-.672.325-1.38.555-2.1.688-.063.012-.125.022-.187.032-.291.048-.584.079-.878.095l-.257.01-.257.002c-2.23-.015-4.45-.921-6.081-2.704L20.427 29.17l-.336.12c-1.46.506-2.983.78-4.51.824l-.353.006c-3.88.02-7.765-1.448-10.725-4.408-.103-.103-.204-.207-.303-.312l-.097-.104c-.078-.084-.155-.169-.23-.254l-.065-.074c-3.41-3.896-4.47-9.13-3.187-13.86.182-.674 1.02-.901 1.514-.409l7.197 7.197c.913.914 2.395.914 3.309 0l5.35-5.35c.913-.913.913-2.395 0-3.309L10.794 2.04C10.3 1.548 10.529.71 11.2.527zm46.333 54.541c-1.376 0-2.491 1.116-2.491 2.492s1.115 2.492 2.491 2.492c1.377 0 2.492-1.116 2.492-2.492s-1.115-2.492-2.492-2.492z" transform="translate(6.957 6.957)"/>
        <path fill="#D0D9DF" fill-rule="nonzero" d="M65.676 8.257c.438.438.326 1.175-.222 1.464l-4.645 2.452-22.404 22.404-3.604-3.604L57.205 8.569l2.452-4.645c.289-.548 1.026-.66 1.464-.221z" transform="translate(6.957 6.957)"/>
        <path fill="#92A6BC" fill-rule="nonzero" d="M40.408 36.122c1.099 1.099 1.099 2.88 0 3.98l-2.424 2.423c-.747-.29-1.536-.441-2.327-.455l-.263.001c-1.67.037-3.327.693-4.601 1.966-1.006 1.006-1.626 2.251-1.86 3.552l-.043.26c-.159 1.134-.028 2.3.39 3.38L16.434 64.077c-1.439 1.439-3.296 2.204-5.18 2.296l-.257.008h-.257c-1.972-.032-3.933-.8-5.437-2.304l-.193-.199-.028-.03-.063-.07c-.056-.062-.111-.125-.165-.189l-.055-.065c-.048-.058-.095-.117-.142-.177l-.064-.083c-.062-.081-.121-.163-.179-.245l-.049-.07c-.042-.062-.083-.124-.123-.187l-.065-.102-.1-.166-.057-.098c-.1-.178-.194-.359-.28-.543l-.012-.025c-1.353-2.911-.828-6.48 1.575-8.883l12.847-12.848c2.409.936 5.247.433 7.192-1.512 1.944-1.944 2.447-4.782 1.512-7.191l2.423-2.424c1.1-1.099 2.881-1.099 3.98 0z" transform="translate(6.957 6.957)"/>
        <g fill="#E9EDF2" fill-rule="nonzero">
            <path d="M1.164 12.134c-.268 0-.537-.103-.742-.308-.41-.41-.41-1.074 0-1.484l9.94-9.94c.41-.41 1.074-.41 1.484 0 .41.41.41 1.074 0 1.484l-9.94 9.94c-.205.205-.473.308-.742.308zM4.837 15.806c-.269 0-.537-.102-.742-.307-.41-.41-.41-1.074 0-1.484l9.94-9.94c.41-.41 1.074-.41 1.484 0 .41.41.41 1.074 0 1.484l-9.94 9.94c-.205.205-.474.307-.742.307z" transform="translate(6.957 6.957) translate(8.687 44.86)"/>
        </g>
    </g>
</svg>
