<?xml version="1.0" encoding="UTF-8"?>
<svg width="22px" height="22px" viewBox="0 0 22 22" version="1.1" xmlns="http://www.w3.org/2000/svg" xmlns:xlink="http://www.w3.org/1999/xlink">
    <!-- Generator: Sketch 62 (91390) - https://sketch.com -->
    <!--<title>icon/22/action</title>-->
    <desc>Created with Sketch.</desc>
    <g id="icon/22/action" stroke="none" stroke-width="1" fill="none" fill-rule="evenodd">
        <g id="149-menu-1" transform="translate(8.500000, 0.500000)" fill="#264D7A">
            <path d="M2.5,5 C1.12152778,5 0,3.87847222 0,2.5 C0,1.12152778 1.12152778,0 2.5,0 C3.87847222,0 5,1.12152778 5,2.5 C5,3.87847222 3.87847222,5 2.5,5 Z M2.5,21 C1.12152778,21 0,19.8784722 0,18.5 C0,17.1215278 1.12152778,16 2.5,16 C3.87847222,16 5,17.1215278 5,18.5 C5,19.8784722 3.87847222,21 2.5,21 Z M2.5,13 C1.12152778,13 0,11.8784722 0,10.5 C0,9.12152778 1.12152778,8 2.5,8 C3.87847222,8 5,9.12152778 5,10.5 C5,11.8784722 3.87847222,13 2.5,13 Z" id="Shape"></path>
        </g>
    </g>
</svg>