<?xml version="1.0" encoding="UTF-8"?>
<svg width="22px" height="22px" viewBox="0 0 22 22" version="1.1" xmlns="http://www.w3.org/2000/svg" xmlns:xlink="http://www.w3.org/1999/xlink">
    <!-- Generator: Sketch 62 (91390) - https://sketch.com -->
    <!--<title>icon/22/adeguatezza</title>-->
    <desc>Created with Sketch.</desc>
    <g id="icon/22/adeguatezza" stroke="none" stroke-width="1" fill="none" fill-rule="evenodd">
        <g id="040-password" fill="#264D7A">
            <path d="M17.1250701,7.94786996 L17.1250701,12.4836743 C17.1250701,13.9679385 15.9179104,15.1750981 14.4336463,15.1750981 L7.5663537,15.1750981 C6.08208955,15.1750981 4.87492993,13.9679385 4.87492993,12.4836743 L4.87492993,7.94786996 C4.87492993,6.47088035 6.07028572,5.26828568 7.54455017,5.25653307 L7.54455017,3.39219494 C7.54455017,1.52093921 9.09464238,0 10.9990064,0 C12.903261,0 14.4534627,1.5209941 14.4534627,3.39219494 L14.4534627,5.25651795 C15.92864,5.26720521 17.1250701,6.47021681 17.1250701,7.94786996 Z M12.4618708,3.39219494 C12.4618708,2.62133546 11.8067925,1.99159193 10.9990064,1.99159193 C10.1912204,1.99159193 9.5361421,2.62133549 9.5361421,3.39219494 L9.5361421,5.25644619 L12.4618708,5.25644619 L12.4618708,3.39219494 Z M6.86652186,7.94786996 L6.86652186,12.4836743 C6.86652186,12.8694029 7.18062516,13.1835062 7.5663537,13.1835062 L14.4336463,13.1835062 C14.8193748,13.1835062 15.1334781,12.8694029 15.1334781,12.4836743 L15.1334781,7.94786996 C15.1334781,7.56214141 14.8193748,7.24803812 14.4336463,7.24803812 L7.5663537,7.24803812 C7.18062516,7.24803812 6.86652186,7.56214141 6.86652186,7.94786996 Z M22,15.451023 L22,19.7324832 C22,20.9829361 20.9829361,22 19.7324832,22 L2.26751682,22 C1.01706389,22 0,20.9829361 0,19.7324832 L0,15.451023 C0,14.2005701 1.01706389,13.1835062 2.26751682,13.1835062 L3.87836323,13.1835062 L3.87836323,15.1750981 L2.26751682,15.1750981 C2.11543388,15.1750981 1.99159193,15.29894 1.99159193,15.451023 L1.99159193,19.7324832 C1.99159193,19.8845661 2.11543388,20.0084081 2.26751682,20.0084081 L19.7324832,20.0084081 C19.8845661,20.0084081 20.0084081,19.8845661 20.0084081,19.7324832 L20.0084081,15.451023 C20.0084081,15.29894 19.8845661,15.1750981 19.7324832,15.1750981 L18.503153,15.1750981 L18.503153,13.1835062 L19.7324832,13.1835062 C20.9829361,13.1835062 22,14.2005701 22,15.451023 Z M9.3043722,16.6171525 C9.85438514,16.6171525 10.3001682,17.0629355 10.3001682,17.6129484 C10.3001682,18.1629614 9.85438514,18.6087444 9.3043722,18.6087444 C8.75435925,18.6087444 8.30857623,18.1629614 8.30857623,17.6129484 C8.30857623,17.0629355 8.75435925,16.6171525 9.3043722,16.6171525 Z M5.91311659,16.6171525 C6.46312954,16.6171525 6.90891256,17.0629355 6.90891256,17.6129484 C6.90891256,18.1629614 6.46312954,18.6087444 5.91311659,18.6087444 C5.36310365,18.6087444 4.91732063,18.1629614 4.91732063,17.6129484 C4.91732063,17.0629355 5.36310365,16.6171525 5.91311659,16.6171525 Z M12.6956278,16.6171525 C13.2456407,16.6171525 13.6914238,17.0629355 13.6914238,17.6129484 C13.6914238,18.1629614 13.2456407,18.6087444 12.6956278,18.6087444 C12.1456149,18.6087444 11.6998318,18.1629614 11.6998318,17.6129484 C11.6998318,17.0629355 12.1456149,16.6171525 12.6956278,16.6171525 Z M16.0868834,16.6171525 C16.6368964,16.6171525 17.0826794,17.0629355 17.0826794,17.6129484 C17.0826794,18.1629614 16.6368964,18.6087444 16.0868834,18.6087444 C15.5368705,18.6087444 15.0910874,18.1629614 15.0910874,17.6129484 C15.0910874,17.0629355 15.5368705,16.6171525 16.0868834,16.6171525 Z M10.004204,10.1945768 C10.004204,9.64456385 10.4499871,9.19878083 11,9.19878083 C11.5500129,9.19878083 11.995796,9.64456385 11.995796,10.1945768 C11.995796,10.7445897 11.5500129,11.1903728 11,11.1903728 C10.4499871,11.1903728 10.004204,10.7445897 10.004204,10.1945768 Z" id="Shape"></path>
        </g>
    </g>
</svg>