<?xml version="1.0" encoding="UTF-8"?>
<svg width="22px" height="22px" viewBox="0 0 22 22" version="1.1" xmlns="http://www.w3.org/2000/svg" xmlns:xlink="http://www.w3.org/1999/xlink">
    <!-- Generator: Sketch 62 (91390) - https://sketch.com -->
    <!--<title>icon/22/alert-danger</title>-->
    <desc>Created with Sketch.</desc>
    <g id="icon/22/alert-danger" stroke="none" stroke-width="1" fill="none" fill-rule="evenodd">
        <path d="M11.0000337,1 C12.2926704,1 13.4502882,1.66835376 14.0965526,2.78769263 L21.5152208,15.6368143 C22.1615931,16.756261 22.1615931,18.0928607 21.5152208,19.2123074 C20.8688486,20.3317541 19.7112308,21 18.418666,21 L3.58125762,21 C2.28862096,21 1.13100316,20.3316462 0.484738749,19.2123074 C-0.161525661,18.0929685 -0.161633503,16.756261 0.484738749,15.6368143 L7.90351483,2.78769263 C8.54977924,1.66835376 9.70739704,1 11.0000337,1 Z M10.9999259,14.3506116 C10.2679626,14.3506116 9.67245606,14.9461018 9.67245606,15.6780449 C9.67245606,16.4099881 10.2679626,17.0054783 10.9999259,17.0054783 C11.7318891,17.0054783 12.3273957,16.4099881 12.3273957,15.6780449 C12.3273957,14.9461018 11.7318891,14.3506116 10.9999259,14.3506116 Z M10.9999259,6.38989399 C10.2856488,6.38989399 9.70452124,6.97100553 9.70452124,7.685263 L9.70452124,7.685263 L9.70452124,11.8891014 C9.70452124,12.6033588 10.2856488,13.1844704 10.9999259,13.1844704 C11.714203,13.1844704 12.2953305,12.6033948 12.2953305,11.8891014 L12.2953305,11.8891014 L12.2953305,7.685263 C12.2953305,6.97100553 11.714203,6.38989399 10.9999259,6.38989399 Z" id="Shape" fill="#C7615E"></path>
    </g>
</svg>