<?xml version="1.0" encoding="UTF-8"?>
<svg width="22px" height="22px" viewBox="0 0 22 22" version="1.1" xmlns="http://www.w3.org/2000/svg" xmlns:xlink="http://www.w3.org/1999/xlink">
    <!-- Generator: Sketch 62 (91390) - https://sketch.com -->
    <!--<title>icon/22/attachment</title>-->
    <desc>Created with Sketch.</desc>
    <g id="icon/22/attachment" stroke="none" stroke-width="1" fill="none" fill-rule="evenodd">
        <g id="082-attachment" transform="translate(0.000000, 1.000000)" fill="#264D7A">
            <path d="M5.99562745,20 C4.45999127,20 2.9251623,19.404676 1.75628133,18.2137539 C0.62372607,17.0599795 0,15.5258174 0,13.8940567 C0,12.2624331 0.62372607,10.728271 1.75628133,9.57449664 L10.1317816,1.04078845 L11.3473479,2.27927618 L2.97157849,10.8127102 C2.16393663,11.6358556 1.71901384,12.7301387 1.71901384,13.8940567 C1.71901384,15.0581118 2.16393663,16.1523949 2.97157849,16.9752661 C3.77948942,17.7984115 4.8535199,18.2517241 5.99589655,18.2517241 C7.13840773,18.2517241 8.21230365,17.7984115 9.02008005,16.9752661 L19.5250748,6.24915366 C20.5339881,5.22135276 20.5338536,3.55011398 19.5257475,2.52299849 C18.5336517,1.51192096 16.9085466,1.49821329 15.9008442,2.4913338 L8.75974571,9.75214801 C8.42528001,10.0929206 8.42528001,10.6486294 8.7602839,10.9899503 C9.09542228,11.3314083 9.64057717,11.3314083 9.97585012,10.9899503 L17.2615788,3.61042772 L18.473378,4.85247946 L11.1895328,12.230083 C10.1860012,13.2525379 8.55013286,13.2525379 7.54485218,12.2284381 C6.53970602,11.2040641 6.53970602,9.53748593 7.54485218,8.51311197 L14.6995392,1.23872716 C15.5149844,0.432030958 16.5911675,-0.00771100436 17.7274898,0 C18.8658303,0.00805278655 19.9362282,0.464381052 20.7413138,1.28451075 C22.4195621,2.99440517 22.4195621,5.77678747 20.7413138,7.48681892 L10.236319,18.2130685 C9.06716896,19.4044018 7.53112914,20 5.99562745,20 L5.99562745,20 Z" id="Path"></path>
        </g>
    </g>
</svg>