<?xml version="1.0" encoding="UTF-8"?>
<svg width="22px" height="22px" viewBox="0 0 22 22" version="1.1" xmlns="http://www.w3.org/2000/svg" xmlns:xlink="http://www.w3.org/1999/xlink">
    <!-- Generator: Sketch 62 (91390) - https://sketch.com -->
    <!--<title>icon/22/calendar</title>-->
    <desc>Created with Sketch.</desc>
    <g id="icon/22/calendar" stroke="none" stroke-width="1" fill="none" fill-rule="evenodd">
        <g id="136-calendar" fill="#264D7A">
            <path d="M22,4.296875 L22,19.421875 C22,20.8436035 20.8436035,22 19.421875,22 L2.578125,22 C1.15639648,22 0,20.8436035 0,19.421875 L0,4.296875 C0,2.87514648 1.15639648,1.71875 2.578125,1.71875 L4.46875,1.71875 L4.46875,0 L6.1875,0 L6.1875,5.15625 L4.46875,5.15625 L4.46875,3.4375 L2.578125,3.4375 C2.10426026,3.4375 1.71875,3.82301026 1.71875,4.296875 L1.71875,19.421875 C1.71875,19.8957397 2.10426026,20.28125 2.578125,20.28125 L19.421875,20.28125 C19.8957397,20.28125 20.28125,19.8957397 20.28125,19.421875 L20.28125,4.296875 C20.28125,3.82301026 19.8957397,3.4375 19.421875,3.4375 L17.53125,3.4375 L17.53125,1.71875 L19.421875,1.71875 C20.8436035,1.71875 22,2.87514648 22,4.296875 Z M15.8125,5.15625 L17.53125,5.15625 L17.53125,0 L15.8125,0 L15.8125,1.71875 L6.1875,1.71875 L6.1875,3.4375 L15.8125,3.4375 L15.8125,5.15625 Z M11.859375,17.196875 L13.759375,17.196875 L13.759375,15.296875 L11.859375,15.296875 L11.859375,17.196875 Z M13.759375,11.859375 L11.859375,11.859375 L11.859375,13.759375 L13.759375,13.759375 L13.759375,11.859375 Z M13.759375,8.421875 L11.859375,8.421875 L11.859375,10.321875 L13.759375,10.321875 L13.759375,8.421875 Z M15.296875,13.759375 L17.196875,13.759375 L17.196875,11.859375 L15.296875,11.859375 L15.296875,13.759375 Z M17.196875,8.421875 L15.296875,8.421875 L15.296875,10.321875 L17.196875,10.321875 L17.196875,8.421875 Z M6.884375,11.859375 L4.984375,11.859375 L4.984375,13.759375 L6.884375,13.759375 L6.884375,11.859375 Z M6.884375,8.421875 L4.984375,8.421875 L4.984375,10.321875 L6.884375,10.321875 L6.884375,8.421875 Z M4.984375,17.196875 L6.884375,17.196875 L6.884375,15.296875 L4.984375,15.296875 L4.984375,17.196875 Z M8.421875,17.196875 L10.321875,17.196875 L10.321875,15.296875 L8.421875,15.296875 L8.421875,17.196875 Z M10.321875,8.421875 L8.421875,8.421875 L8.421875,10.321875 L10.321875,10.321875 L10.321875,8.421875 Z M10.321875,11.859375 L8.421875,11.859375 L8.421875,13.759375 L10.321875,13.759375 L10.321875,11.859375 Z" id="Shape"></path>
        </g>
    </g>
</svg>