<?xml version="1.0" encoding="UTF-8"?>
<svg width="22px" height="22px" viewBox="0 0 22 22" version="1.1" xmlns="http://www.w3.org/2000/svg" xmlns:xlink="http://www.w3.org/1999/xlink">
    <!-- Generator: Sketch 62 (91390) - https://sketch.com -->
    <!--<title>icon/22/calendar-ADD</title>-->
    <desc>Created with Sketch.</desc>
    <g id="icon/22/calendar-ADD" stroke="none" stroke-width="1" fill="none" fill-rule="evenodd">
        <g id="136-calendar" fill="#264D7A">
            <path d="M6.1875,4.61852778e-14 L6.1875,1.71875 L14.8125,1.71875 L14.8125,4.61852778e-14 L16.53125,4.61852778e-14 L16.531,1.718 L18.421875,1.71875 C19.8436035,1.71875 21,2.87514648 21,4.296875 L21.0017638,7.5734114 C20.4802085,7.08365205 19.9033227,6.65212984 19.2814875,6.28922612 L19.28125,4.296875 C19.28125,3.82301026 18.8957397,3.4375 18.421875,3.4375 L16.531,3.437 L16.53125,5.15625 L14.8125,5.15625 L14.8125,3.4375 L6.187,3.437 L6.1875,5.15625 L4.46875,5.15625 L4.46875,3.4375 L2.578125,3.4375 C2.10426026,3.4375 1.71875,3.82301026 1.71875,4.296875 L1.71875,19.421875 C1.71875,19.8957397 2.10426026,20.28125 2.578125,20.28125 L6.96140965,20.2817625 C7.45542815,20.9249275 8.02990405,21.503066 8.66978534,22.0011261 L2.578125,22 C1.15639648,22 6.21724894e-14,20.8436035 6.21724894e-14,19.421875 L6.21724894e-14,4.296875 C6.21724894e-14,2.87514648 1.15639648,1.71875 2.578125,1.71875 L4.46875,1.71875 L4.46875,4.61852778e-14 L6.1875,4.61852778e-14 Z M14.5,7 C18.6421356,7 22,10.3578644 22,14.5 C22,18.6421356 18.6421356,22 14.5,22 C10.3578644,22 7,18.6421356 7,14.5 C7,10.3578644 10.3578644,7 14.5,7 Z M14.5,8.53846154 C11.2075332,8.53846154 8.53846154,11.2075332 8.53846154,14.5 C8.53846154,17.7924668 11.2075332,20.4615385 14.5,20.4615385 C17.7924668,20.4615385 20.4615385,17.7924668 20.4615385,14.5 C20.4615385,11.2075332 17.7924668,8.53846154 14.5,8.53846154 Z M15.2692308,10.6538462 L15.2692308,13.7307692 L18.3461538,13.7307692 L18.3461538,15.2692308 L15.2692308,15.2692308 L15.2692308,18.3461538 L13.7307692,18.3461538 L13.7307692,15.2692308 L10.6538462,15.2692308 L10.6538462,13.7307692 L13.7307692,13.7307692 L13.7307692,10.6538462 L15.2692308,10.6538462 Z" id="Combined-Shape"></path>
        </g>
    </g>
</svg>