<?xml version="1.0" encoding="UTF-8"?>
<svg width="22px" height="22px" viewBox="0 0 22 22" version="1.1" xmlns="http://www.w3.org/2000/svg" xmlns:xlink="http://www.w3.org/1999/xlink">
    <!-- Generator: Sketch 62 (91390) - https://sketch.com -->
    <!--<title>icon/22/chart</title>-->
    <desc>Created with Sketch.</desc>
    <g id="icon/22/chart" stroke="none" stroke-width="1" fill="none" fill-rule="evenodd">
        <g id="194-pie-chart" fill="#264D7A">
            <path d="M18.7781494,3.22185057 C16.7006104,1.14417724 13.9381226,0 11,0 C8.06187745,0 5.29938963,1.14417724 3.22185057,3.22185057 C1.14417724,5.29938963 5.68434189e-14,8.06187745 5.68434189e-14,11 C5.68434189e-14,13.9108643 1.12363281,16.6485107 3.1643799,18.7193359 C3.19580078,18.7569336 3.23044432,18.7913086 3.26723633,18.8227295 C5.33967287,20.8718018 8.08295898,22 11,22 C13.9381226,22 16.7006104,20.8558228 18.7781494,18.7781494 C20.8558228,16.7006104 22,13.9381225 22,11 C22,8.06187745 20.8558228,5.29938963 18.7781494,3.22185057 Z M20.2411011,10.140625 L11.859375,10.140625 L11.859375,1.75889893 C16.2925415,2.16790771 19.8320923,5.70745849 20.2411011,10.140625 Z M10.140625,1.75889893 L10.140625,10.6328857 C9.56914063,11.1802002 8.16271974,12.5304932 6.77670898,13.8837402 C5.72357177,14.9117676 4.88742678,15.741333 4.29136964,16.3490723 C4.10646974,16.5374634 3.94372557,16.7057129 3.80327148,16.8536865 C2.50078125,15.2553833 1.71875,13.217456 1.71875,11 C1.71875,6.1720581 5.42426758,2.1940918 10.140625,1.75889893 Z M5.00599364,18.0799072 C6.02797852,17.0034058 8.55239258,14.5352539 10.9867065,12.2020508 L16.9240479,18.1392578 C15.3155396,19.4762573 13.2499512,20.28125 11,20.28125 C8.71701662,20.28125 6.62416992,19.4520874 5.00599364,18.0799072 L5.00599364,18.0799072 Z M18.1392578,16.9240479 L13.0747192,11.859375 L20.2411011,11.859375 C20.0643921,13.7743042 19.3039795,15.5225952 18.1392578,16.9240479 Z" id="Shape"></path>
        </g>
    </g>
</svg>