<?xml version="1.0" encoding="UTF-8"?>
<svg width="22px" height="22px" viewBox="0 0 22 22" version="1.1" xmlns="http://www.w3.org/2000/svg" xmlns:xlink="http://www.w3.org/1999/xlink">
    <!-- Generator: Sketch 62 (91390) - https://sketch.com -->
    <!--<title>icon/22/cliente-ADD</title>-->
    <desc>Created with Sketch.</desc>
    <g id="icon/22/cliente-ADD" stroke="none" stroke-width="1" fill="none" fill-rule="evenodd">
        <path d="M15,8 C18.8659932,8 22,11.1340068 22,15 C22,18.8659932 18.8659932,22 15,22 C11.1340068,22 8,18.8659932 8,15 C8,11.1340068 11.1340068,8 15,8 Z M15,9.43589744 C11.927031,9.43589744 9.43589744,11.927031 9.43589744,15 C9.43589744,18.072969 11.927031,20.5641026 15,20.5641026 C18.072969,20.5641026 20.5641026,18.072969 20.5641026,15 C20.5641026,11.927031 18.072969,9.43589744 15,9.43589744 Z M15.7179487,11.4102564 L15.7179487,14.2820513 L18.5897436,14.2820513 L18.5897436,15.7179487 L15.7179487,15.7179487 L15.7179487,18.5897436 L14.2820513,18.5897436 L14.2820513,15.7179487 L11.4102564,15.7179487 L11.4102564,14.2820513 L14.2820513,14.2820513 L14.2820513,11.4102564 L15.7179487,11.4102564 Z M7.5,0 C9.94629006,0 11.9362077,1.97191668 11.9362077,4.39160996 C11.9362077,5.11550151 11.7580518,5.81758844 11.4179053,6.44865259 L11.2827886,6.68187633 L11.1770308,6.84995134 C10.143628,7.33553398 9.21762229,8.01187681 8.44438501,8.83360854 C8.1374216,8.79988572 7.82227737,8.78321992 7.5,8.78321992 C5.47234942,8.78321992 3.72706834,9.44277866 2.34162662,10.6604784 C1.95296411,11.002779 1.71460519,11.4825902 1.67082003,11.9978939 L1.66349214,12.1708364 L1.66349214,13.3662397 L6.14793226,13.3661779 C6.05076655,13.8960165 6,14.4420797 6,15 L2.27373675e-13,15 L2.27373675e-13,12.1708364 C2.27373675e-13,11.1258 0.449305638,10.1315348 1.23264282,9.44279019 C1.76643877,8.97384796 2.35339379,8.56743844 2.98954471,8.2313066 L3.31170147,8.06913301 L4.287786,7.60162996 L3.71705727,6.6820818 C3.28915239,5.99264892 3.06379235,5.20604738 3.06379235,4.39160996 C3.06379235,1.97178799 5.05355796,0 7.5,0 Z M7.5,1.63376034 C5.97108657,1.63376034 4.72728449,2.86920957 4.72728449,4.39160996 C4.72728449,5.91401035 5.97108657,7.14945958 7.5,7.14945958 C9.02875211,7.14945958 10.2727155,5.91389146 10.2727155,4.39160996 C10.2727155,2.86932846 9.02875211,1.63376034 7.5,1.63376034 Z" id="Combined-Shape" fill="#264D7A"></path>
    </g>
</svg>