<?xml version="1.0" encoding="UTF-8"?>
<svg width="22px" height="22px" viewBox="0 0 22 22" version="1.1" xmlns="http://www.w3.org/2000/svg" xmlns:xlink="http://www.w3.org/1999/xlink">
    <!-- Generator: Sketch 62 (91390) - https://sketch.com -->
<!--    <title>icon/22/client</title>-->
    <desc>Created with Sketch.</desc>
    <g id="icon/22/client" stroke="none" stroke-width="1" fill="none" fill-rule="evenodd">
        <g id="177-id-card" transform="translate(2.000000, 0.000000)" fill="#264D7A">
            <path d="M15.447412,0 L2.55258804,0 C1.14494209,0 0,1.18760485 0,2.64770241 L0,19.3522976 C0,20.8123951 1.14494209,22 2.55258804,22 L15.447412,22 C16.854925,22 18,20.8123951 18,19.3522976 L18,2.64770241 C18,1.18760485 16.854925,0 15.447412,0 Z M16.2982746,19.3522976 C16.2982746,19.8389508 15.91645,20.2348651 15.447412,20.2348651 L2.55258804,20.2348651 C2.08341702,20.2348651 1.70172536,19.8389508 1.70172536,19.3522976 L1.70172536,2.64770241 C1.70172536,2.1610492 2.08341702,1.76513494 2.55258804,1.76513494 L15.447412,1.76513494 C15.91645,1.76513494 16.2982746,2.1610492 16.2982746,2.64770241 L16.2982746,19.3522976 Z M11.1751507,10.1580724 C11.4143229,9.75526302 11.552588,9.28115883 11.552588,8.77437203 C11.552588,7.3144124 10.407513,6.12666962 9,6.12666962 C7.59235405,6.12666962 6.44741196,7.3144124 6.44741196,8.77437203 C6.44741196,9.28129672 6.58567714,9.75526302 6.82471636,10.1580724 C6.37269556,10.3845061 6.0121425,10.6572746 5.73853699,10.9086684 C5.26976481,11.3397474 5.0009454,11.9618196 5.0009454,12.615609 L5.0009454,13.9394602 L6.70267076,13.9394602 L6.70267076,12.615609 C6.70267076,12.4665379 6.76263,12.3260166 6.86712656,12.2297616 C7.26796266,11.8612896 7.96340996,11.4220744 9,11.4220744 C10.0364571,11.4220744 10.7319044,11.8612896 11.1327405,12.2297616 C11.2372371,12.3260166 11.2973292,12.4665379 11.2973292,12.615609 L11.2973292,13.9394602 L12.9990546,13.9394602 L12.9990546,12.615609 C12.9990546,11.9618196 12.7301022,11.3397474 12.261463,10.9086684 C11.9879904,10.6572746 11.6271715,10.384644 11.1751507,10.1580724 Z M8.14913732,8.77437203 C8.14913732,8.28771882 8.53082897,7.89180456 9,7.89180456 C9.46903805,7.89180456 9.85086268,8.28771882 9.85086268,8.77437203 C9.85086268,9.26102524 9.46903805,9.6569395 9,9.6569395 C8.53082897,9.6569395 8.14913732,9.26102524 8.14913732,8.77437203 Z M5.0009454,15.7045952 L12.9990546,15.7045952 L12.9990546,17.4697301 L5.0009454,17.4697301 L5.0009454,15.7045952 Z" id="Shape"></path>
        </g>
    </g>
</svg>
