<?xml version="1.0" encoding="UTF-8"?>
<svg width="22px" height="22px" viewBox="0 0 22 22" version="1.1" xmlns="http://www.w3.org/2000/svg" xmlns:xlink="http://www.w3.org/1999/xlink">
    <!-- Generator: Sketch 62 (91390) - https://sketch.com -->
    <!--<title>icon/22/cliente</title>-->
    <desc>Created with Sketch.</desc>
    <g id="icon/22/cliente" stroke="none" stroke-width="1" fill="none" fill-rule="evenodd">
        <path d="M20.2549188,14.4272906 C19.0402438,13.3599469 17.2159625,12.1510469 14.730375,11.5063781 C16.3222125,10.3494531 17.359375,8.4734375 17.359375,6.359375 C17.359375,2.85288438 14.506525,0 11,0 C7.493475,0 4.640625,2.85288438 4.640625,6.359375 C4.640625,8.4734375 5.6777875,10.3494531 7.2697625,11.5063781 C4.7840375,12.1510469 2.95975625,13.3599469 1.74508125,14.4272906 C0.6362125,15.4016156 0,16.8109906 0,18.2939625 L0,22 L22,22 L22,18.2939625 C22,16.8109906 21.3637875,15.4016156 20.2549188,14.4272906 Z M6.359375,6.359375 C6.359375,3.80060312 8.44119375,1.71875 11,1.71875 C13.5588062,1.71875 15.640625,3.80060312 15.640625,6.359375 C15.640625,8.91818125 13.5588062,11 11,11 C8.44119375,11 6.359375,8.91818125 6.359375,6.359375 Z M20.28125,20.28125 L1.71875,20.28125 L1.71875,18.2939625 C1.71875,17.3054063 2.14187188,16.3665563 2.87959375,15.7183813 C4.41478125,14.369575 7.0697,12.7617188 11,12.7617188 C14.9303,12.7617188 17.5852187,14.369575 19.1204062,15.7183813 C19.8581281,16.3665563 20.28125,17.3054063 20.28125,18.2939625 L20.28125,20.28125 Z" id="Fill-1" fill="#264D7A"></path>
    </g>
</svg>