<?xml version="1.0" encoding="UTF-8"?>
<svg width="22px" height="22px" viewBox="0 0 22 22" version="1.1" xmlns="http://www.w3.org/2000/svg" xmlns:xlink="http://www.w3.org/1999/xlink">
    <!-- Generator: Sketch 62 (91390) - https://sketch.com -->
    <!--<title>icon/22/clock</title>-->
    <desc>Created with Sketch.</desc>
    <g id="icon/22/clock" stroke="none" stroke-width="1" fill="none" fill-rule="evenodd">
        <g id="124-wall-clock" fill="#264D7A">
            <path d="M18.7781494,3.22185057 C16.7006104,1.14417724 13.9381225,0 11,0 C8.06187745,0 5.29938963,1.14417724 3.22185057,3.22185057 C1.14417724,5.29938963 0,8.06187745 0,11 C0,13.9381226 1.14417724,16.7006104 3.22185057,18.7781494 C5.29938963,20.8558228 8.06187745,22 11,22 C13.9381225,22 16.7006104,20.8558228 18.7781494,18.7781494 C20.8558228,16.7006104 22,13.9381225 22,11 C22,8.06187745 20.8558228,5.29938963 18.7781494,3.22185057 Z M11,20.28125 C5.88242188,20.28125 1.71875,16.1175781 1.71875,11 C1.71875,5.88242188 5.88242188,1.71875 11,1.71875 C16.1175781,1.71875 20.28125,5.88242188 20.28125,11 C20.28125,16.1175781 16.1175781,20.28125 11,20.28125 Z M12.6473145,11.4907837 L15.7740967,14.6015869 L14.5618408,15.8202881 L11.3975952,12.6718872 C11.2698974,12.7023682 11.1369629,12.71875 11,12.71875 C10.0507935,12.71875 9.28125,11.9492065 9.28125,11 C9.28125,10.3817871 9.6078125,9.83997802 10.0976562,9.5371826 L10.0976562,3.48046875 L11.8164062,3.48046875 L11.8164062,9.48723146 C12.3536499,9.7779419 12.71875,10.3462036 12.71875,11 C12.71875,11.1705322 12.6935059,11.3351562 12.6473145,11.4907837 L12.6473145,11.4907837 Z" id="Shape"></path>
        </g>
    </g>
</svg>