<?xml version="1.0" encoding="UTF-8"?>
<svg width="22px" height="22px" viewBox="0 0 22 22" version="1.1" xmlns="http://www.w3.org/2000/svg" xmlns:xlink="http://www.w3.org/1999/xlink">
    <!-- Generator: Sketch 62 (91390) - https://sketch.com -->
    <!--<title>icon/22/close-tables</title>-->
    <desc>Created with Sketch.</desc>
    <g id="icon/22/close-tables" stroke="none" stroke-width="1" fill="none" fill-rule="evenodd">
        <path d="M16.9551293,11.8592476 L16.9551293,10.1406812 L5.04707826,10.1404913 L5.04707826,11.8594375 L16.9551293,11.8592476 Z M18.778139,18.778139 C16.7005726,20.8557054 13.9381433,21.9999288 10.9999644,21.9999288 C8.06178555,21.9999288 5.2993562,20.8557054 3.22178982,18.778139 C1.14422344,16.7005726 2.48689958e-14,13.9381433 2.48689958e-14,10.9999644 C2.48689958e-14,8.06178555 1.14422344,5.2993562 3.22178982,3.22178982 C5.2993562,1.14422344 8.06178555,0 10.9999644,0 C13.9381433,0 16.7005726,1.14422344 18.778139,3.22178982 C20.8557054,5.2993562 21.9999288,8.06178555 21.9999288,10.9999644 C21.9999288,13.9381433 20.8557054,16.7005726 18.778139,18.778139 Z" id="Shape" fill="#264D7A"></path>
    </g>
</svg>