<?xml version="1.0" encoding="UTF-8"?>
<svg width="22px" height="22px" viewBox="0 0 22 22" version="1.1" xmlns="http://www.w3.org/2000/svg" xmlns:xlink="http://www.w3.org/1999/xlink">
    <!-- Generator: Sketch 62 (91390) - https://sketch.com -->
    <!--<title>icon/22/confronto</title>-->
    <desc>Created with Sketch.</desc>
    <g id="icon/22/confronto" stroke="none" stroke-width="1" fill="none" fill-rule="evenodd">
        <g id="243-moon-phase-4" fill="#264D7A">
            <path d="M18.7781494,3.22185057 C16.7006104,1.14417724 13.9381226,0 11,0 C8.06187745,0 5.29938963,1.14417724 3.22185057,3.22185057 C1.14417724,5.29938963 5.68434189e-14,8.06187745 5.68434189e-14,11 C5.68434189e-14,13.9381226 1.14417724,16.7006104 3.22185057,18.7781494 C5.29938963,20.8558228 8.06187745,22 11,22 C13.9381226,22 16.7006104,20.8558228 18.7781494,18.7781494 C20.8558228,16.7006104 22,13.9381225 22,11 C22,8.06187745 20.8558228,5.29938963 18.7781494,3.22185057 Z M1.71875,11 C1.71875,6.1720581 5.42426758,2.1940918 10.140625,1.75889893 L10.140625,20.2411011 C5.42426758,19.8059082 1.71875,15.8279419 1.71875,11 Z M18.1329468,16.9312988 C17.9762451,16.7220947 17.7270264,16.5859375 17.4453125,16.5859375 C16.9706421,16.5859375 16.5859375,16.9706421 16.5859375,17.4453125 C16.5859375,17.7270263 16.7220947,17.9762451 16.9312988,18.1329468 C16.5851318,18.4215088 16.217749,18.6852295 15.8314331,18.9215576 C15.6848022,18.8047363 15.4990967,18.734375 15.296875,18.734375 C14.8222046,18.734375 14.4375,19.1190796 14.4375,19.59375 C14.4375,19.6028809 14.4385742,19.6114746 14.4388428,19.6204712 C13.6286133,19.9448853 12.7625244,20.1577148 11.859375,20.2411011 L11.859375,1.75889893 C12.7625244,1.84228516 13.6286133,2.05524901 14.4388428,2.3795288 C14.4385742,2.38852539 14.4375,2.39711914 14.4375,2.40625 C14.4375,2.88092042 14.8222046,3.265625 15.296875,3.265625 C15.4990967,3.265625 15.6848022,3.19526367 15.8314331,3.0784424 C16.2074097,3.30859375 16.5660645,3.56452635 16.9044434,3.84436037 C16.7102783,4.00173338 16.5859375,4.24208984 16.5859375,4.51171875 C16.5859375,4.98638917 16.9706421,5.37109375 17.4453125,5.37109375 C17.716687,5.37109375 17.9583862,5.24487305 18.1158935,5.04855959 C18.4109009,5.40063477 18.6806641,5.77473146 18.9216919,6.1685669 C18.8047363,6.31533203 18.734375,6.50090334 18.734375,6.703125 C18.734375,7.17779542 19.1190796,7.5625 19.59375,7.5625 C19.6028809,7.5625 19.6114746,7.56142578 19.6204712,7.56115724 C19.9834229,8.46779787 20.2072632,9.44439698 20.2654053,10.4649048 C20.1080322,10.2673828 19.8657959,10.140625 19.59375,10.140625 C19.1190796,10.140625 18.734375,10.5253296 18.734375,11 C18.734375,11.4746704 19.1190796,11.859375 19.59375,11.859375 C19.8657959,11.859375 20.1080322,11.7326172 20.2654053,11.5350952 C20.2072632,12.555603 19.9834229,13.5323364 19.6204712,14.4388428 C19.6114746,14.4385742 19.6028809,14.4375 19.59375,14.4375 C19.1190796,14.4375 18.734375,14.8222046 18.734375,15.296875 C18.734375,15.4990967 18.8047363,15.684668 18.9216919,15.8314331 C18.6852295,16.217749 18.4213745,16.5851318 18.1329468,16.9312988 L18.1329468,16.9312988 Z M14.0078125,13.1484375 C14.0078125,13.6231079 13.6231079,14.0078125 13.1484375,14.0078125 C12.6737671,14.0078125 12.2890625,13.6231079 12.2890625,13.1484375 C12.2890625,12.6737671 12.6737671,12.2890625 13.1484375,12.2890625 C13.6231079,12.2890625 14.0078125,12.6737671 14.0078125,13.1484375 Z M16.15625,11 C16.15625,11.4746704 15.7715454,11.859375 15.296875,11.859375 C14.8222046,11.859375 14.4375,11.4746704 14.4375,11 C14.4375,10.5253296 14.8222046,10.140625 15.296875,10.140625 C15.7715454,10.140625 16.15625,10.5253296 16.15625,11 Z M18.3046875,8.8515625 C18.3046875,9.32623292 17.9199829,9.7109375 17.4453125,9.7109375 C16.9706421,9.7109375 16.5859375,9.32623292 16.5859375,8.8515625 C16.5859375,8.37689208 16.9706421,7.9921875 17.4453125,7.9921875 C17.9199829,7.9921875 18.3046875,8.37689208 18.3046875,8.8515625 Z M16.15625,6.703125 C16.15625,7.17779542 15.7715454,7.5625 15.296875,7.5625 C14.8222046,7.5625 14.4375,7.17779542 14.4375,6.703125 C14.4375,6.22845458 14.8222046,5.84375 15.296875,5.84375 C15.7715454,5.84375 16.15625,6.22845458 16.15625,6.703125 Z M16.15625,15.296875 C16.15625,15.7715454 15.7715454,16.15625 15.296875,16.15625 C14.8222046,16.15625 14.4375,15.7715454 14.4375,15.296875 C14.4375,14.8222046 14.8222046,14.4375 15.296875,14.4375 C15.7715454,14.4375 16.15625,14.8222046 16.15625,15.296875 Z M14.0078125,17.4453125 C14.0078125,17.9199829 13.6231079,18.3046875 13.1484375,18.3046875 C12.6737671,18.3046875 12.2890625,17.9199829 12.2890625,17.4453125 C12.2890625,16.9706421 12.6737671,16.5859375 13.1484375,16.5859375 C13.6231079,16.5859375 14.0078125,16.9706421 14.0078125,17.4453125 Z M18.3046875,13.1484375 C18.3046875,13.6231079 17.9199829,14.0078125 17.4453125,14.0078125 C16.9706421,14.0078125 16.5859375,13.6231079 16.5859375,13.1484375 C16.5859375,12.6737671 16.9706421,12.2890625 17.4453125,12.2890625 C17.9199829,12.2890625 18.3046875,12.6737671 18.3046875,13.1484375 Z M14.0078125,8.8515625 C14.0078125,9.32623292 13.6231079,9.7109375 13.1484375,9.7109375 C12.6737671,9.7109375 12.2890625,9.32623292 12.2890625,8.8515625 C12.2890625,8.37689208 12.6737671,7.9921875 13.1484375,7.9921875 C13.6231079,7.9921875 14.0078125,8.37689208 14.0078125,8.8515625 Z M14.0078125,4.51171875 C14.0078125,4.98638917 13.6231079,5.37109375 13.1484375,5.37109375 C12.6737671,5.37109375 12.2890625,4.98638917 12.2890625,4.51171875 C12.2890625,4.03704833 12.6737671,3.65234375 13.1484375,3.65234375 C13.6231079,3.65234375 14.0078125,4.03704833 14.0078125,4.51171875 Z" id="Shape"></path>
        </g>
    </g>
</svg>