<?xml version="1.0" encoding="UTF-8"?>
<svg width="22px" height="22px" viewBox="0 0 22 22" version="1.1" xmlns="http://www.w3.org/2000/svg" xmlns:xlink="http://www.w3.org/1999/xlink">
    <!-- Generator: Sketch 62 (91390) - https://sketch.com -->
    <!--<title>icon/22/delete</title>-->
    <desc>Created with Sketch.</desc>
    <g id="icon/22/delete" stroke="none" stroke-width="1" fill="none" fill-rule="evenodd">
        <g id="081-trash" transform="translate(1.500000, 0.000000)" fill="#264D7A">
            <path d="M17.3271,6.5737 L16.0671,19.6637 C15.9391,20.9957 14.8101,21.9997 13.4401,21.9997 L13.4401,21.9997 L5.5601,21.9997 C4.1901,21.9997 3.0611,20.9957 2.9331,19.6637 L2.9331,19.6637 L1.6731,6.5737 L17.3271,6.5737 Z M15.3951,8.2927 L3.6051,8.2927 L4.6841,19.5017 C4.7271,19.9467 5.1031,20.2807 5.5601,20.2807 L5.5601,20.2807 L13.4401,20.2807 C13.8961,20.2807 14.2731,19.9467 14.3161,19.5017 L14.3161,19.5017 L15.3951,8.2927 Z M11.04,3.19744231e-14 C12.495,3.19744231e-14 13.678,1.156 13.678,2.578 L13.678,2.578 L13.678,3.134 L19,3.134 L19,4.853 L0,4.853 L0,3.134 L5.322,3.134 L5.322,2.578 C5.322,1.156 6.505,3.19744231e-14 7.961,3.19744231e-14 L7.961,3.19744231e-14 Z M11.04,1.718 L7.961,1.718 C7.476,1.718 7.081,2.104 7.081,2.578 L7.081,2.578 L7.081,3.134 L11.919,3.134 L11.919,2.578 C11.919,2.104 11.524,1.718 11.04,1.718 L11.04,1.718 Z" id="Combined-Shape"></path>
        </g>
    </g>
</svg>