<?xml version="1.0" encoding="UTF-8"?>
<svg width="22px" height="22px" viewBox="0 0 22 22" version="1.1" xmlns="http://www.w3.org/2000/svg" xmlns:xlink="http://www.w3.org/1999/xlink">
    <!-- Generator: Sketch 62 (91390) - https://sketch.com -->
    <!--<title>icon/22/diagnosi</title>-->
    <desc>Created with Sketch.</desc>
    <g id="icon/22/diagnosi" stroke="none" stroke-width="1" fill="none" fill-rule="evenodd">
        <g id="002-doctor-2" fill="#264D7A">
            <path d="M17.2540108,12.0923628 C17.2540108,10.7835758 18.3183087,9.71918615 19.6270054,9.71918615 C20.9357311,9.71918615 22,10.7835647 22,12.0923628 C22,13.0761127 21.3932584,13.9443876 20.5016163,14.2985053 L20.5016163,19.1046859 C20.5016163,20.7014045 19.2030975,22 17.606473,22 C16.0098486,22 14.7113297,20.7014045 14.7113297,19.1046859 L14.7113297,17.0109678 C14.7113297,16.3792742 14.1970432,15.8649788 13.5653663,15.8649788 C12.933726,15.8649788 12.4194448,16.3792796 12.4194448,17.0109678 L12.4194448,19.1046859 C12.4194448,20.7014045 11.120926,22 9.52430152,22 C7.92767707,22 6.6291582,20.7014045 6.6291582,19.1046859 L6.6291582,14.8864435 C4.56802735,14.5634874 2.84542232,13.1189721 2.17740814,11.1164147 L0.150277823,5.0395389 C-0.14485837,4.15472042 -0.00100851202,3.21062623 0.544233065,2.45387768 C1.08946159,1.69714723 1.93950046,1.26191985 2.87219907,1.26191985 L4.13924657,1.26191985 L4.13924657,0 L5.88846846,0 L5.88846846,4.2732068 L4.13924657,4.2732068 L4.13924657,3.01128695 L2.87219907,3.01128695 C2.50677807,3.01128695 2.17706513,3.18010113 1.96341417,3.47658137 C1.74979653,3.77306336 1.69400275,4.13929353 1.80963205,4.48595982 L3.8368033,10.5627904 C4.36410282,12.1435176 5.83756615,13.2053269 7.50381117,13.2053269 C9.17008192,13.2053269 10.643524,12.143536 11.1707771,10.5627903 L13.1979125,4.48589919 C13.3135653,4.13930062 13.2577502,3.77305073 13.0440711,3.47656614 C12.8305171,3.1801245 12.5007494,3.01128695 12.1353392,3.01128695 L10.8684178,3.01128695 L10.8684178,4.2732068 L9.11919588,4.2732068 L9.11919588,0 L10.8684178,0 L10.8684178,1.26196186 L12.1353812,1.26196186 C13.0680717,1.26196186 13.9180257,1.6971401 14.4633052,2.45387768 C15.0085443,3.21062276 15.1523988,4.15475983 14.8572587,5.03954419 L12.8301302,11.1164146 C12.162122,13.1189539 10.43953,14.5634453 8.3783801,14.8864396 L8.3783801,19.1046859 C8.3783801,19.7363898 8.89263489,20.2506749 9.52430152,20.2506749 C10.1559682,20.2506749 10.6702229,19.7363898 10.6702229,19.1046859 L10.6702229,17.0109678 C10.6702229,15.4142492 11.9687418,14.1156537 13.5653663,14.1156537 C15.1619975,14.1156537 16.4605516,15.414256 16.4605516,17.0109678 L16.4605516,19.1046859 C16.4605516,19.7363741 16.9748328,20.2506749 17.606473,20.2506749 C18.2381133,20.2506749 18.7523945,19.7363741 18.7523945,19.1046859 L18.7523945,14.2985075 C17.8607447,13.9443966 17.2540108,13.076104 17.2540108,12.0923628 Z M19.6270054,12.7161723 C19.9707414,12.7161723 20.2508201,12.4360958 20.2508201,12.0923207 C20.2508201,11.7485457 19.9707414,11.4684692 19.6270054,11.4684692 C19.2832553,11.4684692 19.0032327,11.7485177 19.0032327,12.0923207 C19.0032327,12.4361238 19.2832553,12.7161723 19.6270054,12.7161723 Z" id="Shape"></path>
        </g>
    </g>
</svg>