<?xml version="1.0" encoding="UTF-8"?>
<svg width="22px" height="22px" viewBox="0 0 22 22" version="1.1" xmlns="http://www.w3.org/2000/svg" xmlns:xlink="http://www.w3.org/1999/xlink">
    <!-- Generator: Sketch 62 (91390) - https://sketch.com -->
    <!--<title>icon/22/document</title>-->
    <desc>Created with Sketch.</desc>
    <g id="icon/22/document" stroke="none" stroke-width="1" fill="none" fill-rule="evenodd">
        <g id="attached" transform="translate(2.500000, 0.000000)" fill="#264D7A">
            <path d="M14.483105,1.67578125 L8.21523823,1.67578125 C7.85801841,0.697906516 6.93814464,0 5.86206897,0 C4.78599329,0 3.86611952,0.697906516 3.5088997,1.67578125 L2.51231527,1.67578125 C1.12694348,1.67578125 0,2.83224485 0,4.25390625 L0,19.421875 C0,20.8435364 1.12694348,22 2.51231527,22 L14.483105,22 C15.8683132,22 16.9954203,20.8435364 16.9954203,19.421875 L16.9954203,4.25390625 C16.9954203,2.83224485 15.8683132,1.67578125 14.483105,1.67578125 Z M15.3205434,19.421875 C15.3205434,19.8957062 14.9448411,20.28125 14.483105,20.28125 L2.51231527,20.28125 C2.05057919,20.28125 1.67487685,19.8957062 1.67487685,19.421875 L1.67487685,4.25390625 C1.67487685,3.78007506 2.05057919,3.39453125 2.51231527,3.39453125 L5.02463054,3.39453125 L5.02463054,2.578125 C5.02463054,2.10429381 5.40033289,1.71875 5.86206897,1.71875 C6.32380504,1.71875 6.69950739,2.10429381 6.69950739,2.578125 L6.69950739,8.63671875 C6.69950739,9.11054994 6.32380504,9.49609375 5.86206897,9.49609375 C5.40033289,9.49609375 5.02463054,9.11054994 5.02463054,8.63671875 L5.02463054,5.11328125 L3.34975369,5.11328125 L3.34975369,8.63671875 C3.34975369,10.0583801 4.47686077,11.2148438 5.86206897,11.2148438 C7.24744075,11.2148438 8.37438424,10.0583801 8.37438424,8.63671875 L8.37438424,3.39453125 L14.483105,3.39453125 C14.9448411,3.39453125 15.3205434,3.78007506 15.3205434,4.25390625 L15.3205434,19.421875 Z" id="Shape"></path>
        </g>
    </g>
</svg>