<?xml version="1.0" encoding="UTF-8"?>
<svg width="22px" height="22px" viewBox="0 0 22 22" version="1.1" xmlns="http://www.w3.org/2000/svg" xmlns:xlink="http://www.w3.org/1999/xlink">
    <!-- Generator: Sketch 62 (91390) - https://sketch.com -->
    <!--<title>icon/22/download</title>-->
    <desc>Created with Sketch.</desc>
    <g id="icon/22/download" stroke="none" stroke-width="1" fill="none" fill-rule="evenodd">
        <g id="077-download" transform="translate(0.000000, 2.000000)" fill="#264D7A">
            <path d="M22,10.78125 L22,15.421875 C22,16.8436035 20.8436035,18 19.421875,18 L2.578125,18 C1.15639648,18 0,16.8436035 0,15.421875 L0,10.78125 L1.71875,10.78125 L1.71875,15.421875 C1.71875,15.8957397 2.10426026,16.28125 2.578125,16.28125 L19.421875,16.28125 C19.8957397,16.28125 20.28125,15.8957397 20.28125,15.421875 L20.28125,10.78125 L22,10.78125 Z M4.585437,8.203125 L10.0976562,8.203125 L10.0976562,0 L11.8164062,0 L11.8164062,8.203125 L17.3286255,8.203125 L10.9570312,14.5747192 L4.585437,8.203125 Z M13.179187,9.921875 L8.7348755,9.921875 L10.9570313,12.1440308 L13.179187,9.921875 Z" id="Shape"></path>
        </g>
    </g>
</svg>