<?xml version="1.0" encoding="UTF-8"?>
<svg width="22px" height="22px" viewBox="0 0 22 22" version="1.1" xmlns="http://www.w3.org/2000/svg" xmlns:xlink="http://www.w3.org/1999/xlink">
    <!-- Generator: Sketch 62 (91390) - https://sketch.com -->
    <!--<title>icon/22/edit</title>-->
    <desc>Created with Sketch.</desc>
    <g id="icon/22/edit" stroke="none" stroke-width="1" fill="none" fill-rule="evenodd">
        <g id="pencil" fill="#264D7A">
            <path d="M21.9627395,3.47066888 C21.9618988,2.55333209 21.6032104,1.69144431 20.9526367,1.04364646 C19.6108704,-0.292489014 17.4295349,-0.290646331 16.0892792,1.04867203 L2.2444458,14.9221339 C1.79411315,15.3712537 1.45036315,15.9272508 1.25028991,16.5301535 L1.23736572,16.5693531 L0,22 L5.45635986,20.7807931 L5.49697878,20.7673915 C6.10122683,20.5677083 6.65864564,20.2249635 7.11015319,19.7745035 L20.9568329,5.89936647 C21.6062317,5.25039598 21.9635773,4.38783807 21.9627395,3.47066888 Z M3.02577211,19.5672819 L2.44720459,18.9895072 L2.86497496,17.1555038 L4.86788938,19.1556865 L3.02577211,19.5672819 Z M19.7407837,4.68887064 L6.29811097,18.1592806 L3.86383057,15.7282377 L13.0720672,6.50109649 L14.4742584,7.90055432 L15.6886292,6.68855081 L14.2839203,5.28658019 L15.590271,3.97775035 L16.9974976,5.38223379 L18.2118683,4.17023028 L16.802124,2.76323405 L17.3051605,2.25916791 C17.975708,1.58908993 19.0678864,1.5880848 19.7396088,2.25699012 C20.0652313,2.58130786 20.2448273,3.01283807 20.2453313,3.47200904 C20.2456665,3.93134747 20.0669098,4.36304519 19.7407837,4.68887064 Z M9.03451536,20.2673459 L21.962738,20.2673459 L21.962738,21.9814053 L7.32298278,21.9814053 L9.03451536,20.2673459 Z" id="Shape"></path>
        </g>
    </g>
</svg>