<?xml version="1.0" encoding="UTF-8"?>
<svg width="22px" height="22px" viewBox="0 0 22 22" version="1.1" xmlns="http://www.w3.org/2000/svg" xmlns:xlink="http://www.w3.org/1999/xlink">
    <!-- Generator: Sketch 62 (91390) - https://sketch.com -->
    <!--<title>icon/22/email</title>-->
    <desc>Created with Sketch.</desc>
    <g id="icon/22/email" stroke="none" stroke-width="1" fill="none" fill-rule="evenodd">
        <g id="084-email" transform="translate(0.000000, 2.500000)" fill="#264D7A">
            <path d="M19.421875,0.0171370968 L2.578125,0.0171370968 C1.15639648,0.0171370968 0,1.17027626 0,2.58770161 L0,14.4122984 C0,15.8298576 1.15639648,16.9828629 2.578125,16.9828629 L19.421875,16.9828629 C20.8436035,16.9828629 22,15.8298576 22,14.4122984 L22,2.58770161 C22,1.17027626 20.8436035,0.0171370968 19.421875,0.0171370968 Z M14.6547607,8.4479193 L20.28125,3.27586316 L20.28125,13.7091419 L14.6547607,8.4479193 Z M19.421875,1.73084677 C19.4232178,1.73084677 19.4245605,1.73098065 19.4260376,1.73098065 L11,9.47668064 L2.57396239,1.73098065 C2.57543945,1.73098065 2.57678224,1.73084677 2.578125,1.73084677 L19.421875,1.73084677 Z M1.71875,13.7094097 L1.71875,3.27586316 L7.34644776,8.44912424 L1.71875,13.7094097 Z M2.578125,15.2691532 C2.57342528,15.2691532 2.56872557,15.2684838 2.56402589,15.2684838 L8.61362305,9.61377742 L11,11.8075936 L13.3877197,9.61257247 L19.436377,15.2684838 C19.4314087,15.2684838 19.426709,15.2691532 19.421875,15.2691532 L2.578125,15.2691532 Z" id="Shape"></path>
        </g>
    </g>
</svg>