<?xml version="1.0" encoding="UTF-8"?>
<svg width="22px" height="22px" viewBox="0 0 22 22" version="1.1" xmlns="http://www.w3.org/2000/svg" xmlns:xlink="http://www.w3.org/1999/xlink">
    <!-- Generator: Sketch 62 (91390) - https://sketch.com -->
    <!--<title>icon/22/expert</title>-->
    <desc>Created with Sketch.</desc>
    <g id="icon/22/expert" stroke="none" stroke-width="1" fill="none" fill-rule="evenodd">
        <g id="003-call-center" fill="#264D7A">
            <path d="M20.1814336,7.94350391 C19.8993867,5.97141016 18.9931758,4.15078125 17.5592656,2.717 C15.8072578,0.96490625 13.47775,0 10.999957,0 C8.52216406,0 6.19269922,0.96490625 4.44064844,2.71695703 C3.00682422,4.15078125 2.10057031,5.97145313 1.81852344,7.94346094 C0.769570313,8.26980859 0.00580078125,9.24966797 0.00580078125,10.404582 L0.00580078125,13.1531211 C0.00580078125,14.5739258 1.16174609,15.7298711 2.58255078,15.7298711 L5.15930078,15.7298711 L5.15930078,7.82783203 L3.57972656,7.82783203 C3.86293359,6.36079297 4.57548438,5.01157422 5.65533203,3.93164063 C7.08292578,2.50404688 8.98107031,1.71784766 11,1.71784766 C14.6724531,1.71784766 17.7410234,4.35067188 18.4186406,7.82783203 L16.8406563,7.82783203 L16.8406563,15.7298711 L18.5585039,15.7298711 L18.5585039,15.9875547 C18.5585039,17.4083594 17.4025586,18.5643047 15.9817539,18.5643047 L13.4290234,18.5643047 C13.0744453,17.5645938 12.1197227,16.846457 11,16.846457 C9.57919531,16.846457 8.42325,18.0024023 8.42325,19.423207 C8.42325,20.8440547 9.57919531,22 11,22 C12.1197227,22 13.0744023,21.2818633 13.4290234,20.2821523 L15.9817109,20.2821523 C18.3497617,20.2821523 20.2763086,18.3556055 20.2763086,15.9875547 L20.2763086,15.5821445 C21.2760195,15.2275664 21.9941563,14.2728437 21.9941563,13.1531211 L21.9941563,10.404582 C21.9941563,9.24971094 21.2304297,8.26985156 20.1814336,7.94350391 Z M3.44149609,14.0120664 L2.58259375,14.0120664 C2.10899219,14.0120664 1.72369141,13.6267656 1.72369141,13.1531641 L1.72369141,10.404625 C1.72369141,9.93102344 2.10899219,9.54572266 2.58259375,9.54572266 L3.44149609,9.54572266 L3.44149609,14.0120664 Z M11,20.2821523 C10.5263984,20.2821523 10.1410977,19.8968516 10.1410977,19.42325 C10.1410977,18.9496484 10.5263984,18.5643477 11,18.5643477 C11.4736016,18.5643477 11.8589023,18.9496484 11.8589023,19.42325 C11.8589023,19.8968516 11.4736016,20.2821523 11,20.2821523 Z M20.2763086,13.1531211 C20.2763086,13.6267227 19.8910078,14.0120234 19.4174063,14.0120234 L18.5585039,14.0120234 L18.5585039,9.54567969 L19.4174063,9.54567969 C19.8910078,9.54567969 20.2763086,9.93098047 20.2763086,10.404582 L20.2763086,13.1531211 Z" id="Shape"></path>
        </g>
    </g>
</svg>