<?xml version="1.0" standalone="no"?>
<!DOCTYPE svg PUBLIC "-//W3C//DTD SVG 20010904//EN"
 "http://www.w3.org/TR/2001/REC-SVG-20010904/DTD/svg10.dtd">
<svg version="1.0" xmlns="http://www.w3.org/2000/svg"
 width="670.000000pt" height="402.000000pt" viewBox="0 0 670.000000 402.000000"
 preserveAspectRatio="xMidYMid meet">
<metadata>
Created by potrace 1.16, written by Peter Selinger 2001-2019
</metadata>
<g transform="translate(0.000000,402.000000) scale(0.100000,-0.100000)"
fill="#000000" stroke="none">
<path d="M1270 3933 c-28 -27 -35 -49 -32 -102 2 -17 64 -86 209 -232 114
-115 205 -210 202 -212 -2 -2 -61 -38 -131 -81 -383 -232 -712 -498 -1098
-885 -264 -264 -362 -376 -374 -423 -11 -48 17 -89 145 -212 803 -770 1716
-1301 2559 -1489 152 -34 378 -67 462 -67 62 0 68 2 92 31 28 33 34 76 14 112
-6 12 -526 540 -1155 1172 l-1144 1150 33 28 c18 16 80 64 137 108 l105 80
1246 -1245 1245 -1246 43 0 c61 0 102 41 102 102 l0 43 -1232 1233 c-976 976
-1230 1235 -1218 1242 8 6 85 53 170 105 l155 95 1580 -1579 c1085 -1085 1589
-1582 1608 -1587 67 -16 127 30 127 98 l0 43 -1562 1562 -1562 1562 89 42
c429 198 855 299 1259 299 805 0 1678 -398 2521 -1151 132 -118 517 -505 534
-538 8 -15 -9 -39 -103 -142 -210 -230 -435 -439 -740 -686 -70 -56 -113 -98
-119 -116 -21 -64 26 -127 95 -127 36 0 53 8 123 62 308 237 652 561 887 834
95 109 111 138 102 183 -13 64 -463 533 -734 765 -691 592 -1403 960 -2080
1076 -198 34 -341 43 -565 37 -214 -6 -330 -19 -535 -63 -234 -49 -540 -156
-785 -273 l-100 -48 -235 233 c-222 220 -238 234 -273 234 -26 0 -45 -8 -67
-27z m637 -2422 l1042 -1049 -108 23 c-149 32 -274 67 -431 120 -182 63 -200
71 -200 92 0 10 -343 361 -802 821 l-803 804 124 119 c69 65 127 119 130 119
4 0 475 -472 1048 -1049z m-812 28 c600 -602 627 -630 560 -594 -289 158 -657
412 -960 665 -195 163 -407 360 -403 375 3 16 156 185 166 185 4 0 291 -284
637 -631z"/>
<path d="M3435 3344 c-305 -28 -548 -132 -747 -322 -48 -46 -79 -84 -83 -102
-8 -38 18 -94 51 -109 56 -25 104 -8 169 59 92 96 277 200 430 242 67 18 107
22 250 22 205 1 280 -16 450 -99 260 -127 448 -349 531 -630 36 -121 45 -331
19 -456 -39 -194 -122 -361 -245 -494 -63 -68 -80 -95 -80 -127 0 -43 20 -76
57 -93 55 -26 83 -13 170 79 271 289 378 711 283 1112 -91 384 -389 712 -768
848 -136 48 -362 81 -487 70z"/>
<path d="M3330 2744 c-94 -20 -223 -87 -286 -148 -49 -47 -54 -56 -54 -95 0
-47 29 -85 74 -97 39 -9 69 2 122 46 231 192 561 116 692 -157 36 -75 37 -82
37 -188 0 -103 -2 -114 -31 -175 -18 -36 -50 -89 -73 -119 -31 -41 -41 -64
-41 -91 0 -73 71 -118 140 -90 33 14 108 108 146 182 48 95 66 190 62 317 -8
189 -62 315 -194 447 -151 150 -378 215 -594 168z"/>
</g>
</svg>
