<?xml version="1.0" encoding="UTF-8"?>
<svg width="22px" height="22px" viewBox="0 0 22 22" version="1.1" xmlns="http://www.w3.org/2000/svg" xmlns:xlink="http://www.w3.org/1999/xlink">
    <!-- Generator: Sketch 62 (91390) - https://sketch.com -->
    <!--<title>icon/22/lock-close</title>-->
    <desc>Created with Sketch.</desc>
    <g id="icon/22/lock-close" stroke="none" stroke-width="1" fill="none" fill-rule="evenodd">
        <g id="126-padlock" transform="translate(2.000000, 0.000000)" fill="#264D7A">
            <path d="M14.7794118,8.078125 L14.7794118,4.20972901 C14.7794118,1.88847656 12.8003217,0 10.3676471,0 L7.63235294,0 C5.19967832,0 3.22058824,1.88847656 3.22058824,4.20972901 L3.22058824,8.078125 L0,8.078125 L0,16.84375 C0,19.6869385 2.37490807,22 5.29411765,22 L12.7058824,22 C15.6250919,22 18,19.6869385 18,16.84375 L18,8.078125 L14.7794118,8.078125 Z M16.2352941,16.84375 C16.2352941,18.739209 14.6520221,20.28125 12.7058824,20.28125 L5.29411765,20.28125 C3.34797794,20.28125 1.76470588,18.739209 1.76470588,16.84375 L1.76470588,9.796875 L16.2352941,9.796875 L16.2352941,16.84375 Z M4.98529412,4.20972901 C4.98529412,2.83620604 6.17274815,1.71875 7.63235294,1.71875 L10.3676471,1.71875 C11.8273897,1.71875 13.0147059,2.83620604 13.0147059,4.20972901 L13.0147059,8.078125 L4.98529412,8.078125 L4.98529412,4.20972901 Z M9,12.2890625 C9.90151655,12.2890625 10.6323529,13.0008667 10.6323529,13.8789062 C10.6323529,14.4408569 10.3326287,14.9344604 9.88083639,15.2171143 L9.88083639,17.1015625 C9.88083639,17.5762329 9.48570773,17.9609375 8.99848345,17.9609375 C8.51112134,17.9609375 8.11613051,17.5762329 8.11613051,17.1015625 L8.11613051,15.2151001 C7.66599265,14.9321777 7.36764706,14.4395142 7.36764706,13.8789062 C7.36764706,13.0008667 8.09848345,12.2890625 9,12.2890625 Z" id="Shape"></path>
        </g>
    </g>
</svg>