<?xml version="1.0" encoding="UTF-8"?>
<svg width="22px" height="22px" viewBox="0 0 22 22" version="1.1" xmlns="http://www.w3.org/2000/svg" xmlns:xlink="http://www.w3.org/1999/xlink">
    <title>icon/22/notifications</title>
    <desc>Created with Sketch.</desc>
    <g id="icon/22/notifications" stroke="none" stroke-width="1" fill="none" fill-rule="evenodd">
        <g id="095-notification" transform="translate(1.000000, 0.000000)" fill="#264D7A">
            <path d="M19.9904851,18.7052007 L17.2635821,13.2961565 L17.2635821,7.30482313 C17.2635821,3.62232993 14.4890672,0.540346939 10.9264925,0.0767755102 C10.9264925,0.0767755102 10.4060448,0.00194557823 9.99705224,0.00194557823 C9.5880597,0.00194557823 9.06264925,0.0767755102 9.06264925,0.0767755102 C5.50022388,0.540346939 2.7255597,3.62218027 2.7255597,7.30482313 L2.7255597,13.2675714 L0.00361940299,18.7052007 L7.52962687,18.7052007 C7.46660448,18.9283061 7.4319403,19.163085 7.4319403,19.4060578 C7.4319403,20.8230748 8.58156716,21.9758299 9.99473881,21.9758299 C11.4077612,21.9758299 12.5575373,20.8230748 12.5575373,19.4060578 C12.5575373,19.163085 12.5230224,18.9282687 12.4598134,18.7052007 L19.9904851,18.7052007 Z M4.58955224,13.7102653 L4.58955224,13.7058878 L13.1629104,13.7058878 L13.1629104,11.8369728 L4.58955224,11.8369728 L4.58955224,7.30482313 C4.58955224,4.35820748 6.97820896,1.92847959 9.91548507,1.88552721 L10.0737687,1.88552721 C13.0110821,1.92844218 15.3998507,4.35820748 15.3998507,7.30482313 L15.3998507,13.7417687 L16.9599627,16.8362857 L3.02477612,16.8362857 L4.58955224,13.7102653 Z M10.6936567,19.4060952 C10.6936567,19.7924048 10.38,20.106915 9.99470149,20.106915 C9.60925373,20.106915 9.29578358,19.7924048 9.29578358,19.4060952 C9.29578358,19.0197483 9.60929104,18.7052381 9.99470149,18.7052381 C10.3800373,18.7052007 10.6936567,19.0197483 10.6936567,19.4060952 Z" id="Shape"></path>
        </g>
        <circle id="Oval" stroke="#FFFFFF" stroke-width="1.5" fill="#FF3333" fill-rule="nonzero" cx="18" cy="4" r="4"></circle>
    </g>
</svg>