<?xml version="1.0" encoding="UTF-8"?>
<svg width="22px" height="22px" viewBox="0 0 22 22" version="1.1" xmlns="http://www.w3.org/2000/svg" xmlns:xlink="http://www.w3.org/1999/xlink">
    <!-- Generator: Sketch 62 (91390) - https://sketch.com -->
    <!--<title>icon/22/open-tables</title>-->
    <desc>Created with Sketch.</desc>
    <g id="icon/22/open-tables" stroke="none" stroke-width="1" fill="none" fill-rule="evenodd">
        <path d="M16.9551293,11.8592476 L11.860387,11.8592476 L11.8604819,16.953895 L10.1417257,16.9540849 L10.1417257,11.8593426 L5.04707826,11.8594375 L5.04707826,10.1404913 L10.1417257,10.1405863 L10.1417257,5.04584393 L11.8604819,5.04603382 L11.860387,10.1406812 L16.9551293,10.1406812 L16.9551293,11.8592476 Z M18.778139,18.778139 C16.7005726,20.8557054 13.9381433,21.9999288 10.9999644,21.9999288 C8.06178555,21.9999288 5.2993562,20.8557054 3.22178982,18.778139 C1.14422344,16.7005726 2.66453526e-14,13.9381433 2.66453526e-14,10.9999644 C2.66453526e-14,8.06178555 1.14422344,5.2993562 3.22178982,3.22178982 C5.2993562,1.14422344 8.06178555,1.77635684e-15 10.9999644,1.77635684e-15 C13.9381433,1.77635684e-15 16.7005726,1.14422344 18.778139,3.22178982 C20.8557054,5.2993562 21.9999288,8.06178555 21.9999288,10.9999644 C21.9999288,13.9381433 20.8557054,16.7005726 18.778139,18.778139 Z M17.5627992,17.5627992 C21.1814734,13.944125 21.1814734,8.0558038 17.5627992,4.4371296 C13.944125,0.818455408 8.0558038,0.818455408 4.4371296,4.4371296 C0.818455408,8.0558038 0.818455408,13.944125 4.4371296,17.5627992 C8.0558038,21.1814734 13.944125,21.1814734 17.5627992,17.5627992 Z" id="Shape" fill="#264D7A"></path>
    </g>
</svg>