<?xml version="1.0" encoding="UTF-8"?>
<svg width="22px" height="22px" viewBox="0 0 22 22" version="1.1" xmlns="http://www.w3.org/2000/svg" xmlns:xlink="http://www.w3.org/1999/xlink">
    <!-- Generator: Sketch 62 (91390) - https://sketch.com -->
    <!--<title>icon/22/print</title>-->
    <desc>Created with Sketch.</desc>
    <g id="icon/22/print" stroke="none" stroke-width="1" fill="none" fill-rule="evenodd">
        <path d="M18.5282771,5.9814021 L20.2439851,5.9814021 C21.2125846,5.9814021 22,6.76881753 22,7.73741704 L22,16.7722622 C22,17.7408617 21.2125846,18.5282771 20.2439851,18.5282771 L18.5282771,18.5282771 L18.5282771,20.2439851 C18.5282771,21.2125846 17.7408617,22 16.7722622,22 L5.22773783,22 C4.25913832,22 3.4717229,21.2125846 3.4717229,20.2439851 L3.4717229,18.5282771 L1.75601493,18.5282771 C0.787415425,18.5282771 0,17.7408617 0,16.7722622 L0,7.73741704 C0,6.76881753 0.787415425,5.9814021 1.75601493,5.9814021 L3.4717229,5.9814021 L3.4717229,1.75601493 C3.4717229,0.787415425 4.25913832,0 5.22773783,0 L16.7722622,0 C17.7408617,0 18.5282771,0.787415425 18.5282771,1.75601493 L18.5282771,5.9814021 Z M5.3106333,1.8389104 L5.3106333,5.9814021 L16.6893667,5.9814021 L16.6893667,1.8389104 L5.3106333,1.8389104 Z M16.6893667,14.4709624 L5.3106333,14.4709624 L5.3106333,20.1610896 L16.6893667,20.1610896 L16.6893667,14.4709624 Z M20.1610896,7.8203125 L1.8389104,7.8203125 L1.8389104,16.6893667 L3.4717229,16.6893667 L3.4717229,13.5515072 C3.4717229,13.0436691 3.88334001,12.632052 4.3911781,12.632052 L17.6088219,12.632052 C18.11666,12.632052 18.5282771,13.0436691 18.5282771,13.5515072 L18.5282771,16.6893667 L20.1610896,16.6893667 L20.1610896,7.8203125 Z M19.2811809,9.61967644 C19.2811809,10.1275145 18.8695638,10.5391316 18.3617257,10.5391316 C17.8538876,10.5391316 17.4422705,10.1275145 17.4422705,9.61967644 C17.4422705,9.11183835 17.8538876,8.70022124 18.3617257,8.70022124 C18.8695638,8.70022124 19.2811809,9.11183835 19.2811809,9.61967644 Z" id="Combined-Shape" fill="#264D7A"></path>
    </g>
</svg>