<?xml version="1.0" encoding="UTF-8"?>
<svg width="22px" height="22px" viewBox="0 0 22 22" version="1.1" xmlns="http://www.w3.org/2000/svg" xmlns:xlink="http://www.w3.org/1999/xlink">
    <!-- Generator: Sketch 62 (91390) - https://sketch.com -->
    <!--<title>icon/22/proponi</title>
    <desc>Created with Sketch.</desc>
    <g id="icon/22/proponi" stroke="none" stroke-width="1" fill="none" fill-rule="evenodd">
        <g id="400-finger" fill="#264D7A">
            <path d="M2.93879396,4.57335206 C2.43122557,3.67731932 2.45942383,2.72341307 3.02258302,1.73862305 C3.03037109,1.72492678 3.54881591,0.931213388 4.2357788,0 L6.40744631,0 C5.60151367,0.994860831 4.77839354,2.19221193 4.50299073,2.61236573 C4.21241456,3.13027344 4.26223146,3.42541506 4.43732912,3.7314331 L4.44860838,3.75184325 L5.79863281,6.27102052 L5.79863281,3.48046875 L7.51738281,3.48046875 L7.51738281,16.1132812 C7.51738281,16.5161133 7.84501953,16.84375 8.24785156,16.84375 C8.65068359,16.84375 8.97832031,16.5161133 8.97832031,16.1132812 L8.97832031,7.21875 L10.6970703,7.21875 L10.6970703,8.8515625 C10.6970703,9.23707276 11.0179932,9.5390625 11.4275391,9.5390625 C11.8372192,9.5390625 12.1580078,9.22901612 12.1580078,8.83303224 L12.1580078,7.21875 L13.8767578,7.21875 L13.8767578,8.60019531 C13.8767578,9.00611573 14.1976807,9.32421875 14.6072266,9.32421875 C15.0169067,9.32421875 15.3376953,9.00611573 15.3376953,8.60019531 L15.3376953,7.21875 L17.0564453,7.21875 L17.0564453,7.9921875 C17.0564453,8.36561278 17.3400391,8.765625 17.7623413,8.765625 C18.060437,8.765625 18.5603516,8.67283935 18.5603516,8.05046385 L18.5603516,0 L20.2791016,0 L20.2791016,8.05046385 C20.2791016,9.46091307 19.2205933,10.484375 17.7623413,10.484375 C17.3067383,10.484375 16.8801392,10.3542603 16.5155762,10.1286743 C16.0662842,10.6856567 15.3781128,11.0429688 14.6072266,11.0429688 C14.0599121,11.0429688 13.5539551,10.8629028 13.1456177,10.5590332 C12.7031738,10.9907349 12.0963745,11.2578125 11.4275391,11.2578125 C11.1760376,11.2578125 10.9304443,11.2208862 10.6970703,11.1502564 L10.6970703,16.1132812 C10.6970703,17.4638428 9.5982788,18.5625 8.24785156,18.5625 C6.89729006,18.5625 5.79863281,17.4638428 5.79863281,16.1132812 L5.79863281,8.88137209 C5.3565918,8.64678956 4.9119995,8.25819091 4.56744386,7.61245117 L2.93879396,4.57335206 Z M18.4980469,14.9960938 L12.4179688,14.9960938 L12.4179688,16.7148438 L18.4980469,16.7148438 C19.4812256,16.7148438 20.28125,17.5148682 20.28125,18.4980469 C20.28125,19.4812256 19.4812256,20.28125 18.4980469,20.28125 L3.50195312,20.28125 C2.51877443,20.28125 1.71875,19.4812256 1.71875,18.4980469 C1.71875,17.5148682 2.51877443,16.7148438 3.50195312,16.7148438 L4.08203125,16.7148438 L4.08203125,14.9960938 L3.50195312,14.9960938 C1.57104492,14.9960938 0,16.5671387 0,18.4980469 C0,20.4289551 1.57104492,22 3.50195312,22 L18.4980469,22 C20.4289551,22 22,20.4289551 22,18.4980469 C22,16.5671387 20.4289551,14.9960938 18.4980469,14.9960938 Z" id="Shape"></path>
        </g>
    </g>
</svg>