<?xml version="1.0" encoding="UTF-8"?>
<svg width="22px" height="22px" viewBox="0 0 22 22" version="1.1" xmlns="http://www.w3.org/2000/svg" xmlns:xlink="http://www.w3.org/1999/xlink">
    <!--<title>icon/22/refresh</title>-->
    <g id="icon/22/refresh" stroke="none" stroke-width="1" fill="none" fill-rule="evenodd">
        <g id="125-refresh" fill="#264D7A">
            <path d="M22,11 C22,13.9381226 20.8558228,16.7006104 18.7781494,18.7781494 C16.7006104,20.8558228 13.9381225,22 11,22 L11,20.28125 C16.1175781,20.28125 20.28125,16.1175781 20.28125,11 C20.28125,7.95391847 18.8119873,5.14416506 16.3318848,3.403125 L13.9648438,5.77003175 L13.9648438,0 L19.7348755,0 L17.5622681,2.17260742 C18.8044678,3.09831541 19.8478027,4.28223878 20.6048584,5.63481445 C21.5176758,7.26547852 22,9.12078857 22,11 Z M1.71875,11.0021484 C1.71875,5.88457031 5.88242188,1.72089844 11,1.72089844 L11,0.0021484375 C8.06187745,0.0021484375 5.29938963,1.14645994 3.22185057,3.22399901 C1.14417724,5.30153807 0,8.06402589 0,11.0021484 C0,12.8813599 0.482324219,14.7368042 1.39514162,16.367334 C2.15179442,17.7193725 3.19472656,18.9030273 4.43652344,19.8286011 L2.2651245,22 L8.03515625,22 L8.03515625,16.2299683 L5.66704102,18.5982178 C3.18760987,16.8570435 1.71875,14.0478271 1.71875,11.0021484 Z" id="Shape"></path>
        </g>
    </g>
</svg>