<?xml version="1.0" encoding="UTF-8"?>
<svg width="22px" height="22px" viewBox="0 0 22 22" version="1.1" xmlns="http://www.w3.org/2000/svg" xmlns:xlink="http://www.w3.org/1999/xlink">
    <!-- Generator: Sketch 62 (91390) - https://sketch.com -->
    <!--<title>icon/22/save</title>-->
    <desc>Created with Sketch.</desc>
    <g id="icon/22/save" stroke="none" stroke-width="1" fill="none" fill-rule="evenodd">
        <g id="Shape-2" fill="#264D7A">
            <path d="M22,5.07268308 L16.926983,0 C15.6747574,0 14.921352,0 14.666767,0 L1.37489966,0 C0.993072278,0 0.668335887,0.133595115 0.400941331,0.400986012 C0.133546775,0.668226409 0,0.99290819 0,1.37493102 L0,20.6250188 C0,21.007142 0.133546775,21.3318238 0.400941331,21.5991143 C0.668335887,21.8662544 0.993072278,22 1.37489966,22 L20.6252007,22 C21.0073792,22 21.3320153,21.8662544 21.5993095,21.5991143 C21.8664532,21.3318238 22,21.007142 22,20.6250188 L22,6.33333333 L22,5.07268308 Z M5.566767,1.83340858 L12.833534,1.83340858 L12.833534,6.87485577 C12.833534,6.99916996 12.7878813,7.10652766 12.697228,7.19728003 C12.6065246,7.2877314 12.4991152,7.33313266 12.375301,7.33313266 L6.025151,7.33313266 C5.90103578,7.33313266 5.79352611,7.2878819 5.702923,7.19728003 C5.61216939,7.10637716 5.566767,6.99916996 5.566767,6.87485577 L5.566767,1.83340858 Z M16.5003512,20.1667419 L5.49989966,20.1667419 L5.49989966,14.6666165 L16.5003512,14.6666165 L16.5003512,20.1667419 Z M18.3335842,20.1667419 L18.333233,12.8331076 L3.66656633,12.8331076 L3.66656633,20.1667419 L1.83318283,20.1667419 L1.83318283,1.83320792 L3.66651616,1.83320792 L3.66651616,7.79161023 C3.66651616,8.17363306 3.80006294,8.49816434 4.06745749,8.76555524 C4.33485205,9.03279563 4.65958844,9.16654125 5.04156633,9.16654125 C6.35642574,9.16654125 7.3425703,9.16654125 8,9.16654125 C9.17599282,9.16654125 10.939982,9.16654125 13.2919677,9.16654125 C13.6737449,9.16654125 13.9987823,9.03279563 14.2657253,8.76555524 C14.5328691,8.49831484 14.666767,8.17363306 14.666767,7.79161023 L14.666767,1.83320792 C14.7622197,1.83320792 15.2066307,1.83320792 16,1.83320792 L20.1672687,6.01 L20.1672687,6.33333333 L20.1672687,20.1667419 L18.3335842,20.1667419 Z" id="Shape"></path>
        </g>
    </g>
</svg>