<?xml version="1.0" encoding="UTF-8"?>
<svg width="22px" height="22px" viewBox="0 0 22 22" version="1.1" xmlns="http://www.w3.org/2000/svg" xmlns:xlink="http://www.w3.org/1999/xlink">
    <!-- Generator: Sketch 62 (91390) - https://sketch.com -->
    <!--<title>icon/22/search</title>-->
    <desc>Created with Sketch.</desc>
    <g id="icon/22/search" stroke="none" stroke-width="1" fill="none" fill-rule="evenodd">
        <g id="079-search" fill="#264D7A">
            <path d="M13.8359375,0 C9.33428956,0 5.671875,3.66241456 5.671875,8.1640625 C5.671875,10.1059815 6.35386964,11.8914673 7.49025881,13.2942627 L5.9296875,14.8549683 L4.71434325,13.6397583 L0.755175781,17.5989258 C0.26828615,18.0858154 0,18.7331665 0,19.421875 C0,20.1105835 0.26828615,20.7579346 0.755175781,21.2448242 C1.24206541,21.7317139 1.88941651,22 2.578125,22 C3.26683349,22 3.91418459,21.7317138 4.40107422,21.2448242 L8.36024169,17.2856567 L7.14503175,16.0703125 L8.70573729,14.5097412 C10.1085327,15.6461304 11.8940185,16.328125 13.8359375,16.328125 C18.3375854,16.328125 22,12.6657104 22,8.1640625 C22,3.66241456 18.3375854,0 13.8359375,0 Z M3.18572997,20.02948 C3.02338867,20.1918213 2.80773927,20.28125 2.578125,20.28125 C2.34851072,20.28125 2.13286133,20.1918213 1.97052003,20.02948 C1.80804442,19.8671387 1.71875,19.6514893 1.71875,19.421875 C1.71875,19.1922607 1.80804442,18.9766113 1.97052003,18.81427 L4.71434325,16.0703125 L5.9296875,17.2856567 L3.18572997,20.02948 Z M13.8359375,14.609375 C10.2818848,14.609375 7.390625,11.7181152 7.390625,8.1640625 C7.390625,4.61000977 10.2818848,1.71875 13.8359375,1.71875 C17.3899902,1.71875 20.28125,4.61000977 20.28125,8.1640625 C20.28125,11.7181152 17.3899902,14.609375 13.8359375,14.609375 Z" id="Shape"></path>
        </g>
    </g>
</svg>