<?xml version="1.0" encoding="UTF-8"?>
<svg width="22px" height="22px" viewBox="0 0 22 22" version="1.1" xmlns="http://www.w3.org/2000/svg" xmlns:xlink="http://www.w3.org/1999/xlink">
    <!-- Generator: Sketch 62 (91390) - https://sketch.com -->
    <!--<title>icon/22/settings</title>-->
    <desc>Created with Sketch.</desc>
    <g id="icon/22/settings" stroke="none" stroke-width="1" fill="none" fill-rule="evenodd">
        <g id="106-settings" fill="#264D7A">
            <path d="M13.0223511,22 L8.97764893,22 L8.77489013,20.0106811 C8.71755369,19.4479248 8.35325927,18.9627808 7.82420653,18.7448487 L7.78486328,18.7283325 C7.24775391,18.5036865 6.64135742,18.5859985 6.20213622,18.9431763 L4.6595581,20.1971924 L1.86444091,17.332251 L3.07696534,15.8032349 C3.42514648,15.3642822 3.50329588,14.7644653 3.2810669,14.2376953 C3.27233885,14.2171509 3.26401367,14.1966065 3.25555419,14.1761963 C3.03721925,13.6467407 2.55207521,13.2825806 1.98931886,13.2251099 L-2.84217094e-14,13.0223511 L-2.84217094e-14,8.97764893 L1.98931886,8.77489013 C2.55207521,8.71755369 3.03721925,8.35325927 3.25541992,7.82420653 L3.27180177,7.78432617 C3.49644776,7.24775391 3.41400146,6.64135742 3.05682372,6.20200195 L1.80898437,4.66721193 L4.66721193,1.80898438 L6.20213622,3.05682372 C6.64135742,3.41400146 7.24775391,3.49644776 7.78459474,3.27180178 L7.82460937,3.25515135 C8.35325927,3.03721925 8.71755369,2.55207521 8.77502443,1.98931886 L8.97764893,8.52651283e-14 L13.0223511,8.52651283e-14 L13.2225586,1.96474609 C13.2813721,2.54052734 13.6562744,3.03896484 14.2011719,3.26575927 L14.2296387,3.27770994 C14.7659424,3.50329588 15.3777099,3.42662354 15.8261963,3.07777099 L17.3877075,1.86376953 L20.1362305,4.61229247 L18.922229,6.17353516 C18.5733765,6.62229006 18.4967041,7.23378906 18.7221558,7.76982422 L18.7337036,7.79775391 C18.9610352,8.34372557 19.4594727,8.71862791 20.0352539,8.77744141 L22,8.97764893 L22,13.0223511 L20.0106811,13.2251099 C19.4479248,13.2824463 18.9627808,13.6467407 18.7445801,14.1757935 L18.7283325,14.2151367 C18.5036865,14.7522461 18.5861328,15.3586426 18.9431763,15.797998 L20.1911499,17.3327881 L17.3327881,20.1910156 L15.797998,18.9431763 C15.3586426,18.5859985 14.7523804,18.5036865 14.2156738,18.7281982 L14.1767334,18.7443115 C13.6467407,18.9627808 13.2825806,19.4479248 13.2251099,20.0106811 L13.0223511,22 Z M10.5301636,20.28125 L11.4698364,20.28125 L11.5150879,19.8365234 C11.6370117,18.6427979 12.4053467,17.6155762 13.5206543,17.1558105 L13.5526123,17.1423828 C14.6743652,16.6730835 15.9502685,16.8519409 16.8821533,17.609668 L17.2138184,17.8791626 L17.8791626,17.2140869 L17.6093994,16.8821533 C16.8519409,15.9502685 16.6730835,14.6743652 17.1425171,13.5523438 L17.1554077,13.5211914 C17.6155762,12.4053467 18.6427979,11.6367432 19.8365234,11.5150879 L20.28125,11.4698364 L20.28125,10.5301636 L19.8609619,10.4871948 C18.6566284,10.3645996 17.616919,9.58740234 17.1473511,8.45920412 L17.1378174,8.43651122 C16.6717407,7.32832031 16.8356934,6.05711669 17.5654907,5.11851808 L17.8481445,4.75489503 L17.245105,4.15185547 L16.8813477,4.43464354 C15.9428833,5.16430664 14.6716797,5.32825927 13.563623,4.8621826 L13.5416016,4.85291747 C12.4125977,4.38308104 11.6354004,3.34337159 11.5128052,2.13903807 L11.4698364,1.71875 L10.5301636,1.71875 L10.4849121,2.16347656 C10.3632568,3.35720213 9.59465334,4.38442383 8.4793457,4.84445803 L8.44792479,4.85748292 C7.32563477,5.32691651 6.04973146,5.14805909 5.11784666,4.39060057 L4.78618164,4.12083739 L4.12070312,4.78591307 L4.39033203,5.11784666 C5.14805909,6.04973146 5.32678224,7.32563477 4.85734865,8.44792479 L4.84445802,8.47880859 C4.38428956,9.59465334 3.35720213,10.3632568 2.16347656,10.4849121 L1.71875,10.5301636 L1.71875,11.4698364 L2.16347656,11.5150879 C3.35720213,11.6367432 4.38442383,12.4053467 4.84418945,13.5206543 L4.86486818,13.5699341 C5.33094482,14.6751709 5.16188963,15.9401978 4.42363281,16.8712768 L4.15118409,17.214624 L4.7935669,17.8731201 L5.11784666,17.6093994 C6.04946289,16.8519409 7.32563477,16.6730835 8.44765625,17.1425171 L8.47988281,17.1559448 C9.59465334,17.6155762 10.3629883,18.6427979 10.4846435,19.8365234 L10.5301636,20.28125 Z M11,15.9414063 C8.27537841,15.9414063 6.05859375,13.7246216 6.05859375,11 C6.05859375,8.27537841 8.27537841,6.05859375 11,6.05859375 C13.7246216,6.05859375 15.9414062,8.27537841 15.9414062,11 C15.9414062,13.7246216 13.7246216,15.9414063 11,15.9414063 Z M11,7.77734375 C9.22297365,7.77734375 7.77734375,9.22297365 7.77734375,11 C7.77734375,12.7770264 9.22297365,14.2226563 11,14.2226563 C12.7770263,14.2226563 14.2226562,12.7770264 14.2226562,11 C14.2226562,9.22297365 12.7770263,7.77734375 11,7.77734375 Z" id="Shape"></path>
        </g>
    </g>
</svg>