<?xml version="1.0" encoding="UTF-8"?>
<svg width="22px" height="22px" viewBox="0 0 22 22" version="1.1" xmlns="http://www.w3.org/2000/svg" xmlns:xlink="http://www.w3.org/1999/xlink">
    <!-- Generator: Sketch 62 (91390) - https://sketch.com -->
    <!--<title>icon/22/show</title>-->
    <desc>Created with Sketch.</desc>
    <g id="icon/22/show" stroke="none" stroke-width="1" fill="none" fill-rule="evenodd">
        <g id="152-eye" transform="translate(0.000000, 4.500000)" fill="#264D7A">
            <path d="M21.5558105,5.95264585 C21.5156616,5.90321874 21.3094116,5.64971874 21.192456,5.52229167 L21.181311,5.51023959 C19.9342773,4.15173959 16.138794,0.0173333333 11.0068482,0.0173333333 C5.86147461,0.0173333333 2.05833739,4.16 0.807678231,5.52229167 C0.690722656,5.64971874 0.484338387,5.90321874 0.444323722,5.95264585 L-3.01980663e-14,6.5 L0.444055184,7.04748959 C0.484204119,7.09691667 0.690454119,7.35041667 0.808483878,7.47879167 C2.04625245,8.827 5.78869631,12.9026354 10.8590088,12.9809063 C10.9081543,12.982125 10.9575684,12.9829375 11.0068482,12.9829375 C11.059082,12.9829375 11.1109131,12.982125 11.1627441,12.9809063 C16.2154663,12.8983021 19.9468994,8.83458333 21.181311,7.48989585 L21.192456,7.47784374 C21.3094116,7.35041667 21.5156616,7.09705207 21.5559448,7.04748959 L22,6.5 L21.5558105,5.95264585 Z M11.1289062,11.2524479 C11.0882202,11.253125 11.0476685,11.2542083 11.0068482,11.2542083 C10.9660278,11.2542083 10.9256104,11.253125 10.8850586,11.2525833 C8.3418457,11.1871771 6.29290771,9.08036459 6.29290771,6.50013541 C6.29290771,3.87873959 8.40764162,1.74606252 11.0068482,1.74606252 C13.606189,1.74606252 15.7207886,3.87873959 15.7207886,6.50013541 C15.7207886,9.08036459 13.6721191,11.1871771 11.1289062,11.2524479 Z M2.24645994,6.50013541 C2.82546385,5.87423959 3.81871339,4.84073959 5.12053224,3.89661459 C4.77235107,4.69394793 4.57872315,5.57456252 4.57872315,6.50013541 C4.57872315,7.42557293 4.77235107,8.30618748 5.12053224,9.10338541 C3.81898192,8.15966667 2.82600099,7.12630207 2.24645994,6.50013541 Z M16.897998,9.09268748 C17.2429565,8.29833333 17.4349732,7.421375 17.4349732,6.50013541 C17.4349732,5.578625 17.2429565,4.70193748 16.897998,3.90744793 C18.1933716,4.85035415 19.1804443,5.88019793 19.7535401,6.5 C19.1804443,7.11993748 18.1933716,8.14978126 16.897998,9.09268748 L16.897998,9.09268748 Z M12.9354736,6.50013541 C12.9354736,7.57426041 12.0720703,8.44498959 11.0068482,8.44498959 C9.94189453,8.44498959 9.07849119,7.57426041 9.07849119,6.50013541 C9.07849119,5.42601041 9.94189453,4.55528126 11.0068482,4.55528126 C12.0720703,4.55528126 12.9354736,5.42601041 12.9354736,6.50013541 L12.9354736,6.50013541 Z" id="Shape"></path>
        </g>
    </g>
</svg>