<?xml version="1.0" encoding="UTF-8"?>
<svg width="22px" height="22px" viewBox="0 0 22 22" version="1.1" xmlns="http://www.w3.org/2000/svg" xmlns:xlink="http://www.w3.org/1999/xlink">
    <!-- Generator: Sketch 62 (91390) - https://sketch.com -->
    <!--<title>icon/22/simulatore</title>-->
    <desc>Created with Sketch.</desc>
    <g id="icon/22/simulatore" stroke="none" stroke-width="1" fill="none" fill-rule="evenodd">
        <g id="360" fill="#264D7A">
            <path d="M18.5095751,7.24980489 C20.7476967,8.17850103 22,9.50494102 22,11 C22,12.495059 20.7476967,13.821499 18.5095698,14.7501973 C17.6522433,15.1059106 16.6743201,15.3954268 15.6096944,15.6103886 C14.8154296,19.5589828 13.0907434,22 11,22 C9.50492544,22 8.17844783,20.7476715 7.24976503,18.5095386 C6.89414032,17.6525722 6.60467642,16.6748686 6.38968215,15.6102744 C5.32512796,15.3952803 4.34742561,15.1058171 3.49042488,14.7501951 C1.25230325,13.821499 0,12.495059 0,11 C0,9.75419449 0.886396567,8.60742542 2.49304524,7.72545185 L2.10008191,6.67490073 L5.88387836,7.30784198 L3.44429698,10.2685309 L3.08160156,9.29887384 C2.15874925,9.84746728 1.65890067,10.4576488 1.65890067,11 C1.65890067,12.0375788 3.40278425,13.2002254 6.11248799,13.8519251 C6.00506652,12.9283641 5.95040458,11.9708453 5.95040458,11 C5.95040458,8.17764675 6.41092047,5.51215032 7.24980312,3.49047133 C8.17844237,1.2523386 9.50491911,0 11,0 C12.4813867,0 13.7996636,1.23216862 14.726764,3.43433666 C15.0926719,4.30352123 15.3901004,5.30088967 15.6099412,6.38968023 C16.674558,6.60465682 17.6524069,6.89414733 18.5095751,7.24980489 Z M13.1978129,4.07798881 C12.5459635,2.52955295 11.7303169,1.65890067 11,1.65890067 C9.96238617,1.65890067 8.79968039,3.40296239 8.14801141,6.11282707 C9.07290525,6.00485579 10.027806,5.95040458 11,5.95040458 C11.9704955,5.95040458 12.9278347,6.005053 13.8513457,6.11242923 C13.6728776,5.36895087 13.4535441,4.68546548 13.1978129,4.07798881 Z M11,20.3410993 C11.5260426,20.3410993 12.1233357,19.8673343 12.6624618,18.983585 C13.1478541,18.1879254 13.5530486,17.1318053 13.8503491,15.8876973 C12.9272687,15.9949948 11.9702636,16.0495954 11,16.0495954 C10.0291548,16.0495954 9.07163601,15.9949335 8.14807499,15.887512 C8.79976995,18.5971846 9.96244716,20.3410993 11,20.3410993 Z M11,14.3906948 C16.1583755,14.3906948 20.3410993,12.6878237 20.3410993,11 C20.3410993,9.96240483 18.5970577,8.79968728 15.8872625,8.1480272 C15.9652593,8.81858773 16.0154636,9.50767558 16.0370862,10.2072356 L17.1367315,10.2410776 L15.1169374,13.5026972 L13.3017789,10.1230333 L14.3759813,10.1561109 C14.3479543,9.35712396 14.2800871,8.5753389 14.1740317,7.82503226 C13.1703511,7.6831393 12.1051281,7.60930525 11,7.60930525 C9.90775707,7.60930525 8.84243215,7.6824053 7.82488976,7.8269602 C7.68309538,8.83045044 7.60930525,9.89535879 7.60930525,11 C7.60930525,12.1051876 7.68318283,13.1707288 7.8251217,14.1748846 C8.82906763,14.3168273 9.89462081,14.3906948 11,14.3906948 Z" id="Shape"></path>
        </g>
    </g>
</svg>