<?xml version="1.0" encoding="UTF-8"?>
<svg width="22px" height="22px" viewBox="0 0 22 22" version="1.1" xmlns="http://www.w3.org/2000/svg" xmlns:xlink="http://www.w3.org/1999/xlink">
    <!-- Generator: Sketch 62 (91390) - https://sketch.com -->
    <!--<title>icon/22/star</title>-->
    <desc>Created with Sketch.</desc>
    <g id="icon/22/star" stroke="none" stroke-width="1" fill="none" fill-rule="evenodd">
        <g id="star-2" transform="translate(0.000000, 0.500000)" fill="#264D7A">
            <path d="M14.6608972,6.29683655 L11.7666221,0.487105251 C11.6171482,0.188589214 11.3122997,0 10.9797306,0 C10.6451952,0 10.3403206,0.190553257 10.1921988,0.492797736 L7.33587054,6.31970593 L7.18288151,6.43157816 L0.752099343,7.38634045 C0.417443628,7.43874645 0.145983842,7.66738403 0.0427300396,7.9831401 C-0.0613513124,8.30142687 0.028205008,8.65324189 0.273240369,8.88471647 L4.93650042,13.3977234 L4.99576366,13.5782337 L3.91644253,19.9771049 C3.85852031,20.3047855 3.99539071,20.6376365 4.27191627,20.8349025 C4.41518733,20.9407093 4.59747694,21 4.78195627,21 C4.92933501,21 5.06835496,20.9647455 5.19891478,20.89307 L10.934522,17.8585586 L11.1238677,17.8580084 L16.8799352,20.8607081 C17.01365,20.9275394 17.1494194,20.9604691 17.2874726,20.9604691 C17.7699972,20.9604691 18.1654498,20.5655422 18.1654498,20.0840501 C18.1654498,20.0026295 18.1562826,19.9343771 18.1303019,19.8428753 L17.0308138,13.541175 L17.0890102,13.3603805 L21.7314571,8.81362662 C21.9724858,8.59170601 22.0616774,8.23944561 21.9563196,7.91725525 C21.8532006,7.60191143 21.5820402,7.37292673 21.2536958,7.32147506 L14.8146011,6.40772384 L14.6608972,6.29683655 Z M15.0128201,13.3236284 L15.8496511,18.1148035 L11.5265201,15.8614172 C11.2202145,15.696677 10.8463868,15.6988347 10.5284915,15.8575518 L6.20984839,18.1417413 L7.0181434,13.3391797 C7.07463801,12.9847043 6.95988097,12.6322842 6.70486956,12.3856003 L3.20869208,8.996744 L8.03389894,8.28077079 C8.39107597,8.2240555 8.69435681,8.00400563 8.84712657,7.68285163 L10.9876407,3.31691119 L13.1602035,7.67764701 C13.3189126,7.99460703 13.6197979,8.21135937 13.9690071,8.2668348 L18.8034197,8.95442788 L15.3205723,12.3592464 C15.0626733,12.6087236 14.9485113,12.9704429 15.0128201,13.3236284 Z" id="Shape"></path>
        </g>
    </g>
</svg>