<?xml version="1.0" encoding="UTF-8"?>
<svg width="22px" height="22px" viewBox="0 0 22 22" version="1.1" xmlns="http://www.w3.org/2000/svg" xmlns:xlink="http://www.w3.org/1999/xlink">
    <!-- Generator: Sketch 62 (91390) - https://sketch.com -->
    <!--<title>icon/22/telephone</title>-->
    <desc>Created with Sketch.</desc>
    <g id="icon/22/telephone" stroke="none" stroke-width="1" fill="none" fill-rule="evenodd">
        <g id="121-phone-call" transform="translate(11.000000, 11.000000) scale(-1, 1) translate(-11.000000, -11.000000) " fill="#264D7A">
            <path d="M2.59877145,21.9656786 C1.95578198,21.9656786 1.32981914,21.7256971 0.852001276,21.2898425 C0.317740817,20.8026399 0.0113957598,20.1083024 0.0113957598,19.3854085 L0.0113957598,15.921229 C0.0113957598,14.6065596 0.992504396,13.5045217 2.29349894,13.3579856 C3.05916047,13.2716459 3.81959339,13.1139821 4.55401716,12.8894184 C5.47318643,12.6082781 6.46327759,12.8522816 7.13750489,13.5263748 L8.5411954,14.9299313 C11.2293901,13.4592068 13.4710048,11.2175921 14.9415952,8.5299337 L13.5377706,7.12624316 C12.8636774,6.45201588 12.6196738,5.46192473 12.9009482,4.5426214 C13.1255119,3.80819763 13.2831757,3.04776471 13.3695154,2.28223724 C13.5159175,0.981108637 14.6179553,2.84217094e-14 15.9326248,2.84217094e-14 L19.3966703,2.84217094e-14 C20.1196982,2.84217094e-14 20.8140357,0.306345058 21.3012383,0.840605516 C21.790586,1.37687697 22.0328466,2.09990494 21.9662149,2.82400546 C21.7374951,5.30962363 21.0786856,7.70957244 20.0080197,9.95735424 C18.9672509,12.1426604 17.5686549,14.1215021 15.8508434,15.8393136 C14.1331659,17.556991 12.1541902,18.9558551 9.96888406,19.9964899 C7.72096823,21.0670217 5.32101939,21.7259653 2.83540122,21.9548191 C2.75643526,21.9621929 2.67760335,21.9656786 2.59877145,21.9656786 Z M5.31780177,14.4909931 C5.23092579,14.4909931 5.1425751,14.5039977 5.0561013,14.530409 C4.22085853,14.7859424 3.3561208,14.9651911 2.48561817,15.0633288 C2.05351744,15.1119954 1.7274644,15.4808161 1.7274644,15.921229 L1.7274644,19.3854085 C1.7274644,19.6307527 1.82734499,19.8567912 2.00860474,20.0219628 C2.19187548,20.1894135 2.42971188,20.2689158 2.67800557,20.2458561 C12.005509,19.3874196 19.3988153,11.9939792 20.2573859,2.66660977 C20.2803115,2.41831612 20.2006752,2.18047972 20.0334926,1.99707488 C19.8680528,1.81594919 19.6420144,1.71606864 19.3966703,1.71606864 L15.9326248,1.71606864 C15.4922119,1.71606864 15.1233912,2.04198763 15.0745905,2.47422241 C14.9765869,3.34472504 14.7973381,4.20946277 14.5419389,5.04470554 C14.4467507,5.35574298 14.5267892,5.68836534 14.7512188,5.91279496 L17.0366737,8.19824982 L16.7618345,8.75074348 C15.0481791,12.1950809 12.2068789,15.0359789 8.76187108,16.7500366 L8.20937743,17.0251438 L5.92405666,14.739689 C5.76223674,14.5778691 5.54397426,14.4909931 5.31780177,14.4909931 L5.31780177,14.4909931 Z" id="Shape"></path>
        </g>
    </g>
</svg>