<?xml version="1.0" encoding="UTF-8"?>
<svg width="30px" height="30px" viewBox="0 0 30 30" version="1.1" xmlns="http://www.w3.org/2000/svg" xmlns:xlink="http://www.w3.org/1999/xlink">
    <!-- Generator: Sketch 62 (91390) - https://sketch.com -->
    <!--<title>icon/player icons/expand</title>-->
    <desc>Created with Sketch.</desc>
    <g id="icon/player-icons/expand" stroke="none" stroke-width="1" fill="none" fill-rule="evenodd">
        <path d="M24.4335938,7.22371875 L30,12.790125 L30,0 L17.2099219,0 L22.7763281,5.56640625 L15,13.3427344 L7.22367187,5.56640625 L12.7900781,0 L0,0 L0,12.790125 L5.56640625,7.22371875 L13.3427344,15 L5.56640625,22.7763281 L0,17.2099219 L0,30 L12.7900781,30 L7.22367187,24.4335938 L15,16.6573125 L22.7763281,24.4335938 L17.2099219,30 L30,30 L30,17.2099219 L24.4335938,22.7763281 L16.6572656,15 L24.4335938,7.22371875 Z M27.65625,2.34375 L27.65625,7.13179687 L22.8682031,2.34375 L27.65625,2.34375 Z M2.34375,2.34375 L7.13179687,2.34375 L2.34375,7.13179687 L2.34375,2.34375 Z M2.34375,27.65625 L2.34375,22.86825 L7.13179687,27.65625 L2.34375,27.65625 Z M27.65625,27.65625 L22.8682031,27.65625 L27.65625,22.86825 L27.65625,27.65625 Z" id="Fill-1" fill="#FFFFFF"></path>
    </g>
</svg>