<?xml version="1.0" encoding="UTF-8"?>
<svg width="20px" height="20px" viewBox="0 0 20 20" version="1.1" xmlns="http://www.w3.org/2000/svg" xmlns:xlink="http://www.w3.org/1999/xlink">
    <!-- Generator: Sketch 62 (91390) - https://sketch.com -->
    <!--<title>icon/notification/help</title>-->
    <desc>Created with Sketch.</desc>
    <g id="icon/notification/help" stroke="none" stroke-width="1" fill="none" fill-rule="evenodd">
        <path d="M1.78639636e-07,9.80387581 C0.00098720123,4.38837515 4.48382432,-0.000966663362 10.0134463,1.59688048e-07 C11.6378621,0.00420391846 13.2368055,0.395500225 14.6723212,1.14013884 C19.5582884,3.6745911 21.4215245,9.60888074 18.8339663,14.3946803 C16.2749615,19.1276693 10.3211863,20.9649022 5.46410684,18.5533593 L3.41099578,19.8870536 C3.26490723,19.9822806 3.08722942,20.0192677 2.91428154,19.9904585 C2.53949611,19.9280951 2.28735778,19.5799515 2.34968385,19.2213237 L2.73450504,16.5401338 C0.979283428,14.7207053 -0.000483016881,12.3107618 1.78639636e-07,9.80387581 Z" id="Shape" fill="#264D7A"></path>
        <path d="M10.4454073,8.57704511 C11.092201,9.00600289 11.4187175,9.71728494 11.297747,10.4331004 C11.2934142,10.4581125 11.2878683,10.4829683 11.2811092,10.5075115 L10.5767764,13.034673 C10.5622184,13.1945943 10.664818,13.2888587 10.7296361,13.3320046 C10.7984402,13.3776517 10.9403813,13.4423705 11.1188908,13.3637387 L11.7218371,13.0984539 L12.5,14.5371196 L11.8970538,14.8024043 C11.5965338,14.9348122 11.2736568,15 10.9523397,15 C10.5022531,15 10.0556326,14.8721256 9.67816292,14.6216918 C9.03136916,14.1925777 8.70485269,13.4812957 8.82599655,12.7654802 C8.830156,12.7404681 8.83570192,12.7156123 8.84263433,12.6910691 L9.54696709,10.1639075 C9.56152511,10.0039863 9.45892545,9.90972191 9.39393415,9.86657601 C9.3253033,9.82108522 9.18318892,9.75621003 9.0048527,9.83484188 C8.40138647,10.1004393 8.27712305,10.154997 8.27712305,10.154997 L7.5,8.71586235 C7.5003466,8.71570604 7.62512996,8.6608357 8.22651647,8.39617627 C8.94835355,8.0785224 9.7984402,8.14793102 10.4454073,8.57704511 Z M10.5147314,5 C11.1272097,5 11.6239168,5.44787318 11.6239168,6.00048461 C11.6239168,6.55309604 11.1272097,7.00096922 10.5147314,7.00096922 C9.90207973,7.00096922 9.40554595,6.55309604 9.40554595,6.00048461 C9.40554595,5.44787318 9.90207973,5 10.5147314,5 Z" id="Combined-Shape" fill="#FFFFFF"></path>
    </g>
</svg>