<?xml version="1.0" encoding="UTF-8"?>
<svg width="20px" height="20px" viewBox="0 0 20 20" version="1.1" xmlns="http://www.w3.org/2000/svg" xmlns:xlink="http://www.w3.org/1999/xlink">
    <!-- Generator: Sketch 62 (91390) - https://sketch.com -->
    <!--<title>icon/notification/info</title>-->
    <desc>Created with Sketch.</desc>
    <g id="icon/notification/info" stroke="none" stroke-width="1" fill="none" fill-rule="evenodd">
        <path d="M10,0 C12.6710547,0 15.1823438,1.04015625 17.0710937,2.92890625 C18.9598047,4.81765625 20,7.32894531 20,10 C20,11.9738672 19.4142187,13.8935547 18.3056641,15.5514453 C18.0659375,15.9101562 17.5807031,16.0066016 17.2219922,15.7667188 C16.8633984,15.526875 16.7669531,15.0416406 17.0068359,14.6830469 C17.9428125,13.2829297 18.4375,11.6636328 18.4375,10 C18.4375,5.34757813 14.6524219,1.5625 10,1.5625 C5.34761719,1.5625 1.5625,5.34757813 1.5625,10 C1.5625,14.6523828 5.34761719,18.4375 10,18.4375 C11.543125,18.4375 13.0525391,18.0172656 14.3647656,17.2224219 C14.73375,16.9988672 15.2141016,17.1168359 15.4377734,17.4859375 C15.6613281,17.8548828 15.5433594,18.3352344 15.1742578,18.5587891 C13.6178516,19.5016406 11.8286328,20 10,20 C7.32894531,20 4.81765625,18.9598047 2.92894531,17.0710547 C1.04019531,15.1823047 0,12.6710156 0,10 C0,7.32894531 1.04019531,4.81765625 2.92894531,2.92890625 C4.81765625,1.04015625 7.32894531,0 10,0 Z M10.4454073,8.57704511 C11.092201,9.00600289 11.4187175,9.71728494 11.297747,10.4331004 C11.2934142,10.4581125 11.2878683,10.4829683 11.2811092,10.5075115 L10.5767764,13.034673 C10.5622184,13.1945943 10.664818,13.2888587 10.7296361,13.3320046 C10.7984402,13.3776517 10.9403813,13.4423705 11.1188908,13.3637387 L11.7218371,13.0984539 L12.5,14.5371196 L11.8970538,14.8024043 C11.5965338,14.9348122 11.2736568,15 10.9523397,15 C10.5022531,15 10.0556326,14.8721256 9.67816292,14.6216918 C9.03136916,14.1925777 8.70485269,13.4812957 8.82599655,12.7654802 C8.830156,12.7404681 8.83570192,12.7156123 8.84263433,12.6910691 L9.54696709,10.1639075 C9.56152511,10.0039863 9.45892545,9.90972191 9.39393415,9.86657601 C9.3253033,9.82108522 9.18318892,9.75621003 9.0048527,9.83484188 C8.40138647,10.1004393 8.27712305,10.154997 8.27712305,10.154997 L7.5,8.71586235 C7.5003466,8.71570604 7.62512996,8.6608357 8.22651647,8.39617627 C8.94835355,8.0785224 9.7984402,8.14793102 10.4454073,8.57704511 Z M10.5147314,5 C11.1272097,5 11.6239168,5.44787318 11.6239168,6.00048461 C11.6239168,6.55309604 11.1272097,7.00096922 10.5147314,7.00096922 C9.90207973,7.00096922 9.40554595,6.55309604 9.40554595,6.00048461 C9.40554595,5.44787318 9.90207973,5 10.5147314,5 Z" id="Combined-Shape" fill="#264D7A"></path>
    </g>
</svg>