<?xml version="1.0" encoding="UTF-8"?>
<svg width="20px" height="20px" viewBox="0 0 20 20" version="1.1" xmlns="http://www.w3.org/2000/svg" xmlns:xlink="http://www.w3.org/1999/xlink">
    <!-- Generator: Sketch 62 (91390) - https://sketch.com -->
    <!--<title>icon/notification/rosso</title>-->
    <desc>Created with Sketch.</desc>
    <g id="icon/notification/rosso" stroke="none" stroke-width="1" fill="none" fill-rule="evenodd">
        <g id="semaforo">
            <circle id="Oval" fill="#FF3333" cx="10" cy="10" r="10"></circle>
            <path d="M10,2 C12.1368438,2 14.145875,2.832125 15.656875,4.343125 C17.1678437,5.854125 18,7.86315625 18,10 C18,11.5790938 17.531375,13.1148438 16.6445312,14.4411563 C16.45275,14.728125 16.0645625,14.8052813 15.7775938,14.613375 C15.4907188,14.4215 15.4135625,14.0333125 15.6054688,13.7464375 C16.35425,12.6263438 16.75,11.3309063 16.75,10 C16.75,6.2780625 13.7219375,3.25 10,3.25 C6.27809375,3.25 3.25,6.2780625 3.25,10 C3.25,13.7219062 6.27809375,16.75 10,16.75 C11.2345,16.75 12.4420312,16.4138125 13.4918125,15.7779375 C13.787,15.5990938 14.1712812,15.6934688 14.3502187,15.98875 C14.5290625,16.2839063 14.4346875,16.6681875 14.1394063,16.8470313 C12.8942813,17.6013125 11.4629062,18 10,18 C7.86315625,18 5.854125,17.1678437 4.34315625,15.6568438 C2.83215625,14.1458438 2,12.1368125 2,10 C2,7.86315625 2.83215625,5.854125 4.34315625,4.343125 C5.854125,2.832125 7.86315625,2 10,2 Z M10.625,13.3125 L10.625,14.5625 L9.375,14.5625 L9.375,13.3125 L10.625,13.3125 Z M9.90399225,5.78282534 L10.1013672,5.78320312 C11.4634765,5.8341797 12.5711914,6.93203125 12.6230469,8.2821289 C12.6708008,9.52197265 11.8334961,10.6183594 10.625,10.9107422 L10.625,10.9107422 L10.625,12.0625 L9.375,12.0625 L9.375,10.8492187 C9.375,10.2938476 9.75595702,9.82236327 10.3015625,9.70263672 C10.9481445,9.5607422 11.3990234,8.9834961 11.3740234,8.33017577 C11.3470703,7.62910155 10.7674805,7.05908202 10.0544922,7.03222655 C9.66875,7.01816405 9.30654297,7.15439452 9.03378905,7.41708985 C8.7701172,7.6709961 8.625,8.01123047 8.625,8.375 L8.625,8.375 L7.375,8.375 C7.375,7.66845702 7.65615235,7.00859375 8.16679687,6.51669922 C8.68632812,6.01640625 9.3736328,5.75576172 10.1013672,5.78320312 Z" id="Combined-Shape" fill="#FFFFFF" opacity="0.699999988"></path>
        </g>
    </g>
</svg>