<?xml version="1.0" encoding="UTF-8"?>
<svg width="54px" height="54px" viewBox="0 0 54 54" version="1.1" xmlns="http://www.w3.org/2000/svg" xmlns:xlink="http://www.w3.org/1999/xlink">
    <!-- Generator: Sketch 62 (91390) - https://sketch.com -->
    <!--<title>icon/54/2-Immobiliare</title>-->
    <desc>Created with Sketch.</desc>
    <g id="icon/54/2-Immobiliare" stroke="none" stroke-width="1" fill="none" fill-rule="evenodd">
        <g id="034-house" fill="#264D7A">
            <path d="M54,22.7445508 L48.7265625,18.3062671 L48.7265625,3.20638221 L36.0703125,3.20638221 L36.0703125,7.65491524 L27,0.0211598746 L0,22.7445508 L0,25.9532474 L5.2734375,25.9532474 L5.2734375,53.9900813 L48.7265625,53.9900813 L48.7265625,25.9532474 L54,25.9532474 L54,22.7445508 Z M40.2890625,7.43835713 L44.5078125,7.43835713 L44.5078125,14.7557064 L40.2890625,11.2054761 L40.2890625,7.43835713 Z M27,5.54554024 L46.2203613,21.7212725 L7.77963867,21.7212725 L27,5.54554024 Z M44.5078125,49.7581063 L9.4921875,49.7581063 L9.4921875,25.9532474 L44.5078125,25.9532474 L44.5078125,49.7581063 Z M33.328125,44.1507396 L33.328125,31.4548148 L20.671875,31.4548148 L20.671875,44.1507396 L33.328125,44.1507396 Z M24.890625,35.6867897 L29.109375,35.6867897 L29.109375,39.9187647 L24.890625,39.9187647 L24.890625,35.6867897 Z" id="Shape"></path>
        </g>
    </g>
</svg>