<?xml version="1.0" encoding="UTF-8"?>
<svg width="54px" height="54px" viewBox="0 0 54 54" version="1.1" xmlns="http://www.w3.org/2000/svg" xmlns:xlink="http://www.w3.org/1999/xlink">
    <!-- Generator: Sketch 62 (91390) - https://sketch.com -->
    <!--<title>icon/54/2-Investimento</title>-->
    <desc>Created with Sketch.</desc>
    <g id="icon/54/2-Investimento" stroke="none" stroke-width="1" fill="none" fill-rule="evenodd">
        <g id="002-wallet-1" transform="translate(0.000000, 1.000000)" fill="#264D7A">
            <path d="M44.4732955,15.8585869 L50.8934659,15.8585869 L50.8934659,25.1757707 L54,25.1757707 L54,41.6828162 L50.8934659,41.6828162 L50.8934659,51 L8.25724432,51 C3.70336219,51 0,47.2975988 0,42.7464773 L0,13.2416575 C0,9.54710461 3.00675198,6.54140305 6.70397727,6.54140305 L16.8366186,6.54140305 L23.4509943,0 L30.3346301,6.54140305 L44.4732955,6.54140305 L44.4732955,15.8585869 Z M34.6325892,10.6255368 L40.1396231,15.8585869 L40.3849432,15.8585869 L40.3849432,10.6255368 L34.6325892,10.6255368 Z M34.2075986,15.8585869 L28.0100426,9.96926578 L22.0291042,15.8585869 L34.2075986,15.8585869 Z M13.2267674,15.8585869 L16.2050199,15.8585869 L25.0465101,7.15292409 L23.5075613,5.69069378 L13.2267674,15.8585869 Z M6.70397727,10.6255368 C5.26241039,10.6255368 4.08835227,11.7992903 4.08835227,13.2420618 C4.08835227,14.6056234 5.31008079,15.4070201 7.55810942,15.7179071 L12.7072045,10.6255368 L6.70397727,10.6255368 Z M46.8051136,41.6828162 L31.0653409,41.6828162 L31.0653409,25.1757707 L46.8051136,25.1757707 L46.8051136,19.9427206 L9.81051136,19.9427206 C7.47444313,19.9427206 5.5799514,19.6153222 4.08835227,18.9969377 L4.08835227,42.7464773 C4.08835227,45.045346 5.95935807,46.9158663 8.25724432,46.9158663 L46.8051136,46.9158663 L46.8051136,41.6828162 Z M49.9116477,29.2599044 L35.1536932,29.2599044 L35.1536932,37.5986824 L49.9116477,37.5986824 L49.9116477,29.2599044 Z M38.8316761,31.3872266 L42.9200284,31.3872266 L42.9200284,35.4713603 L38.8316761,35.4713603 L38.8316761,31.3872266 Z" id="Combined-Shape"></path>
        </g>
    </g>
</svg>