<?xml version="1.0" encoding="UTF-8"?>
<svg width="54px" height="54px" viewBox="0 0 54 54" version="1.1" xmlns="http://www.w3.org/2000/svg" xmlns:xlink="http://www.w3.org/1999/xlink">
    <!-- Generator: Sketch 62 (91390) - https://sketch.com -->
    <!--<title>icon/54/2-Obiettivi</title>-->
    <desc>Created with Sketch.</desc>
    <g id="icon/54/2-Obiettivi" stroke="none" stroke-width="1" fill="none" fill-rule="evenodd">
        <g id="390-target-2" fill="#264D7A">
            <path d="M52.6651612,18.6857666 C53.5237427,21.3406128 53.9700073,24.142456 53.9700073,27.0131836 C53.9700073,34.2209839 51.1628906,40.9976807 46.0664429,46.0944581 C40.9696655,51.1912354 34.1929688,53.9980224 26.9851685,53.9980224 C19.7770386,53.9980224 13.0006714,51.1912354 7.90356445,46.0944581 C2.80678711,40.9976807 2.84217094e-14,34.2209839 2.84217094e-14,27.0131836 C2.84217094e-14,19.8050537 2.80678711,13.0286865 7.90356445,7.93157957 C13.0006714,2.83513179 19.7770386,0.028015116 26.9851685,0.028015116 C29.855896,0.028015116 32.6574096,0.474279807 35.3122559,1.33253176 L35.3122559,5.82352293 C32.731897,4.80509035 29.9231323,4.24445805 26.9851685,4.24445805 C14.4301026,4.24445805 4.21611328,14.4584473 4.21611328,27.0131836 C4.21611328,39.5679199 14.4301026,49.7819091 26.9851685,49.7819091 C39.5395752,49.7819091 49.7535645,39.5679199 49.7535645,27.0131836 C49.7535645,24.0748901 49.1926026,21.2664551 48.1744995,18.6857666 L52.6651612,18.6857666 Z M28.3598877,16.6831787 C27.909668,16.6235229 27.4512085,16.5915527 26.9851685,16.5915527 C21.2598633,16.5915527 16.654834,21.2878784 16.654834,27.0131836 C16.654834,32.7381591 21.2598633,37.3435181 26.9851685,37.3435181 C32.710144,37.3435181 37.3998779,32.7381591 37.3998779,27.0131836 C37.3998779,26.5639526 37.370874,26.1209839 37.3155029,25.6862549 L31.332788,31.3815674 C30.2171264,32.4919556 28.680249,33.2322143 26.9851685,33.2322143 C23.5847901,33.2322143 20.8712768,30.413562 20.8712768,27.012854 C20.8712768,25.3075561 21.5149659,23.7617798 22.6375488,22.6444702 L28.3598877,16.6831787 Z M25.4977295,25.5191529 C25.1144165,25.9008179 24.8771118,26.4291504 24.8771118,27.0131836 C24.8771118,28.1776245 25.8203979,29.1215698 26.9851685,29.1215698 C27.5652466,29.1215698 28.0909424,28.8865723 28.4719482,28.5072143 L28.4752441,28.504248 C28.4759034,28.5039185 28.4759034,28.5039185 28.4762329,28.5039185 L42.4709473,14.5744629 L49.7838867,14.5744629 L54,10.3583496 L46.7068359,10.3583496 L50.8718628,6.21276851 L47.897644,3.22470703 L43.7451416,7.3574341 L43.7451416,0.103491169 L39.5290284,4.32026367 L39.5290284,11.553772 L25.4977295,25.5191529 Z M34.8785156,10.2265137 C32.4817383,9.09503176 29.8061279,8.46123047 26.9851685,8.46123047 C16.7550293,8.46123047 8.4328857,16.783374 8.4328857,27.0131836 C8.4328857,37.2429932 16.7550293,45.5654663 26.9851685,45.5654663 C37.2146484,45.5654663 45.5374512,37.2429932 45.5374512,27.0131836 C45.5374512,24.2192505 44.9151855,21.5680298 43.8041382,19.1893799 L40.5645996,22.4150757 C41.0550293,23.8590088 41.3210083,25.4057739 41.3210083,27.012854 C41.3210083,34.9177368 34.8900513,41.3486939 26.9851685,41.3486939 C19.0802857,41.3486939 12.6493286,34.9177368 12.6493286,27.012854 C12.6493286,19.1079712 19.0802857,12.6773438 26.9851685,12.6773438 C28.6133423,12.6773438 30.1785645,12.9505737 31.6379883,13.4531982 L34.8785156,10.2265137 Z" id="Shape"></path>
        </g>
    </g>
</svg>