<?xml version="1.0" encoding="UTF-8"?>
<svg width="54px" height="54px" viewBox="0 0 54 54" version="1.1" xmlns="http://www.w3.org/2000/svg" xmlns:xlink="http://www.w3.org/1999/xlink">
    <!-- Generator: Sketch 62 (91390) - https://sketch.com -->
    <!--<title>icon/54/2-Pass.Generazionale</title>-->
    <desc>Created with Sketch.</desc>
    <g id="icon/54/2-Pass.Generazionale" stroke="none" stroke-width="1" fill="none" fill-rule="evenodd">
        <g id="open-letter-read-email" transform="translate(2.500000, 0.000000)" fill="#264D7A">
            <path d="M34.564,7.885 L34.563,7.95608577 L48.2578093,19.7062531 C48.2714772,19.7194625 48.2794519,19.7271697 48.2849216,19.7326368 C48.2920814,19.7381866 48.3014562,19.7461466 48.3240563,19.7653361 C48.3507209,19.7906819 48.3709211,19.8120528 48.3960144,19.841252 L48.4387437,19.8923973 C48.4577666,19.915544 48.4577666,19.915544 48.4725398,19.9328235 L48.495311,19.9579106 L48.5013104,19.9643921 C48.5379889,20.0039087 48.5611999,20.030744 48.5848782,20.0636524 C48.62697,20.1209219 48.6645483,20.1801485 48.7020575,20.2470776 L48.757,20.3520858 L48.7563836,20.3493508 L48.758,20.3520858 L48.7615559,20.3577518 C48.7805153,20.3875439 48.7805153,20.3875439 48.8067739,20.4403872 C48.8689228,20.5756179 48.9160947,20.7154787 48.9461963,20.8527441 C48.9576187,20.9140255 48.9576187,20.9140255 48.9600393,20.9437455 L48.9608665,20.9525043 C48.9803291,21.0628403 48.992134,21.1628265 48.9956753,21.2664483 C48.997577,21.2785311 48.9980348,21.28741 49,21.3255163 L49,54 L0,54 L0,21.3256472 C0.00211807086,21.2921379 0.00304473039,21.2774775 0.00411382074,21.2679193 C0.00712813702,21.1676743 0.0190911212,21.066307 0.040581306,20.9443295 L0.0401422989,20.9428566 C0.0425318385,20.913783 0.0425318385,20.913783 0.0525930716,20.8581619 C0.0841845556,20.7150548 0.131275384,20.5753175 0.18908082,20.4499018 C0.203965779,20.4148082 0.219938237,20.3868234 0.238364383,20.3579622 L0.243,20.3490858 L0.298587697,20.246129 C0.336011508,20.1793241 0.373523336,20.1202511 0.416279583,20.0622172 C0.440815958,20.0292243 0.462750612,20.0039504 0.497795771,19.9658383 L0.500062904,19.9633625 L0.527499219,19.9327595 C0.541587905,19.9162893 0.541587905,19.9162893 0.559301812,19.8947295 C0.61030816,19.8325435 0.636052878,19.8031553 0.682650651,19.7591406 C0.702773803,19.7424227 0.710504107,19.7360005 0.71729481,19.7309243 C0.723322608,19.7249609 0.732038983,19.7164927 0.745747939,19.7031741 L14.5187215,7.88583296 C14.5216966,9.55138107 14.93559,11.1341229 15.6707372,12.5289499 L5.21925646,21.4962347 L18.044925,35.2302895 L23.1005408,30.8435157 C23.48786,30.508021 23.975784,30.3325867 24.453986,30.3309922 C24.5025369,30.3262251 24.6304111,30.3264759 24.6505783,30.3293522 C25.1618334,30.3335638 25.6497621,30.5102753 26.0368066,30.8479053 L31.0012371,35.1810451 L43.7810044,21.4961052 L33.3864538,12.5776631 C34.0824083,11.2745863 34.4971282,9.80537913 34.5568132,8.25656154 L34.564,7.885 Z M24.5622112,35.2334315 L7.86042365,49.7245113 L41.164907,49.7245113 L24.5622112,35.2334315 Z M4.2721302,26.7434806 L4.2721302,47.1796284 L14.8149726,38.0329942 L4.2721302,26.7434806 Z M44.7281313,26.7428728 L34.2231216,37.9926873 L44.7281313,47.1612123 L44.7281313,26.7428728 Z M24.4999474,0 C28.6398344,0 32,3.47780288 32,7.74512001 C32,11.2221623 29.7507516,14.2418286 26.5760026,15.1861836 L26.5760026,19.5862947 L29.1507588,19.5862947 L29.1507588,22.8486497 L26.5760026,22.8486497 L26.5760026,24.7729637 L28.1617295,24.7729637 L28.1617295,27.0353187 L26.5760026,27.0353187 L26.5760026,29 L22.4239974,29 L22.4239974,15.1860748 C19.2492625,14.2417238 17,11.2220737 17,7.74512001 C17,3.4777844 20.3600781,0 24.4999474,0 Z M24.5000526,4.26235501 C22.6583517,4.26235501 21.1521104,5.82132884 21.1521104,7.74501121 C21.1521104,9.66869358 22.6583517,11.2276674 24.5000526,11.2276674 C26.3417778,11.2276674 27.8480998,9.66866881 27.8480998,7.74501121 C27.8480998,5.8213536 26.3417778,4.26235501 24.5000526,4.26235501 Z" id="Combined-Shape"></path>
        </g>
    </g>
</svg>