<?xml version="1.0" encoding="UTF-8"?>
<svg width="54px" height="54px" viewBox="0 0 54 54" version="1.1" xmlns="http://www.w3.org/2000/svg" xmlns:xlink="http://www.w3.org/1999/xlink">
    <!-- Generator: Sketch 62 (91390) - https://sketch.com -->
    <!--<title>icon/54/2-Previdenza</title>-->
    <desc>Created with Sketch.</desc>
    <g id="icon/54/2-Previdenza" stroke="none" stroke-width="1" fill="none" fill-rule="evenodd">
        <g id="001-hourglass-1" transform="translate(8.500000, 0.000000)" fill="#264D7A">
            <path d="M33.8679752,11.8378485 C33.8679752,17.5163478 31.2484454,22.3101514 26.3168423,25.671216 C25.6031542,26.1575833 24.8624917,26.5991894 24.1012713,26.9993613 C24.8621289,27.3995944 25.6029265,27.8413248 26.3168565,28.3275803 C31.2484455,31.6886352 33.8679752,36.4824387 33.8679752,42.160938 L33.8679752,43.6933211 L37,43.6933211 L37,54 L0,54 L0,43.6933211 L3.13161738,43.6933211 L3.13161738,42.160938 C3.13161738,36.4823365 5.75123699,31.6885664 10.6831576,28.3275707 C11.3969296,27.8411462 12.1374236,27.3995454 12.8985522,26.9992841 C12.1385147,26.5996404 11.3975765,26.1578043 10.6831594,25.6712171 C5.75123701,22.3102202 3.13161738,17.51645 3.13161738,11.8378485 L3.13161738,10.3066789 L0,10.3066789 L0,0 L37,0 L37,10.3066789 L33.8679752,10.3066789 L33.8679752,11.8378485 Z M4.10457242,4.08835227 L4.10457242,6.21832661 L32.8950202,6.21832661 L32.8950202,4.08835227 L4.10457242,4.08835227 Z M32.8950202,47.7816734 L4.10457242,47.7816734 L4.10457242,49.9116477 L32.8950202,49.9116477 L32.8950202,47.7816734 Z M29.7634028,42.160938 C29.7634028,40.2993063 29.4069471,38.5915928 28.6979429,37.0408569 C28.1450059,36.9548517 27.6777568,36.8384428 26.8700415,36.6097321 C25.3323794,36.1742151 24.6113595,36.0909848 23.0776745,36.3228874 C21.6738437,36.5354968 20.9037017,36.8474609 19.8574452,37.5163331 C19.7715547,37.571243 19.7026593,37.6159087 19.5448647,37.7186793 C17.7453147,38.8912125 16.6019729,39.398482 14.3823995,39.7348172 C13.6456373,39.8463915 12.9684124,39.8992476 12.3333296,39.8992476 C11.1643533,39.8992476 10.3130124,39.7491081 9.07292562,39.40129 C8.96061236,39.3696844 8.96061236,39.3696844 8.85035797,39.3384524 C8.27535679,39.1755273 7.93291919,39.0869078 7.60729856,39.0296815 C7.36023272,40.0204154 7.2361898,41.0642564 7.2361898,42.160938 L7.2361898,43.6933211 L29.7634028,43.6933211 L29.7634028,42.160938 Z M24.0753021,31.7545634 C22.212145,30.4699967 20.2224528,29.613 18.4996874,29.115617 C16.7742519,29.6144134 14.7875671,30.4699399 12.9242423,31.7545967 C11.4395276,32.7779806 10.2440635,33.938675 9.33913987,35.2311829 C9.52021539,35.278781 9.72265315,35.3349981 9.97309241,35.4061431 C11.5107545,35.8416602 12.2317745,35.9248904 13.7654594,35.6929879 C15.1692901,35.4803784 15.9394321,35.1684144 16.9856886,34.4995421 C17.0715792,34.4446323 17.1404745,34.3999666 17.2982691,34.297196 C19.0978197,33.1246625 20.2411612,32.6173932 22.4606876,32.2810652 C23.2288497,32.1646589 23.926056,32.1119672 24.5804981,32.1163666 C24.4157255,31.9936413 24.2473335,31.8730372 24.0753021,31.7545634 Z M24.0753378,22.2441984 C27.8602547,19.6351581 29.7634028,16.1479142 29.7634028,11.8378485 L29.7634028,10.3066789 L7.23659722,10.3066789 L7.23659722,11.8378485 C7.23659722,16.1478282 9.13967103,19.6351162 12.9242905,22.2442231 C14.7874921,23.5288205 16.7772347,24.3858275 18.5000286,24.8832051 C20.2208152,24.3865923 22.211504,23.5292061 24.0753378,22.2441984 Z" id="Shape"></path>
        </g>
    </g>
</svg>