<?xml version="1.0" encoding="UTF-8"?>
<svg width="54px" height="54px" viewBox="0 0 54 54" version="1.1" xmlns="http://www.w3.org/2000/svg" xmlns:xlink="http://www.w3.org/1999/xlink">
    <!-- Generator: Sketch 62 (91390) - https://sketch.com -->
    <!--<title>icon/54/2-Protezione</title>-->
    <desc>Created with Sketch.</desc>
    <g id="icon/54/2-Protezione" stroke="none" stroke-width="1" fill="none" fill-rule="evenodd">
        <g id="069-umbrella" fill="#264D7A">
            <path d="M46.0651245,11.7350464 C41.5036011,7.33337398 35.5462646,4.71676028 29.109375,4.24709477 L29.109375,0 L24.890625,0 L24.890625,4.24709477 C18.4537354,4.71676028 12.4963989,7.33337398 7.93487551,11.7347168 C2.85622554,16.634729 0.0441650812,23.2492676 0.00197753906,30.375 L0,30.375 L0,36.3867188 L4.21875,36.3867188 L4.21875,32.0532715 C5.0203125,31.8482666 6.18046875,31.640625 7.59375,31.640625 C9.3300293,31.640625 11.2350586,32.1897216 12.4453125,32.6129151 L12.4453125,36.3867188 L16.6640625,36.3867188 L16.6640625,32.5156861 C17.6409668,32.1231445 19.1692749,31.640625 20.7773438,31.640625 C22.3860718,31.640625 23.9150391,32.1234741 24.890625,32.5153565 L24.890625,47.671875 C24.890625,48.8349975 23.9443725,49.78125 22.78125,49.78125 C21.6379029,49.78125 20.671875,48.7667724 20.671875,47.5664062 L16.453125,47.5664062 C16.453125,49.2499512 17.1024169,50.848462 18.2816895,52.0682739 C19.4856811,53.3141236 21.0835327,54 22.78125,54 C26.2709473,54 29.109375,51.1615723 29.109375,47.671875 L29.109375,32.5153565 C30.0852905,32.1238037 31.6149169,31.640625 33.2226562,31.640625 C34.8313843,31.640625 36.3603516,32.1234741 37.3359375,32.5153565 L37.3359375,36.3867188 L41.5546875,36.3867188 L41.5546875,32.6244507 C42.7089112,32.2345459 44.4959473,31.7460938 46.1953125,31.7460938 C47.6471557,31.7460938 48.8995971,31.9425293 49.78125,32.1363281 L49.78125,36.3867188 L54,36.3867188 L54,30.536499 C54,23.3494629 51.1820068,16.6719727 46.0651245,11.7350464 Z M4.39606929,27.700708 C5.50250246,18.9224121 11.6974732,11.8879761 20.1184936,9.37880859 C19.7879151,9.75388179 19.4550293,10.150708 19.1221435,10.5719238 C17.1765747,13.0359375 15.6275025,15.8232788 14.5184326,18.8551758 C13.4538574,21.7644654 12.797644,24.9044677 12.5540771,28.219812 C11.1269531,27.8048584 9.33793945,27.421875 7.59375,27.421875 C6.38085938,27.421875 5.30375977,27.5388794 4.39606929,27.700708 Z M20.7773437,27.421875 C19.3264893,27.421875 17.9530884,27.6852173 16.7985352,28.0164551 C17.2909424,22.3547607 19.1373047,17.4313477 22.3066406,13.3477294 C23.1932373,12.2053711 24.0844482,11.2666992 24.890625,10.5158935 L24.890625,28.0553466 C23.7090454,27.7059815 22.2852173,27.421875 20.7773437,27.421875 Z M29.109375,28.0553466 L29.109375,10.5125977 C32.1313843,13.3348755 36.384082,18.8551758 37.1975098,28.0151367 C36.0439453,27.6848877 34.6721924,27.421875 33.2226562,27.421875 C31.7147827,27.421875 30.2909546,27.7059815 29.109375,28.0553466 Z M46.1953125,27.5273437 C44.5012207,27.5273437 42.8067993,27.8681396 41.4479004,28.2458496 C41.2059815,24.9206177 40.5491089,21.7723755 39.4815674,18.8551758 C38.3724975,15.8232788 36.8237549,13.0365966 34.8785156,10.572583 C34.5456299,10.150708 34.2120849,9.75388179 33.8815064,9.37880859 C42.3374634,11.8981934 48.5489136,18.9814087 49.618103,27.810791 C48.6444947,27.6496216 47.4813721,27.5273437 46.1953125,27.5273437 L46.1953125,27.5273437 Z" id="Shape"></path>
        </g>
    </g>
</svg>