<?xml version="1.0" encoding="UTF-8"?>
<svg width="46px" height="46px" viewBox="0 0 46 46" version="1.1" xmlns="http://www.w3.org/2000/svg" xmlns:xlink="http://www.w3.org/1999/xlink">
    <!-- Generator: Sketch 63.1 (92452) - https://sketch.com -->
    <!--<title>illustrazione/cluster clientela/prospect</title>-->
    <desc>Created with Sketch.</desc>
    <defs>
        <path d="M24.5837704,6.86587024 L42.5163139,39.3152347 C42.9996964,40.1899269 42.6824773,41.290864 41.807785,41.7742466 C41.5398325,41.9223256 41.2386904,42 40.9325435,42 L5.06745651,42 C4.0680841,42 3.2579327,41.1898486 3.2579327,40.1904762 C3.2579327,39.8843292 3.33560708,39.5831872 3.48368611,39.3152347 L21.4162296,6.86587024 C21.8996122,5.99117801 23.0005493,5.67395883 23.8752415,6.15734138 C24.1734035,6.32211509 24.4189967,6.56770829 24.5837704,6.86587024 Z" id="path-1"></path>
    </defs>
    <g id="illustrazione/cluster-clientela/prospect" stroke="none" stroke-width="1" fill="none" fill-rule="evenodd">
        <mask id="mask-2" fill="white">
            <use xlink:href="#path-1"></use>
        </mask>
        <use id="Triangle" fill="#D8D8D8" xlink:href="#path-1"></use>
        <rect id="Rectangle" fill="#E9EDF2" fill-rule="nonzero" mask="url(#mask-2)" x="2" y="33" width="21" height="9"></rect>
        <rect id="Rectangle-Copy-4" fill="#D0D9DF" fill-rule="nonzero" mask="url(#mask-2)" x="23" y="33" width="21" height="9"></rect>
        <rect id="Rectangle-Copy" fill="#E9EDF2" fill-rule="nonzero" mask="url(#mask-2)" x="2" y="24" width="21" height="9"></rect>
        <rect id="Rectangle-Copy-5" fill="#D0D9DF" fill-rule="nonzero" mask="url(#mask-2)" x="23" y="24" width="21" height="9"></rect>
        <rect id="Rectangle-Copy-2" fill="#E9EDF2" fill-rule="nonzero" mask="url(#mask-2)" x="2" y="15" width="21" height="9"></rect>
        <rect id="Rectangle-Copy-6" fill="#D0D9DF" fill-rule="nonzero" mask="url(#mask-2)" x="23" y="15" width="21" height="9"></rect>
        <rect id="Rectangle-Copy-3" fill="#E9EDF2" fill-rule="nonzero" mask="url(#mask-2)" x="2" y="6" width="21" height="9"></rect>
        <rect id="Rectangle-Copy-7" fill="#D0D9DF" fill-rule="nonzero" mask="url(#mask-2)" x="23" y="6" width="21" height="9"></rect>
        <path d="M21.6976744,30.8602151 C21.6976744,30.0259815 21.799999,29.3611136 22.0046512,28.8655914 C22.2093033,28.3700692 22.6139505,27.8259438 23.2186047,27.2331989 C23.8232588,26.640454 24.2062007,26.2186392 24.3674419,25.9677419 C24.6155051,25.5851235 24.7395349,25.1711492 24.7395349,24.7258065 C24.7395349,24.1361978 24.5953503,23.6861575 24.3069767,23.375672 C24.0186032,23.0651866 23.5953516,22.9099462 23.0372093,22.9099462 C22.5038733,22.9099462 22.0744202,23.0620505 21.7488372,23.3662634 C21.4232542,23.6704764 21.2604651,24.0828827 21.2604651,24.6034946 L19,24.6034946 C19.0124032,23.493274 19.3860428,22.6151466 20.1209302,21.969086 C20.8558176,21.3230254 21.8279009,21 23.0372093,21 C24.2837272,21 25.2558105,21.3198893 25.9534884,21.9596774 C26.6511663,22.5994656 27,23.4932738 27,24.641129 C27,25.6635356 26.5286869,26.6702459 25.5860465,27.6612903 L24.4418605,28.7997312 C24.0325561,29.2701636 23.8217055,29.9569847 23.8093023,30.8602151 L21.6976744,30.8602151 Z M21.5395349,33.7862903 C21.5395349,33.4162168 21.6542624,33.1167126 21.8837209,32.8877688 C22.1131794,32.658825 22.4232539,32.5443548 22.8139535,32.5443548 C23.2108547,32.5443548 23.5240299,32.6619612 23.7534884,32.8971774 C23.9829469,33.1323936 24.0976744,33.4287617 24.0976744,33.7862903 C24.0976744,34.1312741 23.9860476,34.4198017 23.7627907,34.6518817 C23.5395349,34.8839617 23.2232579,35 22.8139535,35 C22.4046491,35 22.0899236,34.8839617 21.8697674,34.6518817 C21.6496113,34.4198017 21.5395349,34.1312741 21.5395349,33.7862903 Z" id="?" fill="#92A6BC" fill-rule="nonzero" mask="url(#mask-2)"></path>
    </g>
</svg>