<?xml version="1.0" encoding="UTF-8"?>
<svg width="46px" height="46px" viewBox="0 0 46 46" version="1.1" xmlns="http://www.w3.org/2000/svg" xmlns:xlink="http://www.w3.org/1999/xlink">
    <!-- Generator: Sketch 63.1 (92452) - https://sketch.com -->
    <!--<title>illustrazione/modello di servizio/gold</title>-->
    <desc>Created with Sketch.</desc>
    <g id="illustrazione/modello-di-servizio/gold" stroke="none" stroke-width="1" fill="none" fill-rule="evenodd">
        <g id="Group" transform="translate(2.500000, 4.000000)" fill-rule="nonzero">
            <path d="M6.80759586,16.5028571 C7.05460845,16.5028571 7.30162104,16.3731085 7.4450477,16.1460485 C8.17811732,14.9864204 8.37732103,13.8592295 8.04265881,12.7888036 C7.46895215,10.9479954 5.45301069,9.86135095 4.29762922,9.37479372 C3.5645596,9.06664081 2.95898035,8.66928574 2.49682776,8.1908378 C1.76375814,7.43667409 1.43706407,6.62574537 1.54064999,5.85536309 C1.62829962,5.21472941 1.99483443,4.74439075 2.3215285,4.56598643 C2.95898035,4.20106851 3.75579515,4.2091778 4.3613744,4.56598643 C5.21396625,5.07687153 4.97492181,5.82292595 4.96695366,5.85536309 C4.83149514,6.26082745 5.03866699,6.69872896 5.43707439,6.83658684 C5.8354818,6.97444472 6.26576179,6.76360326 6.40122031,6.3581389 C6.6322966,5.67695878 6.66416919,4.15241279 5.12631662,3.23606334 C4.05061663,2.59542965 2.68806331,2.58732037 1.58049073,3.21984477 C0.775707778,3.68207413 0.178096674,4.60653287 0.0346700085,5.64452163 C-0.140629249,6.89335185 0.353395931,8.1908378 1.41315962,9.28559157 C2.01873888,9.91000668 2.79961738,10.4290011 3.71595441,10.8101376 C4.44902403,11.1182905 6.19404846,11.9697656 6.59245586,13.2591423 C6.78369141,13.8835574 6.6482329,14.5566282 6.16217587,15.3189012 C5.93906772,15.6757099 6.0346855,16.1541578 6.39325216,16.3893271 C6.52871068,16.4623107 6.67213734,16.5028571 6.80759586,16.5028571 Z" id="Path" fill="#E1B950"></path>
            <path d="M39.6075959,16.5028571 C39.8546084,16.5028571 40.101621,16.3731085 40.2450477,16.1460485 C40.9781173,14.9864204 41.177321,13.8592295 40.8426588,12.7888036 C40.2689521,10.9479954 38.2530107,9.86135095 37.0976292,9.37479372 C36.3645596,9.06664081 35.7589803,8.66928574 35.2968278,8.1908378 C34.5637581,7.43667409 34.2370641,6.62574537 34.34065,5.85536309 C34.4282996,5.21472941 34.7948344,4.74439075 35.1215285,4.56598643 C35.7589803,4.20106851 36.5557952,4.2091778 37.1613744,4.56598643 C38.0139662,5.07687153 37.7749218,5.82292595 37.7669537,5.85536309 C37.6314951,6.26082745 37.838667,6.69872896 38.2370744,6.83658684 C38.6354818,6.97444472 39.0657618,6.76360326 39.2012203,6.3581389 C39.4322966,5.67695878 39.4641692,4.15241279 37.9263166,3.23606334 C36.8506166,2.59542965 35.4880633,2.58732037 34.3804907,3.21984477 C33.5757078,3.68207413 32.9780967,4.60653287 32.83467,5.64452163 C32.6593708,6.89335185 33.1533959,8.1908378 34.2131596,9.28559157 C34.8187389,9.91000668 35.5996174,10.4290011 36.5159544,10.8101376 C37.249024,11.1182905 38.9940485,11.9697656 39.3924559,13.2591423 C39.5836914,13.8835574 39.4482329,14.5566282 38.9621759,15.3189012 C38.7390677,15.6757099 38.8346855,16.1541578 39.1932522,16.3893271 C39.3287107,16.4623107 39.4721373,16.5028571 39.6075959,16.5028571 Z" id="Path-Copy" fill="#E1B950" transform="translate(36.900000, 9.626667) scale(-1, 1) translate(-36.900000, -9.626667) "></path>
            <path d="M10.9419048,33.0057143 L30.0580952,33.0057143 C30.8176183,33.0057143 31.4333333,33.6214294 31.4333333,34.3809524 L31.4333333,38 L31.4333333,38 L9.56666667,38 L9.56666667,34.3809524 C9.56666667,33.6214294 10.1823817,33.0057143 10.9419048,33.0057143 Z" id="Rectangle" fill="#636363"></path>
            <polygon id="Rectangle" fill="#E1B950" points="17.7666667 23.3790476 23.2333333 23.3790476 25.9666667 33.0057143 15.0333333 33.0057143"></polygon>
            <path d="M6.83333333,0 L6.83333333,5.1647202 C6.83333333,15.4375831 12.3819685,24.5061528 20.5,27.5047619 L20.5,27.5047619 C28.6180315,24.5061528 34.1666667,15.4375831 34.1666667,5.1647202 L34.1666667,0 L6.83333333,0 Z" id="Path" fill="#FFD949"></path>
        </g>
    </g>
</svg>