<?xml version="1.0" encoding="UTF-8"?>
<svg width="46px" height="46px" viewBox="0 0 46 46" version="1.1" xmlns="http://www.w3.org/2000/svg" xmlns:xlink="http://www.w3.org/1999/xlink">
    <!-- Generator: Sketch 63.1 (92452) - https://sketch.com -->
    <!--<title>illustrazione/modello di servizio/pack-ND</title>-->
    <desc>Created with Sketch.</desc>
    <g id="illustrazione/modello-di-servizio/pack-ND" stroke="none" stroke-width="1" fill="none" fill-rule="evenodd">
        <g id="Group" transform="translate(4.000000, 4.000000)" fill-rule="nonzero">
            <path d="M6.30947909,15.2 C6.53841759,15.2 6.76735608,15.0804947 6.90028812,14.8713605 C7.5797185,13.803282 7.76434632,12.7650798 7.45417158,11.7791612 C6.92244345,10.08368 5.05400991,9.08282325 3.98316855,8.63467843 C3.30373816,8.35085338 2.74246959,7.98486845 2.31413304,7.54419271 C1.63470266,6.84956824 1.33191304,6.10266021 1.4279195,5.39309759 C1.50915575,4.80304024 1.84887094,4.36983359 2.15166056,4.20551382 C2.74246959,3.86940521 3.48098087,3.87687429 4.04224945,4.20551382 C4.83245652,4.67606588 4.61090314,5.36322127 4.60351802,5.39309759 C4.47797111,5.7665516 4.66998404,6.16988194 5.03923968,6.2968563 C5.40849532,6.42383067 5.80729142,6.22963458 5.93283833,5.85618056 C6.14700661,5.22877782 6.17654706,3.82459073 4.75122028,2.98058465 C3.75423005,2.39052731 2.49137575,2.38305823 1.46484507,2.96564649 C0.718948672,3.39138407 0.16506521,4.24285922 0.0321331787,5.1989015 C-0.130339304,6.34913986 0.327537692,7.54419271 1.3097577,8.55251855 C1.87102627,9.12763773 2.59476733,9.60565887 3.44405531,9.95670564 C4.12348569,10.2405307 5.7408254,11.0247841 6.11008104,12.2123679 C6.28732375,12.7874871 6.16177683,13.4074207 5.71128495,14.1095143 C5.50450179,14.4381538 5.59312314,14.8788295 5.92545322,15.0954329 C6.05100014,15.1626546 6.18393217,15.2 6.30947909,15.2 Z" id="Path" fill="#D0D9DF"></path>
            <path d="M36.7094791,15.2 C36.9384176,15.2 37.1673561,15.0804947 37.3002881,14.8713605 C37.9797185,13.803282 38.1643463,12.7650798 37.8541716,11.7791612 C37.3224435,10.08368 35.4540099,9.08282325 34.3831685,8.63467843 C33.7037382,8.35085338 33.1424696,7.98486845 32.714133,7.54419271 C32.0347027,6.84956824 31.731913,6.10266021 31.8279195,5.39309759 C31.9091557,4.80304024 32.2488709,4.36983359 32.5516606,4.20551382 C33.1424696,3.86940521 33.8809809,3.87687429 34.4422494,4.20551382 C35.2324565,4.67606588 35.0109031,5.36322127 35.003518,5.39309759 C34.8779711,5.7665516 35.069984,6.16988194 35.4392397,6.2968563 C35.8084953,6.42383067 36.2072914,6.22963458 36.3328383,5.85618056 C36.5470066,5.22877782 36.5765471,3.82459073 35.1512203,2.98058465 C34.15423,2.39052731 32.8913758,2.38305823 31.8648451,2.96564649 C31.1189487,3.39138407 30.5650652,4.24285922 30.4321332,5.1989015 C30.2696607,6.34913986 30.7275377,7.54419271 31.7097577,8.55251855 C32.2710263,9.12763773 32.9947673,9.60565887 33.8440553,9.95670564 C34.5234857,10.2405307 36.1408254,11.0247841 36.510081,12.2123679 C36.6873237,12.7874871 36.5617768,13.4074207 36.1112849,14.1095143 C35.9045018,14.4381538 35.9931231,14.8788295 36.3254532,15.0954329 C36.4510001,15.1626546 36.5839322,15.2 36.7094791,15.2 Z" id="Path-Copy" fill="#D0D9DF" transform="translate(34.200000, 8.866667) scale(-1, 1) translate(-34.200000, -8.866667) "></path>
            <rect id="Rectangle" fill="#92A6BC" x="6.33333333" y="35.4666667" width="25.3333333" height="2.53333333"></rect>
            <path d="M10.1333333,30.4 L27.8666667,30.4 C28.5662273,30.4 29.1333333,30.967106 29.1333333,31.6666667 L29.1333333,35.4666667 L29.1333333,35.4666667 L8.86666667,35.4666667 L8.86666667,31.6666667 C8.86666667,30.967106 9.43377265,30.4 10.1333333,30.4 Z" id="Rectangle" fill="#92A6BC"></path>
            <circle id="Oval" fill="#D0D9DF" cx="24.0666667" cy="32.9333333" r="1.26666667"></circle>
            <circle id="Oval-Copy" fill="#D0D9DF" cx="19" cy="32.9333333" r="1.26666667"></circle>
            <circle id="Oval-Copy-2" fill="#D0D9DF" cx="13.9333333" cy="32.9333333" r="1.26666667"></circle>
            <polygon id="Rectangle" fill="#D0D9DF" points="16.4666667 21.5333333 21.5333333 21.5333333 24.0666667 30.4 13.9333333 30.4"></polygon>
            <path d="M6.33333333,0 L6.33333333,4.75697914 C6.33333333,14.2188265 11.4759708,22.5714566 19,25.3333333 L19,25.3333333 C26.5240292,22.5714566 31.6666667,14.2188265 31.6666667,4.75697914 L31.6666667,0 L6.33333333,0 Z" id="Path" fill="#E9EDF2"></path>
        </g>
        <path d="M21.6976744,18.8602151 C21.6976744,18.0259815 21.799999,17.3611136 22.0046512,16.8655914 C22.2093033,16.3700692 22.6139505,15.8259438 23.2186047,15.2331989 C23.8232588,14.640454 24.2062007,14.2186392 24.3674419,13.9677419 C24.6155051,13.5851235 24.7395349,13.1711492 24.7395349,12.7258065 C24.7395349,12.1361978 24.5953503,11.6861575 24.3069767,11.375672 C24.0186032,11.0651866 23.5953516,10.9099462 23.0372093,10.9099462 C22.5038733,10.9099462 22.0744202,11.0620505 21.7488372,11.3662634 C21.4232542,11.6704764 21.2604651,12.0828827 21.2604651,12.6034946 L19,12.6034946 C19.0124032,11.493274 19.3860428,10.6151466 20.1209302,9.96908602 C20.8558176,9.32302544 21.8279009,9 23.0372093,9 C24.2837272,9 25.2558105,9.31988927 25.9534884,9.95967742 C26.6511663,10.5994656 27,11.4932738 27,12.641129 C27,13.6635356 26.5286869,14.6702459 25.5860465,15.6612903 L24.4418605,16.7997312 C24.0325561,17.2701636 23.8217055,17.9569847 23.8093023,18.8602151 L21.6976744,18.8602151 Z M21.5395349,21.7862903 C21.5395349,21.4162168 21.6542624,21.1167126 21.8837209,20.8877688 C22.1131794,20.658825 22.4232539,20.5443548 22.8139535,20.5443548 C23.2108547,20.5443548 23.5240299,20.6619612 23.7534884,20.8971774 C23.9829469,21.1323936 24.0976744,21.4287617 24.0976744,21.7862903 C24.0976744,22.1312741 23.9860476,22.4198017 23.7627907,22.6518817 C23.5395349,22.8839617 23.2232579,23 22.8139535,23 C22.4046491,23 22.0899236,22.8839617 21.8697674,22.6518817 C21.6496113,22.4198017 21.5395349,22.1312741 21.5395349,21.7862903 Z" id="?" fill="#92A6BC" fill-rule="nonzero"></path>
    </g>
</svg>