<?xml version="1.0" encoding="UTF-8"?>
<svg width="46px" height="46px" viewBox="0 0 46 46" version="1.1" xmlns="http://www.w3.org/2000/svg" xmlns:xlink="http://www.w3.org/1999/xlink">
    <!-- Generator: Sketch 63.1 (92452) - https://sketch.com -->
    <!--<title>illustrazione/modello di servizio/premium</title>-->
    <desc>Created with Sketch.</desc>
    <g id="illustrazione/modello-di-servizio/premium" stroke="none" stroke-width="1" fill="none" fill-rule="evenodd">
        <g id="medal" transform="translate(14.000000, 4.000000)">
            <path d="M9,19.4871795 C7.92377773,19.4871795 7.05128205,20.359675 7.05128205,21.4358975 C7.05128205,22.5121198 7.92377773,23.3846154 9,23.3846154 C10.0762224,23.3846154 10.9487179,22.5121198 10.9487179,21.4358975 C10.9487179,20.359675 10.0762224,19.4871795 9,19.4871795 Z M9,22.6607351 C8.32318127,22.6607351 7.77516245,22.1120971 7.77516245,21.4358975 C7.77516245,20.7596979 8.32380046,20.2110598 9,20.2110598 C9.67619954,20.2110598 10.2248377,20.7596979 10.2248377,21.4358975 C10.2248377,22.1127163 9.67619954,22.6607351 9,22.6607351 Z" id="Shape" fill="#597799" fill-rule="nonzero"></path>
            <path d="M9.58269028,20.2905579 C9.22655963,20.518532 8.77344037,20.518532 8.41730984,20.2905579 L0.510201284,14.8655543 C0.192967129,14.662683 0,14.308683 0,13.9280432 L0,4.79616347e-14 L18,4.79616347e-14 L18,13.9280432 C18,14.308683 17.807538,14.662683 17.490304,14.8655543 L9.58269028,20.2905579 Z" id="Path" fill="#22608F"></path>
            <g id="Group" transform="translate(1.000000, 22.000000)" fill-rule="nonzero">
                <path d="M16,8 C16,3.58179198 12.418208,0 8,0 C3.58179198,0 0,3.58179198 0,8 C0,12.418208 3.58179198,16 8,16 C12.418208,16 16,12.4182584 16,8" id="Path" fill="#D0D9DF"></path>
                <path d="M8,2 C4.68633921,2 2,4.68633921 2,8 C2,11.3136608 4.68633921,14 8,14 C11.3136721,14 14,11.3136838 14,8 C14,4.68633921 11.3136608,2 8,2 Z" id="Path" fill="#E9EDF2"></path>
            </g>
        </g>
    </g>
</svg>