<?xml version="1.0" encoding="UTF-8"?>
<svg width="30px" height="30px" viewBox="0 0 30 30" version="1.1" xmlns="http://www.w3.org/2000/svg" xmlns:xlink="http://www.w3.org/1999/xlink">
    <!-- Generator: Sketch 62 (91390) - https://sketch.com -->
    <!--<title>icon/player icons/audio/low</title>-->
    <desc>Created with Sketch.</desc>
    <g id="icon/player-icons/audio/low" stroke="none" stroke-width="1" fill="none" fill-rule="evenodd">
        <path d="M22.968305,14.9967033 C22.968305,14.3291296 22.4424633,13.7858108 21.7965982,13.7858108 L21.7965982,11.3642681 C23.7349912,11.3642681 25.3121408,12.9940305 25.3121408,14.9967033 C25.3121408,16.9995217 23.7349912,18.6290901 21.7965982,18.6290901 L21.7965982,16.2075474 C22.4424633,16.2075474 22.968305,15.6644226 22.968305,14.9967033 Z M8.77658651,8.51886207 L19.4529032,0 L19.4529032,30 L8.73919062,21.4138957 L3.69135484,21.4138957 C1.69046334,21.4138957 0,19.7503911 0,17.7816544 L0,12.1512973 C0,10.1821728 1.69046334,8.51886207 3.69135484,8.51886207 L8.77658651,8.51886207 Z M17.1090674,4.92981668 L9.60905572,10.9143224 L9.60905572,16.5696468 L7.26540762,16.5696468 L7.26540762,10.9404533 L3.69135484,10.9404533 C2.99856891,10.9404533 2.34369501,11.5290041 2.34369501,12.1512973 L2.34369501,17.7816544 C2.34369501,18.4039476 2.99856891,18.992547 3.69135484,18.992547 L9.5416305,18.992547 L17.1090674,25.0568997 L17.1090674,4.92981668 Z" id="097-volume" fill="#FFFFFF"></path>
    </g>
</svg>