<?xml version="1.0" encoding="UTF-8"?>
<svg width="30px" height="30px" viewBox="0 0 30 30" version="1.1" xmlns="http://www.w3.org/2000/svg" xmlns:xlink="http://www.w3.org/1999/xlink">
    <!-- Generator: Sketch 62 (91390) - https://sketch.com -->
    <!--<title>icon/player icons/audio/mute</title>-->
    <desc>Created with Sketch.</desc>
    <g id="icon/player-icons/audio/mute" stroke="none" stroke-width="1" fill="none" fill-rule="evenodd">
        <path d="M8.77658651,8.51886207 L19.4529032,0 L19.4529032,30 L8.73919062,21.4138957 L3.69135484,21.4138957 C1.69046334,21.4138957 0,19.7503911 0,17.7816544 L0,12.1512973 C0,10.1821728 1.69046334,8.51886207 3.69135484,8.51886207 L8.77658651,8.51886207 Z M17.1090674,4.92981668 L17.1090674,25.0568997 L9.5416305,18.992547 L3.69135484,18.992547 C2.99856891,18.992547 2.34369501,18.4039476 2.34369501,17.7816544 L2.34369501,17.7816544 L2.34369501,12.1512973 C2.34369501,11.5290041 2.99856891,10.9404533 3.69135484,10.9404533 L3.69135484,10.9404533 L7.26540762,10.9404533 L7.26540762,16.5696468 L9.60905572,16.5696468 L9.60905572,10.9143224 L17.1090674,4.92981668 Z M28.5454545,11 L30,12.4545455 L27.454,15 L30,17.5454545 L28.5454545,19 L26,16.454 L23.4545455,19 L22,17.5454545 L24.546,15 L22,12.4545455 L23.4545455,11 L26,13.546 L28.5454545,11 Z" id="097-volume" fill="#FFFFFF"></path>
    </g>
</svg>