<svg xmlns="http://www.w3.org/2000/svg" width="22" height="22" viewBox="0 0 22 22">
    <g fill="none" fill-rule="evenodd">
        <g fill="#92A6BC">
            <g>
                <g>
                    <g>
                        <g>
                            <g>
                                <path d="M22 8.818v6.995c0 1.393-1.128 2.52-2.52 2.52H2.52c-1.393 0-2.52-1.127-2.52-2.52V8.817l10.294 3.429c.22.082.458.128.706.128.248 0 .486-.046.65-.11L22 8.818zM12.833 0c1.011 0 1.834.822 1.834 1.833l-.001.917h4.813C20.872 2.75 22 3.877 22 5.27v2.1l-10.78 3.593c-.073.028-.147.037-.22.037-.073 0-.147-.01-.22-.037L0 7.37v-2.1c0-1.392 1.127-2.52 2.52-2.52h4.813v-.917C7.333.823 8.156 0 9.167 0h3.666zm0 1.833H9.167l-.001.917h3.667v-.917z" transform="translate(-508 -828) translate(140 565) translate(0 60) translate(0 182) translate(368 21) translate(0 2)"/>
                            </g>
                        </g>
                    </g>
                </g>
            </g>
        </g>
    </g>
</svg>
