<?xml version="1.0" encoding="UTF-8"?>
<svg xmlns="http://www.w3.org/2000/svg" xmlns:xlink="http://www.w3.org/1999/xlink" version="1.1" x="0px" y="0px" viewBox="0 0 219.1 72.7" style="enable-background:new 0 0 219.1 72.7;" xml:space="preserve">
<path style="fill:#FFFFFF;" d="M56.3,45.2v-5.6H45.8v6h-18v-18H30h15.8V33h10.5v-4.9c2.4,0.8,4.3,2.5,5.4,4.8l10.8-0.1  c-1.5-8.2-8.1-14.6-16.4-15.9C54.6,7.3,46.5,0,36.5,0C26.6,0,18.4,7.3,17,16.9C7.4,18.2,0,26.4,0,36.4c0,10,7.4,18.2,17,19.5  c1.4,9.5,9.6,16.8,19.5,16.8c9.9,0,18.1-7.3,19.5-16.9c8.4-1.3,15-7.8,16.4-16.1l-10.6,0C60.9,42.3,58.8,44.3,56.3,45.2z M36.8,10.3  c4,0,7.5,2.7,8.6,6.3H30h-1.8C29.3,13,32.7,10.3,36.8,10.3z M10.5,36.6c0-4,2.7-7.5,6.3-8.6c0,0,0,0,0,0v17.2  C13.1,44.1,10.5,40.7,10.5,36.6z M36.8,62.3c-4,0-7.4-2.6-8.5-6.2h11.5h5.6C44.2,59.7,40.8,62.3,36.8,62.3z M139.9,65.1  c0.6,0,1.4-0.5,2.1-1.2v3c-0.7,0.8-1.5,1.1-2.6,1.1c-2.6,0-4.5-3-4.5-7.7c0-4.9,1.8-8,4.5-8c0.9,0,1.7,0.3,2.5,0.9V56  c-0.8-0.7-1.3-0.9-1.9-0.9c-1.4,0-2.5,1.6-2.5,4.9C137.5,63.3,138.4,65.1,139.9,65.1z M146.6,52.2c-2.2,0-4.4,2.5-4.4,7.7  c0,5.8,2.2,8,4.4,8c1.9,0,4.4-1.9,4.4-7.9C151,54.4,148.7,52.2,146.6,52.2z M146.6,65c-1.4,0-1.8-1.8-1.8-4.9c0-3,0.4-4.9,1.8-4.9  c1.5,0,1.8,2.2,1.8,4.9C148.4,63.8,147.8,65,146.6,65z M155.8,52.2c-2.2,0-4.4,2.5-4.4,7.7c0,5.8,2.2,8,4.4,8c1.9,0,4.4-1.9,4.4-7.9  C160.2,54.4,157.9,52.2,155.8,52.2z M155.8,65c-1.4,0-1.8-1.8-1.8-4.9c0-3,0.4-4.9,1.8-4.9c1.5,0,1.8,2.2,1.8,4.9  C157.6,63.8,157,65,155.8,65z M164.5,52.4H161v15.4h2.5v-6.2h1.1c3.1,0,3.7-2.8,3.7-4.5C168.2,54.9,167.1,52.4,164.5,52.4z   M164.2,58.9h-0.7v-3.8h0.8c1.1,0,1.4,1,1.4,1.9C165.7,58.1,165.3,58.9,164.2,58.9z M171.5,65.1h4.1v2.7H169V52.4h6.4v2.7h-3.9v3.6  h3.7v2.7h-3.7V65.1z M181.6,60.3c1.3-0.8,1.9-1.9,1.9-3.6c0-2.5-1.3-4.3-3.6-4.3h-3.6v15.4h2.5v-6.5c1.1,0,1.2,0.3,1.9,3.6l0.6,2.9  h2.6C183,64.5,182.6,61.1,181.6,60.3z M179.6,58.7h-0.8v-3.6h0.8c0.9,0,1.4,0.5,1.4,1.7C181,58,180.5,58.7,179.6,58.7z M187.1,52.4  l-2.9,15.4h2.4l0.5-3.2h2.5l0.5,3.2h2.4l-2.9-15.4H187.1z M187.6,62.1l0.9-5.6h0l0.9,5.6H187.6z M191.3,52.4h7.6v2.7h-2.5v12.7h-2.5  V55.1h-2.5V52.4z M199.5,52.4h2.5v15.4h-2.5V52.4z M211.1,52.4L207.6,68h-1.2l-3.7-15.6h2.5l1.7,7.9h0l1.6-7.9H211.1z M214.8,52.2  c-2.2,0-4.4,2.5-4.4,7.7c0,5.8,2.2,8,4.4,8c1.9,0,4.4-1.9,4.4-7.9C219.1,54.4,216.8,52.2,214.8,52.2z M214.8,65  c-1.4,0-1.8-1.8-1.8-4.9c0-3,0.4-4.9,1.8-4.9c1.5,0,1.8,2.2,1.8,4.9C216.6,63.8,215.9,65,214.8,65z M84.8,65.1  c0.6,0,1.4-0.5,2.1-1.2v3c-0.7,0.8-1.5,1.1-2.6,1.1c-2.6,0-4.5-3-4.5-7.7c0-4.9,1.8-8,4.5-8c0.9,0,1.7,0.3,2.5,0.9V56  c-0.8-0.7-1.3-0.9-1.9-0.9c-1.4,0-2.5,1.6-2.5,4.9C82.4,63.3,83.2,65.1,84.8,65.1z M93.1,60.3c1.3-0.8,1.9-1.9,1.9-3.6  c0-2.5-1.3-4.3-3.6-4.3h-3.6v15.4h2.5v-6.5c1.1,0,1.2,0.3,1.9,3.6l0.6,2.9h2.6C94.5,64.5,94.1,61.1,93.1,60.3z M91.1,58.7h-0.8v-3.6  H91c0.9,0,1.4,0.5,1.4,1.7C92.4,58,91.9,58.7,91.1,58.7z M98.7,65.1h4.1v2.7h-6.6V52.4h6.4v2.7h-3.9v3.6h3.7v2.7h-3.7V65.1z   M107.2,52.4H104v15.4h3.4c3.4,0,4.6-4.3,4.6-7.8C112,56.3,110.7,52.4,107.2,52.4z M107.1,65.2h-0.6V55h0.7c1.7,0,2.3,2.2,2.3,5.1  C109.5,63.3,108.9,65.2,107.1,65.2z M112.8,52.4h2.5v15.4h-2.5V52.4z M123.6,55.1H121v12.7h-2.5V55.1H116v-2.7h7.6V55.1z   M127.5,52.2c-2.2,0-4.4,2.5-4.4,7.7c0,5.8,2.2,8,4.4,8c1.9,0,4.4-1.9,4.4-7.9C131.9,54.4,129.6,52.2,127.5,52.2z M127.5,65  c-1.4,0-1.8-1.8-1.8-4.9c0-3,0.4-4.9,1.8-4.9c1.5,0,1.8,2.2,1.8,4.9C129.3,63.8,128.7,65,127.5,65z M120.4,33.8  c0-4.7-3.4-8.8-10.4-10.3c4.1-1.6,6.6-4.6,6.6-8c0-4.5-4.6-10.1-16.1-10.1H79.5v40.1h23.7C117.4,45.6,120.4,38.4,120.4,33.8z   M91.6,12.8H98c4.4,0,6.2,2.2,6.2,4.2c0,2.1-1.8,4.3-6.2,4.3h-6.4V12.8z M98.5,38.2h-6.9v-9.5h8.5c4.3,0,7.4,1.6,7.4,4.5  C107.5,36.8,105.2,38.2,98.5,38.2z M150.9,37.8c6.4,0,10.6-1.6,17.6-4.4v8.8c-6.8,2.9-11.9,4-19.1,4C130.5,46.1,121,36,121,25.6  C121,14.9,131.7,5,150.3,5c6.8,0,12.9,1.2,17.6,3.5v8.9c-5.4-2.5-10.8-4.1-16.8-4.1c-10.4,0-17.6,5.1-17.6,12.2  C133.5,32.6,140.7,37.8,150.9,37.8z M171.3,25.6C171.3,14.9,182,5,200.6,5c6.8,0,12.9,1.2,17.6,3.5v8.9c-5.4-2.5-10.8-4.1-16.8-4.1  c-10.4,0-17.6,5.1-17.6,12.2c0,7.2,7.2,12.3,17.4,12.3c6.4,0,10.6-1.6,17.6-4.4v8.8c-6.8,2.9-11.9,4-19.1,4  C180.8,46.1,171.3,36,171.3,25.6z"/>
</svg>