<svg xmlns="http://www.w3.org/2000/svg" width="22" height="22" viewBox="0 0 22 22">
    <g fill="none" fill-rule="evenodd">
        <g fill="#fff">
            <g>
                <g>
                    <g>
                        <g>
                            <g>
                                <path d="M1.993 9.99c1.387-1.145 2.995-1.3 4.845-1.146 2.095 0 4.704 2.09 4.704 5.103v.553l.006 1.965v.479c-.003.577-.018.757-.066.905l-.019.052c-.013.034-.029.07-.047.11-.345.764-.616.908-3.233.916h-.38c-1.255-.002-2.99-.026-5.414-.03l-.788-.001c-.823 0-1.482-.672-1.482-1.482 0-3.062-.446-5.565 1.874-7.424zM5.831.027c2.033 0 3.68 1.648 3.68 3.68 0 2.033-1.647 3.681-3.68 3.681-2.033 0-3.681-1.648-3.681-3.68C2.15 1.674 3.798.026 5.83.026z" transform="translate(-508 -686) translate(140 565) translate(0 60) translate(0 40) translate(368 21) translate(5 2)"/>
                            </g>
                        </g>
                    </g>
                </g>
            </g>
        </g>
    </g>
</svg>
