<svg xmlns="http://www.w3.org/2000/svg" width="22" height="19" viewBox="0 0 22 19">
    <g fill="none" fill-rule="evenodd">
        <g fill="#92A6BC">
            <g>
                <g>
                    <g>
                        <g>
                            <g>
                                <path d="M6.993 8.628c1.387-.989 2.995-1.124 4.845-.99 2.095 0 4.704 1.804 4.704 4.407v.53l.006 1.675v.241c0 .59-.012.771-.06.908l-.02.05-.012.026-.025.052-.015.028c-.513.982-.863.778-9.027.765h-.788c-.823 0-1.482-.58-1.482-1.28 0-2.645-.446-4.807 1.874-6.412zm-4.12-1.005c1.059 0 1.888-.086 2.804.562-2.215 1.953-1.827 4.027-1.827 6.855 0 .013.003.025.006.036l.005.02.002.015c-.001.034-.064.044-.422.045H3.27c-.288 0-.711-.004-1.334-.005H1.49l-.246-.001C.558 15.15 0 14.67 0 14.08v-3.991c0-1.36 1.289-2.466 2.873-2.466zm13.111.562c.915-.647 1.74-.562 2.805-.562 1.584 0 2.873 1.106 2.873 2.466v3.952c0 .612-.578 1.109-1.29 1.109H19.689l-1.215.006h-.267c-.348-.001-.402-.012-.403-.05l.002-.019.004-.022.003-.025c0-2.984.37-4.916-1.828-6.855zM10.831.023c2.033 0 3.68 1.423 3.68 3.179 0 1.756-1.647 3.179-3.68 3.179-2.033 0-3.681-1.423-3.681-3.18 0-1.755 1.648-3.178 3.68-3.178zm7.446 2.338c1.285 0 2.327.9 2.327 2.01 0 1.11-1.042 2.01-2.327 2.01s-2.327-.9-2.327-2.01c0-1.11 1.042-2.01 2.327-2.01zm-14.892 0c1.285 0 2.327.9 2.327 2.01 0 1.11-1.042 2.01-2.327 2.01-1.286 0-2.327-.9-2.327-2.01 0-1.11 1.041-2.01 2.327-2.01z" transform="translate(-508 -1044) translate(140 565) translate(0 60) translate(0 395) translate(368 24) translate(0 1.727)"/>
                            </g>
                        </g>
                    </g>
                </g>
            </g>
        </g>
    </g>
</svg>
