<?xml version="1.0" encoding="UTF-8"?>
<svg xmlns="http://www.w3.org/2000/svg" xmlns:xlink="http://www.w3.org/1999/xlink" version="1.1" id="Livello_1" x="0px" y="0px" viewBox="0 0 404.1 84" style="enable-background:new 0 0 404.1 84;" xml:space="preserve">
<style type="text/css">
	.st0{fill:#FFFFFF;}
</style>
    <g>
	<path class="st0" d="M42,84L0,42L42,0l30.9,31c2.9,2.9,4.6,6.9,4.5,11.1c0,4.2-1.6,8.1-4.5,11L42,84z M4.7,42L42,79.3l28.5-28.6   c2.3-2.3,3.6-5.3,3.6-8.6c0-3.3-1.3-6.4-3.6-8.7v0L42,4.7L4.7,42z"/>
        <path class="st0" d="M52.9,46.7v-2.9H47V47H36.9V37H47v3.3h5.9v-2.9c1.7,0.5,2.7,1.6,3.1,2.9h6c-0.7-4.6-3.9-8.2-9.3-9   c-0.9-6.1-5.3-9.4-10.8-9.4c-5.4,0-9.9,3.4-10.8,9.4c0.2,0,0.4-0.1,0.7-0.1c-6.5,0.7-10.1,5.2-10.1,10.8c0,5.4,3.4,9.9,9.4,10.8   c0.9,6.1,5.3,9.4,10.8,9.4c5.4,0,9.9-3.3,10.8-9.4c-0.2,0-0.4,0-0.6,0.1c5.8-0.6,9.2-4.3,9.9-9.1h-6C55.6,45.1,54.6,46.2,52.9,46.7   z M51.6,47c-0.4,0-0.8,0.1-1.3,0.1C50.8,47,51.2,47,51.6,47z M52.7,46.8c-0.2,0.1-0.5,0.1-0.7,0.1C52.3,46.9,52.5,46.8,52.7,46.8z    M32.3,37c0.4,0,0.8-0.1,1.2-0.1C33.1,37,32.7,37,32.3,37z M41.9,27.7c2.1,0,4,0.9,4.7,3.4h-9.4C37.9,28.6,39.8,27.7,41.9,27.7z    M33.5,31.1c-0.4,0-0.9,0-1.3,0.1C32.6,31.1,33.1,31.1,33.5,31.1z M32.1,37c-0.4,0-0.7,0.1-1,0.2C31.4,37.2,31.7,37.1,32.1,37z    M27.6,42c0-2.1,0.9-4,3.4-4.7v9.4C28.5,46,27.6,44.1,27.6,42z M41.9,56.3c-2.1,0-4-0.9-4.7-3.4h9.4C45.9,55.4,44.1,56.3,41.9,56.3   z M50.4,52.9c0.4,0,0.8,0,1.2,0C51.2,52.9,50.8,52.9,50.4,52.9z"/>
        <path class="st0" d="M109.3,23.1c-0.5,2-1,4-1.5,6c-0.4,1.8-0.8,3.5-1.2,5.3l-0.2,0.3c-2.4,1.2-5.3,1.6-8,1.6c-3.9,0-6.1-1-7.5-2   c-3.1-2.1-4.2-5.6-4.2-8.9c0-4.6,2.7-15.8,15.3-15.8c4.2,0,9.3,2,6.8,7.2l-0.4,0.1c-0.5-0.7-0.9-1.1-1.8-1.5   c-0.6-0.3-2.1-0.9-4.1-0.9c-7.6,0-9.4,7.9-9.4,11.1c0,1.1,0.1,2.8,1.5,4.2c1.1,1.1,2.7,1.6,4.2,1.6c0.9,0,1.6-0.2,2.4-0.4l0.5-2.1   c0.5-2.5,0.6-3.1,1-5.6L103,23c0.1,0,1.1,0.6,1.6,0.6c1.9,0,2.4-0.7,4.5-0.7L109.3,23.1z"/>
        <path class="st0" d="M116.8,35.5l-0.3,0.2l-6.1,0.1l-0.2-0.3l1.3-5.3l0.8-3.2c1.1-4.5,1.3-5.6,1.9-9.9l0.3-0.2   c1.1-0.3,1.1,1.1,4,1.2c2.5,0.1,3.9-2.3,6.6-2.2c0.9,0,1.3,0.2,1.8,0.5l0.1,0.4c-1.5,3.3-1.6,3.7-2.5,5.8l-0.4,0.1   c-0.7-0.4-1.2-0.8-2-0.8c-0.6,0-1.3,0.3-1.9,0.8c-1.1,0.9-1.4,1.9-2.3,5.8l-0.8,3.7L116.8,35.5z"/>
        <path class="st0" d="M142.2,35.5l-0.3,0.2l-1.9,0.1c-2.7,0-3.5-2.1-3.5-2.1c-1.6,1.6-3.8,2.4-5.7,2.4c-2.1,0-5-1-5-4.9   c0-1.7,0.4-3.4,0.9-5.1l0.8-3.6c0.6-2.6,0.7-3.2,1.2-5.6l0.3-0.2l0.7-0.1c4.4,1.4,4.6,2.9,4.2,4.3c-0.3,1.2-0.5,2.3-0.8,3.5   c-0.3,1.3-0.9,3.9-0.9,5.1c0,1.3,0.9,2.1,2,2.1c1.5,0,2.4-0.7,3.2-1.3l1.5-7l1.3-6.4l0.3-0.2l5.8-0.3l0.2,0.3l-2.3,9.7l-0.8,3.6   L142.2,35.5z"/>
        <path class="st0" d="M150.3,17.1c0,0,0.8,0.9,1.9,0.9c2.7,0,4.7-1.4,8.9-1.9c3.6-0.7,6.1,2.7,6.1,7.3c0,2.6-0.9,5.7-2.8,8   c-3.6,4.4-8.1,4.4-12,4.4l-1.7,8.7l-0.3,0.2c-0.8,0-1.6,0-2.5,0c-1.2,0-2.3,0.1-3.7,0.1l-0.2-0.3l2.1-8.5l0.7-2.8   c0.7-3.3,1.5-6.5,2.1-9.7c0.7-3.3,0.8-4.3,1.1-6.2L150.3,17.1z M153.3,31.8c0.3,0,0.6,0.1,0.9,0.1c1,0,2.7-0.4,4-1.5   c1.5-1.2,2.8-3.8,2.8-6.5c0-3-2-3.4-2.7-3.4c-1.1,0-1.9,0.5-2.6,1.1L153.3,31.8z"/>
        <path class="st0" d="M172,17.1c0,0,0.8,0.9,1.9,0.9c2.7,0,4.7-1.4,8.9-1.9c3.6-0.7,6.1,2.7,6.1,7.3c0,2.6-0.9,5.7-2.8,8   c-3.6,4.4-8.1,4.4-12,4.4l-1.7,8.7l-0.3,0.2c-0.8,0-1.6,0-2.5,0c-1.2,0-2.3,0.1-3.7,0.1l-0.2-0.3l2.1-8.5l0.7-2.8   c0.7-3.3,1.5-6.5,2.1-9.7c0.7-3.3,0.8-4.3,1.1-6.2L172,17.1z M175.1,31.8c0.3,0,0.6,0.1,0.9,0.1c1,0,2.7-0.4,4-1.5   c1.5-1.2,2.8-3.8,2.8-6.5c0-3-2-3.4-2.7-3.4c-1.1,0-1.9,0.5-2.6,1.1L175.1,31.8z"/>
        <path class="st0" d="M206.4,33.9c-2.1,1.7-4.4,2.3-7.2,2.3c-1.9,0-4.4-0.4-6.2-1.9c-1.6-1.4-2.4-3.4-2.4-6.1   c0-3.3,1.8-12.1,11.2-12.1c2.3,0,4.6,0.5,6.3,2c1.9,1.7,2.3,3.7,2.3,5.9c0,1.2-0.2,2.4-0.5,3.6C209.4,30.1,208.3,32.4,206.4,33.9z    M204.4,23.2c0-1.3-0.4-3.2-2.6-3.2c-1.7,0-2.6,1-3,1.5c-1.4,1.8-2.1,5.9-2.1,7.6c0,0.9,0.1,1.3,0.2,1.6c0.4,1.2,1.4,1.7,2.6,1.7   c1.1,0,2-0.7,2.7-1.4c0.4-0.5,1.2-1.5,1.9-4.7C204.3,25.4,204.4,24.3,204.4,23.2z"/>
        <path class="st0" d="M227.7,10.1c0,0,1.7,1.1,3.6,1c4.2-0.3,7.8-2.5,11.8-0.2c1.1,0.6,2.7,2,2.7,4.6c0,3.9-3.1,5.8-4.8,6.3   c-0.2,0.1-0.5,0.1-0.7,0.2c0.7,0.2,1.3,0.4,2,0.8c2.1,1.3,2.2,3.6,2.2,4.4c0,1.5-0.6,4.6-3.3,6.5c-2.2,1.6-5.3,2.1-10.8,2.1   c-1,0-2,0-3,0h-2.1l-3.1,0l-0.2-0.2l1.3-5.3l1.1-4.8c1.7-7.1,2.1-8.8,3.2-15.1L227.7,10.1z M229,31.7l1.4,0c2.3,0,4.8,0,6.2-1.7   c0.6-0.7,0.9-1.6,0.9-2.4c0-1.3-0.5-2.1-1.6-2.5c-0.8-0.3-3.1,0.8-4-1.3l-0.7-1.5l-1.6,6.4L229,31.7z M231.3,22.1l1.1-1.3   c1-1.2,3.2-0.2,4.5-0.8c1.7-0.9,2.3-2.4,2.3-3.5c0-0.8-0.3-1.7-1.6-2.3c-0.7-0.3-1.4-0.3-3.3-0.3l-1.2,0l-0.6,2.7L231.3,22.1z"/>
        <path class="st0" d="M265.9,23.7c-1.4,5.9-1.6,7.2-2.4,11.8l-0.3,0.2c-4.4,0.3-5.4-1.7-5.4-1.7c-0.6,0.5-1,0.9-1.9,1.3   c-1.1,0.5-2.3,0.8-3.5,0.8c-2.1,0-4-1-5-2.8c-0.6-1-1-2.5-1-4.2c0-3.3,1.4-7.1,4-9.4c2.7-2.4,6-3.1,8.7-3.1c2.9,0.1,3,1,4.8,1   c2.2-0.1,3.3-1.1,3.3-1.1l0.2,0.3L265.9,23.7z M260.8,20.5c-0.9,0-1.9-0.1-2.8,0.1c-3.9,1-5.1,5.6-5.1,7.8c0,3.2,1.9,3.6,2.7,3.6   c1.3,0,2.1-0.6,2.8-1.2L260.8,20.5z"/>
        <path class="st0" d="M285.2,35.6l-0.3,0.2c-6.2,0-5.3-3.7-5.3-3.7l0.6-2.5l0.8-3.7c0.1-0.7,0.4-2.2,0.4-3c0-1.3-0.9-2-2-2   c-1.1,0-2,0.5-2.9,1.1c-1.4,6.4-1.8,8.3-2.8,13.7l-0.3,0.2l-6,0.1l-0.1-0.3l1.5-6.3l0.6-2.5c1-4.5,1.2-5.6,1.7-9.6l0.3-0.3   c0,0-0.1,1.1,3,1.2c3.5,0,5.9-2.1,8.6-2.1c2.3,0,4.9,1.1,4.9,4.8c0,1.6-0.8,5-1.4,7.6l-0.5,2.5L285.2,35.6z"/>
        <path class="st0" d="M305,30.6l-1.2,4.4l-0.2,0.3c-0.4,0.1-0.7,0.3-1.1,0.4c-0.8,0.3-2.3,0.5-3.6,0.5c-5.2,0-8.5-3.2-8.5-8.6   c0-5.1,3.5-11.4,11.3-11.4c1.7,0,6.9,1.4,4.5,5.9l-0.4,0.1c-0.2-0.3-0.4-0.5-0.7-0.8c-0.7-0.7-1.9-1-2.9-1c-3.4,0-5.6,3.5-5.6,6.8   c0,3.6,2.3,4.7,4.1,4.7c2.1,0,3.3-1,3.9-1.5L305,30.6z"/>
        <path class="st0" d="M326.5,23.7c-1.4,5.9-1.6,7.2-2.4,11.8l-0.3,0.2c-4.4,0.3-5.4-1.7-5.4-1.7c-0.6,0.5-1,0.9-1.9,1.3   c-1.1,0.5-2.3,0.8-3.5,0.8c-2.1,0-4-1-5-2.8c-0.6-1-1-2.5-1-4.2c0-3.3,1.4-7.1,4-9.4c2.7-2.4,6-3.1,8.7-3.1c2.9,0.1,3,1,4.8,1   c2.2-0.1,3.3-1.1,3.3-1.1l0.2,0.3L326.5,23.7z M321.4,20.5c-0.9,0-1.9-0.1-2.8,0.1c-3.9,1-5.1,5.6-5.1,7.8c0,3.2,1.9,3.6,2.7,3.6   c1.3,0,2.1-0.6,2.8-1.2L321.4,20.5z"/>
        <path class="st0" d="M334.5,35.5l-0.3,0.2l-6.1,0.1l-0.2-0.3l1.3-5.3l0.8-3.2c1.1-4.5,1.3-5.6,1.9-9.9l0.3-0.2   c1.1-0.3,1.1,1.1,4,1.2c2.5,0.1,3.9-2.3,6.6-2.2c0.9,0,1.3,0.2,1.8,0.5l0.1,0.4c-1.5,3.3-1.6,3.7-2.5,5.8l-0.4,0.1   c-0.7-0.4-1.2-0.8-2-0.8c-0.6,0-1.3,0.3-1.9,0.8c-1.1,0.9-1.4,1.9-2.3,5.8l-0.8,3.7L334.5,35.5z"/>
        <path class="st0" d="M350,29.2c-0.7,3.1-0.8,3.8-1.2,6.4l-0.3,0.2l-6.3,0.1l-0.2-0.3c1.1-4.2,1.3-5.1,2.4-9.7l0.4-1.8   c0.7-3.1,0.8-3.9,1.2-6.8l0.3-0.3c3.1-0.4,3.7-0.5,6.4-1l0.2,0.3c-0.9,3.5-1.2,4.9-2.4,10.2L350,29.2z M353.6,12.6l-0.3,0.3   c-8,1.1-5.1-4.3-5.1-4.3l0.3-0.3l6-0.8l0.2,0.3L353.6,12.6z"/>
        <path class="st0" d="M369.4,33.9c-2.1,1.7-4.4,2.3-7.2,2.3c-1.9,0-4.4-0.4-6.2-1.9c-1.6-1.4-2.4-3.4-2.4-6.1   c0-3.3,1.8-12.1,11.2-12.1c2.3,0,4.6,0.5,6.3,2c1.9,1.7,2.3,3.7,2.3,5.9c0,1.2-0.2,2.4-0.5,3.6C372.4,30.1,371.3,32.4,369.4,33.9z    M367.4,23.2c0-1.3-0.4-3.2-2.6-3.2c-1.7,0-2.6,1-3,1.5c-1.4,1.8-2.1,5.9-2.1,7.6c0,0.9,0.1,1.3,0.2,1.6c0.4,1.2,1.4,1.7,2.6,1.7   c1.1,0,2-0.7,2.7-1.4c0.4-0.5,1.2-1.5,1.9-4.7C367.2,25.4,367.4,24.3,367.4,23.2z"/>
        <path class="st0" d="M104.4,69.3l-0.2,0.3c-0.4,0.1-0.7,0.3-1.1,0.5c-0.9,0.4-2.9,0.8-5,0.8c-2.9,0-6.4-0.7-8.8-3.4   c-1.8-2-2.4-4.8-2.4-7.7c0-7.8,5-15.6,14.6-15.6c0,0,8.8,0.1,6.2,6.9l-0.3,0.1c-0.3-0.3-0.7-0.6-1-0.8c-1-0.7-2.5-1.1-4.2-1.1   c-6.1,0-8.8,6.2-8.8,10.3c0,4,2.3,6.6,6.3,6.6c0.8,0,1.6-0.1,2.5-0.4c1.4-0.4,2.1-0.9,3.3-1.6l0.3,0.1L104.4,69.3z"/>
        <path class="st0" d="M124.1,68.5c-2.1,1.7-4.4,2.3-7.2,2.3c-1.9,0-4.4-0.4-6.2-1.9c-1.6-1.4-2.4-3.4-2.4-6.1   c0-3.3,1.8-12.1,11.2-12.1c2.3,0,4.6,0.5,6.3,2c1.9,1.7,2.3,3.7,2.3,5.9c0,1.2-0.2,2.4-0.5,3.6C127.1,64.6,126,66.9,124.1,68.5z    M122.1,57.7c0-1.3-0.4-3.2-2.6-3.2c-1.7,0-2.6,1-3,1.5c-1.4,1.8-2.1,5.9-2.1,7.6c0,0.9,0.1,1.3,0.2,1.6c0.4,1.2,1.4,1.7,2.6,1.7   c1.1,0,2-0.7,2.7-1.4c0.4-0.5,1.2-1.5,1.9-4.7C121.9,59.9,122.1,58.9,122.1,57.7z"/>
        <path class="st0" d="M145.8,68.5c-2.1,1.7-4.4,2.3-7.2,2.3c-1.9,0-4.4-0.4-6.2-1.9c-1.6-1.4-2.4-3.4-2.4-6.1   c0-3.3,1.8-12.1,11.2-12.1c2.3,0,4.6,0.5,6.3,2c1.9,1.7,2.3,3.7,2.3,5.9c0,1.2-0.2,2.4-0.5,3.6C148.8,64.6,147.7,66.9,145.8,68.5z    M143.8,57.7c0-1.3-0.4-3.2-2.6-3.2c-1.7,0-2.6,1-3,1.5c-1.4,1.8-2.1,5.9-2.1,7.6c0,0.9,0.1,1.3,0.2,1.6c0.4,1.2,1.4,1.7,2.6,1.7   c1.1,0,2-0.7,2.7-1.4c0.4-0.5,1.2-1.5,1.9-4.7C143.6,59.9,143.8,58.9,143.8,57.7z"/>
        <path class="st0" d="M154.8,51.6c0,0,0.8,0.9,1.9,0.9c2.7,0,4.7-1.4,8.9-1.9c3.6-0.7,6.1,2.7,6.1,7.3c0,2.6-0.9,5.7-2.8,8   c-3.6,4.4-8.1,4.4-12,4.4l-1.7,8.7l-0.3,0.2c-0.8,0-1.6,0-2.5,0c-1.2,0-2.3,0.1-3.7,0.1l-0.2-0.3l2.1-8.5l0.7-2.8   c0.7-3.3,1.5-6.5,2.1-9.7c0.7-3.3,0.8-4.3,1.1-6.2L154.8,51.6z M157.9,66.3c0.3,0,0.6,0.1,0.9,0.1c1,0,2.7-0.4,4-1.5   c1.5-1.2,2.8-3.8,2.8-6.5c0-3.1-2-3.4-2.7-3.4c-1.1,0-1.9,0.5-2.6,1.1L157.9,66.3z"/>
        <path class="st0" d="M191.9,63.8c-0.8,4.6-4.5,6.9-9.2,6.9c-5.1,0-6.8-1.9-7.4-2.7c-1.3-1.6-1.7-3.5-1.7-5.4c0-5.3,3.3-12,10.9-12   c1.7,0,3.4,0.3,4.6,1.1c2.7,1.5,2.8,4.2,2.8,5.7c0,1.7-0.3,3.1-0.6,4.3l-0.3,0.2c-5.3,0-6.9,0-11.5,0.1c0,0.4-0.1,0.8-0.1,1.2   c0,2.1,1.2,3.4,4.6,3.4c4.3,0,5.8-1.6,7.6-2.9L191.9,63.8z M186.6,58.3c0.1-0.5,0.2-1.1,0.2-1.6c0-1.2-0.7-2.4-2.5-2.4   c-0.6,0-1.6,0.1-2.6,1.1c-1,0.9-1.4,2.1-1.7,3L186.6,58.3z"/>
        <path class="st0" d="M199.1,70l-0.3,0.2l-6.1,0.1l-0.2-0.3l1.3-5.3l0.8-3.2c1.1-4.5,1.3-5.6,1.9-9.9l0.3-0.2c1.1-0.3,1.1,1.1,4,1.2   c2.5,0.1,3.9-2.3,6.6-2.2c0.9,0,1.3,0.2,1.8,0.5l0.1,0.4c-1.5,3.3-1.6,3.7-2.5,5.8l-0.4,0.1c-0.7-0.4-1.2-0.8-2-0.8   c-0.6,0-1.3,0.3-1.9,0.8c-1.1,0.9-1.4,1.9-2.3,5.8l-0.8,3.7L199.1,70z"/>
        <path class="st0" d="M227,58.2c-1.4,5.9-1.6,7.2-2.4,11.8l-0.3,0.2c-4.4,0.3-5.4-1.7-5.4-1.7c-0.6,0.5-1,0.9-1.9,1.3   c-1.1,0.5-2.3,0.8-3.5,0.8c-2.1,0-4-1-5-2.8c-0.6-1-1-2.5-1-4.2c0-3.3,1.4-7.1,4-9.4c2.7-2.4,6-3.1,8.7-3.1c2.9,0.1,3,1,4.8,1   c2.2-0.1,3.3-1.1,3.3-1.1l0.2,0.3L227,58.2z M221.9,55c-0.9,0-1.9-0.1-2.8,0.1c-3.9,1-5.1,5.6-5.1,7.8c0,3.2,1.9,3.6,2.7,3.6   c1.3,0,2.1-0.6,2.8-1.2L221.9,55z"/>
        <path class="st0" d="M240.1,66.2c0,0-1.6,4.5-4.9,4.5c-3.1-0.1-5.2-1-5.2-4.2c0-1.5,0.7-4.2,1.2-6.3l1.2-5l-2.5,0.1l-0.2-0.3   l1.1-3.7l0.3-0.2l0.5,0.1c5.3-0.1,9.2-6.5,9.2-6.5l0.2,0.2l-0.8,3l-0.8,3.3l3.7-0.1l0.1,0.3c-0.5,1.5-0.7,3.1-4.8,3.8l-1.5,6.4   c-0.2,0.8-0.7,2.8-0.7,3.4c0,1.2,0.9,1.5,1.7,1.5c0.9,0,1.5-0.2,2.1-0.4L240.1,66.2z"/>
        <path class="st0" d="M248.9,63.7c-0.7,3.1-0.8,3.8-1.2,6.4l-0.3,0.2l-6.3,0.1l-0.2-0.3c1.1-4.2,1.3-5.1,2.4-9.7l0.4-1.8   c0.7-3.1,0.8-3.9,1.2-6.8l0.3-0.3c3.1-0.4,3.7-0.5,6.4-1l0.2,0.3c-0.9,3.5-1.2,4.9-2.4,10.2L248.9,63.7z M252.6,47.1l-0.3,0.3   c-8,1.1-5.1-4.3-5.1-4.3l0.3-0.3l6-0.8l0.2,0.3L252.6,47.1z"/>
        <path class="st0" d="M262.3,70l-0.3,0.2l-5.9,0.1l-0.3-0.2l-0.7-6.8l-0.5-4.8l-0.9-7.2l0.2-0.3c2.5,0,6.2,0.7,6.4,5.3l0.2,2.8   l0.2,5.2l3.7-7.8c2.7-5.6,5.8-5.6,7.7-5.6l0.1,0.3c-1.8,3.2-2.3,4.1-3.5,6.2l-3.4,6.5L262.3,70z"/>
        <path class="st0" d="M287,68.5c-2.1,1.7-4.4,2.3-7.2,2.3c-1.9,0-4.4-0.4-6.2-1.9c-1.6-1.4-2.4-3.4-2.4-6.1   c0-3.3,1.8-12.1,11.2-12.1c2.3,0,4.6,0.5,6.3,2c1.9,1.7,2.3,3.7,2.3,5.9c0,1.2-0.2,2.4-0.5,3.6C290.1,64.6,288.9,66.9,287,68.5z    M285.1,57.7c0-1.3-0.4-3.2-2.6-3.2c-1.7,0-2.6,1-3,1.5c-1.4,1.8-2.1,5.9-2.1,7.6c0,0.9,0.1,1.3,0.2,1.6c0.4,1.2,1.4,1.7,2.6,1.7   c1.1,0,2-0.7,2.7-1.4c0.4-0.5,1.2-1.5,1.9-4.7C284.9,59.9,285.1,58.9,285.1,57.7z"/>
        <path class="st0" d="M309.3,70.1l-0.3,0.2l-6.4,0.1l-0.1-0.2l1.2-4.9l1.9-7.8c1.3-5.6,1.6-7.3,2.7-12.5l0.2-0.2l6.5-0.1l0.1,0.2   c-1.6,6.2-2,7.7-3.5,14.3l-1.1,5.1L309.3,70.1z"/>
        <path class="st0" d="M329.3,65.1l-1.2,4.4l-0.2,0.3c-0.4,0.1-0.7,0.3-1.1,0.4c-0.8,0.3-2.3,0.5-3.6,0.5c-5.2,0-8.5-3.2-8.5-8.6   c0-5.1,3.5-11.4,11.3-11.4c1.7,0,6.9,1.4,4.5,5.9l-0.4,0.1c-0.2-0.3-0.4-0.5-0.7-0.8c-0.7-0.7-1.9-1-2.9-1c-3.4,0-5.6,3.5-5.6,6.8   c0,3.6,2.3,4.7,4.1,4.7c2.1,0,3.3-1,3.9-1.5L329.3,65.1z"/>
        <path class="st0" d="M346.5,65.1l-1.2,4.4l-0.2,0.3c-0.4,0.1-0.7,0.3-1.1,0.4c-0.8,0.3-2.3,0.5-3.6,0.5c-5.2,0-8.5-3.2-8.5-8.6   c0-5.1,3.5-11.4,11.3-11.4c1.7,0,6.9,1.4,4.5,5.9l-0.4,0.1c-0.2-0.3-0.4-0.5-0.7-0.8c-0.7-0.7-1.9-1-2.9-1c-3.4,0-5.6,3.5-5.6,6.8   c0,3.6,2.3,4.7,4.1,4.7c2.1,0,3.3-1,3.9-1.5L346.5,65.1z"/>
        <path class="st0" d="M354.3,70l-0.3,0.2l-6.1,0.1l-0.2-0.3l1.3-5.3l0.8-3.2c1.1-4.5,1.3-5.6,1.9-9.9l0.3-0.2c1.1-0.3,1.1,1.1,4,1.2   c2.5,0.1,3.9-2.3,6.6-2.2c0.9,0,1.3,0.2,1.8,0.5l0.1,0.4c-1.5,3.3-1.6,3.7-2.5,5.8l-0.4,0.1c-0.7-0.4-1.2-0.8-2-0.8   c-0.6,0-1.3,0.3-1.9,0.8c-1.1,0.9-1.4,1.9-2.3,5.8l-0.8,3.7L354.3,70z"/>
        <path class="st0" d="M381.4,63.8c-0.8,4.6-4.5,6.9-9.2,6.9c-5.1,0-6.8-1.9-7.4-2.7c-1.3-1.6-1.7-3.5-1.7-5.4c0-5.3,3.3-12,10.9-12   c1.7,0,3.4,0.3,4.6,1.1c2.7,1.5,2.8,4.2,2.8,5.7c0,1.7-0.3,3.1-0.6,4.3l-0.3,0.2c-5.3,0-6.9,0-11.5,0.1c0,0.4-0.1,0.8-0.1,1.2   c0,2.1,1.2,3.4,4.6,3.4c4.3,0,5.8-1.6,7.6-2.9L381.4,63.8z M376.1,58.3c0.1-0.5,0.2-1.1,0.2-1.6c0-1.2-0.7-2.4-2.5-2.4   c-0.6,0-1.6,0.1-2.6,1.1c-1,0.9-1.4,2.1-1.7,3L376.1,58.3z"/>
        <path class="st0" d="M402.4,58.2c-1.4,5.9-1.6,7.2-2.4,11.8l-0.3,0.2c-4.4,0.3-5.4-1.7-5.4-1.7c-0.6,0.5-1,0.9-1.9,1.3   c-1.1,0.5-2.3,0.8-3.5,0.8c-2.1,0-4-1-5-2.8c-0.6-1-1-2.5-1-4.2c0-3.3,1.4-7.1,4-9.4c2.7-2.4,6-3.1,8.7-3.1c2.9,0.1,3,1,4.8,1   c2.2-0.1,3.3-1.1,3.3-1.1l0.2,0.3L402.4,58.2z M397.3,55c-0.9,0-1.9-0.1-2.8,0.1c-3.9,1-5.1,5.6-5.1,7.8c0,3.2,1.9,3.6,2.7,3.6   c1.3,0,2.1-0.6,2.8-1.2L397.3,55z"/>
</g>
</svg>