<svg xmlns="http://www.w3.org/2000/svg" width="60" height="60" viewBox="0 0 22 22">
    <g fill="none" fill-rule="evenodd">
        <g fill="#264D7A">
            <g>
                <g>
                    <g>
                        <g>
                            <g>
                                <path d="M6.993 9.99c1.387-1.145 2.995-1.3 4.845-1.146 2.095 0 4.704 2.09 4.704 5.103v.553l.005 1.667.001.298v.372c-.001.59-.012.806-.05.958l-.016.054-.01.026-.02.052c-.01.026-.022.054-.036.084-.345.764-.616.908-3.233.916h-.38c-1.255-.002-2.99-.026-5.414-.03l-.788-.001c-.823 0-1.482-.672-1.482-1.482 0-3.062-.446-5.565 1.874-7.424zm8.991-.512c.915-.75 1.74-.651 2.805-.651 1.584 0 2.873 1.28 2.873 2.855v4.576c0 .708-.578 1.284-1.29 1.284h-.471c-.588.002-1.013.005-1.319.007h-.208c-.687.002-.562-.017-.562-.135 0-3.454.37-5.692-1.828-7.936zM2.873 8.827c1.059 0 1.888-.1 2.804.65C3.462 11.74 3.85 14.14 3.85 17.415c0 .104.117.13-.336.135h-.346c-.319-.001-.78-.005-1.448-.006h-.476c-.686 0-1.244-.557-1.244-1.24v-4.621c0-1.574 1.289-2.855 2.873-2.855zm7.958-8.8c2.033 0 3.68 1.648 3.68 3.68 0 2.033-1.647 3.681-3.68 3.681-2.033 0-3.681-1.648-3.681-3.68 0-2.033 1.648-3.681 3.68-3.681zm7.446 2.707c1.285 0 2.327 1.042 2.327 2.327s-1.042 2.327-2.327 2.327-2.327-1.042-2.327-2.327 1.042-2.327 2.327-2.327zm-14.892 0c1.285 0 2.327 1.042 2.327 2.327S4.67 7.388 3.385 7.388c-1.286 0-2.327-1.042-2.327-2.327s1.041-2.327 2.327-2.327z" transform="translate(-508 -757) translate(140 565) translate(0 60) translate(0 111) translate(368 21) translate(0 2)"/>
                            </g>
                        </g>
                    </g>
                </g>
            </g>
        </g>
    </g>
</svg>
