<?xml version="1.0" encoding="UTF-8" standalone="no"?>
<!-- Created with Inkscape (http://www.inkscape.org/) -->

<svg
   version="1.1"
   id="svg1"
   width="156"
   height="154"
   viewBox="0 0 156 154"
   xmlns="http://www.w3.org/2000/svg" >
  <defs
     id="defs1" />
  <g
     id="g1">
    <path
       fill="#274d7a"
       d="m 13,127 v -4 h 6 c 4.537009,0 6,-0.34879 6,-1.43045 0,-0.78675 -0.941439,-1.57425 -2.092086,-1.75 -1.230799,-0.18799 -2.631171,-1.60839 -3.401535,-3.45018 -1.217291,-2.9103 -1.174523,-3.09535 0.607669,-2.62929 1.054416,0.27573 2.161665,0.89702 2.460553,1.38063 C 23.505619,116.62713 25,116.08483 25,114.24055 c 0,-0.9677 -0.9,-2.32152 -2,-3.00848 -1.261379,-0.78774 -2,-2.33202 -2,-4.18153 0,-3.1192 1.487833,-4.90499 2.338459,-2.80677 0.385511,0.95093 0.770806,0.89169 1.58541,-0.24377 0.956561,-1.33333 1.195701,-1.33333 2.152262,0 0.814604,1.13546 1.199899,1.1947 1.58541,0.24377 C 29.512167,102.14555 31,103.93134 31,107.05054 c 0,1.84951 -0.738621,3.39379 -2,4.18153 -1.1,0.68696 -2,2.04078 -2,3.00848 0,2.14574 0.316942,2.16403 4.04966,0.23377 3.380555,-1.74815 3.525206,-1.48667 1.42466,2.57534 C 31.566409,118.80537 30.14921,120 28.97432,120 27.886036,120 27,120.67317 27,121.5 c 0,1.13333 1.222222,1.5 5,1.5 h 5 V 103.57258 84.14516 l 2.75,-2.153522 C 41.2625,80.8072 44.750487,77.737039 47.501083,75.169058 64.041177,59.727071 74.851409,50 75.47285,50 c 0.391964,0 5.958423,4.834248 12.369906,10.742772 10.914047,10.057877 11.74593,11.093456 13.048304,16.243333 1.6987,6.716995 4.90145,11.965172 9.57996,15.698163 l 3.52892,2.815732 3e-5,13.75 L 114,123 h 3.5 3.5 V 107.5 C 121,95.154539 120.72526,92 119.65004,92 c -2.65162,0 -9.63427,-6.047075 -11.82035,-10.236596 -3.12652,-5.991799 -3.07588,-16.767733 0.1234,-26.263404 3.2416,-9.621258 8.56452,-20.459086 12.23588,-24.91309 l 3.06472,-3.718038 2.7123,2.598542 c 3.19429,3.060329 8.98651,14.28204 12.72851,24.659938 3.57026,9.901595 3.77052,21.35668 0.48315,27.636052 C 136.98334,85.954869 129.9986,92 127.34996,92 126.27474,92 126,95.154539 126,107.5 V 123 h 10 10 v 4 4 H 79.5 13 Z M 83,107 V 91 H 75.5 68 v 16 16 H 75.5 83 Z M 61,98.5 V 91 h -8 -8 v 7.5 7.5 h 8 8 z m 45,0 V 91 h -8 -8 v 7.5 7.5 h 8 8 z M 24.574747,84.817954 21.876263,82.496815 37.688132,67.581821 c 8.696527,-8.203246 20.644966,-19.594308 26.552085,-25.313471 7.03527,-6.811417 11.174792,-10.136155 12,-9.638035 C 76.933098,33.048558 82,37.75976 87.5,43.099653 93,48.439546 98.551513,53.65236 99.836696,54.683686 c 1.988924,1.596056 2.232814,2.428879 1.638704,5.595725 C 101.09151,62.325735 100.45681,64 100.06495,64 99.673087,64 94.139372,59.05 87.767802,53 81.396233,46.95 75.833706,42 75.406632,42 74.979558,42 70.768144,45.7125 66.047934,50.25 57.16612,58.788016 38.427443,76.636957 31.329933,83.319546 l -4.056701,3.819546 z"
       id="path1" />
  </g>
</svg>
