<?xml version="1.0" encoding="UTF-8" standalone="no"?>
<!-- Created with Inkscape (http://www.inkscape.org/) -->

<svg
   version="1.1"
   id="svg1"
   width="112"
   height="176"
   viewBox="0 0 112 176"
   xmlns="http://www.w3.org/2000/svg">
  <defs
     id="defs1" />
  <g
     id="g1">
    <path
       fill="#274d7a"
       d="M 21.035184,158.06574 C 20.353117,156.79129 20,134.70185 20,93.30922 V 30.486957 l 3.984251,-1.243478 C 29.070794,27.655976 87.146618,27.472916 90.065741,29.035184 91.94704,30.042024 92,31.816235 92,93.835184 92,142.09671 91.708241,157.89176 90.8,158.8 c -0.885947,0.88595 -10.036626,1.2 -34.964816,1.2 -32.358829,0 -33.807922,-0.0805 -34.8,-1.93426 z M 83,94 V 46 H 56 29 v 48 48 H 56 83 Z M 64.5,37 c 0,-2.441586 -0.193135,-2.506792 -8.265768,-2.790697 -6.705918,-0.235839 -8.377338,5.1e-5 -8.856989,1.25 -1.46131,3.808114 0.229175,4.634824 8.856989,4.331394 C 64.306865,39.506792 64.5,39.441586 64.5,37 Z"
       id="path1" />
  </g>
</svg>
