<?xml version="1.0" encoding="UTF-8" standalone="no"?>
<!-- Created with Inkscape (http://www.inkscape.org/) -->

<svg
   version="1.1"
   id="svg1"
   width="150"
   height="136"
   viewBox="0 0 150 136"
   xmlns="http://www.w3.org/2000/svg">
  <defs
     id="defs1" />
  <g
     id="g1">
    <path
       fill="#274d7a"
       d="m 17,119.16622 c 0,-2.30907 1.018398,-3.53518 5.5,-6.62178 3.025,-2.0834 5.5,-4.4082 5.5,-5.16622 C 28,106.51353 29.117811,106 31,106 h 3 V 80 54 H 31 C 29,54 28,53.5 28,52.5 28,51.566667 27.055556,51 25.5,51 23.25,51 23,50.6 23,47 c 0,-3.501325 0.285281,-4 2.288314,-4 1.258573,0 6.771073,-2.761123 12.25,-6.135828 5.478927,-3.374705 15.922168,-9.733817 23.207201,-14.131359 l 13.245515,-7.995532 11.754485,7.030361 c 6.464967,3.866699 16.920945,10.22581 23.235515,14.13136 C 115.2956,39.804551 121.4831,43 122.73103,43 124.7115,43 125,43.508609 125,47 c 0,3.6 -0.25,4 -2.5,4 -1.55556,0 -2.5,0.566667 -2.5,1.5 0,1 -1,1.5 -3,1.5 h -3 v 26 26 h 3 c 1.88219,0 3,0.51353 3,1.37822 0,0.75802 2.475,3.08282 5.5,5.16622 4.4816,3.0866 5.5,4.31271 5.5,6.62178 V 122 H 74 17 Z M 52,80 V 54 h -5 -5 v 26 26 h 5 5 z m 18,0 V 54 h -5 -5 v 26 26 h 5 5 z m 18,0 V 54 h -5 -5 v 26 26 h 5 5 z m 18,0 V 54 h -5 -5 v 26 26 h 5 5 z M 76.685549,37.825686 c 2.897368,-2.721936 2.943555,-5.527133 0.140137,-8.511235 -2.721936,-2.897368 -5.527133,-2.943555 -8.511235,-0.140137 -2.897368,2.721936 -2.943555,5.527133 -0.140137,8.511235 2.721936,2.897368 5.527133,2.943555 8.511235,0.140137 z"
       id="path1" />
  </g>
</svg>
