<?xml version="1.0" encoding="UTF-8"?>
<svg width="46px" height="46px" viewBox="0 0 46 46" version="1.1" xmlns="http://www.w3.org/2000/svg" xmlns:xlink="http://www.w3.org/1999/xlink">
    <!-- Generator: Sketch 63.1 (92452) - https://sketch.com -->
    <!--<title>illustrazione/profilo di rischio/medio-alto</title>-->
    <desc>Created with Sketch.</desc>
    <defs>
        <path d="M19.1741702,25.4008775 C19.1741702,27.5536775 20.9270638,29.2999025 23.0900426,29.2999025 L23.0900426,29.2999025 C25.2510638,29.2999025 27.0039574,27.5536775 27.0039574,25.4008775 L27.0039574,25.4008775 C27.0039574,23.2461275 25.2510638,21.4999025 23.0900426,21.4999025 L23.0900426,21.4999025 C20.9270638,21.4999025 19.1741702,23.2461275 19.1741702,25.4008775 L19.1741702,25.4008775 Z" id="path-1"></path>
        <path d="M36.7990594,14.0895639 L19.2162935,20.1199389 C18.7053998,20.2954389 18.4333147,20.8511889 18.6104637,21.3591639 L18.6104637,21.3591639 C18.7856552,21.8681139 19.3425488,22.1391639 19.8534424,21.9636639 L19.8534424,21.9636639 L37.4362083,15.9332889 C37.947102,15.7577889 38.2191871,15.2030139 38.0420381,14.6930889 L38.0420381,14.6930889 C37.9030594,14.2894389 37.5242935,14.0359389 37.1181232,14.0359389 L37.1181232,14.0359389 C37.0124211,14.0359389 36.9047615,14.0534889 36.7990594,14.0895639 L36.7990594,14.0895639 Z" id="path-3"></path>
    </defs>
    <g id="illustrazione/profilo-di-rischio/medio-alto" stroke="none" stroke-width="1" fill="none" fill-rule="evenodd">
        <path d="M36.81,20.2455955 C37.575,22.0579343 38,24.0503999 38,26.1445015 C38,30.0569796 36.521,33.6212793 34.095,36.3030576 L39.756,41.9996981 C43.628,37.8577846 46,32.279887 46,26.1445015 C46,22.9344179 45.35,19.8782976 44.176,17.0989086 L36.81,20.2455955 Z" id="Fill-4" fill="#E4710C" fill-rule="nonzero"></path>
        <path d="M1.812,17.1255754 L9.178,20.2712561 C11.455,14.8523532 16.786,11.0505677 23,11.0505677 L23,3.00020126 C13.477,3.00020126 5.306,8.82363505 1.812,17.1255754" id="Fill-7" fill="#FFB900" fill-rule="nonzero"></path>
        <path d="M0,26.1448034 C0,32.2801889 2.372,37.8580865 6.244,42 L11.905,36.3033595 C9.479,33.6215812 8,30.0572815 8,26.1448034 C8,24.0617711 8.419,22.0763495 9.178,20.2710548 L1.812,17.1253741 C0.646,19.8967128 0,22.9447827 0,26.1448034" id="Fill-9" fill="#FFD949" fill-rule="nonzero"></path>
        <path d="M23,3 L23,11.0503664 C29.204,11.0503664 34.527,14.8410827 36.81,20.2458974 L44.176,17.0992104 C40.676,8.81135824 32.513,3 23,3" id="Fill-12" fill="#F99E0A" fill-rule="nonzero"></path>
        <mask id="mask-2" fill="white">
            <use xlink:href="#path-1"></use>
        </mask>
        <use id="oval" fill="#636363" fill-rule="nonzero" xlink:href="#path-1"></use>
        <mask id="mask-4" fill="white">
            <use xlink:href="#path-3"></use>
        </mask>
        <use id="Clip-16" fill="#636363" fill-rule="nonzero" transform="translate(28.326251, 18.026518) rotate(144.000000) translate(-28.326251, -18.026518) " xlink:href="#path-3"></use>
    </g>
</svg>