<?xml version="1.0" encoding="UTF-8"?>
<svg width="46px" height="46px" viewBox="0 0 46 46" version="1.1" xmlns="http://www.w3.org/2000/svg" xmlns:xlink="http://www.w3.org/1999/xlink">
    <!-- Generator: Sketch 63.1 (92452) - https://sketch.com -->
    <!--<title>illustrazione/profilo di rischio/risk-ND</title>-->
    <desc>Created with Sketch.</desc>
    <defs>
        <path d="M23,0 C35.7025492,0 46,10.2974508 46,23 C46,29.0967332 43.627849,34.6394208 39.7561675,38.7554425 L34.0947327,33.0950485 C36.5209059,30.43017 38,26.8878155 38,23 C38,14.7157288 31.2842712,8 23,8 C14.7157288,8 8,14.7157288 8,23 C8,26.8883055 9.47946699,30.4310629 11.9061848,33.0960561 L6.24476694,38.7564358 C2.37253265,34.6403126 0,29.0972236 0,23 C0,10.2974508 10.2974508,0 23,0 Z" id="path-1"></path>
    </defs>
    <g id="illustrazione/profilo-di-rischio/risk-ND" stroke="none" stroke-width="1" fill="none" fill-rule="evenodd">
        <g id="Group" transform="translate(0.000000, 3.000000)">
            <mask id="mask-2" fill="white">
                <use xlink:href="#path-1"></use>
            </mask>
            <use id="Combined-Shape" fill="#FFFFFF" xlink:href="#path-1"></use>
        </g>
        <path d="M21.6976744,28.8602151 C21.6976744,28.0259815 21.799999,27.3611136 22.0046512,26.8655914 C22.2093033,26.3700692 22.6139505,25.8259438 23.2186047,25.2331989 C23.8232588,24.640454 24.2062007,24.2186392 24.3674419,23.9677419 C24.6155051,23.5851235 24.7395349,23.1711492 24.7395349,22.7258065 C24.7395349,22.1361978 24.5953503,21.6861575 24.3069767,21.375672 C24.0186032,21.0651866 23.5953516,20.9099462 23.0372093,20.9099462 C22.5038733,20.9099462 22.0744202,21.0620505 21.7488372,21.3662634 C21.4232542,21.6704764 21.2604651,22.0828827 21.2604651,22.6034946 L19,22.6034946 C19.0124032,21.493274 19.3860428,20.6151466 20.1209302,19.969086 C20.8558176,19.3230254 21.8279009,19 23.0372093,19 C24.2837272,19 25.2558105,19.3198893 25.9534884,19.9596774 C26.6511663,20.5994656 27,21.4932738 27,22.641129 C27,23.6635356 26.5286869,24.6702459 25.5860465,25.6612903 L24.4418605,26.7997312 C24.0325561,27.2701636 23.8217055,27.9569847 23.8093023,28.8602151 L21.6976744,28.8602151 Z M21.5395349,31.7862903 C21.5395349,31.4162168 21.6542624,31.1167126 21.8837209,30.8877688 C22.1131794,30.658825 22.4232539,30.5443548 22.8139535,30.5443548 C23.2108547,30.5443548 23.5240299,30.6619612 23.7534884,30.8971774 C23.9829469,31.1323936 24.0976744,31.4287617 24.0976744,31.7862903 C24.0976744,32.1312741 23.9860476,32.4198017 23.7627907,32.6518817 C23.5395349,32.8839617 23.2232579,33 22.8139535,33 C22.4046491,33 22.0899236,32.8839617 21.8697674,32.6518817 C21.6496113,32.4198017 21.5395349,32.1312741 21.5395349,31.7862903 Z" id="?" fill="#92A6BC" fill-rule="nonzero"></path>
        <path d="M36.81,20.2455955 C37.575,22.0579343 38,24.0503999 38,26.1445015 C38,30.0569796 36.521,33.6212793 34.095,36.3030576 L39.756,41.9996981 C43.628,37.8577846 46,32.279887 46,26.1445015 C46,22.9344179 45.35,19.8782976 44.176,17.0989086 L36.81,20.2455955 Z" id="Fill-4" fill="#597799" fill-rule="nonzero"></path>
        <path d="M1.812,17.1255754 L9.178,20.2712561 C11.455,14.8523532 16.786,11.0505677 23,11.0505677 L23,3.00020126 C13.477,3.00020126 5.306,8.82363505 1.812,17.1255754" id="Fill-7" fill="#D0D9DF" fill-rule="nonzero"></path>
        <path d="M0,26.1448034 C0,32.2801889 2.372,37.8580865 6.244,42 L11.905,36.3033595 C9.479,33.6215812 8,30.0572815 8,26.1448034 C8,24.0617711 8.419,22.0763495 9.178,20.2710548 L1.812,17.1253741 C0.646,19.8967128 0,22.9447827 0,26.1448034" id="Fill-9" fill="#E9EDF2" fill-rule="nonzero"></path>
        <path d="M23,3 L23,11.0503664 C29.204,11.0503664 34.527,14.8410827 36.81,20.2458974 L44.176,17.0992104 C40.676,8.81135824 32.513,3 23,3" id="Fill-12" fill="#92A6BC" fill-rule="nonzero"></path>
    </g>
</svg>