<?xml version="1.0" encoding="UTF-8"?>
<svg width="46px" height="46px" viewBox="0 0 46 46" version="1.1" xmlns="http://www.w3.org/2000/svg" xmlns:xlink="http://www.w3.org/1999/xlink">
    <!-- Generator: Sketch 63.1 (92452) - https://sketch.com -->
    <!--<title>illustrazione/functional/arte-cultura</title>-->
    <desc>Created with Sketch.</desc>
    <g id="illustrazione/functional/arte-cultura" stroke="none" stroke-width="1" fill="none" fill-rule="evenodd">
        <g id="002-palette" transform="translate(2.000000, 0.000000)">
            <path d="M38.7410457,20.0101349 C34.3873121,15.0415273 29.8435806,13.8864645 29.8435806,8.40752783 C29.8435806,2.43608368 24.8078935,-2.14314045 15.9942129,1.04488468 C6.54408553,4.46310554 -1.75241766e-14,12.7081966 -1.75241766e-14,22.9804023 C-1.75241766e-14,35.6937037 10.2907525,45.9999747 22.985118,45.9999747 C25.0729638,45.9999747 27.0959322,45.7211408 29.0186188,45.198745 L29.0180627,45.1963317 C38.7410457,42.3799613 46.7116914,29.1065788 38.7410457,20.0101349 Z M28.963195,17.6071886 C27.6192144,19.3294795 23.8964594,18.3225589 22.4597042,15.8856401 C21.1932983,13.7377655 21.6567079,10.6661377 23.8488209,9.31188144 C25.1194901,8.52689545 26.795272,9.29935062 27.1140979,10.7600724 C27.3736073,11.9487363 27.9058796,13.4213392 28.9898874,14.7687268 C29.6505242,15.5901913 29.6117831,16.7760706 28.963195,17.6071886 Z" id="Shape" fill="#F2BA95"></path>
            <circle id="Oval" fill="#EE5019" fill-rule="nonzero" cx="13.2177535" cy="12.446325" r="4.39283138"></circle>
            <circle id="Oval" fill="#FF946F" fill-rule="nonzero" cx="14.3039909" cy="11.3480713" r="1.53753685"></circle>
            <circle id="Oval" fill="#FFD949" fill-rule="nonzero" cx="8.81483212" cy="23.4536285" r="4.39283138"></circle>
            <circle id="Oval" fill="#FFE997" fill-rule="nonzero" cx="9.90106952" cy="22.3553748" r="1.53753685"></circle>
            <circle id="Oval" fill="#76D37E" fill-rule="nonzero" cx="13.9314854" cy="33.7070235" r="4.39283138"></circle>
            <circle id="Oval" fill="#AFE793" fill-rule="nonzero" cx="15.0176311" cy="32.6087698" r="1.53753685"></circle>
            <circle id="Oval" fill="#7BC8F8" cx="24.9588773" cy="37.396213" r="4.39283138"></circle>
            <circle id="Oval" fill="#B3E4FD" cx="26.045023" cy="36.2979593" r="1.53753685"></circle>
            <circle id="Oval" fill="#3D9AE2" cx="33.0308999" cy="29.3041021" r="4.39283138"></circle>
            <circle id="Oval" fill="#7BC8F8" cx="34.1170455" cy="28.2058484" r="1.53753685"></circle>
        </g>
    </g>
</svg>