<?xml version="1.0" encoding="UTF-8"?>
<svg width="46px" height="46px" viewBox="0 0 46 46" version="1.1" xmlns="http://www.w3.org/2000/svg" xmlns:xlink="http://www.w3.org/1999/xlink">
    <!-- Generator: Sketch 63.1 (92452) - https://sketch.com -->
    <!--<title>illustrazione/functional/boy</title>-->
    <desc>Created with Sketch.</desc>
    <g id="illustrazione/functional/boy" stroke="none" stroke-width="1" fill="none" fill-rule="evenodd">
        <g id="people-05" transform="translate(7.000000, 4.000000)">
            <path d="M16.0052103,27.9831152 C13.7216821,27.998332 9.4288,28.2593965 7.68980513,28.8135996 L16.0052103,36.5035371 L24.3205744,28.8135996 C22.5817436,28.2594785 18.2887385,27.998332 16.0052103,27.9831152 Z" id="Path" fill="#22608F"></path>
            <path d="M31.9941333,41.9692793 L31.2329436,35.881166 C31.0740103,34.610502 30.1994667,33.5438496 28.9842462,33.1389023 L25.9758359,32.1364395 C25.9838359,32.088041 26.089641,31.3491445 25.1958564,30.7535156 C24.4682667,30.2684648 25.4210872,29.3851934 24.3123282,28.8135996 L21.5230359,31.3233867 C21.1937231,31.0156055 20.9943795,30.5802246 20.9943795,30.1091602 L20.9943795,27.4278867 L24.5763282,25.9358203 C26.4356513,25.1615273 27.6466462,23.3453145 27.6466462,21.3316113 L27.6466462,20.5003066 C29.0244103,20.5003066 30.1412923,19.3836563 30.1412923,18.0062695 C30.1412923,17.272377 29.8241641,16.6126816 29.3196308,16.1563008 L29.6345846,10.1735566 C29.9099897,4.9415625 25.7409231,0.548255859 20.5003487,0.548255859 L11.5101128,0.548255859 C6.26957949,0.548255859 2.10034872,4.9415625 2.3758359,10.1735566 L2.69074872,16.1563008 C2.18621538,16.6126816 1.86908718,17.272459 1.86908718,18.0063105 C1.86908718,19.3836973 2.98596923,20.5003477 4.36373333,20.5003477 L4.36373333,21.3316934 C4.36373333,23.3452734 5.57476923,25.1614863 7.43396923,25.9360664 L11.016,27.4280918 L11.016,30.1092832 C11.016,30.5821523 10.8150564,31.0192559 10.4832821,31.3270781 L7.68984615,28.8135176 C6.58112821,29.3851113 7.53398974,30.2683828 6.80635897,30.7534336 C5.88217436,31.3694062 6.02670769,32.1382852 6.02678974,32.1389004 L3.02617436,33.1389023 C1.81099487,33.5438496 0.936451282,34.610502 0.777476923,35.881166 L0.0163282051,41.9692793 L31.9941333,41.9692793 L31.9941333,41.9692793 Z" id="Path" fill="#F2BA95"></path>
            <path d="M31.9725128,41.9692793 L31.2329436,35.881248 C31.0740103,34.610584 30.1994667,33.5439316 28.9843692,33.1389844 L24.2896821,31.5744434 C23.9153231,31.4495508 23.4976821,31.6011855 23.3091282,31.9478496 C21.9005949,34.5365508 16.3271385,36.2956699 16.0052513,36.2956699 C15.6833231,36.2956699 10.1098667,34.5365508 8.70141538,31.9478496 C8.51286154,31.6012266 8.09513846,31.4497148 7.72086154,31.5744434 L3.02621538,33.1389844 C1.8110359,33.5439316 0.936492308,34.610584 0.777641026,35.881248 L0.0381128205,41.9692793 L31.9725128,41.9692793 Z" id="Path" fill="#3D9AE2"></path>
            <path d="M11.3629128,0.0310078125 C5.95076923,0.0310078125 1.64504615,4.91498438 1.92951795,10.7314512 L2.26490256,17.5906582 L29.7456,17.5906582 L30.0810667,10.7314512 C30.3655385,4.91498438 26.0598564,0.0310078125 20.6476308,0.0310078125 L11.3629128,0.0310078125 Z" id="Path" fill="#8A512E"></path>
            <path d="M27.6467282,15.5123145 L27.6467282,13.8496641 C27.6467282,11.5540605 25.7852308,9.69297656 23.4890667,9.69297656 L8.5214359,9.69297656 C6.22514872,9.69297656 4.36377436,11.5540605 4.36377436,13.8496641 L4.36377436,15.5123145 C2.98601026,15.5123145 1.86912821,16.6289238 1.86912821,18.0063516 C1.86912821,19.3837383 2.98601026,20.5003887 4.36377436,20.5003887 L4.36377436,21.3316934 C4.36377436,23.3453145 5.57481026,25.1614453 7.43401026,25.9361074 L12.8068513,28.174207 C13.8202667,28.5964629 14.9072821,28.8136406 16.0051282,28.8136406 L16.0051282,28.8136406 C17.1029744,28.8136406 18.1898667,28.5962988 19.2033231,28.174207 L24.5764923,25.9359023 C26.4357333,25.1616094 27.6467282,23.3453965 27.6467282,21.3316934 L27.6467282,20.5003887 C29.0244923,20.5003887 30.1413744,19.3837383 30.1413744,18.0063516 C30.1413744,16.6289238 29.0244923,15.5123145 27.6467282,15.5123145 Z" id="Path" fill="#FFCFAB" fill-rule="nonzero"></path>
            <path d="M10.1844923,18.8376973 L10.1844923,18.8376973 C9.72713846,18.8376973 9.35298462,18.4635937 9.35298462,18.0063105 L9.35298462,17.1749238 C9.35298462,16.7177637 9.72713846,16.3436191 10.1844923,16.3436191 L10.1844923,16.3436191 C10.6418462,16.3436191 11.016041,16.7177227 11.016041,17.1749238 L11.016041,18.0063105 C11.016041,18.4635938 10.6418462,18.8376973 10.1844923,18.8376973 Z" id="Path" fill="#636363" fill-rule="nonzero"></path>
            <path d="M21.8259692,18.8376973 L21.8259692,18.8376973 C21.3686154,18.8376973 20.9944615,18.4635937 20.9944615,18.0063105 L20.9944615,17.1749238 C20.9944615,16.7177637 21.3686154,16.3436191 21.8259692,16.3436191 L21.8259692,16.3436191 C22.2833231,16.3436191 22.657559,16.7177227 22.657559,17.1749238 L22.657559,18.0063105 C22.6575179,18.4635938 22.2833231,18.8376973 21.8259692,18.8376973 Z" id="Path" fill="#636363" fill-rule="nonzero"></path>
            <path d="M16.0052103,24.6797168 C14.5268513,24.6797168 13.144,24.3160312 12.2113231,23.6816426 C11.8317538,23.4235313 11.7330872,22.9063652 11.9916718,22.5268066 C12.2494359,22.1477402 12.7671795,22.0490566 13.1467487,22.307209 C13.8004513,22.7516543 14.8690462,23.0172305 16.0051692,23.0172305 C17.1412513,23.0172305 18.2098872,22.7516543 18.8635897,22.307209 C19.2440205,22.0483184 19.7604923,22.1473301 20.0186667,22.5268066 C20.2772923,22.9063652 20.1786256,23.4235313 19.7990154,23.6816426 C18.8665436,24.3160312 17.4835692,24.6797168 16.0052103,24.6797168 Z" id="Path" fill="#C6805A" fill-rule="nonzero"></path>
            <path d="M25.1958974,30.7535156 C24.4683077,30.2684648 25.4211282,29.3851934 24.3123692,28.8135996 L16.0011897,36.2919785 L7.68984615,28.8135996 C6.58112821,29.3851934 7.53398974,30.2684648 6.80635897,30.7535156 C5.88188718,31.3696934 6.02678974,32.1389824 6.02678974,32.1389824 L15.9970051,37.122873 L15.9970051,37.1269746 L16.0011897,37.1249648 L16.0052513,37.1269746 L16.0052513,37.122873 L25.9754667,32.1389824 C25.9754256,32.1389824 26.1204513,31.3696934 25.1958974,30.7535156 Z" id="Path" fill="#1B7BC7"></path>
            <path d="M5.19528205,11.355627 L8.52422564,13.0196309 L11.016041,12.1869727 L10.1860513,13.8504844 L11.8475897,14.6810098 C11.8475897,14.6810098 14.680041,13.2781113 17.6683487,10.0047363 L17.6683487,13.849623 C17.6683487,13.849623 19.9550769,13.7976563 20.9945026,13.0182773 L21.8260103,9.69293555 C21.8260103,9.69293555 22.6576,12.1176563 23.4891077,13.849623 L25.1521641,13.0182773 L25.1521641,8.03028516 L5.19528205,8.03028516 L5.19528205,11.355627 L5.19528205,11.355627 Z" id="Path" fill="#8A512E"></path>
            <path d="M31.9940103,41.9692793 L31.2328205,35.881084 C31.1560205,35.2666699 30.9088821,34.7020488 30.5396513,34.2347578 L25.9642256,39.5149453 C25.4404513,40.1195156 25.1521231,40.8924961 25.1521231,41.6923008 L25.1521231,41.9692793 L31.9940103,41.9692793 L31.9940103,41.9692793 Z" id="Path" fill="#1B7BC7"></path>
            <path d="M0.0163692308,41.9692793 L0.777558974,35.881084 C0.854358974,35.2666699 1.10149744,34.7020488 1.47072821,34.2347578 L6.04615385,39.5149453 C6.56992821,40.1195156 6.85825641,40.8924961 6.85825641,41.6923008 L6.85825641,41.9692793 L0.0163692308,41.9692793 L0.0163692308,41.9692793 Z" id="Path" fill="#1B7BC7"></path>
        </g>
    </g>
</svg>