<?xml version="1.0" encoding="UTF-8"?>
<svg width="46px" height="46px" viewBox="0 0 46 46" version="1.1" xmlns="http://www.w3.org/2000/svg" xmlns:xlink="http://www.w3.org/1999/xlink">
    <!-- Generator: Sketch 63.1 (92452) - https://sketch.com -->
    <!--<title>illustrazione/functional/canone-locazione</title>-->
    <desc>Created with Sketch.</desc>
    <g id="illustrazione/functional/canone-locazione" stroke="none" stroke-width="1" fill="none" fill-rule="evenodd">
        <g id="house-(1)" transform="translate(3.000000, 0.000000)" fill-rule="nonzero">
            <path d="M15.9012346,46 L4.08888889,46 L4.08888889,30.1314855 L19.1450864,20.4444444 C20.0086141,20.5261004 20.8802747,20.5261004 21.7438025,20.4444444 L36.8,30.1314855 L36.8,46 L15.9012346,46 Z" id="Shape" fill="#E9EDF2"></path>
            <path d="M37.4386437,33.0128429 L20.4440873,20.0834943 L3.44953093,33.0128429 C2.5723741,33.6797548 1.32521138,33.5775326 0.572342251,32.7766743 L0.572342251,32.7766743 C-0.281242772,31.869364 -0.165526643,30.4361379 0.822346232,29.6733487 L18.9869212,15.6477548 L20.4440873,14.3111111 L21.9019677,15.6477548 L40.0665427,29.6733487 C41.0544155,30.4361379 41.1701317,31.869364 40.3165466,32.7766743 L40.3165466,32.7766743 C39.5629632,33.5775326 38.3158005,33.6797548 37.4386437,33.0128429 Z" id="Path" fill="#CF390A"></path>
            <path d="M24.5333333,38.1438202 L24.5333333,46 L16.3555556,46 L16.3555556,38.1438202 C16.3555556,35.7079756 18.1862135,33.7333333 20.4444444,33.7333333 C22.7026754,33.7333333 24.5333333,35.7079756 24.5333333,38.1438202 Z" id="Shape" fill="#92A6BC"></path>
            <path d="M30.6912128,11.04 C30.6943429,16.243122 26.7799203,20.6142837 21.6079787,21.1830613 C20.8618907,21.2667993 20.1087759,21.2667993 19.362688,21.1830613 C18.004099,21.0320612 16.6901724,20.6074386 15.50016,19.9348053 C14.9366205,19.6276613 14.4053444,19.2647103 13.9143253,18.8514133 C10.7792228,16.2209809 9.51856953,11.9721807 10.7116928,8.05752875 C11.9048161,4.14287677 15.320959,1.31948925 19.3902493,0.884840475 C23.4595396,0.450191691 27.3949531,2.48834524 29.3879893,6.06267733 C30.2449883,7.58138118 30.693974,9.29618205 30.6912128,11.04 L30.6912128,11.04 Z" id="Shape" fill="#E1B950"></path>
            <path d="M20.4853333,22.0309333 C20.0827595,22.029465 19.6805306,22.0071918 19.280256,21.9642027 C13.4705786,21.3235233 9.17447089,16.2541809 9.49529427,10.4180955 C9.81611757,4.58201002 14.6420065,0.0141253199 20.4869035,0.0141253199 C26.3318005,0.0141253199 31.1576894,4.58201002 31.4785127,10.4180955 C31.799336,16.2541809 27.5032283,21.3235233 21.6935509,21.9642027 C21.2922497,22.0074853 20.8889602,22.0297592 20.4853333,22.0309333 Z M20.4853333,1.6192 C15.4872051,1.62360196 11.3624637,5.53049797 11.087135,10.521039 C10.8118063,15.51158 14.481735,19.8485088 19.4490453,20.4027051 C20.1387682,20.4804269 20.8350388,20.4804269 21.5247616,20.4027051 C26.4926656,19.8484318 30.1627588,15.5105661 29.8865652,10.5194734 C29.6103717,5.52838077 25.4840613,1.62194686 20.4853333,1.6192 Z" id="Shape" fill="#FFD949"></path>
            <circle id="Oval" fill="#E9EDF2" cx="22.1179553" cy="39.6071639" r="1"></circle>
            <g id="Group" transform="translate(3.998933, 2.312267)">
                <path d="M3.14026667,9.5128 L0.785066667,9.5128 C0.351486319,9.5128 0,9.16131364 0,8.72773333 C0,8.29415302 0.351486319,7.94266667 0.785066667,7.94266667 L3.14026667,7.94266667 C3.57384698,7.94266667 3.92533333,8.29415302 3.92533333,8.72773333 C3.92533333,9.16131364 3.57384698,9.5128 3.14026667,9.5128 Z" id="Shape" fill="#FFD949"></path>
                <path d="M32.1877333,9.5128 L29.8325333,9.5128 C29.398953,9.5128 29.0474667,9.16131364 29.0474667,8.72773333 C29.0474667,8.29415302 29.398953,7.94266667 29.8325333,7.94266667 L32.1877333,7.94266667 C32.6213136,7.94266667 32.9728,8.29415302 32.9728,8.72773333 C32.9728,9.16131364 32.6213136,9.5128 32.1877333,9.5128 Z" id="Shape" fill="#FFD949"></path>
                <line x1="2.88826027" y1="16.5784" x2="4.92864853" y2="15.4008" id="Shape" fill="#F0C419"></line>
                <path d="M2.8898304,17.3634667 C2.53451857,17.3634667 2.22351205,17.1247973 2.1315495,16.7815928 C2.03958687,16.4383882 2.18959702,16.0762038 2.49729707,15.8985323 L4.5384704,14.7209323 C4.7815038,14.5784549 5.08224643,14.5771212 5.32653398,14.7174372 C5.5708216,14.8577534 5.72119767,15.1182047 5.72058024,15.3999221 C5.71995899,15.6816394 5.56843924,15.9414271 5.32353707,16.0806677 L3.28236373,17.2582677 C3.16302049,17.3271787 3.02764022,17.3634667 2.8898304,17.3634667 L2.8898304,17.3634667 Z" id="Shape" fill="#FFD949"></path>
                <line x1="28.0441515" y1="2.05466667" x2="30.0845397" y2="0.877066667" id="Shape" fill="#F0C419"></line>
                <path d="M28.0457216,2.83973333 C27.6904098,2.83973333 27.3794033,2.60106398 27.2874407,2.25785945 C27.1954781,1.91465493 27.3454882,1.55247046 27.6531883,1.37479893 L29.6943616,0.197198933 C29.937395,0.0547215961 30.2381376,0.0533878228 30.4824252,0.193703926 C30.7267128,0.33402003 30.8770889,0.594471408 30.8764714,0.876188727 C30.8758502,1.15790605 30.7243304,1.41769374 30.4794283,1.5569344 L28.4382549,2.7345344 C28.3189117,2.80344536 28.1835314,2.83973333 28.0457216,2.83973333 L28.0457216,2.83973333 Z" id="Shape" fill="#FFD949"></path>
                <line x1="4.92864853" y1="2.05466667" x2="2.88826027" y2="0.877066667" id="Shape" fill="#F0C419"></line>
                <path d="M4.9270784,2.83973333 C4.78926858,2.83973333 4.65388831,2.80344536 4.53454507,2.7345344 L2.49337173,1.5569344 C2.24846956,1.41769374 2.09694981,1.15790605 2.09632856,0.876188727 C2.09571113,0.594471408 2.2460872,0.33402003 2.49037482,0.193703926 C2.73466237,0.0533878228 3.035405,0.0547215961 3.2784384,0.197198933 L5.31961173,1.37479893 C5.62731178,1.55247046 5.77732193,1.91465493 5.6853593,2.25785945 C5.59339675,2.60106398 5.28239023,2.83973333 4.9270784,2.83973333 L4.9270784,2.83973333 Z" id="Shape" fill="#FFD949"></path>
            </g>
            <path d="M23.5111111,12.631746 C23.5111111,13.7897778 22.7546667,14.8908571 21.4666667,15.3084447 L21.4666667,16.4285714 C21.4666667,16.9601903 21.016957,17.3777778 20.4444444,17.3777778 C19.8719319,17.3777778 19.4222222,16.9601903 19.4222222,16.4285714 L19.4222222,15.3084447 C18.9928207,15.1756823 18.6043763,14.9477462 18.2773333,14.6440635 C17.8684444,14.264381 17.8684444,13.675873 18.2773333,13.2961272 C18.6862222,12.9354288 19.32,12.9354288 19.728957,13.2961272 C19.9333333,13.4860317 20.1786667,13.561905 20.4444444,13.561905 C20.9555556,13.561905 21.4666667,13.2201907 21.4666667,12.6316828 C21.4666667,12.1000639 21.016957,11.6824764 20.4444444,11.6824764 C18.768,11.6824764 17.3777778,10.4106032 17.3777778,8.83485735 C17.3777778,7.69587302 18.072957,6.61377778 19.4222222,6.1960637 L19.4222222,5.03809524 C19.4222222,4.5064764 19.8719319,4.08888889 20.4444444,4.08888889 C21.016957,4.08888889 21.4666667,4.5064764 21.4666667,5.03809524 L21.4666667,6.19612698 C21.8960681,6.32901587 22.2845126,6.51892042 22.6115556,6.82266646 C23.0204444,7.20234899 23.0204444,7.79085693 22.6115556,8.17060275 C22.2026667,8.53130116 21.5688889,8.53130116 21.1599319,8.17060275 C20.9555556,7.9806982 20.7102222,7.90482497 20.4444444,7.90482497 C19.9333333,7.90482497 19.4222222,8.24653926 19.4222222,8.8350472 C19.4222222,9.36666603 19.8719319,9.78425354 20.4444444,9.78425354 C22.1208889,9.78412698 23.5111111,11.0560002 23.5111111,12.631746 Z" id="Path" fill="#FFD949"></path>
        </g>
    </g>
</svg>