<?xml version="1.0" encoding="UTF-8"?>
<svg width="46px" height="46px" viewBox="0 0 46 46" version="1.1" xmlns="http://www.w3.org/2000/svg" xmlns:xlink="http://www.w3.org/1999/xlink">
    <!-- Generator: Sketch 63.1 (92452) - https://sketch.com -->
    <!--<title>illustrazione/functional/coin</title>-->
    <desc>Created with Sketch.</desc>
    <g id="illustrazione/functional/coin" stroke="none" stroke-width="1" fill="none" fill-rule="evenodd">
        <g id="002-coin" fill-rule="nonzero">
            <path d="M34.8315172,35.0575517 C26.8108621,43.0782069 14.9357241,44.4264828 7.19265517,38.5813103 C7.66772414,39.2102414 8.18403448,39.8153793 8.75427586,40.3856207 C16.3418966,47.9732414 29.524069,47.0944828 38.1966552,38.4226897 C46.8684483,29.7501034 47.7472069,16.567931 40.1587931,8.98031034 C39.5893448,8.41006897 38.9842069,7.89375862 38.3552759,7.41868966 C44.2004483,15.1617586 42.8521724,27.0368966 34.8315172,35.0575517" id="XMLID_122_" fill="#C29820"></path>
            <path d="M36.7944483,5.61517241 C44.3828621,13.2035862 43.5041034,26.3849655 34.8315172,35.0575517 C26.158931,43.7301379 12.9775517,44.6088966 5.38913793,37.0204828 C-2.19927586,29.432069 -1.32051724,16.2506897 7.35206897,7.57810345 C16.0246552,-1.09448276 29.2060345,-1.97324138 36.7944483,5.61517241" id="XMLID_121_" fill="#FFD949"></path>
            <path d="M18.3135517,39.0111724 C14.1553103,39.0111724 10.3626897,37.5074483 7.63203448,34.7775862 C1.29275862,28.4383103 2.17310345,17.2428621 9.59496552,9.8217931 C13.5327241,5.88324138 18.7354828,3.62527586 23.8692414,3.62527586 C28.0274828,3.62527586 31.8201034,5.129 34.5507586,7.85886207 C40.8900345,14.1981379 40.0096897,25.3935862 32.5878276,32.8146552 C28.6508621,36.7516207 23.4481034,39.0111724 18.3135517,39.0111724" id="XMLID_89_" fill="#E1B950"></path>
            <path d="M35.3692414,34.4738276 L38.7446897,37.8492759 C39.1103103,37.4606552 39.4632414,37.0648966 39.7987241,36.6604138 L36.4288276,33.2905172 C36.0933448,33.6942069 35.734069,34.0852069 35.3692414,34.4738276" id="XMLID_119_" fill="#A28027"></path>
            <path d="M32.4339655,37.1465862 L35.811,40.5236207 C36.2273793,40.2008276 36.6350345,39.8597931 37.0355517,39.5052759 L33.664069,36.1337931 C33.2619655,36.4883103 32.8511379,36.823 32.4339655,37.1465862" id="XMLID_118_" fill="#A28027"></path>
            <path d="M37.8675172,31.3632759 L41.2421724,34.737931 C41.5483103,34.2858621 41.8385862,33.8274483 42.1106207,33.3634828 L38.7431034,29.9959655 C38.4702759,30.459931 38.1728621,30.9135862 37.8675172,31.3632759" id="XMLID_117_" fill="#A28027"></path>
            <path d="M39.8851724,27.7728966 L43.2637931,31.1507241 C43.5025172,30.6256897 43.7182414,30.0951034 43.9157241,29.5605517 L40.5418621,26.1866897 C40.3443793,26.7204483 40.1231034,27.2486552 39.8851724,27.7728966" id="XMLID_116_" fill="#A28027"></path>
            <path d="M29.0434483,39.3641034 L32.4188966,42.7395517 C32.8971379,42.481 33.3714138,42.2097586 33.8377586,41.9147241 L30.459931,38.5376897 C29.9935862,38.831931 29.5216897,39.1055517 29.0434483,39.3641034" id="XMLID_115_" fill="#A28027"></path>
            <path d="M25.1278966,41.0565862 L28.5025517,44.4312414 C29.0521724,44.2504138 29.6002069,44.0521379 30.1426897,43.8276897 L26.7688276,40.4546207 C26.2263448,40.6782759 25.6791034,40.8765517 25.1278966,41.0565862" id="XMLID_114_" fill="#A28027"></path>
            <path d="M19.4746552,42.1336207 L22.8524828,45.5114483 C23.5274138,45.4733793 24.2055172,45.4027931 24.8836207,45.2996897 L21.5042069,41.9202759 C20.8261034,42.0225862 20.1495862,42.0963448 19.4746552,42.1336207" id="XMLID_113_" fill="#A28027"></path>
            <path d="M13.2353103,41.5015172 L16.6218621,44.888069 C17.526,45.1307586 18.4507586,45.3060345 19.3897931,45.4138966 L16.0048276,42.0281379 C15.065,41.9186897 14.1402414,41.7457931 13.2353103,41.5015172" id="XMLID_112_" fill="#A28027"></path>
            <path d="M41.5332414,22.6914828 L44.9055172,26.0637586 C45.034,25.415 45.1331379,24.7654483 45.2013448,24.1166897 L41.8251034,20.7404483 C41.7568966,21.3907931 41.660931,22.0411379 41.5332414,22.6914828" id="XMLID_111_" fill="#A28027"></path>
            <path d="M45.2885862,20.8387931 C45.2433793,19.9830345 45.149,19.1352069 44.9951379,18.3024483 L41.5998621,14.9071724 C41.7576897,15.7518276 41.8790345,16.606 41.9242414,17.4744483 L45.2885862,20.8387931 Z" id="XMLID_88_" fill="#A28027"></path>
            <path d="M30.3171724,18.1422414 C30.1276207,13.5255862 26.7267931,11.7426897 21.5153103,11.7371379 C21.2845172,11.7371379 21.0576897,11.7442759 20.8348276,11.7593448 C19.2113448,11.8664138 17.6996897,11.6086552 16.6067931,10.8694828 C16.1658276,10.5704828 15.8136897,10.2572069 15.5908276,9.92965517 C15.4901034,9.78055172 15.2101379,9.88365517 15.195069,10.074 C15.1696897,10.4023448 15.1522414,10.787 15.1585862,11.2105172 C15.1807931,12.8149655 15.0213793,12.5762414 14.0442759,14.0902759 C13.5041724,14.9277931 13.0727241,15.8668276 12.7515172,16.8764483 C12.0408966,17.1667241 11.4627241,17.7893103 11.2969655,18.5554483 L11.078069,19.5714138 C10.8797931,20.4898276 11.3175862,21.3543103 12.1019655,21.7389655 C12.2217241,24.0246897 13.0663793,26.0693103 15.0951379,27.5008621 L14.8405517,28.8824483 C14.7747241,29.2393448 14.5169655,29.5185172 14.1783103,29.6017931 L9.44348276,30.7557586 C8.21258621,31.1174138 7.27117241,32.2 6.96027586,33.603 L6.88651724,33.9368966 C7.12841379,34.2208276 7.36475862,34.5095172 7.63282759,34.7767931 C10.3626897,37.5074483 14.1561034,39.0111724 18.3143448,39.0111724 C21.8571379,39.0111724 25.4332414,37.9341379 28.604069,35.9727931 L23.2030345,31.8050345 C22.8493103,31.5314138 22.662931,31.1134483 22.7184483,30.720069 L22.9349655,29.1671724 C25.9662069,28.6334138 27.9664138,26.7418621 29.1322759,24.1388966 C30.4916552,23.9826552 31.5885172,23.0912069 31.7035172,21.8856897 L31.8296207,20.5580345 C31.9255862,19.5547586 31.2895172,18.6442759 30.3171724,18.1422414" id="XMLID_105_" fill="#FFD949"></path>
        </g>
    </g>
</svg>