<?xml version="1.0" encoding="UTF-8"?>
<svg width="46px" height="46px" viewBox="0 0 46 46" version="1.1" xmlns="http://www.w3.org/2000/svg" xmlns:xlink="http://www.w3.org/1999/xlink">
    <!-- Generator: Sketch 63.1 (92452) - https://sketch.com -->
    <!--<title>illustrazione/functional/coins+</title>-->
    <desc>Created with Sketch.</desc>
    <g id="illustrazione/functional/coins+" stroke="none" stroke-width="1" fill="none" fill-rule="evenodd">
        <g id="coins" transform="translate(3.000000, 3.000000)" fill-rule="nonzero">
            <path d="M35.2562712,19.8040678 L35.2562712,20.6433898 C35.2562712,25.3430508 27.3640678,29.1525424 17.6291525,29.1525424 C12.2555932,29.1525424 7.44677966,27.9905085 4.21355932,26.16 C5.30372881,30.3938983 12.7125424,33.8983051 21.6969492,33.8983051 C31.4318644,33.8983051 39.3240678,29.7844068 39.3240678,25.0847458 C39.3240678,23.0183051 37.7945763,21.1972881 35.2562712,19.8040678" id="XMLID_143_" fill="#FFD949"></path>
            <path d="M21.6969492,33.8983051 C11.9620339,33.8983051 4.06983051,29.7844068 4.06983051,25.0847458 L4.06983051,30.8122034 C4.06983051,35.5118644 11.9620339,39.3220339 21.6969492,39.3220339 C31.4318644,39.3220339 39.3240678,35.5118644 39.3240678,30.8122034 L39.3240678,25.0847458 C39.3240678,29.7844068 31.4318644,33.8983051 21.6969492,33.8983051" id="XMLID_142_" fill="#C29820"></path>
            <path d="M6.10372881,34.8128814 C6.50372881,35.1783051 6.95728814,35.5281356 7.45966102,35.860339 L7.45966102,30.239322 C6.95728814,29.8935593 6.50372881,29.5308475 6.10372881,29.1525424 L6.10372881,34.8128814 Z" id="XMLID_141_" fill="#A28027"></path>
            <path d="M35.9342373,30.239322 L35.9342373,35.860339 C36.4366102,35.5288136 36.8901695,35.1783051 37.2901695,34.8128814 L37.2901695,29.1525424 C36.8908475,29.5308475 36.4372881,29.8935593 35.9342373,30.239322" id="XMLID_140_" fill="#A28027"></path>
            <path d="M8.81559322,36.6508475 C9.2440678,36.8725424 9.69694915,37.0820339 10.1715254,37.280678 L10.1715254,31.7261017 C9.69694915,31.5172881 9.2440678,31.2969492 8.81559322,31.0650847 L8.81559322,36.6508475 Z" id="XMLID_139_" fill="#A28027"></path>
            <path d="M33.2223729,37.28 C33.6969492,37.0820339 34.1498305,36.8718644 34.5783051,36.6501695 L34.5783051,31.0644068 C34.1498305,31.2962712 33.6969492,31.5172881 33.2223729,31.7254237 L33.2223729,37.28 Z" id="XMLID_138_" fill="#A28027"></path>
            <path d="M11.5274576,37.7932203 C11.9654237,37.9430508 12.4176271,38.0827119 12.8833898,38.2128814 L12.8833898,32.7118644 C12.4176271,32.5735593 11.9654237,32.4250847 11.5274576,32.2671186 L11.5274576,37.7932203 Z" id="XMLID_137_" fill="#A28027"></path>
            <path d="M30.5105085,38.2128814 C30.9762712,38.0827119 31.4284746,37.9430508 31.8664407,37.7932203 L31.8664407,32.2671186 C31.4284746,32.4250847 30.9762712,32.5735593 30.5105085,32.7118644 L30.5105085,38.2128814 Z" id="XMLID_136_" fill="#A28027"></path>
            <path d="M14.9172881,38.7010169 C15.36,38.7905085 15.8128814,38.8705085 16.2732203,38.9416949 L16.2732203,33.4881356 C15.8128814,33.4115254 15.36,33.3261017 14.9172881,33.2311864 L14.9172881,38.7010169 Z" id="XMLID_135_" fill="#A28027"></path>
            <path d="M27.120678,38.9416949 C27.5810169,38.8698305 28.0338983,38.7898305 28.4766102,38.7010169 L28.4766102,33.2305085 C28.0338983,33.3254237 27.5810169,33.4108475 27.120678,33.4881356 L27.120678,38.9416949 Z" id="XMLID_134_" fill="#A28027"></path>
            <path d="M18.9850847,39.2535593 C19.4311864,39.2867797 19.8840678,39.3098305 20.3410169,39.3261017 L20.3410169,33.900339 C19.8840678,33.8827119 19.4311864,33.8583051 18.9850847,33.8223729 L18.9850847,39.2535593 Z" id="XMLID_133_" fill="#A28027"></path>
            <path d="M23.0528814,39.3267797 C23.5098305,39.3098305 23.9627119,39.2874576 24.4088136,39.2542373 L24.4088136,33.8223729 C23.9627119,33.8583051 23.5098305,33.8827119 23.0528814,33.9010169 L23.0528814,39.3267797 Z" id="XMLID_132_" fill="#A28027"></path>
            <path d="M17.6291525,23.7240678 C7.89423729,23.7240678 0.00203389831,19.6101695 0.00203389831,14.9105085 L0.00203389831,20.6379661 C0.00203389831,25.3376271 7.89423729,29.1477966 17.6291525,29.1477966 C27.3640678,29.1477966 35.2562712,25.3376271 35.2562712,20.6379661 L35.2562712,14.9105085 C35.2562712,19.6101695 27.3640678,23.7240678 17.6291525,23.7240678" id="XMLID_131_" fill="#C29820"></path>
            <path d="M2.0359322,24.6386441 C2.4359322,25.0040678 2.88949153,25.3538983 3.39186441,25.6861017 L3.39186441,20.0650847 C2.88949153,19.719322 2.4359322,19.3566102 2.0359322,18.9789831 L2.0359322,24.6386441 Z" id="XMLID_130_" fill="#A28027"></path>
            <path d="M31.8664407,20.0650847 L31.8664407,25.6861017 C32.3688136,25.3545763 32.8223729,25.0040678 33.2223729,24.6386441 L33.2223729,18.9783051 C32.8230508,19.3566102 32.3694915,19.719322 31.8664407,20.0650847" id="XMLID_129_" fill="#A28027"></path>
            <path d="M4.74779661,26.4766102 C5.17627119,26.6983051 5.62915254,26.9077966 6.10372881,27.1064407 L6.10372881,21.5518644 C5.62915254,21.3430508 5.17627119,21.1227119 4.74779661,20.8908475 L4.74779661,26.4766102 Z" id="XMLID_128_" fill="#A28027"></path>
            <path d="M29.1545763,27.1057627 C29.6291525,26.9077966 30.0820339,26.6983051 30.5105085,26.4759322 L30.5105085,20.8901695 C30.0820339,21.1220339 29.6291525,21.3430508 29.1545763,21.5511864 L29.1545763,27.1057627 Z" id="XMLID_127_" fill="#A28027"></path>
            <path d="M7.45966102,27.6189831 C7.89762712,27.7688136 8.34983051,27.9084746 8.81559322,28.0386441 L8.81559322,22.5376271 C8.34983051,22.399322 7.89762712,22.2508475 7.45966102,22.0928814 L7.45966102,27.6189831 Z" id="XMLID_126_" fill="#A28027"></path>
            <path d="M26.4427119,28.0386441 C26.9084746,27.9084746 27.360678,27.7688136 27.7986441,27.6189831 L27.7986441,22.0928814 C27.360678,22.2508475 26.9084746,22.399322 26.4427119,22.5376271 L26.4427119,28.0386441 Z" id="XMLID_125_" fill="#A28027"></path>
            <path d="M10.8494915,28.5267797 C11.2922034,28.6162712 11.7450847,28.6962712 12.2054237,28.7674576 L12.2054237,23.3138983 C11.7450847,23.2372881 11.2922034,23.1518644 10.8494915,23.0569492 L10.8494915,28.5267797 Z" id="XMLID_124_" fill="#A28027"></path>
            <path d="M23.0528814,28.7681356 C23.5132203,28.6962712 23.9661017,28.6162712 24.4088136,28.5274576 L24.4088136,23.0569492 C23.9661017,23.1518644 23.5132203,23.2372881 23.0528814,23.3145763 L23.0528814,28.7681356 Z" id="XMLID_123_" fill="#A28027"></path>
            <path d="M14.9172881,29.08 C15.3633898,29.1132203 15.8162712,29.1362712 16.2732203,29.1525424 L16.2732203,23.7267797 C15.8162712,23.7091525 15.3633898,23.6847458 14.9172881,23.6488136 L14.9172881,29.08 Z" id="XMLID_122_" fill="#A28027"></path>
            <path d="M18.9850847,29.1525424 C19.4420339,29.1355932 19.8949153,29.1132203 20.3410169,29.08 L20.3410169,23.6481356 C19.8949153,23.6840678 19.4420339,23.7084746 18.9850847,23.7267797 L18.9850847,29.1525424 Z" id="XMLID_121_" fill="#A28027"></path>
            <path d="M34.7932203,22.5776271 C32.9783051,26.3444068 25.9857627,29.1525424 17.6291525,29.1525424 C14.5077966,29.1525424 11.5776271,28.759322 9.03457627,28.0725424 C11.4942373,29.7423729 15.8718644,31.1633898 21.6969492,31.1633898 C30.9728814,31.1633898 36.6122034,27.5627119 36.6122034,25.0847458 C36.6122034,24.2576271 35.9755932,23.380339 34.7932203,22.5776271" id="XMLID_120_" fill="#E1B950"></path>
            <path d="M21.0189831,22.3728814 C11.2840678,22.3728814 3.39186441,18.5627119 3.39186441,13.8630508 L3.39186441,10.0311864 C1.26237288,11.3661017 0.00203389831,13.04 0.00203389831,14.9152542 C0.00203389831,19.6149153 7.89423729,23.7288136 17.6291525,23.7288136 C22.3166102,23.7288136 26.5728814,22.7735593 29.7301695,21.259661 C27.16,21.9667797 24.1884746,22.3728814 21.0189831,22.3728814" id="XMLID_119_" fill="#FFD949"></path>
            <path d="M21.0189831,16.9444068 C11.2840678,16.9444068 3.39186441,12.8305085 3.39186441,8.13084746 L3.39186441,13.8583051 C3.39186441,18.5579661 11.2840678,22.3681356 21.0189831,22.3681356 C30.7538983,22.3681356 38.6461017,18.5579661 38.6461017,13.8583051 L38.6461017,8.13084746 C38.6461017,12.8305085 30.7538983,16.9444068 21.0189831,16.9444068" id="XMLID_118_" fill="#C29820"></path>
            <path d="M5.42576271,17.8589831 C5.82576271,18.2244068 6.27932203,18.5742373 6.78169492,18.9064407 L6.78169492,13.2854237 C6.27932203,12.939661 5.82576271,12.5769492 5.42576271,12.199322 L5.42576271,17.8589831 Z" id="XMLID_117_" fill="#A28027"></path>
            <path d="M35.2562712,13.2854237 L35.2562712,18.9064407 C35.7586441,18.5749153 36.2122034,18.2244068 36.6122034,17.8589831 L36.6122034,12.1986441 C36.2128814,12.5769492 35.759322,12.939661 35.2562712,13.2854237" id="XMLID_116_" fill="#A28027"></path>
            <path d="M8.13762712,19.6969492 C8.56610169,19.9186441 9.01898305,20.1281356 9.49355932,20.3267797 L9.49355932,14.7722034 C9.01898305,14.5633898 8.56610169,14.3430508 8.13762712,14.1111864 L8.13762712,19.6969492 Z" id="XMLID_115_" fill="#A28027"></path>
            <path d="M32.5444068,20.3261017 C33.0189831,20.1281356 33.4718644,19.9186441 33.900339,19.6962712 L33.900339,14.1105085 C33.4718644,14.3423729 33.0189831,14.5633898 32.5444068,14.7715254 L32.5444068,20.3261017 Z" id="XMLID_114_" fill="#A28027"></path>
            <path d="M10.8494915,20.839322 C11.2874576,20.9891525 11.739661,21.1288136 12.2054237,21.2589831 L12.2054237,15.7579661 C11.739661,15.619661 11.2874576,15.4711864 10.8494915,15.3132203 L10.8494915,20.839322 Z" id="XMLID_113_" fill="#A28027"></path>
            <path d="M29.8325424,21.2589831 C30.2983051,21.1288136 30.7505085,20.9891525 31.1884746,20.839322 L31.1884746,15.3132203 C30.7505085,15.4711864 30.2983051,15.619661 29.8325424,15.7579661 L29.8325424,21.2589831 Z" id="XMLID_112_" fill="#A28027"></path>
            <path d="M14.239322,21.7471186 C14.6820339,21.8366102 15.1349153,21.9166102 15.5952542,21.9877966 L15.5952542,16.5342373 C15.1349153,16.4576271 14.6820339,16.3722034 14.239322,16.2772881 L14.239322,21.7471186 Z" id="XMLID_111_" fill="#A28027"></path>
            <path d="M26.4427119,21.9884746 C26.9030508,21.9166102 27.3559322,21.8366102 27.7986441,21.7477966 L27.7986441,16.2772881 C27.3559322,16.3722034 26.9030508,16.4576271 26.4427119,16.5349153 L26.4427119,21.9884746 Z" id="XMLID_110_" fill="#A28027"></path>
            <path d="M18.3071186,22.300339 C18.7532203,22.3335593 19.2061017,22.3566102 19.6630508,22.3728814 L19.6630508,16.9471186 C19.2061017,16.9294915 18.7532203,16.9050847 18.3071186,16.8691525 L18.3071186,22.300339 Z" id="XMLID_109_" fill="#A28027"></path>
            <path d="M22.3749153,22.3728814 C22.8318644,22.3559322 23.2847458,22.3335593 23.7308475,22.300339 L23.7308475,16.8684746 C23.2847458,16.9044068 22.8318644,16.9288136 22.3749153,16.9471186 L22.3749153,22.3728814 Z" id="XMLID_108_" fill="#A28027"></path>
            <path d="M38.6461017,8.13559322 C38.6461017,12.8352542 30.7538983,16.9491525 21.0189831,16.9491525 C11.2840678,16.9491525 3.39186441,12.8352542 3.39186441,8.13559322 C3.39186441,3.4359322 11.2840678,0 21.0189831,0 C30.7538983,0 38.6461017,3.4359322 38.6461017,8.13559322" id="XMLID_107_" fill="#FFD949"></path>
            <path d="M21.0189831,14.2142373 C11.7430508,14.2142373 6.10372881,10.6142373 6.10372881,8.13559322 C6.10372881,5.65762712 11.7430508,2.03389831 21.0189831,2.03389831 C30.2949153,2.03389831 35.9342373,5.65762712 35.9342373,8.13559322 C35.9342373,10.6142373 30.2949153,14.2142373 21.0189831,14.2142373" id="XMLID_106_" fill="#E1B950"></path>
            <path d="M26.7089766,9.31082032 C27.3216907,9.19285422 27.6810998,8.84980338 27.5488432,8.45861694 L27.4068729,8.04098982 C27.3030104,7.73387117 26.8987685,7.47759999 26.4033667,7.35014236 C25.7293812,6.04370168 24.0107929,5.57048134 21.4583156,5.57048134 C21.3372672,5.57048134 21.2192076,5.57319321 21.1026425,5.577261 C20.2313929,5.60980338 19.362385,5.53387117 18.6846634,5.30878643 C18.4081949,5.217261 18.183284,5.12166778 18.0345887,5.02200677 C17.9673396,4.977261 17.8044473,5.00573558 17.8044473,5.06268473 C17.8044473,5.16166778 17.8126666,5.27895592 17.8365774,5.40912541 C17.9292318,5.91556609 17.8186443,5.83963388 17.2672016,6.34471863 C16.9473948,6.63895592 16.6925954,6.97793897 16.5080339,7.35217626 C16.015621,7.48031185 15.6136208,7.73590507 15.5097583,8.04166778 L15.3677879,8.4592949 C15.2355313,8.85048134 15.5949405,9.19353219 16.2076546,9.31149829 C16.3825023,10.3121763 17.1319562,11.1908203 18.7661096,11.6748881 L18.6764441,12.377939 C18.6525333,12.5657356 18.4739495,12.7392949 18.2139197,12.8247186 L14.9179661,13.9040407 C16.842785,14.2701424 19.0366004,14.4911593 21.4583156,14.4911593 C23.8464062,14.4911593 26.0125747,14.2762441 27.9179661,13.9203119 L24.6937449,12.8267525 C24.4389455,12.7399729 24.2640978,12.5677695 24.2409343,12.3833627 L24.1505216,11.6748881 C25.7846749,11.1908203 26.5341289,10.3114983 26.7089766,9.31082032" id="XMLID_105_" fill="#FFD949"></path>
        </g>
    </g>
</svg>