<?xml version="1.0" encoding="UTF-8"?>
<svg width="46px" height="46px" viewBox="0 0 46 46" version="1.1" xmlns="http://www.w3.org/2000/svg" xmlns:xlink="http://www.w3.org/1999/xlink">
    <!-- Generator: Sketch 63.1 (92452) - https://sketch.com -->
    <!--<title>illustrazione/functional/conditiones</title>-->
    <desc>Created with Sketch.</desc>
    <g id="illustrazione/functional/conditiones" stroke="none" stroke-width="1" fill="none" fill-rule="evenodd">
        <g id="Group" transform="translate(5.000000, 1.000000)">
            <g id="fogli">
                <rect id="Rectangle-Copy" fill="#92A6BC" fill-rule="nonzero" x="0" y="5" width="28" height="38" rx="2"></rect>
                <rect id="Rectangle" fill="#E9EDF2" fill-rule="nonzero" x="2" y="3" width="28" height="38" rx="1.86666667"></rect>
                <rect id="Rectangle" fill="#76D37E" fill-rule="nonzero" x="6" y="35" width="20" height="1" rx="0.5"></rect>
                <rect id="Rectangle-Copy-2" fill="#76D37E" fill-rule="nonzero" x="6" y="37" width="10" height="1" rx="0.5"></rect>
                <path d="M8,0 C6.89721776,0 6,1.00177726 6,2.2331347 L6,3.03131861 L6,3.03131861 L6.81449973,3.03131861 L6.81449973,3.03131861 L6.81449973,2.2331347 C6.81449973,1.50323342 7.34628143,0.909419478 8,0.909419478 C8.65371857,0.909419478 9.18550027,1.50323342 9.18550027,2.2331347 L9.18550027,6.40942695 C9.18550027,6.78501128 8.91182451,7.09064026 8.57544141,7.09064026 C8.23905832,7.09064026 7.96538256,6.78507102 7.96538256,6.40942695 L7.96538256,4.62888122 C7.96538256,4.37773496 7.78303906,4.17414161 7.55815944,4.17414161 C7.33322632,4.17414161 7.15088283,4.37767522 7.15088283,4.62888122 L7.15088283,6.40942695 C7.15088283,7.28646743 7.78994114,8 8.57544141,8 C9.36094168,8 10,7.28640769 10,6.40942695 L10,2.2331347 C10,1.00177726 9.10278224,0 8,0 Z" id="Path" fill="#22608F"></path>
                <path d="M25.3281939,18.5 L6.67171786,18.5 C6.30068884,18.5 6,18.1642688 6,17.75 C6,17.3357312 6.3007771,17 6.67171786,17 L25.3281939,17 C25.6992229,17 26,17.3357312 26,17.75 C26,18.1642688 25.6992229,18.5 25.3281939,18.5 Z" id="Path" fill="#D0D9DF" fill-rule="nonzero"></path>
                <path d="M25.3281939,22.5 L6.67171786,22.5 C6.30068884,22.5 6,22.1642909 6,21.7500493 C6,21.3358077 6.3007771,21 6.67171786,21 L25.3281939,21 C25.6992229,21 26,21.3357091 26,21.7500493 C26,22.1643894 25.6992229,22.5 25.3281939,22.5 Z" id="Path" fill="#D0D9DF" fill-rule="nonzero"></path>
                <path d="M15.6640969,26.5 L6.33585893,26.5 C6.15034442,26.5 6,26.1642909 6,25.7500493 C6,25.3358077 6.15038855,25 6.33585893,25 L15.6640969,25 C15.8496115,25 16,25.3357091 16,25.7500493 C16,26.1643894 15.8496115,26.5 15.6640969,26.5 Z" id="Path-Copy" fill="#D0D9DF" fill-rule="nonzero"></path>
            </g>
            <g id="mano" transform="translate(27.500000, 25.000000) rotate(20.000000) translate(-27.500000, -25.000000) translate(19.000000, 13.000000)">
                <path d="M14.6267943,18.3447617 C13.9558053,18.3764766 13.3794891,17.9505273 13.1840239,17.352707 C13.1612557,17.2830781 13.064603,17.2841563 13.0418347,17.3537852 C12.8529391,17.9301328 12.3099203,18.3463789 11.669529,18.3463789 C11.0287777,18.3463789 10.485579,17.9296836 10.2969533,17.3528867 C10.274095,17.2829883 10.1778023,17.2829883 10.1549441,17.3528867 C9.96631842,17.9296836 9.42311969,18.3463789 8.78236838,18.3463789 C7.98511896,18.3463789 7.33878807,17.7011211 7.33878807,16.9051953 L7.33878807,21.7740977 C7.33878807,22.5500781 6.74141346,23.2177969 5.96504245,23.2542734 C5.13602544,23.2932656 4.45171744,22.6338125 4.45171744,21.8147969 L4.45171744,13.0021133 L2.55862128,15.3567383 C2.01425264,16.0044219 1.07877372,16.0452109 0.479959223,15.4473008 L0.479959223,15.4473008 C-0.11894527,14.8493906 -0.163491885,13.830293 0.380876752,13.1826094 L4.45162744,8.23698047 L4.45162744,5.72252344 L16,5.72252344 L16,12.148418 L16,14.328207 L16,16.8645859 C16.0001799,17.6208906 15.3834568,18.3090039 14.6267943,18.3447617 Z" id="Path" fill="#FFCFAB" fill-rule="nonzero"></path>
                <rect id="Rectangle" fill="#F2BA95" x="4.44225098" y="5.72261328" width="11.5744118" height="2.19973437"></rect>
                <path d="M14.0720353,5.72261328 L14.0720353,12.1485078 L14.0720353,14.3282969 L14.0720353,16.8646758 C14.0720353,17.2836172 13.881902,17.6809961 13.5838941,17.958793 C13.8580902,18.2135898 14.2313216,18.3640781 14.6401804,18.3448516 C15.3986392,18.3090938 16.0166627,17.6209805 16.0166627,16.8646758 L16.0166627,14.3282969 L16.0166627,12.1485078 L16.0166627,5.72261328 L14.0720353,5.72261328 Z" id="Path" fill="#F2BA95"></path>
                <path d="M16.5573892,0 L3.44270263,0 C3.19825658,0 3,0.197489438 3,0.441193966 L3,5.34420329 C3,5.70641978 3.29458412,6 3.65803921,6 L16.3419608,6 C16.7054159,6 17,5.70641978 17,5.34420329 L17,0.441193966 C17,0.197489438 16.8018352,0 16.5573892,0 Z" id="Path" fill="#3D9AE2"></path>
                <path d="M16.5411921,0 L14.2231704,0 C14.4766044,0 14.6819782,0.197489438 14.6819782,0.441193966 L14.6819782,5.34420329 C14.6819782,5.70641978 14.3766773,6 14,6 L16.3180218,6 C16.6946991,6 17,5.70641978 17,5.34420329 L17,0.441193966 C16.9999048,0.197489438 16.794531,0 16.5411921,0 Z" id="Path" fill="#1B7BC7"></path>
                <circle id="Oval" fill="#E9EDF2" fill-rule="nonzero" cx="6" cy="3" r="1"></circle>
            </g>
        </g>
        <rect id="Rectangle" fill="#D0D9DF" fill-rule="nonzero" x="15" y="12" width="12" height="2" rx="1"></rect>
    </g>
</svg>