<?xml version="1.0" encoding="UTF-8"?>
<svg width="46px" height="46px" viewBox="0 0 46 46" version="1.1" xmlns="http://www.w3.org/2000/svg" xmlns:xlink="http://www.w3.org/1999/xlink">
    <!-- Generator: Sketch 63.1 (92452) - https://sketch.com -->
    <!--<title>illustrazione/functional/contratto</title>-->
    <desc>Created with Sketch.</desc>
    <g id="illustrazione/functional/contratto" stroke="none" stroke-width="1" fill="none" fill-rule="evenodd">
        <g id="Group" transform="translate(5.000000, 1.000000)">
            <g id="fogli">
                <rect id="Rectangle-Copy" fill="#92A6BC" fill-rule="nonzero" x="0" y="5" width="28" height="38" rx="2"></rect>
                <rect id="Rectangle" fill="#E9EDF2" fill-rule="nonzero" x="2" y="3" width="28" height="38" rx="1.86666667"></rect>
                <rect id="Rectangle" fill="#D0D9DF" fill-rule="nonzero" x="21" y="33" width="6" height="1" rx="0.5"></rect>
                <rect id="Rectangle" fill="#D0D9DF" fill-rule="nonzero" x="21" y="35" width="6" height="1" rx="0.5"></rect>
                <path d="M8,0 C6.89721776,0 6,1.00177726 6,2.2331347 L6,3.03131861 L6,3.03131861 L6.81449973,3.03131861 L6.81449973,3.03131861 L6.81449973,2.2331347 C6.81449973,1.50323342 7.34628143,0.909419478 8,0.909419478 C8.65371857,0.909419478 9.18550027,1.50323342 9.18550027,2.2331347 L9.18550027,6.40942695 C9.18550027,6.78501128 8.91182451,7.09064026 8.57544141,7.09064026 C8.23905832,7.09064026 7.96538256,6.78507102 7.96538256,6.40942695 L7.96538256,4.62888122 C7.96538256,4.37773496 7.78303906,4.17414161 7.55815944,4.17414161 C7.33322632,4.17414161 7.15088283,4.37767522 7.15088283,4.62888122 L7.15088283,6.40942695 C7.15088283,7.28646743 7.78994114,8 8.57544141,8 C9.36094168,8 10,7.28640769 10,6.40942695 L10,2.2331347 C10,1.00177726 9.10278224,0 8,0 Z" id="Path" fill="#22608F"></path>
                <path d="M25.3281939,13.5 L6.67171786,13.5 C6.30068884,13.5 6,13.1642688 6,12.75 C6,12.3357312 6.3007771,12 6.67171786,12 L25.3281939,12 C25.6992229,12 26,12.3357312 26,12.75 C26,13.1642688 25.6992229,13.5 25.3281939,13.5 Z" id="Path" fill="#D0D9DF" fill-rule="nonzero"></path>
                <path d="M25.3281939,18.5 L6.67171786,18.5 C6.30068884,18.5 6,18.1642909 6,17.7500493 C6,17.3358077 6.3007771,17 6.67171786,17 L25.3281939,17 C25.6992229,17 26,17.3357091 26,17.7500493 C26,18.1643894 25.6992229,18.5 25.3281939,18.5 Z" id="Path" fill="#D0D9DF" fill-rule="nonzero"></path>
                <path d="M25.3281939,23.5 L6.67171786,23.5 C6.30068884,23.5 6,23.1642909 6,22.7499507 C6,22.3356106 6.3007771,22 6.67171786,22 L25.3281939,22 C25.6992229,22 26,22.3357091 26,22.7499507 C26,23.1641923 25.6992229,23.5 25.3281939,23.5 Z" id="Path" fill="#D0D9DF" fill-rule="nonzero"></path>
                <path d="M15.3281939,28.5 L6.67171786,28.5 C6.30068884,28.5 6,28.1642909 6,27.7499507 C6,27.3356106 6.3007771,27 6.67171786,27 L15.3281939,27 C15.6992229,27 16,27.3357091 16,27.7499507 C16,28.1641923 15.6992229,28.5 15.3281939,28.5 Z" id="Path-Copy" fill="#D0D9DF" fill-rule="nonzero"></path>
            </g>
        </g>
        <g id="Group-5" transform="translate(19.000000, 10.916185)">
            <path d="M20.9358779,3.38927609 L20.9358779,3.38927609 C20.4169506,2.86604548 20.4169506,2.0177234 20.9358779,1.49449279 L22.0288837,0.392422958 C22.547811,-0.130807653 23.389156,-0.130807653 23.9080832,0.392422958 L23.9080832,0.392422958 C24.4270105,0.915653569 24.4270105,1.76397565 23.9080832,2.28720626 L22.8150774,3.38927609 C22.2961502,3.9125067 21.4548105,3.9125067 20.9358779,3.38927609 Z" id="Path" fill="#92A6BC" fill-rule="nonzero"></path>
            <polygon id="Path" fill="#FAE7B7" fill-rule="nonzero" points="4.84761918 22.7431488 1.74118224 19.6109509 0.428998928 22.5511511 1.93160082 24.0662137"></polygon>
            <path d="M0.576271065,22.6996446 L0.0613471843,23.8534271 C-0.141993869,24.3090421 0.18816769,24.641947 0.640035505,24.4369143 L1.78432868,23.9177203 L0.576271065,22.6996446 Z" id="Path" fill="#22608F"></path>
            <path d="M4.84761918,22.7431488 L1.74118224,19.6109563 L19.6958361,1.50740879 C20.1371159,1.0624696 20.8525688,1.0624696 21.2938432,1.50740879 L22.8022677,3.02834231 C23.2435474,3.4732815 23.2435474,4.19466748 22.8022677,4.63960126 L4.84761918,22.7431488 Z" id="Path" fill="#EE5019" fill-rule="nonzero"></path>
        </g>
    </g>
</svg>