<?xml version="1.0" encoding="UTF-8"?>
<svg width="46px" height="46px" viewBox="0 0 46 46" version="1.1" xmlns="http://www.w3.org/2000/svg" xmlns:xlink="http://www.w3.org/1999/xlink">
    <!-- Generator: Sketch 63.1 (92452) - https://sketch.com -->
    <!--<title>illustrazione/functional/cucina</title>-->
    <desc>Created with Sketch.</desc>
    <g id="illustrazione/functional/cucina" stroke="none" stroke-width="1" fill="none" fill-rule="evenodd">
        <g id="Group-13" transform="translate(6.000000, 0.000000)" fill-rule="nonzero">
            <path d="M5,0 L33,0 C33.5522847,-1.01453063e-16 34,0.44771525 34,1 L34,37 C34,37.5522847 33.5522847,38 33,38 L5,38 L5,38 L5,0 Z" id="Rectangle" fill="#CF390A"></path>
            <g id="Group-12" transform="translate(10.000000, 4.000000)">
                <path d="M9.5,0 C11.1215769,0 12.54,0.837692308 13.3,2.07692308 L15.3461538,2.07692308 C17.3630769,2.07692308 19,3.62769231 19,5.53846154 C19,7.44923077 17.3630769,9 15.3461538,9 L15,9 L15,14 L4,14 L4,9 L3.65384615,9 C1.63692308,9 0,7.44923077 0,5.53846154 C0,3.62769231 1.63692308,2.07692308 3.65384615,2.07692308 L5.70730769,2.07692308 C6.46,0.837692308 7.87842308,0 9.5,0 Z" id="Combined-Shape" fill="#E9EDF2"></path>
                <path d="M4,14 L15,14 L15,15 C15,15.5522847 14.5522847,16 14,16 L5,16 C4.44771525,16 4,15.5522847 4,15 L4,14 L4,14 Z" id="Rectangle-Copy-18" fill="#D0D9DF"></path>
            </g>
            <path d="M5,0 L5,0 L5,0 L5,46 C2.23857625,46 3.38176876e-16,43.7614237 0,41 L0,5 C-3.38176876e-16,2.23857625 2.23857625,5.07265313e-16 5,0 Z" id="Rectangle-Copy-15" fill="#636363"></path>
            <path d="M5,36 L33,36 C33.5522847,36 34,36.4477153 34,37 L34,45 C34,45.5522847 33.5522847,46 33,46 L5,46 C2.23857625,46 2.11453371e-15,43.7614237 0,41 C-3.38176876e-16,38.2385763 2.23857625,36 5,36 Z" id="Rectangle-Copy-14" fill="#A32903"></path>
            <path d="M5,36 L5,36 L5,36 L5,46 C2.23857625,46 3.38176876e-16,43.7614237 0,41 C-3.38176876e-16,38.2385763 2.23857625,36 5,36 Z" id="Rectangle-Copy-14" fill="#636363"></path>
            <path d="M5,38 L34,38 L34,38 L34,44 L5,44 C3.34314575,44 2,42.6568542 2,41 C2,39.3431458 3.34314575,38 5,38 Z" id="Rectangle-Copy-14" fill="#E9EDF2"></path>
            <path d="M5,40 L34,40 L34,40 L34,42 L5,42 C4.44771525,42 4,41.5522847 4,41 C4,40.4477153 4.44771525,40 5,40 Z" id="Rectangle-Copy-14" fill="#D0D9DF" transform="translate(19.000000, 41.000000) scale(1, -1) translate(-19.000000, -41.000000) "></path>
            <rect id="Rectangle" fill="#A32903" x="12" y="23" width="15" height="2" rx="1"></rect>
            <rect id="Rectangle-Copy-16" fill="#A32903" x="12" y="26" width="15" height="2" rx="1"></rect>
            <rect id="Rectangle-Copy-17" fill="#A32903" x="14" y="29" width="11" height="2" rx="1"></rect>
        </g>
    </g>
</svg>