<?xml version="1.0" encoding="UTF-8"?>
<svg width="46px" height="46px" viewBox="0 0 46 46" version="1.1" xmlns="http://www.w3.org/2000/svg" xmlns:xlink="http://www.w3.org/1999/xlink">
    <!-- Generator: Sketch 63.1 (92452) - https://sketch.com -->
    <!--<title>illustrazione/functional/custom project</title>-->
    <desc>Created with Sketch.</desc>
    <g id="illustrazione/functional/custom-project" stroke="none" stroke-width="1" fill="none" fill-rule="evenodd">
        <g id="002-target" transform="translate(3.000000, 1.000000)" fill-rule="nonzero">
            <g id="Group" transform="translate(5.379610, 24.015936)" fill="#FFD15C">
                <polygon id="Path" points="13.5563557 0.0708207171 7.66316703 16.3729084 6.39392625 19.9447092 0.047462039 19.9447092 2.31401302 13.5337689 7.11921909 0.0708207171"></polygon>
                <polygon id="Path" points="29.241128 19.9447092 22.8946638 19.9447092 21.625423 16.3729084 15.7322343 0.0708207171 22.1693709 0.0708207171 26.974577 13.5337689"></polygon>
            </g>
            <g id="Group" transform="translate(7.635575, 24.015936)" fill="#F8B64C">
                <path d="M4.8632538,0.0708207171 L11.3003905,0.0708207171 L5.49787419,16.3729084 C3.59392625,15.7318406 1.78065076,14.7243984 0.0580477223,13.5337689 L4.8632538,0.0708207171 Z" id="Path"></path>
                <path d="M24.7186117,13.5337689 C23.0866811,14.7243984 21.2734056,15.640247 19.2787852,16.3729084 L13.4763557,0.0708207171 L19.9134924,0.0708207171 L24.7186117,13.5337689 Z" id="Path"></path>
            </g>
            <ellipse id="Oval" fill="#FF7058" cx="20.0239479" cy="20.1486693" rx="19.9460304" ry="20.1486693"></ellipse>
            <ellipse id="Oval" fill="#FFFFFF" cx="20.0239479" cy="20.1486693" rx="15.6847722" ry="15.8441195"></ellipse>
            <ellipse id="Oval" fill="#FF7058" cx="20.0239479" cy="20.1486693" rx="11.5142733" ry="11.631251"></ellipse>
            <ellipse id="Oval" fill="#FFFFFF" cx="20.0239479" cy="20.1486693" rx="7.3437744" ry="7.41838247"></ellipse>
            <ellipse id="Oval" fill="#FF7058" cx="20.0239479" cy="20.1486693" rx="3.17318872" ry="3.20542629"></ellipse>
            <path d="M35.0740998,7.5099761 L20.5678959,20.6065498 L20.4772234,20.6065498 L19.5705857,19.6907012 L19.5705857,19.5991076 L34.0767896,6.41094024 L34.167462,6.41094024 L34.9834273,7.32678884 C35.0740998,7.41838247 35.0740998,7.41838247 35.0740998,7.5099761 Z" id="Path" fill="#40596B"></path>
            <g id="Group" transform="translate(27.071584, 4.557769)" fill="#334A5E">
                <polygon id="Path" points="6.00789588 3.86805578 0.749414317 8.63039841 0.0241214751 4.78390438 5.28260304 0.0214741036"></polygon>
                <polygon id="Path" points="4.46663774 9.72943426 9.72511931 5.05859761 6.00789588 3.86805578 0.749414317 8.63039841"></polygon>
            </g>
        </g>
    </g>
</svg>