<?xml version="1.0" encoding="UTF-8"?>
<svg width="46px" height="46px" viewBox="0 0 46 46" version="1.1" xmlns="http://www.w3.org/2000/svg" xmlns:xlink="http://www.w3.org/1999/xlink">
    <!-- Generator: Sketch 63.1 (92452) - https://sketch.com -->
    <!--<title>illustrazione/functional/custom project_life goals</title>-->
    <desc>Created with Sketch.</desc>
    <g id="illustrazione/functional/custom-project_life-goals" stroke="none" stroke-width="1" fill="none" fill-rule="evenodd">
        <g id="mountain" fill-rule="nonzero">
            <path d="M45.7253899,45.3531952 C45.4830044,45.757492 45.0528752,46 44.5684545,46 L35.9749787,46 L31.4288499,43.2506409 L31.0253411,42.4960938 L24.5961714,30.6009216 C24.3541362,30.1962738 24.3541362,29.711258 24.5961714,29.3069611 L29.8417854,19.6578827 C30.0838207,19.2265625 30.5412707,19.0107269 31.0253411,19.0107269 C31.5094116,19.0107269 31.9668616,19.2265625 32.2088968,19.6578827 L45.7520102,44.0055389 C45.9674251,44.4365082 45.9674251,44.921875 45.7253899,45.3531952 L45.7253899,45.3531952 Z" id="Path" fill="#597799"></path>
            <path d="M45.7253899,45.3531952 C45.4830044,45.757492 45.0528752,46 44.5684545,46 L35.9749787,46 L31.4288499,43.2506409 L31.0253411,42.4960938 L31.0253411,19.0107269 C31.5094116,19.0107269 31.9668616,19.2265625 32.2088968,19.6578827 L45.7520102,44.0055389 C45.9674251,44.4365082 45.9674251,44.921875 45.7253899,45.3531952 Z" id="Path" fill="#3D4E62"></path>
            <path d="M36.4054581,13.5664062 L25.6452242,13.5664062 C24.9016051,13.5664062 24.3001949,12.9638214 24.3001949,12.21875 L24.3001949,4.1328125 C24.3001949,3.38809209 24.9016051,2.78515625 25.6452242,2.78515625 L36.4054581,2.78515625 C36.9017879,2.78515625 37.3578369,3.05889893 37.5914656,3.49723814 C37.8254447,3.93557744 37.7991746,4.46726988 37.5245645,4.88034053 L35.3322368,8.17578125 L37.5245645,11.471222 C37.7991746,11.8846436 37.8250944,12.4163361 37.5914656,12.8543244 C37.3578369,13.2926636 36.9017879,13.5664062 36.4054581,13.5664062 L36.4054581,13.5664062 Z" id="Path" fill="#CF390A"></path>
            <path d="M35.9749787,46 L1.34187685,46 C0.857806386,46 0.427326998,45.757492 0.185291766,45.3531952 C-0.0570937115,44.921875 -0.0570937115,44.4365082 0.15832115,44.0055389 L9.69331745,26.5579528 L12.436967,25.15625 L14.7235167,26.6656952 L16.6335283,24.7519531 C16.8755635,24.4824219 17.2254812,24.3476562 17.5750487,24.3476562 C17.9246163,24.3476562 18.274534,24.4824219 18.5165692,24.7519531 L20.4265808,26.6656952 L22.7131305,25.15625 L25.45678,26.5579528 L35.9749787,46 Z" id="Path" fill="#D0D9DF"></path>
            <path d="M18.920078,7.3671875 L18.920078,14.9140625 C18.920078,15.6686097 18.3284753,16.2617188 17.5750487,16.2617188 C16.8216222,16.2617188 16.2300195,15.6686097 16.2300195,14.9140625 L16.2300195,10.8710938 L18.920078,7.3671875 Z" id="Path" fill="#D0D9DF"></path>
            <path d="M17.5750487,16.2617188 L17.5750487,9.11914062 L18.920078,7.3671875 L18.920078,14.9140625 C18.920078,15.6686097 18.3284753,16.2617188 17.5750487,16.2617188 Z" id="Path" fill="#92A6BC"></path>
            <path d="M35.9749787,46 L17.5750487,46 L17.5750487,24.3476562 C17.9246163,24.3476562 18.274534,24.4824219 18.5165692,24.7519531 L20.4265808,26.6656952 L22.7131305,25.15625 L25.45678,26.5579528 L35.9749787,46 Z" id="Path" fill="#92A6BC"></path>
            <path d="M18.7586044,14.2672577 C18.5165692,13.8359375 18.0591192,13.6201019 17.5750487,13.6201019 C17.0909783,13.6201019 16.6335283,13.8359375 16.391493,14.2672577 L9.69331745,26.5579528 L14.1315637,29.5224457 C14.6695754,29.8730469 15.3960313,29.7919769 15.8265107,29.3339844 L17.5750487,27.6090545 L19.3235867,29.3339844 C19.7540661,29.7919769 20.4805221,29.8730469 21.0185338,29.5224457 L25.45678,26.5579528 L18.7586044,14.2672577 Z" id="Path" fill="#F1F1F1"></path>
            <path d="M18.7586044,14.2672577 L25.45678,26.5579528 L21.0185338,29.5224457 C20.4805221,29.8730469 19.7540661,29.7919769 19.3235867,29.3339844 L17.5750487,27.6090545 L17.5750487,13.6201019 C18.0591192,13.6201019 18.5165692,13.8359375 18.7586044,14.2672577 Z" id="Path" fill="#D0D9DF"></path>
            <path d="M25.6452242,0 L17.5750487,0 C16.8216222,0 16.2300195,0.592758156 16.2300195,1.34765625 L16.2300195,10.8710938 L25.6452242,10.8710938 C26.3986507,10.8710938 26.9902534,10.2779847 26.9902534,9.5234375 L26.9902534,1.34765625 C26.9902534,0.592758156 26.3986507,0 25.6452242,0 Z" id="Path" fill="#EE5019"></path>
        </g>
    </g>
</svg>