<?xml version="1.0" encoding="UTF-8"?>
<svg width="46px" height="46px" viewBox="0 0 46 46" version="1.1" xmlns="http://www.w3.org/2000/svg" xmlns:xlink="http://www.w3.org/1999/xlink">
    <!-- Generator: Sketch 63.1 (92452) - https://sketch.com -->
    <!--<title>illustrazione/functional/enologia</title>-->
    <desc>Created with Sketch.</desc>
    <g id="illustrazione/functional/enologia" stroke="none" stroke-width="1" fill="none" fill-rule="evenodd">
        <g id="grape" transform="translate(1.000000, 0.000000)">
            <path d="M18.7995506,6.69707416 C18.2193092,1.28532545 14.8097561,0.318044839 14.8097561,0.318044839 L12.2104558,2.29830007 C12.2104558,2.29830007 16.4378773,3.83421729 17.0409658,8.79564425" id="Path" fill="#C6805A" fill-rule="nonzero"></path>
            <g id="Group" transform="translate(5.258438, 5.258438)">
                <circle id="Oval" fill="#93349E" cx="6.38165854" cy="6.3970712" r="6.33514856"></circle>
                <path d="M8.01821138,12.5183464 C7.4957221,12.6573323 6.94730328,12.7318571 6.38129589,12.7318571 C2.88234935,12.7318571 0.0464193151,9.89601774 0.0464193151,6.39698054 C0.0464193151,2.898034 2.88225868,0.061288002 6.38129589,0.061288002 C6.94730328,0.061288002 7.4957221,0.135812762 8.01821138,0.274798719 C5.31211037,0.996564671 3.31943434,3.46395073 3.31943434,6.39698054 C3.31943434,9.33001035 5.31211037,11.7966711 8.01821138,12.5183464 Z" id="Path" fill="#601269"></path>
                <circle id="Oval" fill="#654B87" fill-rule="nonzero" cx="17.1836689" cy="6.3970712" r="6.33514856"></circle>
                <path d="M18.8202217,12.5183464 C18.2977324,12.6573323 17.7493136,12.7318571 17.1833062,12.7318571 C13.6843597,12.7318571 10.8484297,9.89601774 10.8484297,6.39698054 C10.8484297,2.898034 13.684269,0.061288002 17.1833062,0.061288002 C17.7493136,0.061288002 18.2977324,0.135812762 18.8202217,0.274798719 C16.1141207,0.996564671 14.1214447,3.46395073 14.1214447,6.39698054 C14.1214447,9.33001035 16.1141207,11.7966711 18.8202217,12.5183464 Z" id="Path" fill="#601269"></path>
            </g>
            <g id="Group" transform="translate(10.698202, 32.094605)">
                <circle id="Oval" fill="#93349E" cx="6.34312688" cy="6.40368958" r="6.33514856"></circle>
                <path d="M3.28035871,6.40341759 C3.28035871,9.33635674 5.2731254,11.8030175 7.97913575,12.5247834 C7.97578123,12.5255994 7.97242671,12.5264154 7.96907219,12.528138 C7.44993742,12.666308 6.90487312,12.7391101 6.34312688,12.7391101 C2.84418034,12.7391101 0.00743434343,9.90245479 0.00743434343,6.40341759 C0.00743434343,2.90528702 2.84408968,0.06854102 6.34312688,0.06854102 C9.84125745,0.06854102 12.6780034,2.90519635 12.6780034,6.40341759 C9.35648386,1.69539295 3.28035871,4.57221187 3.28035871,6.40341759 Z" id="Path" fill="#601269"></path>
            </g>
            <g id="Group" transform="translate(5.349101, 23.028332)">
                <path d="M12.7173511,6.35808623 C12.7173511,9.29528652 10.718782,11.7652111 8.00851047,12.4828066 C7.48937571,12.6209766 6.94431141,12.6937788 6.38256516,12.6937788 C2.88361863,12.6937788 0.0468726287,9.85712343 0.0468726287,6.35808623 C0.0468726287,2.85995565 2.88352796,0.0232096576 6.38256516,0.0232096576 C9.88069574,0.0232096576 12.7173511,2.85995565 12.7173511,6.35808623 Z" id="Path" fill="#93349E"></path>
                <path d="M3.31979699,6.35808623 C3.31979699,9.29102538 5.31256369,11.7576861 8.01857403,12.4794521 C8.01521951,12.480268 8.01186499,12.481084 8.00851047,12.4828066 C7.48937571,12.6209766 6.94431141,12.6937788 6.38256516,12.6937788 C2.88361863,12.6937788 0.0468726287,9.85712343 0.0468726287,6.35808623 C0.0468726287,2.85995565 2.88352796,0.0232096576 6.38256516,0.0232096576 C9.88069574,0.0232096576 12.7174417,2.85986499 12.7174417,6.35808623 C9.39592215,1.65006159 3.31979699,4.52697118 3.31979699,6.35808623 Z" id="Path" fill="#601269"></path>
            </g>
            <g id="Group" transform="translate(15.956640, 23.028332)">
                <circle id="Oval" fill="#93349E" cx="6.39471397" cy="6.35844888" r="6.33514856"></circle>
                <path d="M3.3319458,6.35808623 C3.3319458,9.29102538 5.32471249,11.7576861 8.03072284,12.4794521 C8.02736832,12.480268 8.0240138,12.481084 8.02065928,12.4828066 C7.50152451,12.6209766 6.95646021,12.6937788 6.39471397,12.6937788 C2.89576743,12.6937788 0.0590214339,9.85712343 0.0590214339,6.35808623 C0.0590214339,2.85995565 2.89567677,0.0232096576 6.39471397,0.0232096576 C9.89284454,0.0232096576 12.7295905,2.85986499 12.7295905,6.35808623 C9.40807095,1.65015225 3.3319458,4.52697118 3.3319458,6.35808623 Z" id="Path" fill="#601269"></path>
            </g>
            <g id="Group" transform="translate(0.000000, 13.871397)">
                <circle id="Oval" fill="#93349E" cx="6.42136881" cy="6.4038709" r="6.33514856"></circle>
                <path d="M8.05783099,12.5251461 C7.53534171,12.6641321 6.98692289,12.7386568 6.4209155,12.7386568 C2.92196896,12.7386568 0.0860389258,9.90281744 0.0860389258,6.40378024 C0.0860389258,2.9048337 2.9218783,0.0680877063 6.4209155,0.0680877063 C6.98692289,0.0680877063 7.53534171,0.142612466 8.05783099,0.281598423 C5.35172998,1.00336438 3.35905395,3.47075043 3.35905395,6.40378024 C3.35905395,9.33681005 5.35182065,11.8034708 8.05783099,12.5251461 Z" id="Path" fill="#601269"></path>
            </g>
            <circle id="Oval" fill="#601269" cx="17.0413284" cy="20.2752678" r="6.33514856"></circle>
            <circle id="Oval" fill="#601269" cx="27.6613787" cy="20.2752678" r="6.33514856"></circle>
            <g id="Group" transform="translate(12.511456, 0.000000)" fill-rule="nonzero">
                <path d="M23.4825524,13.8983237 C23.4825524,13.8983237 27.776339,19.0570328 25.575048,25.5312579 C19.1017295,27.7325489 13.9430204,23.4378556 13.9430204,23.4378556 C13.9430204,27.4524011 10.9647499,30.5594127 10.9647499,30.5594127 C3.19586105,25.1214624 5.7860951,18.3879419 5.7860951,18.3879419 C2.37627002,20.676269 0.130554324,19.2075329 0.130554324,19.2075329 C-0.529470313,12.6770968 2.75342695,10.1068086 5.39624538,9.09591919 C7.06806603,8.45584035 8.48331116,8.43952106 8.48331116,8.43952106 C8.48331116,8.43952106 8.59210643,-0.992122198 19.2522296,0.0858576004 C19.2522296,0.0858576004 20.7200591,2.33157329 18.4326386,5.74139837 C18.4326386,5.74139837 25.1661592,3.15116433 30.6041094,10.9209598 C30.6041094,10.9209598 27.4961912,13.8983237 23.4825524,13.8983237 Z" id="Path" fill="#76D37E"></path>
                <path d="M25.5754107,25.530986 C27.7767017,19.0576674 23.4820084,13.8989584 23.4820084,13.8989584 C27.4965538,13.8989584 30.6035654,10.9206879 30.6035654,10.9206879 C25.1656152,3.15179897 18.4320946,5.74203301 18.4320946,5.74203301 C20.7204218,2.33220793 19.2516856,0.0864922395 19.2516856,0.0864922395 C12.7212496,-0.573532397 10.1509613,2.70936487 9.14007194,5.3521833 C9.14007194,8.33226706 11.4193328,7.6314442 11.4193328,7.6314442 C10.6704587,10.6459798 15.0594412,10.9460734 15.0594412,10.9460734 C13.3431959,13.6124642 21.619796,23.4031318 25.5754107,25.530986 Z" id="Path" fill="#57AB2D"></path>
                <path d="M20.4587692,9.90889185 C16.4472156,9.10788667 13.6285115,10.7128889 12.5212476,11.515254 L11.0278512,10.0218576 C11.3342912,9.08649027 12.3935945,6.50613846 15.0481991,5.27602661 C15.3889096,5.11809214 15.5371431,4.71391771 15.3792087,4.37320719 C15.2212742,4.03249667 14.8170091,3.88426312 14.4763893,4.04219759 C11.8073693,5.27901848 10.5209559,7.58493422 9.96528406,8.95947179 L6.33705248,5.33124021 C6.07150136,5.06568909 5.64094407,5.06568909 5.37548362,5.33124021 C5.1099325,5.59679133 5.1099325,6.02725795 5.37548362,6.29280907 L9.0037152,9.92104065 C7.62917763,10.4766218 5.32335255,11.7630352 4.08653166,14.4320552 C3.92859719,14.7727657 4.07683075,15.1770308 4.41754127,15.3348746 C4.51010791,15.3777581 4.60729835,15.3980665 4.70294752,15.3980665 C4.9596137,15.3980665 5.20530968,15.2520089 5.32036068,15.003865 C6.55074452,12.3488071 9.13127765,11.2898665 10.0662823,10.9836078 L11.5596787,12.4770042 C10.7573136,13.584268 9.15231141,16.4030628 9.95322592,20.4145257 C10.0177778,20.737829 10.3017334,20.961494 10.619325,20.961494 C10.6634777,20.961494 10.7081744,20.9571422 10.7531431,20.9481665 C11.1214151,20.8746391 11.3604021,20.5165213 11.2868746,20.1482493 C10.6241301,16.8289963 11.8393732,14.4723094 12.5343937,13.4518098 L17.8178546,18.7352708 C17.9505849,18.8680916 18.1246573,18.9344568 18.2986391,18.9344568 C18.4726208,18.9344568 18.6466933,18.8680916 18.7794235,18.7352708 C19.0449746,18.4697196 19.0449746,18.039253 18.7794235,17.7737019 L13.4990451,12.4933235 C14.5231712,11.8028362 16.8949081,10.5843291 20.1924927,11.2427219 C20.5608554,11.31634 20.9188825,11.077353 20.99241,10.7090811 C21.0660281,10.3405371 20.8270411,9.98241932 20.4587692,9.90889185 Z" id="Path" fill="#31760E"></path>
            </g>
        </g>
    </g>
</svg>