<?xml version="1.0" encoding="UTF-8"?>
<svg width="46px" height="46px" viewBox="0 0 46 46" version="1.1" xmlns="http://www.w3.org/2000/svg" xmlns:xlink="http://www.w3.org/1999/xlink">
    <!-- Generator: Sketch 63.1 (92452) - https://sketch.com -->
    <!--<title>illustrazione/functional/family</title>-->
    <desc>Created with Sketch.</desc>
    <g id="illustrazione/functional/family" stroke="none" stroke-width="1" fill="none" fill-rule="evenodd">
        <g id="family">
            <path d="M11.8310742,26.4832422 C5.30913672,26.4832422 0.003234375,31.7892344 0.003234375,38.311082 L0.003234375,38.3376758 C0.003234375,38.7098086 0.304929688,39.0115039 0.6770625,39.0115039 L22.9851758,39.0115039 C23.3573984,39.0115039 23.6590039,38.7098086 23.6590039,38.3376758 L23.6590039,38.311082 C23.6590039,31.7892344 18.3530117,26.4832422 11.8310742,26.4832422 Z" id="Path" fill="#1B7BC7"></path>
            <path d="M14.8078672,26.8614844 C12.8721836,26.3595273 10.789875,26.3596172 8.85428125,26.8614844 C8.52635156,26.9464766 8.31261328,27.2617383 8.35483984,27.5978437 C8.57450781,29.3445859 10.0689687,30.6617852 11.8310742,30.6617852 C13.5930898,30.6617852 15.0875508,29.3445859 15.3073086,27.5978437 C15.3495328,27.2617383 15.1357969,26.9464766 14.8078672,26.8614844 Z" id="Path" fill="#F2BA95"></path>
            <path d="M21.9516133,10.659332 C20.9749219,9.04492969 19.3520742,8.00714453 17.3820703,7.73725391 C15.980957,7.54525781 14.8350898,7.91909766 14.192707,8.21252734 C13.2557266,7.0969375 12.1891914,6.49821875 9.97723828,6.49821875 C7.43681641,6.49821875 3.83578906,7.81622656 1.93271875,10.7099141 C-0.280042969,14.0746523 0.670414062,18.0603008 1.85742969,20.8113164 C1.96730859,21.0660234 2.21563672,21.2183984 2.47645312,21.2183984 L20.957043,21.1466133 C20.957043,21.1466133 21.6933125,21.0918086 21.8197227,20.7416875 C23.7448047,15.4106289 22.954,12.3163203 21.9516133,10.659332 Z" id="Path" fill="#8A512E"></path>
            <path d="M19.9383047,19.3293437 C19.6831484,19.3293437 19.4299687,19.3691445 19.186043,19.4475781 C18.9231602,19.5321211 18.7385312,19.7685898 18.7200234,20.0441406 C18.6584805,20.9649492 18.4183281,21.8481133 18.0062148,22.6691055 C17.8823203,22.9160859 17.9216719,23.2136484 18.105582,23.4198398 C18.5723203,23.9430898 19.2403086,24.2432578 19.9382148,24.2432578 C21.2929687,24.2432578 22.3951719,23.1410547 22.3951719,21.7863008 C22.3951719,20.4315469 21.2930586,19.3293437 19.9383047,19.3293437 Z" id="Path" fill="#F2BA95"></path>
            <path d="M5.65575391,22.6691953 C5.24373047,21.8480234 5.00357812,20.9648594 4.94203516,20.0441406 C4.92361719,19.7685898 4.73889844,19.5321211 4.47601563,19.4475781 C4.232,19.3690547 3.97891016,19.3293438 3.72384375,19.3293438 C2.369,19.3293438 1.26679688,20.4315469 1.26679688,21.7863008 C1.26679688,23.1410547 2.369,24.2432578 3.72384375,24.2432578 C4.42183984,24.2432578 5.08973828,23.9431797 5.55638672,23.4199297 C5.74029688,23.2137383 5.77973828,22.9161758 5.65575391,22.6691953 Z" id="Path" fill="#F2BA95"></path>
            <path d="M44.7350898,13.7911953 C43.9090664,11.6363828 42.4686016,9.80617578 40.5696641,8.49841016 C38.6694688,7.18983594 36.4458359,6.49812891 34.1391875,6.49812891 C31.8325391,6.49812891 29.6089063,7.18983594 27.7087109,8.49841016 C25.8096836,9.80617578 24.3693086,11.636293 23.5432852,13.7911953 C22.3034414,17.0256602 22.2991289,24.1896211 24.0618633,27.9393398 C24.712332,29.3232031 25.5622539,30.2006172 26.588,30.5473242 C26.9407266,30.6665469 27.3229219,30.4774258 27.4421445,30.1246992 C27.4663125,30.0531836 27.4771836,29.9805 27.4771836,29.9089844 L40.8013711,29.9089844 C40.8013711,29.9805 40.8122422,30.0531836 40.8364102,30.1246992 C40.9314648,30.4057305 41.1937187,30.583022 41.47475,30.583022 C41.5462656,30.583022 41.6190391,30.5714922 41.6905547,30.5473242 C42.7163008,30.200707 43.5662227,29.3232031 44.2166914,27.9394297 C45.9792461,24.1897109 45.9750234,17.02575 44.7350898,13.7911953 Z" id="Path" fill="#8A512E"></path>
            <g id="Group" transform="translate(25.425781, 29.468750)" fill="#8C6B50" fill-rule="nonzero">
                <path d="M1.16212891,1.07857422 C1.51485547,1.19779687 1.89705078,1.00867578 2.01627344,0.655949219 C2.04044141,0.584433594 2.0513125,0.51175 2.0513125,0.440234375 L0.0544453125,0.440234375 C0.396660156,0.730878906 0.766097656,0.944707031 1.16212891,1.07857422 Z" id="Path"></path>
            </g>
            <path d="M27.9656561,2.42531812 C27.7132254,0.775650002 26.4037096,0.0962432042 25.2623142,0.0104554472 C24.3961793,-0.0548256331 23.5761049,0.189373963 22.99995,0.637117998 C22.4238952,0.189373963 21.6035204,-0.0545569866 20.7375858,0.0104554472 C19.5961904,0.0962432042 18.2866746,0.775650002 18.034344,2.42531812 C17.8235679,3.80302652 18.5859668,5.2043758 20.2389325,6.47775983 C21.4082646,7.37853128 22.6205529,7.91018255 22.6716198,7.93239065 C22.7752556,7.9774337 22.8876028,8 22.99995,8 C23.1122972,8 23.2246444,7.97752325 23.3282802,7.93239065 C23.3793471,7.91018255 24.5916354,7.37853128 25.7609675,6.47775983 C27.4140334,5.2043758 28.1764323,3.80302652 27.9656561,2.42531812 Z" id="Path" fill="#EE5019" fill-rule="nonzero"></path>
            <path d="M19.5257422,17.5492695 C16.1901133,16.9757969 13.881668,13.5907539 13.859207,13.557332 C13.720668,13.3499727 13.4794375,13.2342539 13.2318281,13.2592305 C12.9837695,13.2843867 12.77075,13.442332 12.6766836,13.6732305 C12.6726406,13.6828438 12.2541484,14.6483945 11.025625,15.5988516 C9.38471875,16.8684336 7.04195313,17.5394766 4.25050781,17.5394766 C3.878375,17.5394766 3.57667969,17.8411719 3.57667969,18.2133047 L3.57667969,19.5765039 C3.57667969,24.1279883 7.27958984,27.8308086 11.8309844,27.8308086 C16.3823789,27.8308086 20.0852891,24.1279883 20.0852891,19.5765039 L20.0852891,18.2133047 C20.0852891,17.8852852 19.8490898,17.6048828 19.5257422,17.5492695 Z" id="Path" fill="#FFCFAB" fill-rule="nonzero"></path>
            <path d="M34.1391875,26.4832422 C27.61725,26.4832422 22.3113477,31.7892344 22.3113477,38.311082 L22.3113477,38.3376758 C22.3113477,38.7098086 22.613043,39.0115039 22.9851758,39.0115039 L45.2932891,39.0115039 C45.6655117,39.0115039 45.9671172,38.7098086 45.9671172,38.3376758 L45.9671172,38.311082 C45.9671172,31.7892344 40.6610352,26.4832422 34.1391875,26.4832422 Z" id="Path" fill="#B349BF"></path>
            <path d="M37.1158906,26.8614844 C35.1801172,26.3595273 33.0978086,26.3595273 31.1622148,26.8614844 C30.834375,26.9464766 30.6205469,27.2617383 30.6627734,27.5978438 C30.8824414,29.3445859 32.3769922,30.6617852 34.1390078,30.6617852 C35.9010234,30.6617852 37.3955742,29.3445859 37.6152422,27.5978438 C37.6577383,27.2617383 37.4439102,26.9464766 37.1158906,26.8614844 Z" id="Path" fill="#F2BA95"></path>
            <path d="M41.8337656,17.5492695 C38.4982266,16.9757969 36.1897812,13.5907539 36.1673203,13.557332 C36.0287812,13.3500625 35.7879102,13.2362305 35.5391328,13.2612969 C35.2910742,13.2864531 35.0771562,13.4465547 34.9831797,13.6774531 C34.9673672,13.7160859 33.331043,17.5395664 26.5586211,17.5395664 C26.1863984,17.5395664 25.884793,17.8412617 25.884793,18.2133945 L25.884793,19.5765938 C25.884793,24.1280781 29.5877031,27.8308984 34.1391875,27.8308984 C38.690582,27.8308984 42.3934922,24.1280781 42.3934922,19.5765937 L42.3934922,18.2133945 C42.3934922,17.8852852 42.1572031,17.6048828 41.8337656,17.5492695 Z" id="Path" fill="#FFCFAB" fill-rule="nonzero"></path>
            <g id="Group" transform="translate(29.828125, 19.765625)" fill="#636363" fill-rule="nonzero">
                <path d="M1.17848047,2.2583125 C0.576078125,2.2583125 0.0860703125,1.76830469 0.0860703125,1.16590234 C0.0860703125,0.5635 0.576078125,0.0734023438 1.17848047,0.0734023438 C1.78088281,0.0734023438 2.27098047,0.5635 2.27098047,1.16590234 C2.27107031,1.76821484 1.78097266,2.2583125 1.17848047,2.2583125 Z" id="Path"></path>
                <path d="M7.44355469,2.2583125 C6.84115234,2.2583125 6.35105469,1.76830469 6.35105469,1.16590234 C6.35105469,0.5635 6.84115234,0.0734023438 7.44355469,0.0734023438 C8.04595703,0.0734023438 8.53596484,0.5635 8.53596484,1.16590234 C8.53596484,1.76821484 8.04595703,2.2583125 7.44355469,2.2583125 Z" id="Path"></path>
            </g>
            <g id="Group" transform="translate(7.546875, 19.765625)" fill="#636363" fill-rule="nonzero">
                <path d="M1.15170703,2.2583125 C0.549304688,2.2583125 0.0592070313,1.76830469 0.0592070313,1.16590234 C0.0592070313,0.5635 0.549304688,0.0734023438 1.15170703,0.0734023438 C1.75410938,0.0734023438 2.24411719,0.5635 2.24411719,1.16590234 C2.24411719,1.76821484 1.75410938,2.2583125 1.15170703,2.2583125 Z" id="Path"></path>
                <path d="M7.41669141,2.2583125 C6.81428906,2.2583125 6.32419141,1.76830469 6.32419141,1.16590234 C6.32419141,0.5635 6.81428906,0.0734023438 7.41669141,0.0734023438 C8.01909375,0.0734023438 8.50919141,0.5635 8.50919141,1.16590234 C8.50910156,1.76821484 8.01909375,2.2583125 7.41669141,2.2583125 Z" id="Path"></path>
            </g>
            <path d="M16.4845312,40.892832 C16.0115039,40.0289844 15.7266992,39.0921836 15.6381133,38.1082148 C15.6107109,37.8039141 15.3820586,37.5562148 15.0809922,37.5044648 C14.9420938,37.4806562 14.8027461,37.4685273 14.6669922,37.4685273 C13.3122383,37.4685273 12.2100352,38.5707305 12.2100352,39.9255742 C12.2100352,41.2803281 13.3122383,42.3825312 14.6669922,42.3825312 C15.2983242,42.3825312 15.8988398,42.14175 16.3581211,41.7044805 C16.5794062,41.4938867 16.6313359,41.1608359 16.4845312,40.892832 Z" id="Path" fill="#F2BA95"></path>
            <path d="M30.8814531,37.4686172 C30.7456094,37.4686172 30.6062617,37.4807461 30.4674531,37.5045547 C30.1663867,37.5562148 29.9377344,37.8039141 29.9104219,38.1082148 C29.8218359,39.0921836 29.5370313,40.0289844 29.0640039,40.8929219 C28.9172891,41.1608359 28.9691289,41.4938867 29.1903242,41.7045703 C29.6496055,42.1418398 30.2502109,42.3826211 30.8814531,42.3826211 C32.236207,42.3826211 33.3385,41.280418 33.3385,39.9256641 C33.3385,38.5708203 32.236207,37.4686172 30.8814531,37.4686172 Z" id="Path" fill="#F2BA95"></path>
            <path d="M22.7742227,28.9430742 C18.0797969,28.9430742 14.2606289,32.7622422 14.2606289,37.456668 C14.2606289,42.1510938 18.0797969,45.9702617 22.7742227,45.9702617 C27.4687383,45.9702617 31.2878164,42.1510938 31.2878164,37.456668 C31.2878164,32.7622422 27.4687383,28.9430742 22.7742227,28.9430742 Z" id="Path" fill="#FFCFAB" fill-rule="nonzero"></path>
            <g id="Group" transform="translate(18.507812, 37.105469)" fill="#636363" fill-rule="nonzero">
                <path d="M1.13391797,2.24914844 C0.531515625,2.24914844 0.0414179688,1.75905078 0.0414179688,1.15673828 C0.0414179688,0.554335938 0.531515625,0.0642382812 1.13391797,0.0642382812 C1.73632031,0.0642382812 2.22641797,0.554335937 2.22641797,1.15673828 C2.22641797,1.75914062 1.73632031,2.24914844 1.13391797,2.24914844 Z" id="Path"></path>
                <path d="M7.39890234,2.24914844 C6.7965,2.24914844 6.30649219,1.75905078 6.30649219,1.15673828 C6.30649219,0.554335938 6.7965,0.0642382812 7.39890234,0.0642382812 C8.00130469,0.0642382812 8.49140234,0.554335937 8.49140234,1.15673828 C8.49140234,1.75914062 8.00130469,2.24914844 7.39890234,2.24914844 Z" id="Path"></path>
            </g>
            <path d="M22.3997539,30.2907305 C22.3415352,30.2907305 22.282957,30.2831836 22.2252773,30.2677305 C19.4186484,29.5151094 18.993418,27.0931016 18.976707,26.9904102 C18.9168711,26.6231289 19.1661875,26.2768711 19.5334688,26.2170352 C19.8991328,26.1576484 20.244043,26.4044492 20.306125,26.769125 C20.3175352,26.8319258 20.5199531,27.8565937 21.5783125,28.5345547 C21.5419258,28.0014219 21.5454297,27.3697305 21.6706719,26.8004805 C21.7507227,26.4370625 22.1103672,26.207332 22.4736055,26.287293 C22.8371133,26.3673437 23.0668437,26.7268086 22.986793,27.0902266 C22.8036016,27.9223594 22.9764609,29.0939219 23.0584883,29.4751289 C23.1079023,29.7046797 23.0342305,29.9433047 22.8641562,30.1052031 C22.7373867,30.2257734 22.570457,30.2907305 22.3997539,30.2907305 Z" id="Path" fill="#623718" fill-rule="nonzero"></path>
        </g>
    </g>
</svg>