<?xml version="1.0" encoding="UTF-8"?>
<svg width="46px" height="46px" viewBox="0 0 46 46" version="1.1" xmlns="http://www.w3.org/2000/svg" xmlns:xlink="http://www.w3.org/1999/xlink">
    <!-- Generator: Sketch 63.1 (92452) - https://sketch.com -->
    <!--<title>illustrazione/functional/future</title>-->
    <desc>Created with Sketch.</desc>
    <g id="illustrazione/functional/future" stroke="none" stroke-width="1" fill="none" fill-rule="evenodd">
        <g id="predictive" transform="translate(1.000000, 0.000000)">
            <path d="M30.8365271,2.2213999 C37.7933209,5.72653202 42.1770598,12.825064 42.1770598,20.5820998 C42.1770598,21.708912 42.0844471,22.8343232 41.8985194,23.9460739 C38.3046219,23.2903722 34.6790323,22.8199623 31.0361881,22.537296 L11.1415749,22.6241624 L10.8950799,22.6241624 C7.47302481,22.9250426 4.18654184,23.3681317 1.0750704,23.9460739 C-0.200365216,16.293418 2.95864448,8.57771379 9.2456761,3.98850209 C15.5327077,-0.600709696 23.8797334,-1.28408256 30.8365271,2.2213999 Z M13.3427755,5.14263519 C13.1205778,4.76539654 12.633222,4.63824922 12.2536197,4.85891813 C10.7140821,5.75560429 9.31399039,6.87050745 8.09806569,8.16895098 C7.8822065,8.39942739 7.82410412,8.73533445 7.95052079,9.02430556 C8.07693754,9.31327666 8.36322397,9.4999695 8.68014605,9.50032084 C8.90093518,9.50067008 9.11221663,9.40925014 9.26257862,9.24812685 C10.3728626,8.0624695 11.6514675,7.0442404 13.0575455,6.22566403 C13.4367958,6.00499513 13.564621,5.52022417 13.3427755,5.14263519 Z M21.4866188,2.37621475 C19.7995365,2.3751675 18.119849,2.60599415 16.4961511,3.06169284 C16.1144359,3.16957539 15.8711102,3.5408595 15.925339,3.93175863 C15.979568,4.32265775 16.3151533,4.61408075 16.7120103,4.61478133 C16.7852545,4.61478133 16.8581466,4.60462349 16.9285737,4.58465824 C18.4117696,4.16853982 19.9456728,3.958379 21.4866188,3.95942982 C21.9260842,3.95942982 22.2824457,3.60495858 22.2824457,3.16782407 C22.2824457,2.73068957 21.9260842,2.37621475 21.4866188,2.37621475 Z" id="Combined-Shape" fill="#B3E4FD"></path>
            <path d="M34.7522766,36.3735837 C35.9481296,37.6226395 37.5373182,38.4272052 39.2564449,38.653128 C40.021988,38.7820267 40.5829403,39.4401803 40.5854052,40.2125213 L40.5854052,44.3288712 C40.5829403,45.2020894 39.8719782,45.9092806 38.9937517,45.9117325 L3.97948602,45.9117325 C3.10161164,45.9092806 2.39064955,45.2020894 2.38818466,44.3288712 L2.38818466,40.2125213 C2.39029743,39.4401803 2.95160185,38.7820267 3.71714492,38.653128 C5.43591946,38.4272052 7.02546026,37.6226395 8.22131324,36.3735837 L34.7522766,36.3735837 Z" id="Path" fill="#93349E"></path>
            <path d="M31.0361881,22.537296 C34.6790323,22.8199623 38.3046219,23.2903722 41.8985194,23.9460739 C40.2434814,33.877924 31.6077044,41.1610471 21.4866188,41.1610471 C11.3655333,41.1610471 2.7301084,33.877924 1.0750704,23.9460739 C4.18654184,23.3681317 7.47302481,22.9250426 10.8950799,22.6241624 L11.1415749,22.6241624 L31.0361881,22.537296 Z" id="Path" fill="#7BC8F8"></path>
            <g id="Group" transform="translate(0.000000, 0.717349)" fill="#93349E">
                <path d="M39.7895784,4.0333375 C39.4677263,4.0333375 39.1779186,3.84068894 39.0546711,3.54471248 C38.9314237,3.24908626 38.9993858,2.90862573 39.2272177,2.68235254 L40.818519,1.09914104 C41.0185321,0.89353377 41.3143262,0.810870515 41.5925135,0.88337593 C41.8707006,0.955881435 42.0879684,1.17199679 42.1608605,1.44870858 C42.2337526,1.72542037 42.1506486,2.01964551 41.9439449,2.21859775 L40.3522913,3.80145892 C40.2033379,3.9503229 40.0008599,4.03368665 39.7895784,4.0333375 L39.7895784,4.0333375 Z" id="Path"></path>
                <path d="M37.4024502,2.45047515 C36.9629848,2.45047515 36.6066234,2.0960039 36.6066234,1.6588694 L36.6066234,0.867263645 C36.6066234,0.430129142 36.9629848,0.0756578947 37.4024502,0.0756578947 C37.8419156,0.0756578947 38.198277,0.430129142 38.198277,0.867263645 L38.198277,1.6588694 C38.198277,2.0960039 37.8419156,2.45047515 37.4024502,2.45047515 Z" id="Path"></path>
                <path d="M42.1770588,6.40815365 L41.381232,6.40815365 C40.9417666,6.40815365 40.5854052,6.05368241 40.5854052,5.6165479 C40.5854052,5.1794134 40.9417666,4.82494215 41.381232,4.82494215 L42.1770588,4.82494215 C42.6165242,4.82494215 42.9728856,5.1794134 42.9728856,5.6165479 C42.9728856,6.05368241 42.6165242,6.40815365 42.1770588,6.40815365 Z" id="Path"></path>
                <path d="M3.18401135,4.0333375 C2.97272991,4.03368665 2.77025192,3.9503229 2.62129848,3.80145892 L1.02964492,2.21859775 C0.728216719,1.90790999 0.732442348,1.41403202 1.03950472,1.10894863 C1.34621497,0.803514908 1.84272633,0.799311602 2.15507075,1.09914104 L3.74637221,2.68235254 C3.97385185,2.90862573 4.04216623,3.24908626 3.91891868,3.54471248 C3.79567121,3.84068894 3.50551136,4.0333375 3.18401135,4.0333375 Z" id="Path"></path>
                <path d="M5.57113959,2.45047515 C5.13167418,2.45047515 4.77531281,2.0960039 4.77531281,1.6588694 L4.77531281,0.867263645 C4.77531281,0.430129142 5.13167418,0.0756578947 5.57113959,0.0756578947 C6.010605,0.0756578947 6.36696637,0.430129142 6.36696637,0.867263645 L6.36696637,1.6588694 C6.36696637,2.0960039 6.010605,2.45047515 5.57113959,2.45047515 Z" id="Path"></path>
                <path d="M1.59235779,6.40815365 L0.796531099,6.40815365 C0.35706569,6.40815365 0.000704271488,6.05368241 0.000704271488,5.6165479 C0.000704271488,5.1794134 0.35706569,4.82494215 0.796531099,4.82494215 L1.59235779,4.82494215 C2.0318232,4.82494215 2.38818466,5.1794134 2.38818466,5.6165479 C2.38818466,6.05368241 2.0318232,6.40815365 1.59235779,6.40815365 Z" id="Path"></path>
            </g>
        </g>
    </g>
</svg>