<?xml version="1.0" encoding="UTF-8"?>
<svg width="46px" height="46px" viewBox="0 0 46 46" version="1.1" xmlns="http://www.w3.org/2000/svg" xmlns:xlink="http://www.w3.org/1999/xlink">
    <!-- Generator: Sketch 63.1 (92452) - https://sketch.com -->
    <!--<title>illustrazione/functional/girl</title>-->
    <desc>Created with Sketch.</desc>
    <g id="illustrazione/functional/girl" stroke="none" stroke-width="1" fill="none" fill-rule="evenodd">
        <g id="people-04" transform="translate(6.000000, 3.000000)">
            <path d="M32.6060492,42.9693441 L31.9829015,38.1547747 C31.7788921,36.6307681 30.7445662,35.3444876 29.2960668,34.8135276 L23.6375967,32.7394724 C22.9582356,32.5138451 22.4999531,31.8804534 22.4999531,31.1669886 L22.4999531,28.4940808 L26.0836166,27.0065342 C27.9438277,26.2345371 29.1554103,24.424 29.1554103,22.4166112 L29.1554103,21.5878802 C30.5338687,21.5878802 31.6512427,20.4747852 31.6512427,19.1015646 C31.6512427,17.7285076 30.5338687,16.6154125 29.1554103,16.6154125 L29.1554103,14.9579097 C29.1554103,12.6693451 27.2930246,9.1565884 24.9957034,9.1565884 L10.0208324,9.1565884 C7.72342907,9.1565884 5.86112544,12.6693042 5.86112544,14.9579097 L5.86112544,16.6154125 C4.48270809,16.6154125 3.36529308,17.7285076 3.36529308,19.1015646 C3.36529308,20.4747852 4.48266706,21.5878802 5.86112544,21.5878802 L5.86112544,22.4166112 C5.86112544,24.4239183 7.07270809,26.2344553 8.93283705,27.0066977 L12.5166237,28.4942443 L12.5166237,31.1669886 C12.5166237,31.8804534 12.0583822,32.5138451 11.3789801,32.7394724 L5.72050996,34.8135276 C4.27201055,35.3444059 3.23768464,36.6307681 3.03367526,38.1547747 L2.41052755,42.9693441 L32.6060492,42.9693441 Z" id="Path" fill="#F2BA95"></path>
            <path d="M29.9865885,20.7591492 L28.322714,20.7591492 C28.322714,20.7591492 27.5303107,22.944097 27.4907562,25.7315352 C27.4685991,27.2926559 27.8746893,29.0430257 28.322714,30.7041663 L29.9865885,30.7041663 C30.4345721,29.042903 30.8406624,27.2926559 30.8185053,25.7315352 C30.7789508,22.944097 29.9865885,20.7591492 29.9865885,20.7591492 Z" id="Path" fill="#623718" fill-rule="nonzero"></path>
            <path d="M6.69308324,20.7591492 L5.02920868,20.7591492 C5.02920868,20.7591492 4.23680539,22.944097 4.19729191,25.7315352 C4.17513482,27.2926559 4.58118406,29.0430257 5.02920868,30.7041663 L6.69308324,30.7041663 C7.14106682,29.042903 7.54719812,27.2926559 7.52504103,25.7315352 C7.48552755,22.944097 6.69308324,20.7591492 6.69308324,20.7591492 Z" id="Path" fill="#623718" fill-rule="nonzero"></path>
            <path d="M5.46516999,15.4043413 L0.870363423,15.4043413 C0.281764361,15.4043413 -0.120674091,15.9964496 0.097901524,16.5408574 L0.942620164,18.6446283 C1.132966,19.1184458 1.7037163,19.3101065 2.14308324,19.0474468 L5.46516999,17.0618441 L5.46516999,15.4043413 L5.46516999,15.4043413 Z" id="Path" fill="#CF390A" fill-rule="nonzero"></path>
            <path d="M5.46516999,15.4043413 L0.870363423,15.4043413 C0.281764361,15.4043413 -0.120674091,14.8122329 0.097901524,14.2678251 L0.942620164,12.1641359 C1.132966,11.6902367 1.7037163,11.4986578 2.14308324,11.7612357 L5.46516999,13.7468384 L5.46516999,15.4043413 L5.46516999,15.4043413 Z" id="Path" fill="#EE5019" fill-rule="nonzero"></path>
            <path d="M29.5515709,15.4043413 L34.1463365,15.4043413 C34.7349355,15.4043413 35.137374,15.9964496 34.9187984,16.5408574 L34.0740797,18.6446283 C33.8837749,19.1184458 33.3129836,19.3101065 32.8736166,19.0474468 L29.5515709,17.0618441 L29.5515709,15.4043413 L29.5515709,15.4043413 Z" id="Path" fill="#CF390A" fill-rule="nonzero"></path>
            <path d="M29.5515709,15.4043413 L34.1463365,15.4043413 C34.7349355,15.4043413 35.137374,14.8122329 34.9187984,14.2678251 L34.0740797,12.1641359 C33.8837749,11.6902367 33.3129836,11.4986578 32.8736166,11.7612357 L29.5515709,13.7468384 L29.5515709,15.4043413 L29.5515709,15.4043413 Z" id="Path" fill="#EE5019" fill-rule="nonzero"></path>
            <path d="M5.86116647,16.6154125 C4.48274912,16.6154125 3.36533411,17.7285894 3.36533411,19.1015646 C3.36533411,20.4747852 4.48270809,21.5878802 5.86116647,21.5878802 L5.86116647,22.4166112 C5.86116647,24.424 7.07274912,26.2345371 8.93287808,27.0066977 L14.3084349,29.2379563 C15.322286,29.6587595 16.409871,29.8754354 17.5082063,29.8754354 L17.5082063,29.8754354 C18.6065826,29.8754354 19.6940035,29.6587595 20.7079367,29.2379563 L26.0836987,27.0066977 C27.9438277,26.2345371 29.1554103,24.424 29.1554103,22.4166112 L29.1554103,21.5878802 C30.5338687,21.5878802 31.6512427,20.4747852 31.6512427,19.1015646 C31.6512427,17.7285076 30.5338687,16.6154125 29.1554103,16.6154125 L29.1554103,13.9219449 C29.1554103,11.2901568 27.0137222,9.15662928 24.3717761,9.15662928 L10.6447597,9.15662928 C8.00285463,9.15662928 5.86112544,11.2901568 5.86112544,13.9219449 L5.86112544,16.6154125 L5.86116647,16.6154125 Z" id="Path" fill="#FFCFAB" fill-rule="nonzero"></path>
            <path d="M11.6847479,19.9304183 L11.6847479,19.9304183 C11.227204,19.9304183 10.8527902,19.5574382 10.8527902,19.1016055 L10.8527902,18.2729563 C10.8527902,17.8171236 11.227204,17.4441435 11.6847479,17.4441435 L11.6847479,17.4441435 C12.1422919,17.4441435 12.5166647,17.8171236 12.5166647,18.2729563 L12.5166647,19.1016055 C12.5166647,19.5574382 12.1422919,19.9304183 11.6847479,19.9304183 Z" id="Path" fill="#636363" fill-rule="nonzero"></path>
            <path d="M23.3318699,19.9304183 L23.3318699,19.9304183 C22.8743259,19.9304183 22.4999531,19.5574382 22.4999531,19.1016055 L22.4999531,18.2729563 C22.4999531,17.8171236 22.8743259,17.4441435 23.3318699,17.4441435 L23.3318699,17.4441435 C23.7894138,17.4441435 24.1638277,17.8171236 24.1638277,18.2729563 L24.1638277,19.1016055 C24.1638687,19.5574382 23.7894549,19.9304183 23.3318699,19.9304183 Z" id="Path" fill="#636363" fill-rule="nonzero"></path>
            <path d="M17.5083294,25.7543023 C16.0292614,25.7543023 14.6457151,25.3917861 13.7126143,24.7593346 C13.3328253,24.5020295 13.2340621,23.9863973 13.4928898,23.6080627 C13.7508148,23.2301369 14.2687984,23.1317928 14.6485463,23.3891797 C15.3025498,23.8322595 16.3717116,24.0968812 17.5083294,24.0968812 C18.6449472,24.0968812 19.714109,23.8322186 20.3681125,23.3891797 C20.7487222,23.1310162 21.2654748,23.229769 21.5237691,23.6080627 C21.7825147,23.9863973 21.6837925,24.5020295 21.3040445,24.7593346 C20.3710258,25.3917861 18.9873974,25.7543023 17.5083294,25.7543023 Z" id="Path" fill="#C6805A" fill-rule="nonzero"></path>
            <path d="M27.0586518,33.8805257 L24.0650234,38.6518907 C23.6089566,39.3787624 22.8091266,39.8204116 21.9485698,39.8204116 L13.0680891,39.8204116 C12.2074912,39.8204116 11.4077433,39.3787624 10.9516354,38.6518907 L7.9580891,33.8805257 C7.71764361,33.497327 7.21348769,33.3767063 6.82454865,33.6091597 L4.09184056,35.2425466 C3.69280774,35.4809268 3.56770223,35.9992158 3.81438453,36.3923878 L7.52504103,42.9693441 L27.4915768,42.9693441 L31.2022333,36.3923061 C31.4489156,35.999134 31.3238511,35.4809268 30.9247773,35.2424648 L28.1920692,33.6090779 C27.8032532,33.3766654 27.2990152,33.4974905 27.0586518,33.8805257 Z" id="Path" fill="#EE5019" fill-rule="nonzero"></path>
            <path d="M21.6680363,0.0403022814 C18.9642145,0.0403022814 17.5083294,0.86903327 17.5083294,0.86903327 C17.5083294,0.86903327 16.0524853,0.0403022814 13.3486225,0.0403022814 C10.6448007,0.0403022814 0.384220399,5.22568536 4.19733294,17.2425504 C4.19733294,17.2425504 17.5083294,14.88875 17.5083294,9.1565884 C17.5083294,14.88875 30.8193259,17.2425504 30.8193259,17.2425504 C34.6324385,5.22572624 24.3718171,0.0403022814 21.6680363,0.0403022814 Z" id="Path" fill="#8A512E"></path>
            <path d="M6.69308324,32.3615875 L5.02920868,32.3615875 C4.56977726,32.3615875 4.19729191,31.9905285 4.19729191,31.5328565 L4.19729191,31.5328565 C4.19729191,31.0751844 4.56977726,30.7042072 5.02920868,30.7042072 L6.69308324,30.7042072 C7.15255569,30.7042072 7.52504103,31.0751844 7.52504103,31.5328565 L7.52504103,31.5328565 C7.52504103,31.990692 7.15255569,32.3615875 6.69308324,32.3615875 Z" id="Path" fill="#EE5019" fill-rule="nonzero"></path>
            <path d="M6.69308324,32.3615875 C6.69308324,32.3615875 8.14900938,34.847903 5.86116647,38.1629087 C3.57332356,34.847903 5.02920868,32.3615875 5.02920868,32.3615875" id="Path" fill="#623718" fill-rule="nonzero"></path>
            <path d="M28.322714,32.3615875 L29.9865885,32.3615875 C30.4460199,32.3615875 30.8185053,31.9905285 30.8185053,31.5328565 L30.8185053,31.5328565 C30.8185053,31.0751844 30.4460199,30.7042072 29.9865885,30.7042072 L28.322714,30.7042072 C27.8632825,30.7042072 27.4907562,31.0751844 27.4907562,31.5328565 L27.4907562,31.5328565 C27.4907562,31.990692 27.8632825,32.3615875 28.322714,32.3615875 Z" id="Path" fill="#EE5019" fill-rule="nonzero"></path>
            <path d="M28.322714,32.3615875 C28.322714,32.3615875 26.8667878,34.847903 29.1546307,38.1629087 C31.4424736,34.847903 29.9865885,32.3615875 29.9865885,32.3615875" id="Path" fill="#623718" fill-rule="nonzero"></path>
        </g>
    </g>
</svg>