<?xml version="1.0" encoding="UTF-8"?>
<svg width="46px" height="46px" viewBox="0 0 46 46" version="1.1" xmlns="http://www.w3.org/2000/svg" xmlns:xlink="http://www.w3.org/1999/xlink">
    <!-- Generator: Sketch 63.1 (92452) - https://sketch.com -->
    <!--<title>illustrazione/functional/investimento-risparmio</title>-->
    <desc>Created with Sketch.</desc>
    <g id="illustrazione/functional/investimento-risparmio" stroke="none" stroke-width="1" fill="none" fill-rule="evenodd">
        <g id="005-growth" transform="translate(6.000000, 0.000000)" fill-rule="nonzero">
            <path d="M33.6585366,29.7092683 L30.9658537,29.7092683 C24.9881873,29.7092683 19.8450732,33.2636098 17.502439,38.3796176 C15.1598049,33.2636098 10.0166907,29.7092683 4.03902439,29.7092683 L1.34634146,29.7092683 C0.592300488,29.7092683 0,30.3015688 0,31.0556098 C0,39.2143493 6.65083707,45.955122 14.8097561,45.955122 L20.195122,45.955122 C28.354041,45.955122 35.004878,39.2143493 35.004878,31.0556098 C35.004878,30.3015688 34.4125776,29.7092683 33.6585366,29.7092683 Z" id="Path" fill="#31760E"></path>
            <path d="M35.004878,31.0556098 C35.004878,39.2143493 28.354041,45.955122 20.195122,45.955122 L17.502439,45.955122 L17.502439,38.3796176 C19.8450732,33.2636098 24.9881873,29.7092683 30.9658537,29.7092683 L33.6585366,29.7092683 C34.4125776,29.7092683 35.004878,30.3015688 35.004878,31.0556098 Z" id="Path" fill="#57AB2D"></path>
            <path d="M18.8487805,28.3629268 L18.8487805,44.4741463 C18.8487805,45.2280078 18.25648,45.8204878 17.502439,45.8204878 C16.748398,45.8204878 16.1560976,45.2280078 16.1560976,44.4741463 L16.1560976,28.3629268 C16.1560976,27.6088859 16.748398,27.0165854 17.502439,27.0165854 C18.25648,27.0165854 18.8487805,27.6088859 18.8487805,28.3629268 Z" id="Path" fill="#31760E"></path>
            <path d="M18.8487805,28.3629268 L18.8487805,44.4741463 C18.8487805,45.2280078 18.25648,45.8204878 17.502439,45.8204878 L17.502439,27.0165854 C18.25648,27.0165854 18.8487805,27.6088859 18.8487805,28.3629268 Z" id="Path" fill="#57AB2D"></path>
            <path d="M17.502439,0 C9.34352,0 2.69268293,6.74059317 2.69268293,14.8995122 C2.69268293,23.0582517 9.34352,29.7092683 17.502439,29.7092683 C25.661358,29.7092683 32.3121951,23.0582517 32.3121951,14.8995122 C32.3121951,6.74059317 25.661358,0 17.502439,0 Z" id="Path" fill="#FFD949"></path>
            <path d="M17.502439,27.0165854 C10.8207259,27.0165854 5.38536585,21.5812254 5.38536585,14.8995122 C5.38536585,8.21779902 10.8207259,2.69268293 17.502439,2.69268293 C24.1841522,2.69268293 29.6195122,8.21779902 29.6195122,14.8995122 C29.6195122,21.5812254 24.1841522,27.0165854 17.502439,27.0165854 Z" id="Path" fill="#E1B950"></path>
            <path d="M21.5414634,17.5921951 C21.5414634,19.2347317 20.5451707,20.7964878 18.8487805,21.3887883 L18.8487805,22.977561 C18.8487805,23.731602 18.25648,24.3239024 17.502439,24.3239024 C16.748398,24.3239024 16.1560976,23.731602 16.1560976,22.977561 L16.1560976,21.3887883 C15.5905444,21.20048 15.0789346,20.8771785 14.6481951,20.446439 C14.1096585,19.9079024 14.1096585,19.0731707 14.6481951,18.5345444 C15.1867317,18.0229346 16.0214634,18.0229346 16.5600898,18.5345444 C16.8292683,18.8039024 17.1523902,18.91152 17.502439,18.91152 C18.1756098,18.91152 18.8487805,18.4268371 18.8487805,17.5921054 C18.8487805,16.8380644 18.25648,16.2457639 17.502439,16.2457639 C15.294439,16.2457639 13.4634146,14.4417561 13.4634146,12.2067395 C13.4634146,10.5912195 14.3790166,9.05639024 16.1560976,8.46391024 L16.1560976,6.82146341 C16.1560976,6.06742244 16.748398,5.47512195 17.502439,5.47512195 C18.25648,5.47512195 18.8487805,6.06742244 18.8487805,6.82146341 L18.8487805,8.464 C19.4143337,8.6524878 19.9259434,8.92184585 20.3566829,9.35267512 C20.8952195,9.89121171 20.8952195,10.7259434 20.3566829,11.2645698 C19.8181463,11.7761795 18.9834146,11.7761795 18.4447883,11.2645698 C18.1756098,10.9952117 17.8524878,10.8875941 17.502439,10.8875941 C16.8292683,10.8875941 16.1560976,11.3722771 16.1560976,12.2070088 C16.1560976,12.9610498 16.748398,13.5533502 17.502439,13.5533502 C19.710439,13.5531707 21.5414634,15.3571785 21.5414634,17.5921951 Z" id="Path" fill="#FFD949"></path>
        </g>
    </g>
</svg>