<?xml version="1.0" encoding="UTF-8"?>
<svg width="46px" height="46px" viewBox="0 0 46 46" version="1.1" xmlns="http://www.w3.org/2000/svg" xmlns:xlink="http://www.w3.org/1999/xlink">
    <!-- Generator: Sketch 63.1 (92452) - https://sketch.com -->
    <!--<title>illustrazione/functional/macchina</title>-->
    <desc>Created with Sketch.</desc>
    <g id="illustrazione/functional/macchina" stroke="none" stroke-width="1" fill="none" fill-rule="evenodd">
        <g id="car" transform="translate(0.000000, 5.000000)">
            <path d="M45.3099074,20.027625 C45.2424346,18.6458438 44.7355091,17.3221875 43.9026036,16.224 C42.0242857,13.7469375 41.6581368,11.7803438 41.6581368,11.7803438 C40.1833602,7.8661875 38.8723139,5.25815625 37.9087203,3.60290625 C36.8948692,1.8646875 35.141501,0.69384375 33.1641489,0.43640625 C29.1878793,-0.08428125 16.7605674,-0.08428125 12.7842978,0.43640625 C10.808334,0.69534375 9.05496579,1.8661875 8.04111469,3.60290625 C7.07752113,5.25815625 5.76795573,7.8661875 4.29169819,11.7803438 C4.29169819,11.7803438 3.9255493,13.7469375 2.04723139,16.224 C1.21580684,17.3221875 0.707400402,18.6458438 0.641408451,20.027625 C0.499243461,23.0254688 1.3565835,23.6843438 2.12340443,30.468375 C2.1837505,31.0021875 2.62884909,31.403625 3.16020926,31.403625 L42.7926801,31.403625 C43.3240402,31.403625 43.7691388,31.0006875 43.8294849,30.468375 C44.0448612,28.5658125 44.6839557,24.706875 44.6839557,24.706875 C45.2438229,22.788375 45.3659034,21.2247188 45.3099074,20.027625 Z" id="Path" fill="#EE5019" fill-rule="nonzero"></path>
            <path d="M40.8237505,11.6233125 C39.6606076,8.67496875 38.4744185,6.10040625 37.2940604,4.04803125 C36.3994205,2.496 34.8212596,1.4124375 33.0751107,1.17534375 C29.0901408,0.64003125 16.8338712,0.6444375 12.8775936,1.17534375 C11.1314447,1.4124375 9.55319115,2.49609375 8.65855131,4.04803125 C7.4623662,6.1265625 6.26044266,8.736 5.11451509,11.6233125 C16.9988974,12.5701875 28.9378873,12.5701875 40.8237505,11.6233125 Z" id="Path" fill="#7BC8F8"></path>
            <path d="M39.1364668,15.0327188 C38.682668,15.1767188 38.2605231,15.3789375 37.9072394,15.5796563 C37.2638873,15.9433125 36.6033199,16.2822188 35.9140604,16.5469688 C34.771002,16.9862813 34.5770986,17.64225 34.5770986,17.64225 C34.542668,17.6873438 34.5096258,17.7324375 34.4779718,17.7789375 C33.6106358,19.0836563 34.7493441,20.820375 36.287336,20.5993125 C38.5117183,20.28075 40.3440362,19.6276875 41.2745875,19.2495 C41.807336,19.03275 42.2237425,18.5819063 42.360169,18.0160313 C42.3731268,17.9622187 42.3846036,17.9084063 42.3945996,17.856 C42.736499,15.9884063 40.9271348,14.4669375 39.1364668,15.0327188 Z" id="Path" fill="#F1F1F1" fill-rule="nonzero"></path>
            <path d="M41.5131026,25.4865938 L39.0388209,25.4865938 C38.6669336,25.4865938 38.4802495,25.9418438 38.7430141,26.2095 L41.2172958,28.7157188 C41.4800604,28.981875 41.9309899,28.7927813 41.9309899,28.4160938 L41.9309899,25.909875 C41.9308974,25.6756875 41.7442133,25.4865938 41.5131026,25.4865938 Z" id="Path" fill="#FFD949" fill-rule="nonzero"></path>
            <path d="M43.8292998,30.4654687 C43.7689537,31.0007812 43.3223742,31.403625 42.7911066,31.403625 L38.0307082,31.403625 L38.0307082,34.2021563 C38.0307082,35.1927187 38.8233521,35.9970937 39.8027726,35.9970937 L42.7925875,35.9970937 C43.7705272,35.9970937 44.5646519,35.1942187 44.5646519,34.2021563 L44.5646519,25.4414062 C44.3678793,26.6545312 43.9859034,29.0792812 43.8292998,30.4654687 Z" id="Path" fill="#373737" fill-rule="nonzero"></path>
            <path d="M45.9173481,9.66403125 C45.7737022,9.012375 45.1692233,8.57025 44.5100443,8.57025 L43.3152475,8.57025 C42.5498149,8.57025 41.9295091,9.19865625 41.9295091,9.973875 L41.9295091,10.836375 L41.2962455,10.836375 L41.6595252,11.7105937 L43.0524829,11.7105937 C43.7733964,11.7105937 44.4870905,11.5534688 45.1419195,11.2495312 C45.7320523,10.9760625 46.0623823,10.3215 45.9173481,9.66403125 Z" id="Path" fill="#EE5019" fill-rule="nonzero"></path>
            <ellipse id="Oval" fill="#FFD949" fill-rule="nonzero" cx="39.920503" cy="17.293125" rx="1.74189135" ry="1.764375"></ellipse>
            <ellipse id="Oval" fill="#FFD949" fill-rule="nonzero" cx="36.4166358" cy="18.685125" rx="1.27948491" ry="1.296"></ellipse>
            <polygon id="Path" fill="#636363" fill-rule="nonzero" points="33.1009336 18.686625 31.1005352 22.2152812 14.8506881 22.2152812 12.8502897 18.686625"></polygon>
            <path d="M11.4717706,17.7789375 C11.4415976,17.7324375 11.4085553,17.6873438 11.3726439,17.64225 C11.3726439,17.64225 11.1787404,16.9862813 10.0356821,16.5469688 C9.34642254,16.2822188 8.68724346,15.9433125 8.04250302,15.5796563 C7.68783099,15.3789375 7.26707445,15.1767188 6.81327565,15.0327188 C5.02399598,14.4654375 3.21324346,15.9883125 3.55356942,17.856 C3.56365795,17.9098125 3.57513481,17.9622188 3.58661167,18.0160313 C3.72303823,18.5818125 4.13944467,19.03275 4.67219316,19.2495 C5.60274447,19.6276875 7.43506237,20.28075 9.66092555,20.5993125 C11.2003058,20.820375 12.3391066,19.0836563 11.4717706,17.7789375 Z" id="Path" fill="#F1F1F1" fill-rule="nonzero"></path>
            <path d="M6.91240241,25.4865938 L4.43812072,25.4865938 C4.20691751,25.4865938 4.0202334,25.6756875 4.0202334,25.909875 L4.0202334,28.4160938 C4.0202334,28.7927812 4.47116298,28.981875 4.73392757,28.7157188 L7.20820926,26.2095 C7.47097384,25.9433437 7.28428974,25.4865938 6.91240241,25.4865938 Z" id="Path" fill="#FFD949" fill-rule="nonzero"></path>
            <path d="M39.4494889,29.8604063 C36.8733038,25.3455 33.9107928,25.4865938 33.9107928,25.4865938 L12.0389497,25.4865938 C12.0389497,25.4865938 9.07791952,25.3455 6.50025352,29.8604063 L2.04723139,29.8604063 L2.10183903,30.4422188 C2.15209658,30.9891563 2.60302616,31.4037188 3.14290141,31.4037188 L42.8084145,31.4037188 C43.3483823,31.4037188 43.7992193,30.9891563 43.8495694,30.4423125 L43.9041771,29.8605 L39.4494889,29.8604063 L39.4494889,29.8604063 Z" id="Path" fill="#636363" fill-rule="nonzero"></path>
            <path d="M3.1601167,31.405125 C2.62875654,31.405125 2.18217706,31.0007813 2.12192354,30.4669687 C1.96541247,29.0807813 1.58195573,26.654625 1.38666398,25.443 L1.38666398,34.20375 C1.38666398,35.1943125 2.17930785,35.9986875 3.15872837,35.9986875 L6.1484507,35.9986875 C7.12639034,35.9986875 7.92051509,35.1958125 7.92051509,34.20375 L7.92051509,31.4052187 L3.1601167,31.4052187 L3.1601167,31.405125 Z" id="Path" fill="#373737" fill-rule="nonzero"></path>
            <path d="M4.0202334,10.836375 L4.0202334,9.973875 C4.0202334,9.1985625 3.39983501,8.57025 2.6358833,8.57025 L1.44117907,8.57025 C0.782092555,8.57025 0.177521127,9.01246875 0.0338752515,9.66403125 C-0.111158954,10.32 0.220559356,10.9760625 0.809303823,11.2480313 C1.46552113,11.5520625 2.17782696,11.7090938 2.89874044,11.7090938 L4.29169819,11.7090938 L4.65497787,10.834875 L4.0202334,10.834875 L4.0202334,10.836375 Z" id="Path" fill="#EE5019" fill-rule="nonzero"></path>
            <ellipse id="Oval" fill="#FFD949" fill-rule="nonzero" cx="6.02923944" cy="17.293125" rx="1.74189135" ry="1.764375"></ellipse>
            <ellipse id="Oval" fill="#FFD949" fill-rule="nonzero" cx="9.53597586" cy="18.685125" rx="1.27948491" ry="1.296"></ellipse>
            <g id="Group" transform="translate(13.142857, 26.718750)" fill="#373737" fill-rule="nonzero">
                <path d="M19.0936097,0.00271875 L0.571899396,0.00271875 C0.281830986,0.00271875 0.0477585513,0.24121875 0.0477585513,0.533625 C0.0477585513,0.8274375 0.281830986,1.06453125 0.571899396,1.06453125 L19.0921288,1.06453125 C19.3821972,1.06453125 19.6162766,0.82603125 19.6162766,0.533625 C19.6177505,0.2398125 19.3821972,0.00271875 19.0936097,0.00271875 Z" id="Path"></path>
                <path d="M19.0936097,2.12203125 L0.571899396,2.12203125 C0.281830986,2.12203125 0.0477585513,2.36053125 0.0477585513,2.6529375 C0.0477585513,2.94675 0.281830986,3.18384375 0.571899396,3.18384375 L19.0921288,3.18384375 C19.3821972,3.18384375 19.6162766,2.94534375 19.6162766,2.6529375 C19.6177505,2.359125 19.3821972,2.12203125 19.0936097,2.12203125 Z" id="Path"></path>
            </g>
        </g>
    </g>
</svg>