<?xml version="1.0" encoding="UTF-8"?>
<svg width="46px" height="46px" viewBox="0 0 46 46" version="1.1" xmlns="http://www.w3.org/2000/svg" xmlns:xlink="http://www.w3.org/1999/xlink">
    <!-- Generator: Sketch 63.1 (92452) - https://sketch.com -->
    <!--<title>illustrazione/functional/man</title>-->
    <desc>Created with Sketch.</desc>
    <g id="illustrazione/functional/man" stroke="none" stroke-width="1" fill="none" fill-rule="evenodd">
        <g id="people-02" transform="translate(5.000000, 3.000000)">
            <path d="M30.1626722,33.2248165 C29.4800078,32.7125361 28.3004627,32.1602395 26.8601851,31.6690504 C26.9553456,32.1733603 10.0745596,32.1699268 10.1703389,31.6641046 C8.72342029,32.15652 7.53834783,32.7107785 6.85341472,33.2248574 C2.64564437,36.3827414 2.85238239,42.9694259 2.85238239,42.9694259 L18.5013612,42.9694259 L18.514767,42.9694259 L34.1637458,42.9694259 C34.1637046,42.9694259 34.3704426,36.3826597 30.1626722,33.2248165 Z" id="Path" fill="#7BC8F8"></path>
            <polygon id="Path" fill="#1B7BC7" points="19.8774147 37.3167243 17.152078 37.3167243 16.6972709 42.969385 20.3321806 42.969385"></polygon>
            <polygon id="Path" fill="#22608F" points="19.8774147 37.3167243 17.152078 37.3167243 15.9146198 33.2248165 21.1148729 33.2248165"></polygon>
            <polygon id="Path" fill="#B3E4FD" points="10.6960936 30.6876939 9.21114381 32.0145219 13.7324861 36.246384 18.5147258 33.2248165"></polygon>
            <polygon id="Path" fill="#B3E4FD" points="26.3333579 30.6876939 27.8183077 32.0145219 23.2969242 36.246384 18.5147258 33.2248165"></polygon>
            <path d="M18.5147258,5.47804468 C24.2491483,5.47804468 29.2411784,8.38810646 31.8202887,12.6808308 L32.3654716,25.0214221 C29.9945017,29.8570827 24.6844448,33.2248165 18.5147258,33.2248165 C12.3450067,33.2248165 7.03486734,29.8570418 4.66397993,25.0215856 L5.20916276,12.6809125 C7.78827313,8.38810646 12.780262,5.47804468 18.5147258,5.47804468 Z" id="Path" fill="#FFCFAB" fill-rule="nonzero"></path>
            <path d="M4.66397993,25.0213812 C2.60988183,25.3105276 0.635393534,24.0038099 0.149278707,21.9640076 C-0.365586399,19.8030941 0.984645485,17.6375209 3.16541806,17.1271616 C3.83183055,16.9712662 4.49873802,16.987943 5.11829208,17.1480076 C6.52581828,17.51175 4.78586957,25.0042139 4.66397993,25.0213812 Z" id="Path" fill="#FFCFAB" fill-rule="nonzero"></path>
            <path d="M32.3654716,25.0213812 C34.4195697,25.3105276 36.394058,24.0038099 36.8801728,21.9640076 C37.3950379,19.8030941 36.044806,17.6375209 33.8640334,17.1271616 C33.197621,16.9712662 32.5307135,16.987943 31.9112007,17.1480076 C30.5036332,17.51175 32.2435819,25.0042139 32.3654716,25.0213812 Z" id="Path" fill="#FFCFAB" fill-rule="nonzero"></path>
            <g id="Group" transform="translate(11.023411, 19.129278)" fill="#636363" fill-rule="nonzero">
                <path d="M14.3099465,2.86420057 C13.9385853,2.86420057 13.6376767,2.56593916 13.6376767,2.19798669 L13.6376767,0.691596958 C13.6376767,0.323644487 13.9385853,0.0254648289 14.3099465,0.0254648289 C14.6812664,0.0254648289 14.982175,0.323644487 14.982175,0.691596958 L14.982175,2.19798669 C14.982175,2.56593916 14.6811839,2.86420057 14.3099465,2.86420057 Z" id="Path"></path>
                <path d="M0.672682274,2.86420057 C0.301362319,2.86420057 0.000453734671,2.56593916 0.000453734671,2.19798669 L0.000453734671,0.691596958 C0.000453734671,0.323644487 0.301362319,0.0254648289 0.672682274,0.0254648289 C1.04404348,0.0254648289 1.34491085,0.323644487 1.34491085,0.691596958 L1.34491085,2.19798669 C1.34503456,2.56593916 1.04404348,2.86420057 0.672682274,2.86420057 Z" id="Path"></path>
            </g>
            <path d="M11.1250379,10.2595466 L15.6863501,10.2595466 C16.102136,10.2595466 16.5154058,10.1930437 16.9110624,10.0590979 C17.7374783,9.77943441 19.0509989,9.26412928 20.0455853,8.86535741 C20.9325541,8.50970817 21.9095273,8.49707795 22.8047458,8.82873384 L27.6059186,10.6071027 C30.8361382,11.8591302 31.1656734,15.0586654 31.1656734,15.0586654 C31.1656734,15.0586654 31.1656734,23.4849487 31.1656734,24.1009686 C32.210913,23.7377167 32.6440234,21.857039 33.0544058,18.6034268 C33.4102163,18.0013859 33.6048685,17.3091759 33.6048685,16.5997167 L33.6048685,8.79889544 C33.6048685,8.79889544 33.1434203,4.97320342 29.5835831,4.06901806 C29.5835831,4.06901806 31.0338841,0.811032319 27.276301,0.0403431559 L13.43232,0.0403431559 L13.43232,0.0403431559 C8.37156968,0.0403431559 4.26910702,4.36895532 4.26910702,9.70859886 L4.26910702,15.4402291 C4.26910702,16.6821198 4.66402118,18.2391122 4.93069342,18.6539886 C5.4035262,19.9708432 5.47220513,21.857039 6.67530323,22.5517424 L6.67530323,14.9543536 C7.56520067,10.7461987 11.1250379,10.2595466 11.1250379,10.2595466 Z" id="Path" fill="#8A512E"></path>
            <path d="M24.2730725,26.6585285 C23.9637079,24.9291683 19.0759955,24.9291683 18.5146845,25.0675285 C17.9533735,24.9291683 13.0656611,24.9291683 12.7562965,26.6585285 C12.5736065,27.6797376 12.3488016,31.5610599 12.9537536,32.2585837 C13.5587057,32.9561483 16.9433188,33.2207291 18.5146845,33.2207291 C20.0860502,33.2207291 23.5177692,32.8485665 24.0755741,32.2585837 C24.6334615,31.6686825 24.4557625,27.6797376 24.2730725,26.6585285 Z M18.5147258,32.6660618 C16.7970513,32.6660618 15.2362453,32.4080618 13.8338339,31.9889344 C13.5572207,30.3646625 13.245175,27.6765903 13.6843902,27.2747937 C14.3649509,26.6522747 17.5292553,27.6898337 18.5147258,27.0672916 C19.500155,27.6898337 22.6645006,26.6522747 23.3450613,27.2747937 C23.7842765,27.6765903 23.4722308,30.3646625 23.1956176,31.9889344 C21.7932062,32.4080209 20.2324002,32.6660618 18.5147258,32.6660618 Z" id="Shape" fill="#8A512E"></path>
        </g>
    </g>
</svg>