<?xml version="1.0" encoding="UTF-8"?>
<svg width="46px" height="46px" viewBox="0 0 46 46" version="1.1" xmlns="http://www.w3.org/2000/svg" xmlns:xlink="http://www.w3.org/1999/xlink">
    <!-- Generator: Sketch 63.1 (92452) - https://sketch.com -->
    <!--<title>illustrazione/functional/medal</title>-->
    <desc>Created with Sketch.</desc>
    <g id="illustrazione/functional/medal" stroke="none" stroke-width="1" fill="none" fill-rule="evenodd">
        <polygon id="-g-Path" fill="#EC625E" points="12.476424 21 3 39.1207314 11.6054341 38.3138356 15.7704479 46 25.2468719 27.8792686"></polygon>
        <polygon id="-g-Path" fill="#EC625E" points="33.1851945 21 42.6616184 39.1207314 34.0561843 38.3138356 29.8911705 46 20.4147465 27.8792686"></polygon>
        <circle id="Oval" fill="#FFD949" fill-rule="nonzero" cx="23" cy="17" r="17"></circle>
        <path d="M23,31 C15.2799184,31 9,24.7180241 9,16.9991597 C9,9.2802953 15.2799184,3 23,3 C30.7200816,3 37,9.28197587 37,17.0008403 C37,24.7197047 30.7200816,31 23,31 Z" id="Path" fill="#E1B950" fill-rule="nonzero"></path>
        <path d="M30.3220254,14.220533 L25.220973,14.220533 L23.6435745,9.45870016 C23.440892,8.84709995 22.5584049,8.84709995 22.3557224,9.45870016 L20.7795828,14.220533 L15.6785304,14.220533 C15.0226448,14.220533 14.749464,15.0446488 15.2807188,15.4227289 L19.4073846,18.3658233 L17.831245,23.1276561 C17.6285625,23.7392563 18.3423574,24.2483054 18.8736121,23.8702252 L23.0002779,20.9271309 L27.1269437,23.8702252 C27.6581984,24.2483054 28.3719933,23.7392563 28.1693108,23.1276561 L26.5931712,18.3658233 L30.719837,15.4227289 C31.2498329,15.0446488 30.977911,14.220533 30.3220254,14.220533 Z" id="Path" fill="#FFD949" fill-rule="nonzero"></path>
    </g>
</svg>