<?xml version="1.0" encoding="UTF-8"?>
<svg width="46px" height="46px" viewBox="0 0 46 46" version="1.1" xmlns="http://www.w3.org/2000/svg" xmlns:xlink="http://www.w3.org/1999/xlink">
    <!-- Generator: Sketch 63.1 (92452) - https://sketch.com -->
    <!--<title>illustrazione/functional/mezzi-trasporto</title>-->
    <desc>Created with Sketch.</desc>
    <g id="illustrazione/functional/mezzi-trasporto" stroke="none" stroke-width="1" fill="none" fill-rule="evenodd">
        <g id="Group-3" transform="translate(0.000000, 1.000000)">
            <path d="M2.31121951,9.55025917 C1.92730181,9.55025917 1.61631093,9.23926829 1.61631093,8.85535059 L1.61631093,7.705 C1.61631093,6.30010668 2.75929883,5.15711888 4.16419205,5.15711888 L7.28847561,5.15711888 C7.67239332,5.15711888 7.9833841,5.46846034 7.9833841,5.85202746 C7.9833841,6.23594508 7.67239332,6.54693595 7.28847561,6.54693595 L4.16419205,6.54693595 C3.52573171,6.54693595 3.00612809,7.06653966 3.00612809,7.705 L3.00612809,8.85535059 C3.00612809,9.23926829 2.69513722,9.55025917 2.31121951,9.55025917 Z" id="Path" fill="#838383" fill-rule="nonzero"></path>
            <path d="M43.6439024,9.55025917 C43.2599847,9.55025917 42.9489939,9.23926829 42.9489939,8.85535059 L42.9489939,7.705 C42.9489939,7.06653966 42.4293902,6.54693595 41.7909299,6.54693595 L38.6666463,6.54693595 C38.2827286,6.54693595 37.9717378,6.23594508 37.9717378,5.85202746 C37.9717378,5.46846034 38.2827286,5.15711888 38.6666463,5.15711888 L41.7909299,5.15711888 C43.1958231,5.15711888 44.338811,6.30010668 44.338811,7.705 L44.338811,8.85535059 C44.338811,9.23926829 44.0278201,9.55025917 43.6439024,9.55025917 L43.6439024,9.55025917 Z" id="Path" fill="#838383" fill-rule="nonzero"></path>
            <path d="M14.6596951,43.2291311 L11.4579268,43.2291311 C10.7886128,43.2291311 10.2462195,42.6867378 10.2462195,42.0174238 L10.2462195,38.5965244 L15.8714024,38.5965244 L15.8714024,42.0174238 C15.8714024,42.6867378 15.3290091,43.2291311 14.6596951,43.2291311 L14.6596951,43.2291311 Z" id="Path" fill="#636363" fill-rule="nonzero"></path>
            <path d="M14.0184299,38.5965244 L14.0184299,41.9781555 C14.0184299,42.6688567 13.4585061,43.2291311 12.7678049,43.2291311 L14.6207774,43.2291311 C15.3114787,43.2291311 15.8714024,42.6688567 15.8714024,41.9781555 L15.8714024,38.5965244 L14.0184299,38.5965244 Z" id="Path" fill="#373737" fill-rule="nonzero"></path>
            <path d="M34.4971951,43.2291311 L31.2954268,43.2291311 C30.6261128,43.2291311 30.0837195,42.6867378 30.0837195,42.0174238 L30.0837195,38.5965244 L35.7089024,38.5965244 L35.7089024,42.0174238 C35.7089024,42.6867378 35.1665091,43.2291311 34.4971951,43.2291311 L34.4971951,43.2291311 Z" id="Path" fill="#636363" fill-rule="nonzero"></path>
            <path d="M33.8559299,38.5965244 L33.8559299,41.9781555 C33.8559299,42.6688567 33.2960061,43.2291311 32.6049543,43.2291311 L34.4579268,43.2291311 C35.1489787,43.2291311 35.7089024,42.6688567 35.7089024,41.9781555 L35.7089024,38.5965244 L33.8559299,38.5965244 Z" id="Path" fill="#373737" fill-rule="nonzero"></path>
            <path d="M37.1267683,39.6683384 L8.82835366,39.6683384 C7.80492376,39.6683384 6.97538112,38.8387958 6.97538112,37.8153659 L6.97538112,22.8527439 L7.9833841,21.6645275 L7.9833841,9.2529421 L6.97538112,8.29963415 L6.97538112,1.85297254 C6.97538112,0.829542728 7.80492376,1.89808164e-14 8.82835366,1.89808164e-14 L37.1267683,1.89808164e-14 C38.1501982,1.89808164e-14 38.9797408,0.829542728 38.9797408,1.85297254 L38.9797408,8.29963415 L38.1487958,9.55025917 L38.1487958,21.7013415 L38.9797408,22.8527439 L38.9797408,37.8153659 C38.9797408,38.8387958 38.1501982,39.6683384 37.1267683,39.6683384 Z" id="Path" fill="#3D9AE2"></path>
            <path d="M37.1267683,1.51846531e-14 L34.1742836,1.51846531e-14 L34.1742836,33.9639177 C34.1742836,34.9873476 33.3447408,35.8168902 32.3213109,35.8168902 L6.97538112,35.8168902 L6.97538112,37.8150153 C6.97538112,38.8384452 7.80492376,39.6679878 8.82835366,39.6679878 L37.1267683,39.6679878 C38.1501982,39.6679878 38.9797408,38.8384452 38.9797408,37.8150153 L38.9797408,1.85297254 C38.9797408,0.829542728 38.1501982,1.51846531e-14 37.1267683,1.51846531e-14 Z" id="Path" fill="#1B7BC7"></path>
            <path d="M8.82835366,26.1810823 L37.1267683,26.1810823 C38.1501982,26.1810823 38.9797408,25.3515397 38.9797408,24.3281098 L38.9797408,22.8527439 L37.6726677,21.7013415 L37.6726677,9.55025917 L38.9797408,8.29963415 L38.9797408,4.68625004 L6.97538112,4.68625004 L6.97538112,8.29963415 L7.9833841,9.32621951 L7.9833841,21.6645275 L6.97538112,22.8527439 L6.97538112,24.3281098 C6.97538112,25.3515397 7.80492376,26.1810823 8.82835366,26.1810823 L8.82835366,26.1810823 Z" id="Path" fill="#22608F"></path>
            <path d="M38.9797408,24.3281098 L38.9797408,4.68625004 L34.1742836,4.68625004 L34.1742836,26.1810823 L37.1267683,26.1810823 C38.1501982,26.1810823 38.9797408,25.3515397 38.9797408,24.3281098 L38.9797408,24.3281098 Z" id="Path" fill="#22608F"></path>
            <polygon id="Path" fill="#B3E4FD" points="6.97538112 8.29963415 38.9797408 8.29963415 38.9797408 22.8527439 6.97538112 22.8527439"></polygon>
            <polygon id="Path" fill="#7BC8F8" points="34.1742836 8.29963415 38.9797408 8.29963415 38.9797408 22.8527439 34.1742836 22.8527439"></polygon>
            <path d="M3.90263722,17.2475457 L0.719801807,17.2475457 C0.322210388,17.2475457 1.13884898e-14,16.9253353 1.13884898e-14,16.5277439 L1.13884898e-14,9.0734299 C1.13884898e-14,8.67583839 0.322210388,8.353628 0.719801807,8.353628 L3.90263722,8.353628 C4.30022864,8.353628 4.62243902,8.67583839 4.62243902,9.0734299 L4.62243902,16.5277439 C4.62243902,16.9253353 4.30022864,17.2475457 3.90263722,17.2475457 Z" id="Path" fill="#9FA0A1" fill-rule="nonzero"></path>
            <path d="M3.87949693,8.353628 L2.70495429,8.353628 L2.70495429,15.1147866 C2.70495429,15.5253506 2.37222565,15.8580793 1.96166161,15.8580793 L1.13884898e-14,15.8580793 L1.13884898e-14,16.5046036 C1.13884898e-14,16.9148171 0.332728636,17.2475457 0.742942096,17.2475457 L3.87949693,17.2475457 C4.28971039,17.2475457 4.62243902,16.9148171 4.62243902,16.5046036 L4.62243902,9.0965701 C4.62243902,8.68635673 4.28971039,8.353628 3.87949693,8.353628 Z" id="Path" fill="#838383" fill-rule="nonzero"></path>
            <path d="M45.2353201,17.2475457 L42.0524847,17.2475457 C41.6548933,17.2475457 41.3326829,16.9253353 41.3326829,16.5277439 L41.3326829,9.0734299 C41.3326829,8.67583839 41.6548933,8.353628 42.0524847,8.353628 L45.2353201,8.353628 C45.6329116,8.353628 45.955122,8.67583839 45.955122,9.0734299 L45.955122,16.5277439 C45.955122,16.9253353 45.6329116,17.2475457 45.2353201,17.2475457 L45.2353201,17.2475457 Z" id="Path" fill="#9FA0A1" fill-rule="nonzero"></path>
            <path d="M45.2118293,8.353628 L44.0372865,8.353628 L44.0372865,15.1147866 C44.0372865,15.5253506 43.7045579,15.8580793 43.2943445,15.8580793 L41.3326829,15.8580793 L41.3326829,16.5046036 C41.3326829,16.9148171 41.6654116,17.2475457 42.075625,17.2475457 L45.2118293,17.2475457 C45.6223933,17.2475457 45.955122,16.9148171 45.955122,16.5046036 L45.955122,9.0965701 C45.955122,8.68635673 45.6223933,8.353628 45.2118293,8.353628 Z" id="Path" fill="#838383" fill-rule="nonzero"></path>
            <path d="M16.4832164,33.5007622 L12.1430182,33.5007622 C11.052622,33.5007622 10.1683841,32.6165244 10.1683841,31.5261281 L10.1683841,30.3361585 C10.1683841,30.0882774 10.3692836,29.887378 10.6171646,29.887378 L14.9573628,29.887378 C16.0481098,29.887378 16.9319969,30.7712652 16.9319969,31.8620122 L16.9319969,33.0519818 C16.9319969,33.2998628 16.7310976,33.5007622 16.4832164,33.5007622 Z" id="Path" fill="#FFE997" fill-rule="nonzero"></path>
            <path d="M29.4719055,33.5007622 L33.8121037,33.5007622 C34.9025,33.5007622 35.7867378,32.6165244 35.7867378,31.5261281 L35.7867378,30.3361585 C35.7867378,30.0882774 35.5858384,29.887378 35.3379574,29.887378 L30.9977592,29.887378 C29.9070122,29.887378 29.023125,30.7712652 29.023125,31.8620122 L29.023125,33.0519818 C29.023125,33.2998628 29.2240244,33.5007622 29.4719055,33.5007622 L29.4719055,33.5007622 Z" id="Path" fill="#FFE997" fill-rule="nonzero"></path>
            <path d="M14.958064,29.8887805 C15.1663262,30.208186 15.2872865,30.5892988 15.2872865,30.9991616 L15.2872865,32.1109451 C15.2872865,32.3665397 15.0800762,32.5741006 14.8241311,32.5741006 L10.5621189,32.5741006 C10.5407317,32.5741006 10.5189939,32.5730488 10.4976067,32.5723476 C10.861189,33.1308689 11.4905335,33.5007622 12.2068293,33.5007622 L16.4688415,33.5007622 C16.7247866,33.5007622 16.9319969,33.2932013 16.9319969,33.0372561 L16.9319969,31.9254725 C16.9319969,30.8214024 16.0540701,29.9231402 14.958064,29.8887805 Z" id="Path" fill="#FFD949" fill-rule="nonzero"></path>
            <path d="M35.3232317,29.887378 L34.1420275,29.887378 L34.1420275,30.5360061 C34.1420275,31.6614634 33.2293902,32.5741006 32.1035823,32.5741006 L29.023125,32.5741006 L29.023125,33.0372561 C29.023125,33.2932013 29.2303353,33.5007622 29.4862805,33.5007622 L33.7482927,33.5007622 C34.8741006,33.5007622 35.7867378,32.588125 35.7867378,31.4623171 L35.7867378,30.3505335 C35.7867378,30.0945884 35.5791769,29.887378 35.3232317,29.887378 L35.3232317,29.887378 Z" id="Path" fill="#FFD949" fill-rule="nonzero"></path>
            <path d="M26.0510061,37.237561 L19.9041158,37.237561 C19.7996341,37.237561 19.7147866,37.153064 19.7147866,37.0485823 L19.7147866,35.2029725 C19.7147866,35.0984909 19.7996341,35.0139939 19.9041158,35.0139939 L26.0510061,35.0139939 C26.1554878,35.0139939 26.2403353,35.0984909 26.2403353,35.2029725 L26.2403353,37.0485823 C26.2403353,37.153064 26.1554878,37.237561 26.0510061,37.237561 Z" id="Path" fill="#D4D7D9" fill-rule="nonzero"></path>
            <g id="Group" transform="translate(15.527805, 15.527805)" fill="#9FA0A1" fill-rule="nonzero">
                <path d="M2.29439024,7.32493902 L9.466814,1.32916161 C9.77114327,1.07461888 9.811814,0.621981752 9.55727136,0.317652394 C9.30307931,0.0133232156 8.85009142,-0.0273476059 8.54576224,0.227195122 L0.0553963863,7.32493902 L2.29439024,7.32493902 Z" id="Path"></path>
                <path d="M7.29022864,7.32493902 L14.4626524,1.32916161 C14.7666311,1.07461888 14.8073018,0.621981752 14.5527592,0.317652394 C14.2985671,0.0129725385 13.8455792,-0.0273476059 13.54125,0.227195122 L5.05088419,7.32493902 L7.29022864,7.32493902 Z" id="Path"></path>
            </g>
        </g>
    </g>
</svg>