<?xml version="1.0" encoding="UTF-8"?>
<svg width="46px" height="46px" viewBox="0 0 46 46" version="1.1" xmlns="http://www.w3.org/2000/svg" xmlns:xlink="http://www.w3.org/1999/xlink">
    <!-- Generator: Sketch 63.1 (92452) - https://sketch.com -->
    <!--<title>illustrazione/functional/money-in-time</title>-->
    <desc>Created with Sketch.</desc>
    <g id="illustrazione/functional/money-in-time" stroke="none" stroke-width="1" fill="none" fill-rule="evenodd">
        <path d="M39.3281957,39.9583556 C39.7052705,39.9583556 40.010993,40.2659786 40.010993,40.6453974 C40.010993,41.0248163 39.7052705,41.3324393 39.3281957,41.3324393 L29.7690328,41.3324393 C29.391958,41.3324393 29.0862355,41.0248163 29.0862355,40.6453974 C29.0862355,40.2659786 29.391958,39.9583556 29.7690328,39.9583556 L39.3281957,39.9583556 Z M39.3281957,37.4025598 C39.7052705,37.4025598 40.010993,37.7101828 40.010993,38.0896017 C40.010993,38.4690205 39.7052705,38.7766435 39.3281957,38.7766435 L29.7690328,38.7766435 C29.391958,38.7766435 29.0862355,38.4690205 29.0862355,38.0896017 C29.0862355,37.7101828 29.391958,37.4025598 29.7690328,37.4025598 L39.3281957,37.4025598 Z M39.3281957,34.846764 C39.7052705,34.846764 40.010993,35.154387 40.010993,35.5338059 C40.010993,35.9132248 39.7052705,36.2208478 39.3281957,36.2208478 L29.7690328,36.2208478 C29.391958,36.2208478 29.0862355,35.9132248 29.0862355,35.5338059 C29.0862355,35.154387 29.391958,34.846764 29.7690328,34.846764 L39.3281957,34.846764 Z M34.5486143,0 C34.7526853,0 34.9460023,0.0918059708 35.0756485,0.250340884 L35.0756485,0.250340884 L44.6348113,11.9300528 C44.9949869,12.3700172 44.6723651,13.0537957 44.1077771,13.0537957 L44.1077771,13.0537957 L40.010993,13.0537957 L40.010993,32.9780101 C40.010993,33.357429 39.7052705,33.665052 39.3281957,33.665052 L39.3281957,33.665052 L29.7690328,33.665052 C29.391958,33.665052 29.0862355,33.357429 29.0862355,32.9780101 L29.0862355,32.9780101 L29.0862355,13.0537957 L24.9894514,13.0537957 C24.4248634,13.0537957 24.102327,12.3699314 24.4624172,11.9300528 L24.4624172,11.9300528 L34.0215801,0.250340884 C34.1512262,0.0918059708 34.3445432,0 34.5486143,0 Z" id="Combined-Shape" fill="#57AB2D" fill-rule="nonzero"></path>
        <g id="coins" transform="translate(3.242604, 14.301888)" fill-rule="nonzero">
            <path d="M28.6986637,15.8579571 L28.6986637,16.5300378 C28.6986637,20.2932557 22.274397,23.3436772 14.3501597,23.3436772 C9.97607339,23.3436772 6.0616911,22.4131873 3.42984434,20.9474216 C4.31724413,24.3376835 10.3480308,27.1438107 17.6613529,27.1438107 C25.5855902,27.1438107 32.009857,23.8496378 32.009857,20.0864199 C32.009857,18.4317332 30.7648483,16.9735677 28.6986637,15.8579571" id="XMLID_143_" fill="#FCC62D"></path>
            <path d="M17.6613529,27.1438107 C9.73711561,27.1438107 3.31284884,23.8496378 3.31284884,20.0864199 L3.31284884,24.6726381 C3.31284884,28.435856 9.73711561,31.4868204 17.6613529,31.4868204 C25.5855902,31.4868204 32.009857,28.435856 32.009857,24.6726381 L32.009857,20.0864199 C32.009857,23.8496378 25.5855902,27.1438107 17.6613529,27.1438107" id="XMLID_142_" fill="#E4AF18"></path>
            <path d="M4.96844547,27.8761507 C5.29404614,28.1687609 5.66324418,28.4488851 6.07217655,28.7148944 L6.07217655,24.2139077 C5.66324418,23.9370409 5.29404614,23.6466021 4.96844547,23.3436772 L4.96844547,27.8761507 Z" id="XMLID_141_" fill="#CE9912"></path>
            <path d="M29.2505293,24.2139077 L29.2505293,28.7148944 C29.6594616,28.4494279 30.0286597,28.1687609 30.3542604,27.8761507 L30.3542604,23.3436772 C30.0292116,23.6466021 29.6600135,23.9370409 29.2505293,24.2139077" id="XMLID_140_" fill="#CE9912"></path>
            <path d="M7.17590763,29.3478881 C7.52468665,29.5254086 7.89333284,29.6931573 8.27963871,29.8522201 L8.27963871,25.4044353 C7.89333284,25.2372294 7.52468665,25.0607946 7.17590763,24.875131 L7.17590763,29.3478881 Z" id="XMLID_139_" fill="#CE9912"></path>
            <path d="M27.0430671,29.8516772 C27.429373,29.6931573 27.7980192,29.5248657 28.1467982,29.3473452 L28.1467982,24.8745881 C27.7980192,25.0602517 27.429373,25.2372294 27.0430671,25.4038924 L27.0430671,29.8516772 Z" id="XMLID_138_" fill="#CE9912"></path>
            <path d="M9.3833698,30.2626345 C9.73987494,30.3826101 10.1079693,30.4944426 10.4871009,30.5986749 L10.4871009,26.1937773 C10.1079693,26.0830305 9.73987494,25.9641406 9.3833698,25.8376505 L9.3833698,30.2626345 Z" id="XMLID_137_" fill="#CE9912"></path>
            <path d="M24.8356049,30.5986749 C25.2147366,30.4944426 25.5828309,30.3826101 25.939336,30.2626345 L25.939336,25.8376505 C25.5828309,25.9641406 25.2147366,26.0830305 24.8356049,26.1937773 L24.8356049,30.5986749 Z" id="XMLID_136_" fill="#CE9912"></path>
            <path d="M12.1426975,30.9895457 C12.5030657,31.0612054 12.8717119,31.1252648 13.2464286,31.1822668 L13.2464286,26.8153705 C12.8717119,26.7540255 12.5030657,26.6856231 12.1426975,26.6096205 L12.1426975,30.9895457 Z" id="XMLID_135_" fill="#CE9912"></path>
            <path d="M22.0762772,31.1822668 C22.4509939,31.1247219 22.8196401,31.0606625 23.1800083,30.9895457 L23.1800083,26.6090776 C22.8196401,26.6850803 22.4509939,26.7534827 22.0762772,26.8153705 L22.0762772,31.1822668 Z" id="XMLID_134_" fill="#CE9912"></path>
            <path d="M15.4538907,31.4319899 C15.8170183,31.4585908 16.1856645,31.4770486 16.5576218,31.4900776 L16.5576218,27.1454393 C16.1856645,27.1313245 15.8170183,27.111781 15.4538907,27.0830085 L15.4538907,31.4319899 Z" id="XMLID_133_" fill="#CE9912"></path>
            <path d="M18.765084,31.4906205 C19.1370414,31.4770486 19.5056876,31.4591337 19.8688151,31.4325327 L19.8688151,27.0830085 C19.5056876,27.111781 19.1370414,27.1313245 18.765084,27.1459822 L18.765084,31.4906205 Z" id="XMLID_132_" fill="#CE9912"></path>
            <path d="M14.3501597,18.9968673 C6.42592236,18.9968673 0.00165559662,15.7026945 0.00165559662,11.9394766 L0.00165559662,16.5256948 C0.00165559662,20.2889127 6.42592236,23.339877 14.3501597,23.339877 C22.274397,23.339877 28.6986637,20.2889127 28.6986637,16.5256948 L28.6986637,11.9394766 C28.6986637,15.7026945 22.274397,18.9968673 14.3501597,18.9968673" id="XMLID_131_" fill="#E4AF18"></path>
            <path d="M1.65725222,19.7292073 C1.98285289,20.0218176 2.35205094,20.3019417 2.7609833,20.5679511 L2.7609833,16.0669644 C2.35205094,15.7900975 1.98285289,15.4996588 1.65725222,15.1972767 L1.65725222,19.7292073 Z" id="XMLID_130_" fill="#CE9912"></path>
            <path d="M25.939336,16.0669644 L25.939336,20.5679511 C26.3482684,20.3024846 26.7174664,20.0218176 27.0430671,19.7292073 L27.0430671,15.1967338 C26.7180183,15.4996588 26.3488203,15.7900975 25.939336,16.0669644" id="XMLID_129_" fill="#CE9912"></path>
            <path d="M3.86471438,21.2009447 C4.21349341,21.3784653 4.58213959,21.546214 4.96844547,21.7052767 L4.96844547,17.2574919 C4.58213959,17.0902861 4.21349341,16.9138513 3.86471438,16.7281876 L3.86471438,21.2009447 Z" id="XMLID_128_" fill="#CE9912"></path>
            <path d="M23.7318739,21.7047339 C24.1181797,21.546214 24.4868259,21.3784653 24.8356049,21.2004019 L24.8356049,16.7276448 C24.4868259,16.9133084 24.1181797,17.0902861 23.7318739,17.2569491 L23.7318739,21.7047339 Z" id="XMLID_127_" fill="#CE9912"></path>
            <path d="M6.07217655,22.1156912 C6.42868169,22.2356668 6.796776,22.3474993 7.17590763,22.4517315 L7.17590763,18.0468339 C6.796776,17.9360872 6.42868169,17.8171973 6.07217655,17.6907072 L6.07217655,22.1156912 Z" id="XMLID_126_" fill="#CE9912"></path>
            <path d="M21.5244117,22.4517315 C21.9035433,22.3474993 22.2716376,22.2356668 22.6281428,22.1156912 L22.6281428,17.6907072 C22.2716376,17.8171973 21.9035433,17.9360872 21.5244117,18.0468339 L21.5244117,22.4517315 Z" id="XMLID_125_" fill="#CE9912"></path>
            <path d="M8.83150426,22.8426024 C9.19187245,22.9142621 9.56051864,22.9783215 9.93523534,23.0353235 L9.93523534,18.6684272 C9.56051864,18.6070822 9.19187245,18.5386798 8.83150426,18.4626771 L8.83150426,22.8426024 Z" id="XMLID_124_" fill="#CE9912"></path>
            <path d="M18.765084,23.0358663 C19.1398007,22.9783215 19.5084469,22.9142621 19.8688151,22.8431453 L19.8688151,18.4626771 C19.5084469,18.5386798 19.1398007,18.6070822 18.765084,18.6689701 L18.765084,23.0358663 Z" id="XMLID_123_" fill="#CE9912"></path>
            <path d="M12.1426975,23.2855894 C12.505825,23.3121903 12.8744712,23.3306481 13.2464286,23.3436772 L13.2464286,18.9990388 C12.8744712,18.984924 12.505825,18.9653805 12.1426975,18.9366081 L12.1426975,23.2855894 Z" id="XMLID_122_" fill="#CE9912"></path>
            <path d="M15.4538907,23.3436772 C15.8258481,23.3301053 16.1944943,23.3121903 16.5576218,23.2855894 L16.5576218,18.9360652 C16.1944943,18.9648376 15.8258481,18.9843812 15.4538907,18.9990388 L15.4538907,23.3436772 Z" id="XMLID_121_" fill="#CE9912"></path>
            <path d="M28.3217396,18.0788636 C26.8443955,21.0950839 21.1524543,23.3436772 14.3501597,23.3436772 C11.8093707,23.3436772 9.42420785,23.028809 7.3541602,22.4788754 C9.35632838,23.8159795 12.9197242,24.953848 17.6613529,24.953848 C25.2119772,24.953848 29.8023948,22.0706324 29.8023948,20.0864199 C29.8023948,19.4241109 29.2841931,18.7216291 28.3217396,18.0788636" id="XMLID_120_" fill="#FFD949"></path>
            <path d="M17.1094874,17.914915 C9.18525007,17.914915 2.7609833,14.8639507 2.7609833,11.1007328 L2.7609833,8.03239645 C1.02757364,9.10131971 0.00165559662,10.4416811 0.00165559662,11.9432767 C0.00165559662,15.7064946 6.42592236,19.0006675 14.3501597,19.0006675 C18.165758,19.0006675 21.6303699,18.2357549 24.2004077,17.0235123 C22.1082854,17.5897322 19.6894588,17.914915 17.1094874,17.914915" id="XMLID_119_" fill="#FFD949"></path>
            <path d="M17.1094874,13.5681052 C9.18525007,13.5681052 2.7609833,10.2739323 2.7609833,6.51071442 L2.7609833,11.0969327 C2.7609833,14.8601506 9.18525007,17.9111149 17.1094874,17.9111149 C25.0337247,17.9111149 31.4579914,14.8601506 31.4579914,11.0969327 L31.4579914,6.51071442 C31.4579914,10.2739323 25.0337247,13.5681052 17.1094874,13.5681052" id="XMLID_118_" fill="#E4AF18"></path>
            <path d="M4.41657993,14.3004452 C4.7421806,14.5930555 5.11137864,14.8731796 5.52031101,15.139189 L5.52031101,10.6382023 C5.11137864,10.3613354 4.7421806,10.0708966 4.41657993,9.76851458 L4.41657993,14.3004452 Z" id="XMLID_117_" fill="#CE9912"></path>
            <path d="M28.6986637,10.6382023 L28.6986637,15.139189 C29.1075961,14.8737225 29.4767942,14.5930555 29.8023948,14.3004452 L29.8023948,9.7679717 C29.477346,10.0708966 29.108148,10.3613354 28.6986637,10.6382023" id="XMLID_116_" fill="#CE9912"></path>
            <path d="M6.62404209,15.7721826 C6.97282111,15.9497031 7.34146729,16.1174519 7.72777317,16.2765146 L7.72777317,11.8287298 C7.34146729,11.6615239 6.97282111,11.4850892 6.62404209,11.2994255 L6.62404209,15.7721826 Z" id="XMLID_115_" fill="#CE9912"></path>
            <path d="M26.4912016,16.2759717 C26.8775075,16.1174519 27.2461536,15.9497031 27.5949327,15.7716397 L27.5949327,11.2988826 C27.2461536,11.4845463 26.8775075,11.6615239 26.4912016,11.8281869 L26.4912016,16.2759717 Z" id="XMLID_114_" fill="#CE9912"></path>
            <path d="M8.83150426,16.686929 C9.18800939,16.8069047 9.55610371,16.9187372 9.93523534,17.0229694 L9.93523534,12.6180718 C9.55610371,12.5073251 9.18800939,12.3884352 8.83150426,12.261945 L8.83150426,16.686929 Z" id="XMLID_113_" fill="#CE9912"></path>
            <path d="M24.2837394,17.0229694 C24.662871,16.9187372 25.0309654,16.8069047 25.3874705,16.686929 L25.3874705,12.261945 C25.0309654,12.3884352 24.662871,12.5073251 24.2837394,12.6180718 L24.2837394,17.0229694 Z" id="XMLID_112_" fill="#CE9912"></path>
            <path d="M11.590832,17.4138403 C11.9512002,17.4854999 12.3198463,17.5495593 12.694563,17.6065613 L12.694563,13.2396651 C12.3198463,13.1783201 11.9512002,13.1099177 11.590832,13.033915 L11.590832,17.4138403 Z" id="XMLID_111_" fill="#CE9912"></path>
            <path d="M21.5244117,17.6071042 C21.8991284,17.5495593 22.2677746,17.4854999 22.6281428,17.4143832 L22.6281428,13.033915 C22.2677746,13.1099177 21.8991284,13.1783201 21.5244117,13.240208 L21.5244117,17.6071042 Z" id="XMLID_110_" fill="#CE9912"></path>
            <path d="M14.9020252,17.8568273 C15.2651527,17.8834282 15.6337989,17.901886 16.0057563,17.914915 L16.0057563,13.5702767 C15.6337989,13.5561619 15.2651527,13.5366184 14.9020252,13.5078459 L14.9020252,17.8568273 Z" id="XMLID_109_" fill="#CE9912"></path>
            <path d="M18.2132185,17.914915 C18.5851758,17.9013431 18.953822,17.8834282 19.3169495,17.8568273 L19.3169495,13.5073031 C18.953822,13.5360755 18.5851758,13.555619 18.2132185,13.5702767 L18.2132185,17.914915 Z" id="XMLID_108_" fill="#CE9912"></path>
            <path d="M31.4579914,6.51451456 C31.4579914,10.2777325 25.0337247,13.5719053 17.1094874,13.5719053 C9.18525007,13.5719053 2.7609833,10.2777325 2.7609833,6.51451456 C2.7609833,2.75129665 9.18525007,0 17.1094874,0 C25.0337247,0 31.4579914,2.75129665 31.4579914,6.51451456" id="XMLID_107_" fill="#FCC62D"></path>
            <path d="M17.1094874,11.3819427 C9.55886304,11.3819427 4.96844547,8.49926999 4.96844547,6.51451456 C4.96844547,4.530302 9.55886304,1.62862864 17.1094874,1.62862864 C24.6601117,1.62862864 29.2505293,4.530302 29.2505293,6.51451456 C29.2505293,8.49926999 24.6601117,11.3819427 17.1094874,11.3819427" id="XMLID_106_" fill="#FFD949"></path>
            <path d="M20.8516876,7.25228333 C21.3042174,7.15782287 21.5696647,6.8831275 21.4719845,6.56988793 L21.36713,6.23547618 C21.2904207,5.98955326 20.9918615,5.78434605 20.6259746,5.68228532 C20.1281919,4.63616286 18.8589011,4.25723526 16.9737284,4.25723526 C16.8843262,4.25723526 16.7971315,4.25940677 16.7110405,4.26266402 C16.0675652,4.28872208 15.4257456,4.22791995 14.9252036,4.04768504 C14.7210133,3.97439676 14.5549018,3.89785121 14.4450805,3.81804841 C14.3954126,3.78221858 14.275106,3.80501938 14.275106,3.85062098 C14.275106,3.92988091 14.2811765,4.02379849 14.2988362,4.12803072 C14.3672675,4.53355925 14.2855914,4.47275712 13.8783146,4.8771999 C13.6421162,5.11280817 13.45393,5.38424628 13.3176192,5.68391395 C12.9539398,5.78651755 12.6570362,5.99118189 12.5803269,6.23601906 L12.4754724,6.57043081 C12.3777922,6.88367038 12.6432494,7.15836574 13.0957693,7.25282621 C13.2249058,8.0541115 13.778427,8.75767907 14.9853569,9.14529268 L14.919133,9.70825532 C14.9014733,9.85863203 14.7695775,9.99760834 14.5775283,10.0660107 L12.1432494,10.9302697 C13.564855,11.2234228 15.1851322,11.4004005 16.9737284,11.4004005 C18.7374907,11.4004005 20.3373489,11.2283087 21.7446061,10.9432987 L19.3633062,10.0676394 C19.1751201,9.99815122 19.0459836,9.86026066 19.0288757,9.71259833 L18.9621,9.14529268 C20.1690299,8.75767907 20.7225511,8.05356862 20.8516876,7.25228333" id="XMLID_105_" fill="#F0C41B"></path>
        </g>
    </g>
</svg>