<?xml version="1.0" encoding="UTF-8"?>
<svg width="46px" height="46px" viewBox="0 0 46 46" version="1.1" xmlns="http://www.w3.org/2000/svg" xmlns:xlink="http://www.w3.org/1999/xlink">
    <!-- Generator: Sketch 63.1 (92452) - https://sketch.com -->
    <!--<title>illustrazione/functional/mutui</title>-->
    <desc>Created with Sketch.</desc>
    <g id="illustrazione/functional/mutui" stroke="none" stroke-width="1" fill="none" fill-rule="evenodd">
        <g id="house" transform="translate(2.000000, 4.000000)">
            <polygon id="Path" fill="#E9EDF2" fill-rule="nonzero" points="21 5 5 17.2366142 5 17.2939011 5 38 37 38 37 17.2939011 37 17.2366142"></polygon>
            <path d="M37.6247601,18.2951724 L20.9996506,5.64689655 L4.37454113,18.2951724 C3.51645293,18.9475862 2.29640244,18.8475862 1.55990003,18.0641379 L1.55990003,18.0641379 C0.724871201,17.1765517 0.838071762,15.7744828 1.80446914,15.0282759 L19.5741621,1.30758621 L20.9996506,0 L22.4258379,1.30758621 L40.1955309,15.0282759 C41.1619282,15.7744828 41.2751288,17.1765517 40.4401,18.0641379 L40.4401,18.0641379 C39.7028988,18.8475862 38.4828483,18.9475862 37.6247601,18.2951724 Z" id="Path" fill="#CF390A" fill-rule="nonzero"></path>
            <g id="Group" transform="translate(0.000000, 29.724138)" fill="#D0D9DF" fill-rule="nonzero">
                <path d="M41.3125,0.275862069 C40.9323125,0.275862069 40.625,0.601680251 40.625,1.0031348 L40.625,1.73040752 L39.9375,1.73040752 L39.9375,1.0031348 C39.9375,0.601680251 39.6301875,0.275862069 39.25,0.275862069 C38.8698125,0.275862069 38.5625,0.601680251 38.5625,1.0031348 L38.5625,1.73040752 L37.1875,1.73040752 C36.8073125,1.73040752 36.5,2.05622571 36.5,2.45768025 C36.5,2.8591348 36.8073125,3.18495298 37.1875,3.18495298 L38.5625,3.18495298 L38.5625,5.36677116 L37.1875,5.36677116 C36.8073125,5.36677116 36.5,5.69258934 36.5,6.09404389 C36.5,6.49549843 36.8073125,6.82131661 37.1875,6.82131661 L38.5625,6.82131661 L38.5625,7.54858934 C38.5625,7.95004389 38.8698125,8.27586207 39.25,8.27586207 C39.6301875,8.27586207 39.9375,7.95004389 39.9375,7.54858934 L39.9375,6.82131661 L40.625,6.82131661 L40.625,7.54858934 C40.625,7.95004389 40.9323125,8.27586207 41.3125,8.27586207 C41.6926875,8.27586207 42,7.95004389 42,7.54858934 L42,1.0031348 C42,0.601680251 41.6926875,0.275862069 41.3125,0.275862069 Z M39.9375,5.36677116 L39.9375,3.18495298 L40.625,3.18495298 L40.625,5.36677116 L39.9375,5.36677116 Z" id="Shape"></path>
                <path d="M4.8125,0.275862069 C4.4323125,0.275862069 4.125,0.601680251 4.125,1.0031348 L4.125,1.73040752 L3.4375,1.73040752 L3.4375,1.0031348 C3.4375,0.601680251 3.1301875,0.275862069 2.75,0.275862069 C2.3698125,0.275862069 2.0625,0.601680251 2.0625,1.0031348 L2.0625,1.73040752 L0.6875,1.73040752 C0.3073125,1.73040752 0,2.05622571 0,2.45768025 C0,2.8591348 0.3073125,3.18495298 0.6875,3.18495298 L2.0625,3.18495298 L2.0625,5.36677116 L0.6875,5.36677116 C0.3073125,5.36677116 0,5.69258934 0,6.09404389 C0,6.49549843 0.3073125,6.82131661 0.6875,6.82131661 L2.0625,6.82131661 L2.0625,7.54858934 C2.0625,7.95004389 2.3698125,8.27586207 2.75,8.27586207 C3.1301875,8.27586207 3.4375,7.95004389 3.4375,7.54858934 L3.4375,6.82131661 L4.125,6.82131661 L4.125,7.54858934 C4.125,7.95004389 4.4323125,8.27586207 4.8125,8.27586207 C5.1926875,8.27586207 5.5,7.95004389 5.5,7.54858934 L5.5,1.0031348 C5.5,0.601680251 5.1926875,0.275862069 4.8125,0.275862069 Z M3.4375,5.36677116 L3.4375,3.18495298 L4.125,3.18495298 L4.125,5.36677116 L3.4375,5.36677116 Z" id="Shape-Copy" transform="translate(2.750000, 4.275862) scale(-1, 1) translate(-2.750000, -4.275862) "></path>
            </g>
            <rect id="Rectangle" fill="#1B7BC7" x="11" y="17" width="8" height="5.51724138"></rect>
            <rect id="Rectangle" fill="#1B7BC7" x="11" y="26" width="8" height="8"></rect>
            <rect id="Rectangle" fill="#1B7BC7" x="23" y="17" width="8" height="5.51724138"></rect>
            <rect id="Rectangle" fill="#92A6BC" fill-rule="nonzero" x="23" y="26" width="8" height="12"></rect>
            <rect id="Rectangle" fill="#3D9AE2" x="23" y="17" width="8" height="4.13793103"></rect>
            <rect id="Rectangle" fill="#3D9AE2" x="11" y="17" width="8" height="1.90689655"></rect>
            <polygon id="Path" fill="#3D9AE2" points="15.6666667 29.2 15.6666667 26 14.3333333 26 14.3333333 29.2 11 29.2 11 30.8 14.3333333 30.8 14.3333333 34 15.6666667 34 15.6666667 30.8 19 30.8 19 29.2"></polygon>
        </g>
    </g>
</svg>