<?xml version="1.0" encoding="UTF-8"?>
<svg width="46px" height="46px" viewBox="0 0 46 46" version="1.1" xmlns="http://www.w3.org/2000/svg" xmlns:xlink="http://www.w3.org/1999/xlink">
    <!-- Generator: Sketch 63.1 (92452) - https://sketch.com -->
    <!--<title>illustrazione/functional/old-man-1</title>-->
    <desc>Created with Sketch.</desc>
    <defs>
        <polygon id="path-1" points="0 0.00481158301 5.94660662 0.00481158301 5.94660662 8.32427343 0 8.32427343"></polygon>
        <polygon id="path-3" points="0.0178802365 0.00481158301 5.96446221 0.00481158301 5.96446221 8.32427343 0.0178802365 8.32427343"></polygon>
        <polygon id="path-5" points="0.0231627907 0.0229164208 31.0345291 0.0229164208 31.0345291 23.3976276 0.0231627907 23.3976276"></polygon>
    </defs>
    <g id="illustrazione/functional/old-man-1" stroke="none" stroke-width="1" fill="none" fill-rule="evenodd">
        <g id="Group-30" transform="translate(3.000000, 3.000000)">
            <path d="M31.8434477,32.854947 C31.1217907,32.3250365 29.8748721,31.7537326 28.3523285,31.245597 C28.4528808,31.7672626 10.6078953,31.763711 10.7091453,31.2404809 C9.1795814,31.7498428 7.92686337,32.3232184 7.20276453,32.854947 C2.75465407,36.1215094 2.97320058,42.9348742 2.97320058,42.9348742 L19.5160203,42.9348742 L19.5301919,42.9348742 L36.0730116,42.9348742 C36.0730116,42.9348742 36.2916017,36.1215094 31.8434477,32.854947" id="Fill-1" fill="#3D4E62" fill-rule="nonzero"></path>
            <polygon id="Fill-3" fill="#D4D7D9" fill-rule="nonzero" points="24.2781672 42.9771681 14.7823387 42.9771681 12.1660596 32.2774405 26.8944462 32.2774405"></polygon>
            <polygon id="Fill-5" fill="#EE5019" fill-rule="nonzero" points="20.9707282 37.0876903 18.0897253 37.0876903 17.6089404 42.9349292 21.4514695 42.9349292"></polygon>
            <polygon id="Fill-7" fill="#CF390A" fill-rule="nonzero" points="20.9707282 37.0876903 18.0897253 37.0876903 16.7815858 32.8549597 22.2788677 32.8549597"></polygon>
            <polygon id="Fill-9" fill="#F1F1F1" fill-rule="nonzero" points="11.2649869 30.2305771 9.69521948 31.6030677 14.4748125 35.9805692 19.5302049 32.8549301"></polygon>
            <polygon id="Fill-11" fill="#F1F1F1" fill-rule="nonzero" points="27.7954099 30.2305771 29.3651773 31.6030677 24.5855843 35.9805692 19.5301919 32.8549301"></polygon>
            <path d="M19.5302006,4.15332645 C25.5921628,4.15332645 30.8693285,7.16349558 33.5957529,11.6039115 L34.1720756,24.3692458 C31.6656802,29.3712832 26.0523227,32.8549597 19.5302006,32.8549597 C13.0080785,32.8549597 7.39463372,29.3712832 4.88832558,24.3693727 L5.46464826,11.6040383 C8.19107267,7.16349558 13.4682384,4.15332645 19.5302006,4.15332645" id="Fill-13" fill="#FFCFAB" fill-rule="nonzero"></path>
            <g id="Group-17" transform="translate(0.000000, 16.086313)">
                <mask id="mask-2" fill="white">
                    <use xlink:href="#path-1"></use>
                </mask>
                <g id="Clip-16"></g>
                <path d="M4.88832122,8.28295005 C2.7168968,8.58200511 0.62962936,7.2303591 0.115748547,5.12031485 C-0.428568314,2.88507591 0.998829942,0.645016912 3.30416424,0.117009046 C4.00864099,-0.0442515241 4.71364099,-0.0269585054 5.36858285,0.138572468 C6.85650436,0.514833038 5.01717297,8.26519194 4.88832122,8.28295005" id="Fill-15" fill="#FFCFAB" fill-rule="nonzero" mask="url(#mask-2)"></path>
            </g>
            <g id="Group-20" transform="translate(33.095930, 16.086313)">
                <mask id="mask-4" fill="white">
                    <use xlink:href="#path-3"></use>
                </mask>
                <g id="Clip-19"></g>
                <path d="M1.07614971,8.28295005 C3.24757413,8.58200511 5.33484157,7.2303591 5.84872238,5.12031485 C6.39303924,2.88507591 4.96564099,0.645016912 2.66030669,0.117009046 C1.95582994,-0.0442515241 1.25082994,-0.0269585054 0.595931686,0.138572468 C-0.89203343,0.514833038 0.947297965,8.26519194 1.07614971,8.28295005" id="Fill-18" fill="#FFCFAB" fill-rule="nonzero" mask="url(#mask-4)"></path>
            </g>
            <path d="M27.7954099,21.2371081 C27.4028372,21.2371081 27.0847413,20.928582 27.0847413,20.5480088 L27.0847413,18.9897767 C27.0847413,18.6092034 27.4028372,18.3007197 27.7954099,18.3007197 C28.187939,18.3007197 28.5060349,18.6092034 28.5060349,18.9897767 L28.5060349,20.5480088 C28.5060349,20.928582 28.1878517,21.2371081 27.7954099,21.2371081" id="Fill-21" fill="#636363" fill-rule="nonzero"></path>
            <path d="M11.2649869,21.2371081 C10.8724578,21.2371081 10.5543619,20.928582 10.5543619,20.5480088 L10.5543619,18.9897767 C10.5543619,18.6092034 10.8724578,18.3007197 11.2649869,18.3007197 C11.6575596,18.3007197 11.975612,18.6092034 11.975612,18.9897767 L11.975612,20.5480088 C11.9757427,20.928582 11.6575596,21.2371081 11.2649869,21.2371081" id="Fill-23" fill="#636363" fill-rule="nonzero"></path>
            <path d="M19.5302006,26.0607567 C21.3779477,28.3003506 24.1003605,27.3722779 25.5361308,26.6367115 C25.884314,26.4582848 25.9091686,25.989386 25.5864942,25.7704539 C24.7635,25.2120881 24.2841977,23.9893152 23.6043576,23.3749268 C22.5481657,22.4203015 20.7284564,21.8405414 19.530157,22.8940203 C18.3317703,21.8405414 16.5122355,22.4203015 15.4559564,23.3749268 C14.7760291,23.9893152 14.2967703,25.2120881 13.4738198,25.7704539 C13.1510581,25.9894283 13.1758256,26.4583693 13.5241831,26.6367115 C14.9600407,27.3722779 17.6824535,28.3003506 19.5302006,26.0607567" id="Fill-25" fill="#92A6BC" fill-rule="nonzero"></path>
            <g id="Group-29" transform="translate(4.447674, 0.019449)">
                <mask id="mask-6" fill="white">
                    <use xlink:href="#path-5"></use>
                </mask>
                <g id="Clip-28"></g>
                <path d="M7.27073547,9.95080462 L12.0925814,9.95080462 C12.5321163,9.95080462 12.9689913,9.8862412 13.3872471,9.75609961 C14.2609099,9.48440049 15.6494128,8.98374857 16.7008517,8.59641032 C17.6384826,8.2508882 18.6712587,8.23858437 19.6175669,8.56080954 L24.6929738,10.2884624 C28.1076541,11.5047663 28.4560552,14.6131547 28.4560552,14.6131547 L28.4560552,23.3976276 C29.5609535,23.0447486 30.0188023,21.2176502 30.4526686,18.0568331 C30.8288023,17.471957 31.0345291,16.7994742 31.0345291,16.1102481 L31.0345291,8.53176234 C31.0345291,8.53176234 30.5467674,4.8151586 26.7835552,3.93676627 C26.7835552,3.93676627 28.3166948,0.771594199 24.3445291,0.0228783677 L9.70980523,0.0228783677 C4.35995058,0.0228783677 0.0231627907,4.22808387 0.0231627907,9.41556667 L0.0231627907,14.9837496 C0.0231627907,16.1902441 0.440633721,17.7028548 0.722537791,18.1058794 C1.22237791,19.3851822 1.29497965,21.2176502 2.56679651,21.8925431 L2.56679651,14.5118489 C3.50756686,10.4236778 7.27073547,9.95080462 7.27073547,9.95080462" id="Fill-27" fill="#92A6BC" fill-rule="nonzero" mask="url(#mask-6)"></path>
            </g>
        </g>
    </g>
</svg>