<?xml version="1.0" encoding="UTF-8"?>
<svg width="46px" height="46px" viewBox="0 0 46 46" version="1.1" xmlns="http://www.w3.org/2000/svg" xmlns:xlink="http://www.w3.org/1999/xlink">
    <!-- Generator: Sketch 63.1 (92452) - https://sketch.com -->
    <!--<title>illustrazione/functional/old-man-2</title>-->
    <desc>Created with Sketch.</desc>
    <defs>
        <polygon id="path-1" points="0 0.00516724385 5.94660662 0.00516724385 5.94660662 8.93958404 0 8.93958404"></polygon>
        <polygon id="path-3" points="0.0178802365 0.00516724385 5.96446221 0.00516724385 5.96446221 8.93958404 0.0178802365 8.93958404"></polygon>
        <polygon id="path-5" points="0.00358430233 0.0126230201 32.0799506 0.0126230201 32.0799506 23.0465968 0.00358430233 23.0465968"></polygon>
    </defs>
    <g id="illustrazione/functional/old-man-2" stroke="none" stroke-width="1" fill="none" fill-rule="evenodd">
        <g id="Group-24" transform="translate(3.000000, 3.000000)">
            <polygon id="Fill-1" fill="#F2BA95" points="13.2466003 28.8482085 5.99872238 42.4291038 30.2338387 42.4291038 30.2338387 35.6386338 26.8511206 28.8482085"></polygon>
            <g id="Group-23">
                <path d="M28.0271032,29.7906861 L25.9523067,29.7906861 C26.1982369,30.5229574 26.3324084,31.3099437 26.3324084,32.1295773 C26.3324084,36.0415329 23.2869288,39.2129078 19.5302137,39.2129078 C15.7734113,39.2129078 12.7280189,36.0415329 12.7280189,32.1295773 C12.7280189,31.3099437 12.8621904,30.5229574 13.108077,29.7906861 L11.0332805,29.7906861 L8.82657994,34.6774749 L11.5958677,40.4273513 L19.5302137,42.9545889 L27.4645596,40.4273513 L30.2338038,34.6774749 L28.0271032,29.7906861 Z" id="Fill-2" fill="#D4D7D9" fill-rule="nonzero"></path>
                <path d="M19.5302006,1.30639176 C25.5921628,1.30639176 30.8693285,4.53906547 33.5957529,9.30770644 L34.1720756,23.0166241 C31.6656802,28.3884002 26.0523227,32.1295818 19.5302006,32.1295818 C13.0080785,32.1295818 7.39463372,28.3884002 4.88832558,23.0167603 L5.46464826,9.30784266 C8.19107267,4.53906547 13.4682384,1.30639176 19.5302006,1.30639176" id="Fill-4" fill="#FFCFAB" fill-rule="nonzero"></path>
                <g id="Group-8" transform="translate(0.000000, 14.121436)">
                    <mask id="mask-2" fill="white">
                        <use xlink:href="#path-1"></use>
                    </mask>
                    <g id="Clip-7"></g>
                    <path d="M4.88832122,8.89520612 C2.7168968,9.21636663 0.62962936,7.76481014 0.115748547,5.49879641 C-0.428568314,3.0983339 0.998829942,0.692695037 3.30416424,0.125658078 C4.00864099,-0.0475224921 4.71364099,-0.0289512144 5.36858285,0.148815417 C6.85650436,0.552888279 5.01717297,8.87613537 4.88832122,8.89520612" id="Fill-6" fill="#FFCFAB" fill-rule="nonzero" mask="url(#mask-2)"></path>
                </g>
                <g id="Group-11" transform="translate(33.095930, 14.121436)">
                    <mask id="mask-4" fill="white">
                        <use xlink:href="#path-3"></use>
                    </mask>
                    <g id="Clip-10"></g>
                    <path d="M1.07614971,8.89520612 C3.24757413,9.21636663 5.33484157,7.76481014 5.84872238,5.49879641 C6.39303924,3.0983339 4.96564099,0.692695037 2.66030669,0.125658078 C1.95582994,-0.0475224921 1.25082994,-0.0289512144 0.595931686,0.148815417 C-0.89203343,0.552888279 0.947297965,8.87613537 1.07614971,8.89520612" id="Fill-9" fill="#FFCFAB" fill-rule="nonzero" mask="url(#mask-4)"></path>
                </g>
                <path d="M27.7954099,19.6529661 C27.4028372,19.6529661 27.0847413,19.3216345 27.0847413,18.9129302 L27.0847413,17.2395173 C27.0847413,16.830813 27.4028372,16.4995268 27.7954099,16.4995268 C28.187939,16.4995268 28.5060349,16.830813 28.5060349,17.2395173 L28.5060349,18.9129302 C28.5060349,19.3216345 28.1878517,19.6529661 27.7954099,19.6529661" id="Fill-12" fill="#636363" fill-rule="nonzero"></path>
                <path d="M11.2649869,19.6529661 C10.8724578,19.6529661 10.5543619,19.3216345 10.5543619,18.9129302 L10.5543619,17.2395173 C10.5543619,16.830813 10.8724578,16.4995268 11.2649869,16.4995268 C11.6575596,16.4995268 11.975612,16.830813 11.975612,17.2395173 L11.975612,18.9129302 C11.9757427,19.3216345 11.6575596,19.6529661 11.2649869,19.6529661" id="Fill-14" fill="#636363" fill-rule="nonzero"></path>
                <path d="M19.5302006,24.8331675 C21.3779477,27.2383069 24.1003605,26.2416332 25.5361308,25.4516955 C25.884314,25.2600798 25.9091686,24.7565212 25.5864942,24.5214061 C24.7635,23.9217673 24.2841977,22.6086099 23.6043576,21.9488074 C22.5481657,20.9236184 20.7284564,20.3010038 19.530157,21.4323533 C18.3317703,20.3010038 16.5122355,20.9236184 15.4559564,21.9488074 C14.7760291,22.6086099 14.2967703,23.9217673 13.4738198,24.5214061 C13.1510581,24.7565666 13.1758256,25.2601706 13.5241831,25.4516955 C14.9600407,26.2416332 17.6824535,27.2383069 19.5302006,24.8331675" id="Fill-16" fill="#92A6BC" fill-rule="nonzero"></path>
                <g id="Group-20" transform="translate(3.488372, 0.000000)">
                    <mask id="mask-6" fill="white">
                        <use xlink:href="#path-5"></use>
                    </mask>
                    <g id="Clip-19"></g>
                    <path d="M30.7245872,10.508646 C30.7455174,10.3156682 30.7346599,10.1304095 30.6837297,9.95763759 C30.3142674,8.70614234 28.0864622,6.50047392 27.5746308,6.00872101 C28.3071453,6.68546019 30.9241221,5.32535248 28.5714767,4.9170114 C26.216564,4.50835248 24.2541802,0.0126048574 15.1025669,0.0126048574 C5.95095349,0.0126048574 2.51032849,6.00685935 2.51032849,6.00685935 L1.05349709,11.2217559 C0.37518314,12.9288604 0.00358430233,14.7816746 0.00358430233,16.7184 C0.00358430233,18.9621191 0.502857558,21.0935478 1.39989244,23.0165605 C1.39989244,23.0165605 3.60502326,23.6213757 4.62240698,19.3988393 C4.96147674,17.9915088 5.01702907,13.9922363 5.01702907,11.9958921 C5.01702907,11.9958921 3.84515407,8.59530496 3.97601163,7.06964498 C4.10686919,5.5439396 8.55493605,7.23297233 11.4331483,9.30777909 C14.3113605,11.382495 26.7454012,12.4098636 26.7454012,12.4098636 L27.0692093,12.6289048 C27.08325,14.7497992 27.1613895,18.1549269 27.4611715,19.3989301 C28.4785552,23.6214211 30.683686,23.0166059 30.683686,23.0166059 C31.5807209,21.0935932 32.0799506,18.9621645 32.0799506,16.7184454 C32.0799506,14.5085542 31.5958081,12.4081381 30.7245872,10.508646" id="Fill-18" fill="#92A6BC" fill-rule="nonzero" mask="url(#mask-6)"></path>
                </g>
                <path d="M31.8434477,32.1295682 C31.1217907,31.560488 29.8748721,30.9469547 28.3523285,30.4012588 C28.4528808,30.9614848 28.5060349,31.5391015 28.5060349,32.1295682 C28.5060349,37.2917477 24.4874302,41.4764151 19.5301919,41.4764151 C14.5729971,41.4764151 10.5543924,37.2917477 10.5543924,32.1295682 C10.5543924,31.5370582 10.6078953,30.9576706 10.7091453,30.3957646 C9.1795814,30.9427773 7.92686337,31.5585355 7.20276453,32.1295682 C2.75465407,35.6375872 2.97320058,42.9545798 2.97320058,42.9545798 L19.5160203,42.9545798 L19.5301919,42.9545798 L36.0730116,42.9545798 C36.0730116,42.9545798 36.2916017,35.6375872 31.8434477,32.1295682" id="Fill-21" fill="#3D4E62" fill-rule="nonzero"></path>
            </g>
        </g>
    </g>
</svg>