<?xml version="1.0" encoding="UTF-8"?>
<svg width="46px" height="46px" viewBox="0 0 46 46" version="1.1" xmlns="http://www.w3.org/2000/svg" xmlns:xlink="http://www.w3.org/1999/xlink">
    <!-- Generator: Sketch 63.1 (92452) - https://sketch.com -->
    <!--<title>illustrazione/functional/old-woman</title>-->
    <desc>Created with Sketch.</desc>
    <g id="illustrazione/functional/old-woman" stroke="none" stroke-width="1" fill="none" fill-rule="evenodd">
        <g id="Group-14" transform="translate(7.000000, 34.000000)" fill-rule="nonzero">
            <path d="M31.6632748,11.1504738 C31.6632748,11.0753598 31.6632748,11.3585352 31.6632748,12 C28,12 2,12 0,12 C0,11.8112164 0,11.528041 0,11.1504738 C0,7.14419304 2.38233028,3.56658834 5.9842409,1.98670328 L25.6790339,1.98757759 C29.2809445,3.56658834 31.6632748,7.14419304 31.6632748,11.1504738 Z" id="Path" fill="#CF390A"></path>
            <path d="M19.38004,0 L15.8316374,0 L12.2832348,0 L7.10021505,1.57411459 C6.71665358,1.69057319 6.34445819,1.82923936 5.98406604,1.9873153 C6.72941856,7.8578954 9.65373598,9.54002789 11.2749761,10.5975104 C11.8826242,10.9938369 12.6667088,10.9926129 13.272346,10.5932263 L15,9.23261915 C15.300764,9.03423735 15.699236,9.03423735 16,9.23261915 L18,10.5932263 C18.6056372,10.9926129 19.3923519,10.9938369 20,10.5975104 C21.6212401,9.54002789 24.9338562,7.8578954 25.6792087,1.9873153 C25.318904,1.82923936 24.9467086,1.69066062 24.5631472,1.57411459 L19.38004,0 Z" id="Path" fill="#F1F1F1"></path>
        </g>
        <g id="people-03" transform="translate(6.000000, 1.000000)">
            <path d="M31.9714857,31.7084163 C33.9130096,29.5861143 32.7886075,22.1872188 32.7886075,22.1873211 L17.1010384,20.7836343 L17.1010384,20.7367343 L16.7887559,20.7601741 L16.4764241,20.7367343 L16.4764241,20.7836343 L0.788607521,22.1873211 C0.788854893,22.1872188 -0.335497709,29.5861143 1.60602615,31.7084163 C3.54755002,33.8307184 10.5037365,32.7367343 10.5037365,32.7367343 C10.5037365,32.7367343 12.4946489,32.7367343 16.4764735,32.7367343 L17.1011373,32.7367343 L23.0740722,32.7367343 C23.0740227,32.7367547 30.0299619,33.8307184 31.9714857,31.7084163 Z" id="Path" fill="#92A6BC" fill-rule="nonzero"></path>
            <path d="M22.0397538,33.8955 C21.710441,33.5877187 21.5110974,33.1523379 21.5110974,32.6812734 L21.5110974,30 L11.5327179,30.0002051 L11.5327179,32.6813965 C11.5327179,33.1542656 11.3317744,33.5913691 11,33.8991914 C13.4021013,38.6334866 15.2354346,41.0004228 16.5,41 C17.6887133,40.9996025 19.5352979,38.6314359 22.0397538,33.8955 Z" id="Path" fill="#F2BA95"></path>
            <path d="M16.7886075,7.0881544 C22.506275,7.0881544 27.4837192,10.0279013 30.0552938,14.3645368 L30.5988837,26.8314039 C28.2348414,31.7164883 22.9402996,35.1186715 16.7886075,35.1186715 C10.6369154,35.1186715 5.34229142,31.716447 2.97833137,26.8315278 L3.52192127,14.3646607 C6.09349589,10.0279013 11.0709401,7.0881544 16.7886075,7.0881544 Z" id="Path" fill="#FFCFAB" fill-rule="nonzero"></path>
            <path d="M23.2895558,29 C22.9517145,29 22.6523782,28.7694593 22.5916405,28.4418394 C22.4925871,27.9073633 22.0731946,27.4698764 21.5231499,27.3271393 C21.1451006,27.2289794 20.9221121,26.8576829 21.025139,26.4978233 C21.1283552,26.1379637 21.518798,25.9261545 21.8963742,26.023774 C22.9736633,26.3033947 23.7950407,27.1603575 23.9890795,28.2071562 C24.0571965,28.5744904 23.7995818,28.9248041 23.4135855,28.9895536 C23.3719585,28.996668 23.330426,29 23.2895558,29 L23.2895558,29 Z" id="Path" fill="#F2BA95"></path>
            <path d="M9.71053876,29 C9.66957396,29 9.62813612,28.9966679 9.58641447,28.9896435 C9.20041819,28.9248026 8.94280353,28.5745721 9.01092052,28.2072307 C9.20495933,27.1604114 10.0263367,26.3034317 11.1036258,26.0238056 C11.4815805,25.926094 11.8717394,26.1379975 11.974861,26.4978641 C12.0778879,26.8577308 11.8548994,27.2290346 11.4768501,27.3271965 C10.9269,27.4699364 10.5074129,27.9074319 10.4083595,28.4419185 C10.3477164,28.7695449 10.0482855,29 9.71053876,29 L9.71053876,29 Z" id="Path" fill="#F2BA95"></path>
            <g id="Group" transform="translate(9.541716, 20.885099)" fill="#636363" fill-rule="nonzero">
                <path d="M13.8088367,2.88738779 C13.4385605,2.88738779 13.1385311,2.5860754 13.1385311,2.21440036 L13.1385311,0.692601436 C13.1385311,0.320926391 13.4385605,0.0196552962 13.8088367,0.0196552962 C14.1790717,0.0196552962 14.4791011,0.320926391 14.4791011,0.692601436 L14.4791011,2.21440036 C14.4791011,2.5860754 14.1789894,2.88738779 13.8088367,2.88738779 Z" id="Path"></path>
                <path d="M0.684947121,2.88738779 C0.314712103,2.88738779 0.0146827262,2.5860754 0.0146827262,2.21440036 L0.0146827262,0.692601436 C0.0146827262,0.320926391 0.314712103,0.0196552962 0.684947121,0.0196552962 C1.05522327,0.0196552962 1.35521155,0.320926391 1.35521155,0.692601436 L1.35521155,2.21440036 C1.3553349,2.5860754 1.05522327,2.88738779 0.684947121,2.88738779 Z" id="Path"></path>
            </g>
            <path d="M17,1 C12,-8.17124146e-14 3.20603862,3.0473648 1.0473678,10.7640664 C-2.3499765,22.9093465 3.67549354,28.5781652 3.67549354,28.5781652 C1.36495887,21.4204991 5,14 10.3688308,12.932368 C15.7376616,11.8647361 17,10 17,10 C17,10 17,7 17,1 Z" id="Path" fill="#92A6BC" fill-rule="nonzero"></path>
            <path d="M33.2911803,1 C28.2911803,-8.17124146e-14 19.4972189,3.0473648 17.3385481,10.7640664 C13.9412038,22.9093465 19.9666738,28.5781652 19.9666738,28.5781652 C17.6561391,21.4204991 21.2911803,14 26.660011,12.932368 C32.0288418,11.8647361 33.2911803,10 33.2911803,10 C33.2911803,10 33.2911803,7 33.2911803,1 Z" id="Path" fill="#92A6BC" fill-rule="nonzero" transform="translate(24.795590, 14.697008) scale(-1, 1) translate(-24.795590, -14.697008) "></path>
            <path d="M16.7886075,30.1557504 C15.6018155,30.1557504 14.4916451,29.8625314 13.7429495,29.3511221 C13.4381904,29.1430072 13.3589365,28.7259928 13.5666334,28.4200969 C13.7735488,28.1144901 14.1891892,28.0349192 14.4939072,28.2430754 C15.0187015,28.6014129 15.8765922,28.8153914 16.7886075,28.8153914 C17.7006639,28.8153914 18.5585135,28.6013716 19.0833079,28.2430754 C19.388725,28.0342585 19.8033784,28.1141185 20.0106228,28.4200969 C20.2182374,28.7259928 20.1390247,29.1430072 19.8343067,29.3511221 C19.0856522,29.8625314 17.9754407,30.1557504 16.7886075,30.1557504 Z" id="Path" fill="#C6805A" fill-rule="nonzero"></path>
        </g>
    </g>
</svg>