<?xml version="1.0" encoding="UTF-8"?>
<svg width="46px" height="46px" viewBox="0 0 46 46" version="1.1" xmlns="http://www.w3.org/2000/svg" xmlns:xlink="http://www.w3.org/1999/xlink">
    <!-- Generator: Sketch 63.1 (92452) - https://sketch.com -->
    <!--<title>illustrazione/functional/pac-gp-unit</title>-->
    <desc>Created with Sketch.</desc>
    <g id="illustrazione/functional/pac-gp-unit" stroke="none" stroke-width="1" fill="none" fill-rule="evenodd">
        <g id="Group-5" transform="translate(2.000000, 4.000000)">
            <g id="Group">
                <rect id="Rectangle" fill="#B3E4FD" x="3" y="0" width="3" height="38" rx="1.5"></rect>
                <rect id="Rectangle" fill="#7BC8F8" x="0" y="6" width="9" height="12" rx="1"></rect>
                <rect id="Rectangle" fill="#3D9AE2" x="2" y="10" width="5" height="1" rx="0.5"></rect>
                <rect id="Rectangle-Copy-4" fill="#3D9AE2" x="2" y="13" width="5" height="1" rx="0.5"></rect>
            </g>
            <g id="Group-2" transform="translate(11.000000, 0.000000)">
                <rect id="Rectangle-Copy" fill="#B3E4FD" x="3" y="0" width="3" height="38" rx="1.5"></rect>
                <rect id="Rectangle-Copy-8" fill="#3D9AE2" x="0" y="24" width="9" height="12" rx="1"></rect>
                <rect id="Rectangle-Copy-9" fill="#1B7BC7" x="2" y="28" width="5" height="1" rx="0.5"></rect>
                <rect id="Rectangle-Copy-10" fill="#1B7BC7" x="2" y="31" width="5" height="1" rx="0.5"></rect>
            </g>
            <g id="Group-3" transform="translate(22.000000, 0.000000)">
                <rect id="Rectangle-Copy-2" fill="#B3E4FD" x="3" y="0" width="3" height="38" rx="1.5"></rect>
                <rect id="Rectangle-Copy-5" fill="#7BC8F8" x="0" y="15" width="9" height="12" rx="1"></rect>
                <rect id="Rectangle-Copy-6" fill="#3D9AE2" x="2" y="19" width="5" height="1" rx="0.5"></rect>
                <rect id="Rectangle-Copy-7" fill="#3D9AE2" x="2" y="22" width="5" height="1" rx="0.5"></rect>
            </g>
            <g id="Group-4" transform="translate(33.000000, 0.000000)">
                <rect id="Rectangle-Copy-3" fill="#B3E4FD" x="3" y="0" width="3" height="38" rx="1.5"></rect>
                <rect id="Rectangle-Copy-11" fill="#3D9AE2" x="0" y="3" width="9" height="12" rx="1"></rect>
                <rect id="Rectangle-Copy-12" fill="#1B7BC7" x="2" y="7" width="5" height="1" rx="0.5"></rect>
                <rect id="Rectangle-Copy-13" fill="#1B7BC7" x="2" y="10" width="5" height="1" rx="0.5"></rect>
            </g>
        </g>
    </g>
</svg>