<?xml version="1.0" encoding="UTF-8"?>
<svg width="46px" height="46px" viewBox="0 0 46 46" version="1.1" xmlns="http://www.w3.org/2000/svg" xmlns:xlink="http://www.w3.org/1999/xlink">
    <!-- Generator: Sketch 63.1 (92452) - https://sketch.com -->
    <!--<title>illustrazione/functional/pen</title>-->
    <desc>Created with Sketch.</desc>
    <g id="illustrazione/functional/pen" stroke="none" stroke-width="1" fill="none" fill-rule="evenodd">
        <g id="pen">
            <g id="Group" transform="translate(27.291866, 0.000000)" fill="#1B7BC7">
                <path d="M18.6641148,0 L18.6641148,12.0019185 L8.80382775,18.7088729 L0.0880382775,9.88393285 L6.69090909,3.55271368e-15 L18.6641148,0 Z" id="Combined-Shape"></path>
            </g>
            <path d="M34.8631579,21.2681055 L24.738756,11.1194245 L9.68421053,16.0613909 L0,42.0067146 L0.70430622,42.7127098 L11.7971292,31.5932854 C11.1808612,30.0930456 11.5330144,28.2398082 12.7655502,27.0043165 C14.4382775,25.3275779 17.1674641,25.3275779 18.8401914,27.0043165 C20.5129187,28.6810552 20.5129187,31.4167866 18.8401914,33.0935252 C17.6076555,34.3290168 15.84689,34.6820144 14.262201,34.0642686 L3.34545455,45.2719424 L4.04976077,45.9779376 L29.9330144,36.2705036 L34.8631579,21.2681055 Z" id="Path" fill="#F6D57D" fill-rule="nonzero"></path>
            <polyline id="Path" fill="#E1B950" fill-rule="nonzero" points="29.9330144 36.358753 34.8631579 21.2681055 24.738756 11.1194245"></polyline>
            <path d="M39.4411483,21.7976019 C37.9444976,23.2978417 35.5674641,23.2978417 34.0708134,21.7976019 L24.2985646,12.0019185 C22.8019139,10.5016787 22.8019139,8.11894484 24.2985646,6.61870504 L24.2985646,6.61870504 C25.7952153,5.11846523 28.1722488,5.11846523 29.6688995,6.61870504 L39.4411483,16.4143885 C40.937799,17.8263789 40.937799,20.2973621 39.4411483,21.7976019 L39.4411483,21.7976019 Z" id="Path" fill="#3D9AE2"></path>
            <path d="M39.4411483,21.7976019 L39.4411483,21.7976019 C37.9444976,23.2978417 35.5674641,23.2978417 34.0708134,21.7976019 L24.2985646,12.0019185 C22.8019139,10.5016787 22.8019139,8.11894484 24.2985646,6.61870504 L24.2985646,6.61870504" id="Path" fill="#1B7BC7"></path>
        </g>
    </g>
</svg>