<?xml version="1.0" encoding="UTF-8"?>
<svg width="46px" height="46px" viewBox="0 0 46 46" version="1.1" xmlns="http://www.w3.org/2000/svg" xmlns:xlink="http://www.w3.org/1999/xlink">
    <!-- Generator: Sketch 63.1 (92452) - https://sketch.com -->
    <!--<title>illustrazione/functional/pets</title>-->
    <desc>Created with Sketch.</desc>
    <g id="illustrazione/functional/pets" stroke="none" stroke-width="1" fill="none" fill-rule="evenodd">
        <g id="dog-house" transform="translate(0.500000, 0.000000)">
            <path d="M39.4358477,21.0493072 L33.1310086,44.3282838 C32.9114834,45.1394109 32.176632,45.7031071 31.3357387,45.7031071 L13.9318526,45.7031071 C13.0946801,45.7031071 12.3616891,45.1449921 12.1384431,44.3375857 L5.69593564,21.0493072 L22.5658917,2.91429049 L39.4358477,21.0493072 Z" id="Path" fill="#F2BA95"></path>
            <path d="M30.4520566,36.0998083 L30.4520566,45.7031071 L14.5681037,45.7031071 L14.5681037,36.0998083 C14.5681037,31.7130244 18.1232963,28.1578319 22.5100802,28.1578319 C24.7034721,28.1578319 26.6885011,29.0470951 28.1265775,30.4833111 C29.5627934,31.9213874 30.4520566,33.9064164 30.4520566,36.0998083 Z" id="Path" fill="#8A512E"></path>
            <path d="M16.7224276,45.7031071 L13.9318526,45.7031071 C13.0946801,45.7031071 12.3616891,45.1449921 12.1384431,44.3375857 L5.69593564,21.0493072 L22.5658917,2.91429049 L23.9611792,4.41375945 L8.48651064,21.0493072 L14.9290181,44.3375857 C15.1522641,45.1449921 15.8852551,45.7031071 16.7224276,45.7031071 Z" id="Path" fill="#FFCFAB" fill-rule="nonzero"></path>
            <path d="M23.9053677,28.2806172 C20.184601,28.9391929 17.3586787,32.1892826 17.3586787,36.0998083 L17.3586787,45.7031071 L14.5681037,45.7031071 L14.5681037,36.0998083 C14.5681037,31.7130244 18.1232963,28.1578319 22.5100802,28.1578319 C22.9863383,28.1578319 23.4532945,28.2006207 23.9053677,28.2806172 Z" id="Path" fill="#C6805A" fill-rule="nonzero"></path>
            <path d="M42.3047449,26.91584 C41.5899856,26.91584 40.8770867,26.6300851 40.3517144,26.0654588 L22.5662638,6.82946721 L4.66863197,26.0654588 C3.66551328,27.1437369 1.9781456,27.2047575 0.899681379,26.2016388 C-0.178782838,25.1985201 -0.239617373,23.5109664 0.763501319,22.4326882 L20.6137915,1.09762616 C21.1183274,0.555324424 21.8256452,0.247244945 22.5664498,0.247244945 C23.3072544,0.247244945 24.0143861,0.555324424 24.5191081,1.09762616 L44.2568451,22.4325022 C45.2599638,23.5109664 45.1991292,25.1985201 44.120665,26.2014528 C43.6070132,26.6795713 42.9551349,26.91584 42.3047449,26.91584 Z" id="Path" fill="#8A512E"></path>
            <path d="M3.55463443,22.4334324 C2.55002743,23.5105943 2.61142008,25.197962 3.69044241,26.2007086 C3.82252963,26.3234939 3.96391876,26.4313962 4.11274943,26.5206946 C3.11744435,27.1346211 1.79843257,27.0360207 0.899867417,26.2007086 C-0.179154915,25.197962 -0.240547565,23.5105943 0.764059434,22.4334324 L20.6143496,1.09669597 C21.1185135,0.555324424 21.8254591,0.246500791 22.5658917,0.246500791 C23.062614,0.246500791 23.5463137,0.386029541 23.9630396,0.640902057 C23.7583974,0.76554774 23.5704987,0.918099174 23.4049246,1.09669597 L3.55463443,22.4334324 Z" id="Path" fill="#C6805A" fill-rule="nonzero"></path>
            <circle id="Oval" fill="#FFCFAB" fill-rule="nonzero" cx="22.5100802" cy="8.6474338" r="8.62324881"></circle>
            <g id="Group" transform="translate(16.278354, 2.790575)">
                <path d="M3.34608546,5.83676666 C4.63347072,3.60709724 7.84784104,3.60895762 9.13411008,5.83676666 L9.13411008,5.83676666 L10.0300707,7.38869844 C11.317456,9.61799578 9.70803833,12.4009432 7.13624442,12.4009432 L7.13624442,12.4009432 L5.34413715,12.4009432 C2.77066889,12.4009432 1.1632977,9.61743766 2.45031088,7.38869844 L2.45031088,7.38869844 Z M0.788802532,2.95912573 C1.51491015,2.69495129 2.4212889,3.35408511 2.81345771,4.43143309 C3.20562652,5.50878108 2.93494074,6.59654721 2.20883313,6.86072165 C1.48272551,7.12508212 0.576346756,6.4659483 0.18417795,5.38841428 C-0.207990856,4.31106629 0.0626949182,3.22330016 0.788802532,2.95912573 Z M9.80031335,4.43143309 C10.1924822,3.35408511 11.0988609,2.69495129 11.8249685,2.95912573 C12.5510761,3.2234862 12.8217619,4.31106629 12.4295931,5.38841428 C12.0374243,6.46576226 11.1310455,7.12489608 10.4049379,6.86072165 C9.67883031,6.59654721 9.40814454,5.50896712 9.80031335,4.43143309 Z M3.62225378,0.0604840387 C4.34854566,-0.203762579 5.25519607,0.4557134 5.64731415,1.53346487 C6.03943224,2.61121633 5.76853086,3.69912073 5.04223899,3.96336734 C4.31594711,4.22761396 3.4092967,3.56813798 3.01717862,2.49038652 C2.62506053,1.41263505 2.89596191,0.324730657 3.62225378,0.0604840387 Z M6.97346088,1.53146756 C7.36562968,0.454119571 8.27200844,-0.205014243 8.99811605,0.0591601899 C9.72422367,0.323520661 9.99490944,1.41110076 9.60274064,2.48844874 C9.21057183,3.56579673 8.30419307,4.22493054 7.57808546,3.96075611 C6.85197784,3.69658168 6.58129207,2.60881554 6.97346088,1.53146756 Z" id="Combined-Shape" fill="#8A512E"></path>
                <path d="M11.1928103,38.2368307 C10.7818516,38.2368307 10.4486569,38.5700253 10.4486569,38.980984 L10.4486569,39.6010498 C10.4486569,40.0120084 10.7818516,40.3452031 11.1928103,40.3452031 C11.6037689,40.3452031 11.9369636,40.0120084 11.9369636,39.6010498 L11.9369636,38.980984 C11.9369636,38.5700253 11.6037689,38.2368307 11.1928103,38.2368307 Z" id="Path" fill="#F2BA95"></path>
                <path d="M10.4486569,32.841719 L10.4486569,36.190409 C10.4486569,36.6013677 10.7818516,36.9345623 11.1928103,36.9345623 C11.6037689,36.9345623 11.9369636,36.6013677 11.9369636,36.190409 L11.9369636,32.841719 C11.9369636,32.4307603 11.6037689,32.0975657 11.1928103,32.0975657 C10.7818516,32.0975657 10.4486569,32.4307603 10.4486569,32.841719 Z" id="Path" fill="#F2BA95"></path>
            </g>
        </g>
    </g>
</svg>