<?xml version="1.0" encoding="UTF-8"?>
<svg width="46px" height="46px" viewBox="0 0 46 46" version="1.1" xmlns="http://www.w3.org/2000/svg" xmlns:xlink="http://www.w3.org/1999/xlink">
    <!-- Generator: Sketch 63.1 (92452) - https://sketch.com -->
    <!--<title>illustrazione/functional/piggy-bank</title>-->
    <desc>Created with Sketch.</desc>
    <g id="illustrazione/functional/piggy-bank" stroke="none" stroke-width="1" fill="none" fill-rule="evenodd">
        <g id="Group-6" transform="translate(3.000000, 3.000000)" fill-rule="nonzero">
            <path d="M0,24.0770261 L0,28.2724452 L2.87554168,28.2724452 C2.87554168,28.2724452 4.6737841,33.8026536 12.0449319,36.5672443 L13.9317791,40 L17.4377224,40 L18.5164742,37.2348958 L27.5953228,37.2348958 L28.4043867,40 L31.1908393,40 C31.1908393,40 38.8176338,34.696793 38.4845184,25.6978784 L40,25.6978784 L40,24.2675635 L38.3658944,24.2675635 C38.2075677,23.026759 37.8957562,21.7227843 37.3931779,20.358721 C37.3931779,20.358721 34.4266105,12.4449968 23.4599463,12.4449968 C12.4942504,12.4449968 12.2245624,13.8747981 12.2245624,13.8747981 C12.2245624,13.8747981 10.2471736,10.2515049 6.11179703,10.4420424 C6.11179703,10.4420424 7.99961266,13.3981976 7.72992471,16.3538393 C7.72992471,16.3538393 2.6959111,21.3114083 2.51579635,23.5049001 L0,24.0770261 Z M7.73040889,22.3197661 C7.73040889,21.7374084 8.18117163,21.2641591 8.73649603,21.2641591 C9.292458,21.2641591 9.74258317,21.7374084 9.74258317,22.3197661 C9.74258317,22.9034626 9.292458,23.3760426 8.73649603,23.3760426 C8.18117163,23.3760426 7.73040889,22.9034626 7.73040889,22.3197661 Z" id="Shape" fill="#FF946F"></path>
            <polygon id="Path" fill="#EE5019" points="29.5652174 17.3913043 14.7826087 17.3913043 15.9633301 15.6521739 28.3854269 15.6521739"></polygon>
            <circle id="Oval" fill="#C29820" cx="22.173913" cy="7.39130435" r="7.39130435"></circle>
            <circle id="Oval" fill="#FFD949" cx="22.173913" cy="9.13043478" r="7.39130435"></circle>
            <circle id="Oval" fill="#E1B950" cx="22.173913" cy="9.13043478" r="5.65217391"></circle>
        </g>
    </g>
</svg>