<?xml version="1.0" encoding="UTF-8"?>
<svg width="46px" height="46px" viewBox="0 0 46 46" version="1.1" xmlns="http://www.w3.org/2000/svg" xmlns:xlink="http://www.w3.org/1999/xlink">
    <!-- Generator: Sketch 63.1 (92452) - https://sketch.com -->
    <!--<title>illustrazione/functional/propostalibera</title>-->
    <desc>Created with Sketch.</desc>
    <g id="illustrazione/functional/propostalibera" stroke="none" stroke-width="1" fill="none" fill-rule="evenodd">
        <g id="Group-15" transform="translate(3.000000, 3.000000)">
            <path d="M25.5998439,25.5998927 C19.4027707,25.5998927 14.3608195,20.5583317 14.3608195,14.3609659 C14.3608195,8.1636 19.402478,3.12203902 25.5998439,3.12203902 C31.7972098,3.12203902 36.839161,8.1636 36.839161,14.3609659 C36.839161,20.5583317 31.7972098,25.5998927 25.5998439,25.5998927" id="Fill-1" fill="#7BC8F8"></path>
            <path d="M12.894439,28.0964585 C12.6085854,28.0964585 12.3228293,27.9874829 12.1047805,27.7694341 C11.6684878,27.3331415 11.6684878,26.6254341 12.1047805,26.1894341 L15.5323902,22.7622146 C15.9687805,22.325922 16.6760976,22.325922 17.1123902,22.7622146 C17.5487805,23.1986049 17.5487805,23.9063122 17.1123902,24.341922 L13.6844878,27.7691415 C13.466439,27.9874829 13.1802927,28.0964585 12.894439,28.0964585" id="Fill-3" fill="#1B7BC7"></path>
            <path d="M25.5998439,25.5998927 C19.4027707,25.5998927 14.3608195,20.5583317 14.3608195,14.3609659 C14.3608195,8.1636 19.402478,3.12203902 25.5998439,3.12203902 C31.7972098,3.12203902 36.839161,8.1636 36.839161,14.3609659 C36.839161,20.5583317 31.7972098,25.5998927 25.5998439,25.5998927 M25.5998439,8.7804878e-05 C17.6810146,8.7804878e-05 11.2388683,6.44252683 11.2388683,14.3609659 C11.2388683,22.2797951 17.6810146,28.7218439 25.5998439,28.7218439 C33.5190634,28.7218439 39.9611122,22.2797951 39.9611122,14.3609659 C39.9611122,6.44252683 33.5190634,8.7804878e-05 25.5998439,8.7804878e-05" id="Fill-5" fill="#3D9AE2"></path>
            <path d="M14.0921756,25.8685659 C13.5163707,25.292761 12.7511024,24.9756878 11.9363707,24.9756878 C11.1219317,24.9756878 10.3566634,25.292761 9.78046829,25.8685659 L0.89324878,34.7561756 C0.317053659,35.3315902 -1.95121951e-05,36.097639 -1.95121951e-05,36.9119805 C-1.95121951e-05,37.7264195 0.317053659,38.492078 0.89324878,39.0678829 C1.46876098,39.6436878 2.2347122,39.9612488 3.04876098,39.9612488 C3.8632,39.9612488 4.62915122,39.6441756 5.20466341,39.0678829 L14.0917854,30.180761 C14.668078,29.6048585 14.9855415,28.8392976 14.9855415,28.0248585 C14.9855415,27.2100293 14.668078,26.4443707 14.0921756,25.8685659" id="Fill-7" fill="#3D9AE2"></path>
            <path d="M14.0921756,25.8685659 C13.5163707,25.292761 12.7511024,24.9756878 11.9363707,24.9756878 C11.1219317,24.9756878 10.3566634,25.292761 9.78046829,25.8685659 L0.89324878,34.7561756 C0.317053659,35.3315902 -1.95121951e-05,36.097639 -1.95121951e-05,36.9119805 C-1.95121951e-05,37.7264195 0.317053659,38.492078 0.89324878,39.0678829 L14.0921756,25.8689561 L14.0921756,25.8685659 Z" id="Fill-10" fill="#1B7BC7"></path>
            <path d="M27.7854439,17.1707805 C25.0309073,17.1707805 22.7904195,14.9299024 22.7904195,12.1757561 C22.7904195,9.42112195 25.0309073,7.18073171 27.7854439,7.18073171 C30.5395902,7.18073171 32.7804683,9.42112195 32.7804683,12.1757561 C32.7804683,14.9299024 30.5395902,17.1707805 27.7854439,17.1707805" id="Fill-13" fill="#B3E4FD"></path>
        </g>
    </g>
</svg>