<?xml version="1.0" encoding="UTF-8"?>
<svg width="46px" height="46px" viewBox="0 0 46 46" version="1.1" xmlns="http://www.w3.org/2000/svg" xmlns:xlink="http://www.w3.org/1999/xlink">
    <!-- Generator: Sketch 63.1 (92452) - https://sketch.com -->
    <!--<title>illustrazione/functional/rendite-finanziarie</title>-->
    <desc>Created with Sketch.</desc>
    <g id="illustrazione/functional/rendite-finanziarie" stroke="none" stroke-width="1" fill="none" fill-rule="evenodd">
        <g id="Group-2" transform="translate(0.000000, 1.000000)" fill-rule="nonzero">
            <g id="008-business-and-finance" transform="translate(0.000000, 18.186047)">
                <path d="M39.0193496,20.1675818 C35.6146057,20.1675818 32.8574891,19.1352143 32.8574891,17.8568841 L32.8574891,20.9378143 C32.8574891,22.2161446 35.6146057,23.248512 39.0193496,23.248512 C42.4237172,23.248512 45.1812101,22.2161446 45.1812101,20.9378143 L45.1812101,17.8568841 C45.1812101,19.1352143 42.4237172,20.1675818 39.0193496,20.1675818 Z" id="Path" fill="#FFB900"></path>
                <path d="M39.0193496,17.0866516 C35.6146057,17.0866516 32.8574891,16.0542841 32.8574891,14.7759539 L32.8574891,17.8568841 C32.8574891,19.1352143 35.6146057,20.1675818 39.0193496,20.1675818 C42.4237172,20.1675818 45.1812101,19.1352143 45.1812101,17.8568841 L45.1812101,14.7759539 C45.1812101,16.0542841 42.4237172,17.0866516 39.0193496,17.0866516 Z" id="Path" fill="#FFD949"></path>
                <path d="M39.0193496,23.248512 C35.6146057,23.248512 32.8574891,22.2161446 32.8574891,20.9378143 L32.8574891,24.0187446 C32.8574891,25.2970748 35.6146057,26.3294422 39.0193496,26.3294422 C42.4237172,26.3294422 45.1812101,25.2970748 45.1812101,24.0187446 L45.1812101,20.9378143 C45.1812101,22.2161446 42.4237172,23.248512 39.0193496,23.248512 Z" id="Path" fill="#FFD949"></path>
                <path d="M39.0193496,7.84386085 C35.6146057,7.84386085 32.8574891,6.81149341 32.8574891,5.53316318 L32.8574891,8.61409341 C32.8574891,9.89242364 35.6146057,10.9247911 39.0193496,10.9247911 C42.4237172,10.9247911 45.1812101,9.89242364 45.1812101,8.61409341 L45.1812101,5.53316318 C45.1812101,6.81149341 42.4237172,7.84386085 39.0193496,7.84386085 L39.0193496,7.84386085 Z" id="Path" fill="#FFB900"></path>
                <path d="M39.0193496,14.0057213 C35.6146057,14.0057213 32.8574891,12.9733539 32.8574891,11.6950236 L32.8574891,14.7759539 C32.8574891,16.0542841 35.6146057,17.0866516 39.0193496,17.0866516 C42.4237172,17.0866516 45.1812101,16.0542841 45.1812101,14.7759539 L45.1812101,11.6950236 C45.1812101,12.9733539 42.4237172,14.0057213 39.0193496,14.0057213 Z" id="Path" fill="#FFB900"></path>
                <path d="M39.0193496,10.9247911 C35.6146057,10.9247911 32.8574891,9.89242364 32.8574891,8.61409341 L32.8574891,11.6950236 C32.8574891,12.9733539 35.6146057,14.0057213 39.0193496,14.0057213 C42.4237172,14.0057213 45.1812101,12.9733539 45.1812101,11.6950236 L45.1812101,8.61409341 C45.1812101,9.89242364 42.4237172,10.9247911 39.0193496,10.9247911 Z" id="Path" fill="#FFD949"></path>
                <path d="M39.0193496,4.76293062 C35.6164862,4.76293062 32.8574891,3.72830669 32.8574891,2.45223295 L32.8574891,5.53316318 C32.8574891,6.81149341 35.6146057,7.84386085 39.0193496,7.84386085 C42.4237172,7.84386085 45.1812101,6.81149341 45.1812101,5.53316318 L45.1812101,2.45223295 C45.1812101,3.72830669 42.422213,4.76293062 39.0193496,4.76293062 Z" id="Path" fill="#FFD949"></path>
                <path d="M6.66958217,26.2010702 C10.0739498,26.2010702 12.8314426,25.1687027 12.8314426,23.8903725 L12.8314426,20.8094422 C12.8314426,22.0877725 10.0739498,23.1201399 6.66958217,23.1201399 C3.26483828,23.1201399 0.507721705,22.0877725 0.507721705,20.8094422 L0.507721705,23.8903725 C0.507721705,25.1687027 3.26483828,26.2010702 6.66958217,26.2010702 Z" id="Path" fill="#FFD949"></path>
                <path d="M22.8444659,20.0392097 C19.439722,20.0392097 16.6826054,19.0068422 16.6826054,17.728512 L16.6826054,20.8094422 C16.6826054,22.0877725 19.439722,23.1201399 22.8444659,23.1201399 C26.2488335,23.1201399 29.0063264,22.0877725 29.0063264,20.8094422 L29.0063264,17.728512 C29.0063264,19.0068422 26.2488335,20.0392097 22.8444659,20.0392097 Z" id="Path" fill="#FFB900"></path>
                <path d="M22.8444659,16.9582795 C19.439722,16.9582795 16.6826054,15.925912 16.6826054,14.6475818 L16.6826054,17.728512 C16.6826054,19.0068422 19.439722,20.0392097 22.8444659,20.0392097 C26.2488335,20.0392097 29.0063264,19.0068422 29.0063264,17.728512 L29.0063264,14.6475818 C29.0063264,15.925912 26.2488335,16.9582795 22.8444659,16.9582795 Z" id="Path" fill="#FFD949"></path>
                <path d="M22.8444659,10.796419 C19.4416025,10.796419 16.6826054,9.76179506 16.6826054,8.48572132 L16.6826054,11.5666516 C16.6826054,12.8449818 19.439722,13.8773492 22.8444659,13.8773492 C26.2488335,13.8773492 29.0063264,12.8449818 29.0063264,11.5666516 L29.0063264,8.48572132 C29.0063264,9.76179506 26.2473293,10.796419 22.8444659,10.796419 Z" id="Path" fill="#FFD949"></path>
                <path d="M22.8444659,13.8773492 C19.439722,13.8773492 16.6826054,12.8449818 16.6826054,11.5666516 L16.6826054,14.6475818 C16.6826054,15.925912 19.439722,16.9582795 22.8444659,16.9582795 C26.2488335,16.9582795 29.0063264,15.925912 29.0063264,14.6475818 L29.0063264,11.5666516 C29.0063264,12.8449818 26.2488335,13.8773492 22.8444659,13.8773492 Z" id="Path" fill="#FFB900"></path>
                <path d="M6.66958217,23.1201399 C10.0739498,23.1201399 12.8314426,22.0877725 12.8314426,20.8094422 L12.8314426,17.728512 C12.8314426,19.0068422 10.0739498,20.0392097 6.66958217,20.0392097 C3.26483828,20.0392097 0.507721705,19.0068422 0.507721705,17.728512 L0.507721705,20.8094422 C0.507721705,22.0877725 3.26483828,23.1201399 6.66958217,23.1201399 Z" id="Path" fill="#FFB900"></path>
                <path d="M6.66958217,20.0392097 C10.0739498,20.0392097 12.8314426,19.0068422 12.8314426,17.728512 L12.8314426,14.6475818 C12.8314426,15.9236555 10.0724455,16.9582795 6.66958217,16.9582795 C3.2667188,16.9582795 0.507721705,15.9236555 0.507721705,14.6475818 L0.507721705,17.728512 C0.507721705,19.0068422 3.26483828,20.0392097 6.66958217,20.0392097 Z" id="Path" fill="#FFD949"></path>
                <path d="M22.8444659,23.1201399 C19.439722,23.1201399 16.6826054,22.0877725 16.6826054,20.8094422 L16.6826054,23.8903725 C16.6826054,25.1687027 19.439722,26.2010702 22.8444659,26.2010702 C26.2488335,26.2010702 29.0063264,25.1687027 29.0063264,23.8903725 L29.0063264,20.8094422 C29.0063264,22.0877725 26.2488335,23.1201399 22.8444659,23.1201399 Z" id="Path" fill="#FFD949"></path>
                <path d="M12.8314426,14.6475818 C12.8314426,13.3715079 10.0724455,12.3368841 6.66958217,12.3368841 C3.26634264,12.3368841 0.507721705,13.3715079 0.507721705,14.6475818 C0.507721705,15.9236555 3.26634264,16.9582795 6.66958217,16.9582795 C10.0724455,16.9582795 12.8314426,15.9236555 12.8314426,14.6475818 Z" id="Path" fill="#E1B950"></path>
                <path d="M29.0063264,8.48572132 C29.0063264,7.20964748 26.2473293,6.17502364 22.8444659,6.17502364 C19.4412264,6.17502364 16.6826054,7.20964748 16.6826054,8.48572132 C16.6826054,9.76179506 19.4412264,10.796419 22.8444659,10.796419 C26.2473293,10.796419 29.0063264,9.76179506 29.0063264,8.48572132 Z" id="Path" fill="#E1B950"></path>
                <path d="M45.1812101,2.45223295 C45.1812101,1.17615911 42.422213,0.141535271 39.0193496,0.141535271 C35.6161101,0.141535271 32.8574891,1.17615911 32.8574891,2.45223295 C32.8574891,3.72830669 35.6161101,4.76293062 39.0193496,4.76293062 C42.422213,4.76293062 45.1812101,3.72830669 45.1812101,2.45223295 Z" id="Path" fill="#E1B950"></path>
            </g>
            <path d="M40.6094158,1.3150312 L40.6094158,6.57515598 C40.6094158,7.31143652 40.0310075,7.89018718 39.2943846,7.89018718 C38.5577616,7.89018718 37.9793534,7.31143652 37.9793534,6.57515598 L37.9793534,4.49747516 L24.434532,18.1035961 C24.1978949,18.3666024 23.8557814,18.4981055 23.5140102,18.4981055 C23.172239,18.4981055 22.8301255,18.3666024 22.5934884,18.1035961 L18.2538854,13.7903623 L8.65415769,23.3637209 C8.41752054,23.6267272 8.07540702,23.7582303 7.73363585,23.7582303 C7.39186468,23.7582303 7.04975116,23.6267272 6.81311401,23.3637209 C6.28710153,22.8640775 6.28710153,22.0223206 6.81311401,21.5226773 L17.3333636,11.0024277 C17.833007,10.4764152 18.6747639,10.4764152 19.1744073,11.0024277 L23.5140102,15.3156615 L36.1119406,2.63006239 L34.0342598,2.63006239 C33.2976368,2.63006239 32.7192286,2.05131173 32.7192286,1.3150312 C32.7192286,0.578408231 33.2976368,1.90028871e-14 34.0342598,1.90028871e-14 L39.2943846,1.90028871e-14 C40.0310075,1.90028871e-14 40.6094158,0.578408231 40.6094158,1.3150312 Z" id="Path" fill="#76D37E"></path>
            <path d="M40.6094158,1.3150312 L40.6094158,6.57515598 C40.6094158,7.31143652 40.0310075,7.89018718 39.2943846,7.89018718 C38.5577616,7.89018718 37.9793534,7.31143652 37.9793534,6.57515598 L37.9793534,4.49747516 L24.434532,18.1035961 C24.1978949,18.3666024 23.8557814,18.4981055 23.5140102,18.4981055 L23.5140102,15.3156615 L36.1119406,2.63006239 L34.0342598,2.63006239 C33.2976368,2.63006239 32.7192286,2.05131173 32.7192286,1.3150312 C32.7192286,0.578408231 33.2976368,-1.90028871e-14 34.0342598,-1.90028871e-14 L39.2943846,-1.90028871e-14 C40.0310075,-1.90028871e-14 40.6094158,0.578408231 40.6094158,1.3150312 Z" id="Path" fill="#76D37E"></path>
        </g>
    </g>
</svg>