<?xml version="1.0" encoding="UTF-8"?>
<svg width="46px" height="46px" viewBox="0 0 46 46" version="1.1" xmlns="http://www.w3.org/2000/svg" xmlns:xlink="http://www.w3.org/1999/xlink">
    <!-- Generator: Sketch 63.1 (92452) - https://sketch.com -->
    <!--<title>illustrazione/functional/ribilancia</title>-->
    <desc>Created with Sketch.</desc>
    <g id="illustrazione/functional/ribilancia" stroke="none" stroke-width="1" fill="none" fill-rule="evenodd">
        <g id="Group-19" transform="translate(0.000000, 5.000000)">
            <path d="M23,28 L12,28 C11.4477153,28 11,28.4477153 11,29 L11,33 L11,33 L35,33 L35,29 C35,28.4477153 34.5522847,28 34,28 L23,28 L23,28 Z" id="Fill-5" fill="#3D9AE2"></path>
            <path d="M23,33 L6,33 C5.44771525,33 5,33.4477153 5,34 L5,35 C5,35.5522847 5.44771525,36 6,36 L40,36 C40.5522847,36 41,35.5522847 41,35 L41,34 C41,33.4477153 40.5522847,33 40,33 L23,33 L23,33 Z" id="Fill-5-Copy" fill="#1B7BC7"></path>
            <g id="Group-18">
                <path d="M9,0 C7.89546667,0 7,0.895466667 7,2 C7,3.10453333 7.89546667,4 9,4 C10.1045333,4 11,3.10453333 11,2 C11,0.895466667 10.1045333,0 9,0 M9,1.33333333 C9.36763626,1.33333333 9.66666667,1.6324372 9.66666667,2 C9.66666667,2.3675628 9.36763626,2.66666667 9,2.66666667 C8.63236374,2.66666667 8.33333333,2.3675628 8.33333333,2 C8.33333333,1.6324372 8.63236374,1.33333333 9,1.33333333" id="Fill-9" fill="#1B7BC7"></path>
                <path d="M14.9393252,10.4778091 C15.1429885,11.3150371 14.8170177,12 14.2147875,12 L3.7852548,12 C3.18302456,12 2.85694427,11.3150371 3.06071708,10.4778091 L4.50979251,4.52219094 C4.71345583,3.68496289 5.37295268,3 5.97518291,3 L12.0248593,3 C12.6270896,3 13.2864769,3.68496289 13.4902497,4.52219094 L14.9393252,10.4778091 Z" id="Fill-12" fill="#1B7BC7"></path>
                <path d="M14.1611374,15 L3.83886256,15 C1.71855924,15 0,13.3212222 0,11.25 L0,10 L18,10 L18,11.25 C18,13.3212222 16.2814408,15 14.1611374,15" id="Fill-16" fill="#7BC8F8"></path>
                <path d="M42.1611374,9 L31.8388626,9 C29.7185592,9 28,7.32122222 28,5.25 L28,4 L46,4 L46,5.25 C46,7.32122222 44.2814408,9 42.1611374,9" id="Fill-16-Copy" fill="#7BC8F8"></path>
            </g>
            <path d="M10.5,19.4631525 L10.5,15 L7.5,15 L7.5,21.271934 C7.5,22.2116028 8.35410524,22.9199016 9.27754825,22.7460327 L37.2775483,17.4740987 C37.9864866,17.3406174 38.5,16.721395 38.5,16 L38.5,9 L35.5,9 L35.5,14.7560686 L10.5,19.4631525 Z" id="Path-2" fill="#B3E4FD"></path>
            <polygon id="Fill-5-Copy-2" fill="#3D9AE2" points="23 13 21 14 21 28 25 28 25 14"></polygon>
        </g>
    </g>
</svg>