<?xml version="1.0" encoding="UTF-8"?>
<svg width="46px" height="46px" viewBox="0 0 46 46" version="1.1" xmlns="http://www.w3.org/2000/svg" xmlns:xlink="http://www.w3.org/1999/xlink">
    <!-- Generator: Sketch 63.1 (92452) - https://sketch.com -->
    <!--<title>illustrazione/functional/salute-benessere</title>-->
    <desc>Created with Sketch.</desc>
    <g id="illustrazione/functional/salute-benessere" stroke="none" stroke-width="1" fill="none" fill-rule="evenodd">
        <g id="Group-2" transform="translate(0.000000, 3.000000)" fill-rule="nonzero">
            <path d="M11.5,36.5909091 L14.7078784,36.5909091 C19.8649046,36.5909091 24.0454545,32.4103591 24.0454545,27.2533329 L24.0454545,24.0454545 L20.8375762,24.0454545 C15.68055,24.0454545 11.5,28.2260045 11.5,33.3830307 L11.5,36.5909091 Z" id="Path" fill="#31760E"></path>
            <path d="M21.9545455,36.5909091 L25.1624238,36.5909091 C30.31945,36.5909091 34.5,32.4103591 34.5,27.2533329 L34.5,24.0454545 L31.2921216,24.0454545 C26.1350954,24.0454545 21.9545455,28.2260045 21.9545455,33.3830307 L21.9545455,36.5909091 Z" id="Path" fill="#31760E" transform="translate(28.227273, 30.318182) scale(-1, 1) translate(-28.227273, -30.318182) "></path>
            <path d="M22.9999767,39.7272727 L20.6300564,37.5886255 C16.8203464,34.1506931 16.8202221,28.5765796 20.6300564,25.1385352 L22.9999767,23 L25.3698971,25.1386473 C29.1797313,28.5765796 29.1797313,34.1506931 25.3698971,37.5887376 L22.9999767,39.7272727 Z" id="Path" fill="#57AB2D"></path>
            <path d="M23,27.138839 L20.0593824,24.1644574 C15.3320931,19.3828897 7.66779412,19.3828897 2.9405049,24.1644574 L0,27.138839 L2.94061765,30.1132207 C7.66790686,34.8947884 15.3322059,34.8947884 20.0594951,30.1132207 L23,27.138839 Z" id="Path" fill="#FF946F"></path>
            <path d="M46,27.138839 L43.0593824,24.1644574 C38.3320931,19.3828897 30.6677941,19.3828897 25.9405049,24.1644574 L23,27.138839 L25.9406176,30.1132207 C30.6679069,34.8947884 38.3322059,34.8947884 43.0594951,30.1132207 L46,27.138839 Z" id="Path-Copy" fill="#FF946F"></path>
            <path d="M23,27.1818182 L23,22.37001 C23,14.6345816 16.7291685,8.36363636 8.99362636,8.36363636 L4.18181818,8.36363636 L4.18181818,13.1754445 C4.18181818,20.9108729 10.4526497,27.1818182 18.1881918,27.1818182 L23,27.1818182 Z" id="Path" fill="#FFCDBC"></path>
            <path d="M41.8181818,27.1818182 L41.8181818,22.37001 C41.8181818,14.6345816 35.5473503,8.36363636 27.8118082,8.36363636 L23,8.36363636 L23,13.1754445 C23,20.9108729 29.2708315,27.1818182 37.0063736,27.1818182 L41.8181818,27.1818182 Z" id="Path-Copy-2" fill="#FFCDBC" transform="translate(32.409091, 17.772727) scale(-1, 1) translate(-32.409091, -17.772727) "></path>
            <g id="Group" transform="translate(15.681818, -0.000000)" fill="#FF946F">
                <path d="M7.31818182,27.1818182 L4.00032655,23.7065857 C-1.33344218,18.119818 -1.33344218,9.06188402 4.00032655,3.47523252 L7.31818182,0 L10.6360371,3.47523252 C15.9698058,9.0620002 15.9698058,18.1199342 10.6360371,23.7065857 L7.31818182,27.1818182 Z" id="Path"></path>
            </g>
        </g>
    </g>
</svg>