<?xml version="1.0" encoding="UTF-8"?>
<svg width="46px" height="46px" viewBox="0 0 46 46" version="1.1" xmlns="http://www.w3.org/2000/svg" xmlns:xlink="http://www.w3.org/1999/xlink">
    <!-- Generator: Sketch 63.1 (92452) - https://sketch.com -->
    <!--<title>illustrazione/functional/shopping</title>-->
    <desc>Created with Sketch.</desc>
    <g id="illustrazione/functional/shopping" stroke="none" stroke-width="1" fill="none" fill-rule="evenodd">
        <g id="bags" transform="translate(2.000000, 0.000000)" fill-rule="nonzero">
            <polygon id="Path" fill="#EE5019" points="35.0660858 46 0.044921875 46 3.60006709 11.7776032 31.5098877 11.7776032 32.1033478 17.4889984"></polygon>
            <polygon id="Path" fill="#CF390A" points="18.0308685 22.8431244 37.4311523 22.8431244 39.9029083 46 15.5591126 46"></polygon>
            <polygon id="Path" fill="#FFD949" points="19.9723358 22.8431244 39.3726196 22.8431244 41.8443756 46 17.5009308 46"></polygon>
            <g id="Group" transform="translate(9.253906, 0.000000)" fill="#636363">
                <path d="M15.8307495,15.8184662 C15.4475098,15.8184662 15.1372681,15.5078735 15.1372681,15.1249847 L15.1372681,8.22315981 C15.1372681,4.45358272 12.0706481,1.38696289 8.30107114,1.38696289 C4.53149414,1.38696289 1.46487431,4.45358272 1.46487431,8.22315981 L1.46487431,15.1249847 C1.46487431,15.5078735 1.15428159,15.8184662 0.771392867,15.8184662 C0.388504051,15.8184662 0.0779114219,15.5078735 0.0779114219,15.1249847 L0.0779114219,8.22315981 C0.0779114219,3.68885805 3.76676939,0 8.30107114,0 C12.8353729,0 16.524231,3.68885805 16.524231,8.22315981 L16.524231,15.1249847 C16.524231,15.5078735 16.2136383,15.8184662 15.8307495,15.8184662 Z" id="Path"></path>
                <path d="M20.4187469,36.7531128 C17.5567321,36.7531128 15.2285156,34.4248962 15.2285156,31.5628815 L15.2285156,27.0657806 C15.2285156,26.6828919 15.5387573,26.3722992 15.9216461,26.3722992 C16.3048859,26.3722992 16.6151276,26.6828919 16.6151276,27.0657806 L16.6151276,31.5628815 C16.6151276,33.6598206 18.3214569,35.3661499 20.4187469,35.3661499 C22.516037,35.3661499 24.2220153,33.6598206 24.2220153,31.5628815 L24.2220153,27.0657806 C24.2220153,26.6828919 24.5326081,26.3722992 24.9154968,26.3722992 C25.2987366,26.3722992 25.6089782,26.6828919 25.6089782,27.0657806 L25.6089782,31.5628815 C25.6089782,34.4248962 23.2807617,36.7531128 20.4187469,36.7531128 L20.4187469,36.7531128 Z" id="Path"></path>
            </g>
        </g>
    </g>
</svg>