<?xml version="1.0" encoding="UTF-8"?>
<svg width="46px" height="46px" viewBox="0 0 46 46" version="1.1" xmlns="http://www.w3.org/2000/svg" xmlns:xlink="http://www.w3.org/1999/xlink">
    <!-- Generator: Sketch 63.1 (92452) - https://sketch.com -->
    <!--<title>illustrazione/functional/sostituisci</title>-->
    <desc>Created with Sketch.</desc>
    <g id="illustrazione/functional/sostituisci" stroke="none" stroke-width="1" fill="none" fill-rule="evenodd">
        <g id="wallet" transform="translate(5.000000, 5.000000)">
            <path d="M19.7927449,13.6074325 C19.7927449,14.2905684 19.2388265,14.8444868 18.5556496,14.8444868 L1.2371364,14.8444868 C0.554000525,14.8444868 8.21471716e-05,14.2906095 8.21471716e-05,13.6074325 L8.21471716e-05,1.23705426 C8.21471716e-05,0.553877304 0.553959452,0 1.2371364,0 L18.5556906,0 C19.2388265,0 19.7927449,0.553877304 19.7927449,1.23705426 L19.7927449,13.6074325 L19.7927449,13.6074325 Z" id="Path" fill="#3D9AE2"></path>
            <g id="Group" transform="translate(0.000082, 0.295288)">
                <path d="M17.3185542,3.41583385 L7.4222434,3.41583385 L7.4222434,2.79730672 L16.7000271,2.79730672 C17.0414718,2.79730672 17.3185542,3.07438913 17.3185542,3.41583385 Z" id="Path" fill="#B3E4FD"></path>
                <path d="M17.3185542,7.12695555 L12.3703783,7.12695555 L12.3703783,6.50842842 L16.7000271,6.50842842 C17.0414718,6.50842842 17.3185542,6.78551083 17.3185542,7.12695555 Z" id="Path" fill="#B3E4FD"></path>
                <path d="M16.7000271,13.6214288 L15.4629728,13.6214288 L15.4629728,13.3121858 L16.7000271,13.3121858 L16.7000271,13.6214288 Z M14.2259597,13.6214288 L12.9889054,13.6214288 L12.9889054,13.3121858 L14.2259597,13.3121858 L14.2259597,13.6214288 Z" id="Shape" fill="#7BC8F8"></path>
                <polygon id="Path" fill="#7BC8F8" points="18.7102095 13.6214288 17.9370814 13.6214288 17.9370814 13.3121447 18.4009664 13.3121447 18.4009664 12.8482596 18.7102095 12.8482596"></polygon>
                <path d="M18.7102095,11.6112053 L18.4009664,11.6112053 L18.4009664,10.3741511 L18.7102095,10.3741511 L18.7102095,11.6112053 Z M18.7102095,9.13713791 L18.4009664,9.13713791 L18.4009664,7.90008365 L18.7102095,7.90008365 L18.7102095,9.13713791 Z M18.7102095,6.66307047 L18.4009664,6.66307047 L18.4009664,5.42601621 L18.7102095,5.42601621 L18.7102095,6.66307047 Z M18.7102095,4.18896195 L18.4009664,4.18896195 L18.4009664,2.95194877 L18.7102095,2.95194877 L18.7102095,4.18896195 Z" id="Shape" fill="#7BC8F8"></path>
                <polygon id="Path" fill="#7BC8F8" points="18.7102095 1.71489451 18.4009664 1.71489451 18.4009664 1.25100944 17.9370814 1.25100944 17.9370814 0.941766409 18.7102095 0.941766409"></polygon>
                <path d="M16.7000271,1.25100944 L15.4629728,1.25100944 L15.4629728,0.941766409 L16.7000271,0.941766409 L16.7000271,1.25100944 Z M14.2259597,1.25100944 L12.9889054,1.25100944 L12.9889054,0.941766409 L14.2259597,0.941766409 L14.2259597,1.25100944 Z M11.7518922,1.25100944 L10.514838,1.25100944 L10.514838,0.941766409 L11.7518922,0.941766409 L11.7518922,1.25100944 Z M9.27778371,1.25100944 L8.04072945,1.25100944 L8.04072945,0.941766409 L9.27778371,0.941766409 L9.27778371,1.25100944 Z M6.80371627,1.25100944 L5.56666201,1.25100944 L5.56666201,0.941766409 L6.80371627,0.941766409 L6.80371627,1.25100944 Z M4.32964883,1.25100944 L3.09259457,1.25100944 L3.09259457,0.941766409 L4.32964883,0.941766409 L4.32964883,1.25100944 Z" id="Shape" fill="#7BC8F8"></path>
                <path d="M12.3703783,5.49033745 C12.3703783,4.98439302 12.0623675,4.52979057 11.5922803,4.34175569 L0.848292767,0.0442674853 C0.657793477,-0.0320883107 0.441623194,-0.00859421959 0.271824991,0.106452894 C0.101739272,0.221171419 -4.61852778e-13,0.413231507 -4.61852778e-13,0.618270847 L-4.61852778e-13,13.7117085 C-4.61852778e-13,14.217653 0.30801082,14.6722554 0.777769421,14.8602903 L10.6740803,19.4091899 C11.0547913,19.5613265 11.4871319,19.5149544 11.8270158,19.2848602 C12.1668997,19.0547659 12.3703783,18.6706868 12.3703783,18.2602796 L12.3703783,5.49033745 Z" id="Path" fill="#7BC8F8"></path>
            </g>
            <path d="M6.18527129,15.1537298 C6.18527129,15.0547835 6.23291664,14.9610536 6.31362624,14.9029345 C6.39433584,14.8448154 6.49825201,14.8287145 6.59226945,14.8596429 L9.68486402,16.0809249 C9.81137066,16.123929 9.89639298,16.2423441 9.89639298,16.3750118 L9.89639298,17.0093112 C9.89639298,17.1088736 9.84874762,17.2019874 9.76803803,17.2607226 C9.68732843,17.3188828 9.58341226,17.3343265 9.48939482,17.3033981 L6.39680025,16.0821161 C6.27029361,16.0397692 6.18527129,15.921313 6.18527129,15.7880292 L6.18527129,15.1537298 Z" id="Path" fill="#B3E4FD"></path>
        </g>
        <path d="M33.0143829,10.4545455 L33.0143829,8 L37,12.0909091 L33.0143829,16.1818182 L33.0143829,13.7272727 C33.0143829,13.7272727 29.4750048,12.8528613 27.057411,17 C27.057411,17 26.4547089,13.8348424 29.1548941,11.5412441 C29.1548941,11.5410404 30.3780601,10.3734607 33.0143829,10.4545455 Z" id="Path" fill="#3D9AE2" transform="translate(32.000000, 12.500000) scale(-1, 1) translate(-32.000000, -12.500000) "></path>
        <path d="M15.0143829,28.4545455 L15.0143829,26 L19,30.0909091 L15.0143829,34.1818182 L15.0143829,31.7272727 C15.0143829,31.7272727 11.4750048,30.8528613 9.05741098,35 C9.05741098,35 8.45470887,31.8348424 11.1548941,29.5412441 C11.1548941,29.5410404 12.3780601,28.3734607 15.0143829,28.4545455 Z" id="Path-Copy" fill="#3D9AE2" transform="translate(14.000000, 30.500000) scale(1, -1) translate(-14.000000, -30.500000) "></path>
        <g id="wallet-copy" transform="translate(21.000000, 23.000000)">
            <path d="M19.7927449,13.6074325 C19.7927449,14.2905684 19.2388265,14.8444868 18.5556496,14.8444868 L1.2371364,14.8444868 C0.554000525,14.8444868 8.21471716e-05,14.2906095 8.21471716e-05,13.6074325 L8.21471716e-05,1.23705426 C8.21471716e-05,0.553877304 0.553959452,0 1.2371364,0 L18.5556906,0 C19.2388265,0 19.7927449,0.553877304 19.7927449,1.23705426 L19.7927449,13.6074325 L19.7927449,13.6074325 Z" id="Path" fill="#3D9AE2"></path>
            <g id="Group" transform="translate(0.000082, 0.295288)">
                <path d="M17.3185542,3.41583385 L7.4222434,3.41583385 L7.4222434,2.79730672 L16.7000271,2.79730672 C17.0414718,2.79730672 17.3185542,3.07438913 17.3185542,3.41583385 Z" id="Path" fill="#B3E4FD"></path>
                <path d="M17.3185542,7.12695555 L12.3703783,7.12695555 L12.3703783,6.50842842 L16.7000271,6.50842842 C17.0414718,6.50842842 17.3185542,6.78551083 17.3185542,7.12695555 Z" id="Path" fill="#B3E4FD"></path>
                <path d="M16.7000271,13.6214288 L15.4629728,13.6214288 L15.4629728,13.3121858 L16.7000271,13.3121858 L16.7000271,13.6214288 Z M14.2259597,13.6214288 L12.9889054,13.6214288 L12.9889054,13.3121858 L14.2259597,13.3121858 L14.2259597,13.6214288 Z" id="Shape" fill="#7BC8F8"></path>
                <polygon id="Path" fill="#7BC8F8" points="18.7102095 13.6214288 17.9370814 13.6214288 17.9370814 13.3121447 18.4009664 13.3121447 18.4009664 12.8482596 18.7102095 12.8482596"></polygon>
                <path d="M18.7102095,11.6112053 L18.4009664,11.6112053 L18.4009664,10.3741511 L18.7102095,10.3741511 L18.7102095,11.6112053 Z M18.7102095,9.13713791 L18.4009664,9.13713791 L18.4009664,7.90008365 L18.7102095,7.90008365 L18.7102095,9.13713791 Z M18.7102095,6.66307047 L18.4009664,6.66307047 L18.4009664,5.42601621 L18.7102095,5.42601621 L18.7102095,6.66307047 Z M18.7102095,4.18896195 L18.4009664,4.18896195 L18.4009664,2.95194877 L18.7102095,2.95194877 L18.7102095,4.18896195 Z" id="Shape" fill="#7BC8F8"></path>
                <polygon id="Path" fill="#7BC8F8" points="18.7102095 1.71489451 18.4009664 1.71489451 18.4009664 1.25100944 17.9370814 1.25100944 17.9370814 0.941766409 18.7102095 0.941766409"></polygon>
                <path d="M16.7000271,1.25100944 L15.4629728,1.25100944 L15.4629728,0.941766409 L16.7000271,0.941766409 L16.7000271,1.25100944 Z M14.2259597,1.25100944 L12.9889054,1.25100944 L12.9889054,0.941766409 L14.2259597,0.941766409 L14.2259597,1.25100944 Z M11.7518922,1.25100944 L10.514838,1.25100944 L10.514838,0.941766409 L11.7518922,0.941766409 L11.7518922,1.25100944 Z M9.27778371,1.25100944 L8.04072945,1.25100944 L8.04072945,0.941766409 L9.27778371,0.941766409 L9.27778371,1.25100944 Z M6.80371627,1.25100944 L5.56666201,1.25100944 L5.56666201,0.941766409 L6.80371627,0.941766409 L6.80371627,1.25100944 Z M4.32964883,1.25100944 L3.09259457,1.25100944 L3.09259457,0.941766409 L4.32964883,0.941766409 L4.32964883,1.25100944 Z" id="Shape" fill="#7BC8F8"></path>
                <path d="M12.3703783,5.49033745 C12.3703783,4.98439302 12.0623675,4.52979057 11.5922803,4.34175569 L0.848292767,0.0442674853 C0.657793477,-0.0320883107 0.441623194,-0.00859421959 0.271824991,0.106452894 C0.101739272,0.221171419 -4.61852778e-13,0.413231507 -4.61852778e-13,0.618270847 L-4.61852778e-13,13.7117085 C-4.61852778e-13,14.217653 0.30801082,14.6722554 0.777769421,14.8602903 L10.6740803,19.4091899 C11.0547913,19.5613265 11.4871319,19.5149544 11.8270158,19.2848602 C12.1668997,19.0547659 12.3703783,18.6706868 12.3703783,18.2602796 L12.3703783,5.49033745 Z" id="Path" fill="#7BC8F8"></path>
            </g>
            <path d="M6.18527129,15.1537298 C6.18527129,15.0547835 6.23291664,14.9610536 6.31362624,14.9029345 C6.39433584,14.8448154 6.49825201,14.8287145 6.59226945,14.8596429 L9.68486402,16.0809249 C9.81137066,16.123929 9.89639298,16.2423441 9.89639298,16.3750118 L9.89639298,17.0093112 C9.89639298,17.1088736 9.84874762,17.2019874 9.76803803,17.2607226 C9.68732843,17.3188828 9.58341226,17.3343265 9.48939482,17.3033981 L6.39680025,16.0821161 C6.27029361,16.0397692 6.18527129,15.921313 6.18527129,15.7880292 L6.18527129,15.1537298 Z" id="Path" fill="#B3E4FD"></path>
        </g>
    </g>
</svg>