<?xml version="1.0" encoding="UTF-8"?>
<svg width="46px" height="46px" viewBox="0 0 46 46" version="1.1" xmlns="http://www.w3.org/2000/svg" xmlns:xlink="http://www.w3.org/1999/xlink">
    <!-- Generator: Sketch 63.1 (92452) - https://sketch.com -->
    <!--<title>illustrazione/functional/spettacolo</title>-->
    <desc>Created with Sketch.</desc>
    <g id="illustrazione/functional/spettacolo" stroke="none" stroke-width="1" fill="none" fill-rule="evenodd">
        <g id="016-movies" fill-rule="nonzero">
            <path d="M34,45.928 L34,46 L19.8334291,46 C19.5131806,45.9985944 19.2218257,45.8227648 19.0828954,45.547061 C18.9439651,45.2713571 18.9818008,44.9440833 19.1803603,44.704 L21.1898029,42.304 C21.3477513,42.1130101 21.5881147,42.0011222 21.8428718,42 L26.4729626,42 L34,45.928 Z" id="Shape" fill="#C6805A"></path>
            <path d="M42.9710094,20.5476299 L45.0179892,27.2100433 C45.0397853,27.2859222 45.0502757,27.3646 45.0492077,27.443539 C45.0492077,27.7786398 44.8318758,28.0750378 44.5120816,28.1751592 C44.0888949,28.2976182 43.7138042,28.5476786 43.438001,28.891213 L24.540408,37.5305574 L9.24643346,42.2238228 C9.17321183,42.2455948 9.09710239,42.2560927 9.02072086,42.255039 C8.68137123,42.2553695 8.38144767,42.0343732 8.28131751,41.7101321 C7.90288107,40.4891142 6.60861935,39.8037122 5.38596966,40.176843 C5.19193224,40.2368608 4.98199312,40.2172615 4.80241819,40.1223641 C4.62284326,40.0274668 4.4883713,39.8650603 4.4286369,39.6709355 L0.12453109,25.6456214 C0.102734974,25.5697425 0.0922445995,25.4910646 0.0933125422,25.4121256 C0.0933125422,25.0770248 0.310644463,24.7806269 0.630438645,24.6805055 C1.07295256,24.5504591 1.46442695,24.2867576 1.75121846,23.9255357 L42.9710094,20.5476299 Z" id="Shape" fill="#FFB900"></path>
            <path d="M25.9258164,28.7433323 L11.6825729,35.6003255 C11.5785268,35.6517821 11.4639702,35.6781775 11.3478956,35.6781775 C11.045698,35.6803209 10.7695656,35.5073587 10.639625,35.2345154 C10.2480773,34.4258145 9.42888194,33.9119281 8.53037969,33.9113726 C8.18295881,33.9098895 7.83970746,33.9870546 7.52634778,34.1370852 C7.13928012,34.3229192 6.67472065,34.1634435 6.48339989,33.7790583 L1.75121846,23.9255357 L0.0778319315,20.4464484 C0.0255451326,20.3427014 -0.00114271285,20.2279436 -3.52088717e-05,20.1117711 C0.000847511902,19.8123833 0.173344336,19.5400198 0.44364201,19.4112837 C1.25020896,19.0213969 1.76381168,18.2056749 1.76678485,17.3098216 C1.76554158,16.9593389 1.6857538,16.6135918 1.53328905,16.2980065 C1.44261023,16.1113289 1.43024159,15.8961673 1.49893134,15.7003284 C1.5676211,15.5044895 1.71167986,15.3441942 1.89909913,15.2550586 L33.4599474,0.0778319315 C33.5639935,0.0263752647 33.6785501,-2.00629809e-05 33.7946247,-2.00629809e-05 C34.0968222,-0.00216346307 34.3729547,0.170798648 34.5028952,0.44364201 C34.8927821,1.25020896 35.7085041,1.76381168 36.6043574,1.76678485 C36.95484,1.76554158 37.3005871,1.6857538 37.6161725,1.53328905 C37.80285,1.44261023 38.0180117,1.43024159 38.2138505,1.49893134 C38.4096894,1.5676211 38.5699848,1.71167986 38.6591204,1.89909913 L45.0646883,15.2239258 C45.116145,15.3279719 45.1425403,15.4425285 45.1425403,15.5586031 C45.1446838,15.8608007 44.9717216,16.1369331 44.6988783,16.2668737 C44.1401129,16.5336816 43.7108687,17.0123696 43.5063167,17.596804 C43.3017647,18.1812384 43.3388071,18.8231267 43.6092312,19.3801509 C43.6989498,19.5657875 43.7107753,19.7795772 43.6420779,19.9739764 C43.5733804,20.1683755 43.4298556,20.3272669 43.2434211,20.4153156 L42.9710094,20.5476299 L35.4524448,24.1668147" id="Shape" fill="#FFD949"></path>
            <path d="M10.5189855,20.6106738 L11.2194729,20.2736615 C11.585696,20.0762138 11.7318738,19.6256597 11.5513247,19.2508172 C11.3707756,18.8759747 10.9273528,18.7094115 10.5446701,18.8726868 L9.14369531,19.5467113 L7.74272055,20.2215141 C7.41631383,20.3795997 7.24235318,20.7421748 7.32329224,21.0957017 C7.40423129,21.4492286 7.71861562,21.6999984 8.08128945,21.7003208 C8.19807976,21.7003056 8.31333228,21.6736884 8.41830171,21.6224889 L9.11878909,21.2854766 L11.8172222,26.8971589 C11.9468494,27.1662441 12.2190291,27.3374149 12.5177095,27.3376877 C12.6345092,27.3376877 12.74978,27.3111332 12.8547218,27.2598557 C13.0407205,27.1702805 13.1835124,27.0104796 13.2516788,26.8156141 C13.3198453,26.6207485 13.3078013,26.4067841 13.2181969,26.2207994 L10.5189855,20.6106738 Z" id="Shape" fill="#F99E0A"></path>
            <path d="M13.6883018,18.2220118 C13.4908541,17.8557887 13.0403,17.709611 12.6654575,17.89016 C12.290615,18.0707092 12.1240517,18.5141319 12.287327,18.8968146 L15.3227724,25.2105409 C15.4523996,25.4796262 15.7245793,25.6507969 16.0232597,25.6510697 C16.1400501,25.6510697 16.2553026,25.6244373 16.360272,25.5732377 C16.5462707,25.4836625 16.6890626,25.3238617 16.757229,25.1289961 C16.8253955,24.9341306 16.8133515,24.7201661 16.7237471,24.5341814 L13.6883018,18.2220118 Z" id="Shape" fill="#F99E0A"></path>
            <path d="M37.0651224,14.7530426 L34.3666894,9.14213867 L35.0671767,8.80434809 C35.4356423,8.60786885 35.5834023,8.15562859 35.4020245,7.77949954 C35.2206468,7.40337048 34.7747695,7.23739532 34.3915956,7.40337332 L31.589646,8.7522007 C31.3260949,8.86464737 31.1456418,9.11280872 31.1199099,9.39818798 C31.0941778,9.68356724 31.227329,9.96000556 31.4665147,10.1177828 C31.7057004,10.27556 32.0122334,10.2891564 32.2644489,10.1531755 L32.9649363,9.8161632 L35.6633693,15.4270671 C35.860817,15.7932902 36.3113711,15.939468 36.6862136,15.7589189 C37.0610562,15.5783698 37.2276194,15.134947 37.0643441,14.7522643 L37.0651224,14.7530426 Z" id="Shape" fill="#F99E0A"></path>
            <path d="M21.154719,19.3801509 C20.9685828,19.4695858 20.825619,19.6293269 20.7573016,19.8242064 C20.6889843,20.019086 20.7009145,20.233127 20.7904655,20.4192072 C20.9951772,20.7976256 20.9751689,21.2579665 20.738396,21.6171962 C20.5016231,21.9764258 20.0864636,22.1763174 19.6579869,22.1373931 C19.2295102,22.0984688 18.8571673,21.8270378 18.6890034,21.4310223 L17.3393977,18.6251812 C17.0607658,18.0448353 17.3044959,17.3484635 17.8842212,17.0685426 C18.4645671,16.7899106 19.1609389,17.0336408 19.4408599,17.6133661 C19.5533065,17.8769172 19.8014679,18.0573703 20.0868471,18.0831023 C20.3722264,18.1088343 20.6486647,17.9756832 20.8064419,17.7364975 C20.9642192,17.4973118 20.9778156,17.1907787 20.8418346,16.9385633 C20.4329323,16.0397114 19.5696143,15.4325288 18.5854452,15.3516156 C17.6012761,15.2707025 16.6503821,15.7287302 16.1001651,16.5487283 C15.549948,17.3687265 15.4865748,18.4222788 15.9345313,19.302319 L17.2833587,22.1042685 C17.5948538,22.7577811 18.1556769,23.2588765 18.8399973,23.4951252 C19.1301067,23.5972072 19.4353039,23.6498274 19.7428477,23.650789 C20.6798078,23.650789 21.5509866,23.1691691 22.0494061,22.3757763 C22.5478256,21.5823835 22.6035292,20.5885237 22.1968885,19.7444044 C22.1074667,19.557462 21.947186,19.4138986 21.7515619,19.3455252 C21.5559378,19.2771517 21.3411239,19.2896141 21.154719,19.3801509 L21.154719,19.3801509 Z" id="Shape" fill="#F99E0A"></path>
            <path d="M28.2125185,18.4072518 L24.3131388,17.0288483 L25.6479564,13.0757645 C25.7477525,12.8096032 25.6945118,12.510206 25.5090743,12.2947667 C25.3236369,12.0793275 25.0354996,11.9821155 24.757449,12.0411825 C24.4793982,12.1002496 24.2556627,12.3062001 24.1738196,12.5784184 L23.0063406,16.045831 L22.1073818,14.1778646 C21.9949352,13.9143135 21.7467738,13.7338604 21.4613945,13.7081285 C21.1760153,13.6823965 20.899577,13.8155476 20.7417997,14.0547333 C20.5840225,14.293919 20.5704261,14.600452 20.7064071,14.8526675 L23.7418524,21.1656155 C23.8712573,21.4350038 24.1434827,21.6065058 24.4423398,21.6069226 C24.5591394,21.6069226 24.6744102,21.580368 24.779352,21.5290906 C24.9654883,21.4396557 25.1084521,21.2799146 25.1767694,21.0850351 C25.2450867,20.8901556 25.2331566,20.6761146 25.1436055,20.4900343 L24.2446467,18.6220679 L27.6824831,19.8720488 C27.9452383,19.9735081 28.2423075,19.925091 28.4592481,19.7454494 C28.6761886,19.5658078 28.7791462,19.2829756 28.7284575,19.0059107 C28.6777688,18.7288457 28.481344,18.5007852 28.2148535,18.4095868 L28.2125185,18.4072518 Z" id="Shape" fill="#F99E0A"></path>
            <path d="M32.5189593,16.0754071 L30.4174971,17.0872222 L29.405682,14.9857601 L30.8066568,14.3117356 C31.1728799,14.1142879 31.3190576,13.6637338 31.1385086,13.2888913 C30.9579594,12.9140487 30.5145367,12.7474855 30.131854,12.9107608 L28.7308792,13.5847853 L28.0568547,12.1838106 L30.1583168,11.1719954 C30.421868,11.0595488 30.6023211,10.8113874 30.628053,10.5260082 C30.653785,10.2406289 30.5206339,9.96419058 30.2814482,9.80641335 C30.0422625,9.64863612 29.7357294,9.63503973 29.483514,9.77102068 L26.6815644,11.1198481 C26.4955657,11.2094233 26.3527738,11.3692241 26.2846074,11.5640897 C26.216441,11.7589552 26.2284849,11.9729196 26.3180893,12.1589043 L27.6669167,14.9647455 L29.3535346,18.4718523 C29.4831619,18.7409375 29.7553416,18.9121083 30.054022,18.9123812 C30.1708217,18.9123812 30.2860925,18.8858266 30.3910343,18.8345491 L33.1929838,17.4857217 C33.5592069,17.288274 33.7053847,16.8377199 33.5248356,16.4628774 C33.3442865,16.0880349 32.9008637,15.9214717 32.518181,16.084747 L32.5189593,16.0754071 Z" id="Shape" fill="#F99E0A"></path>
            <path d="M39.8149246,18.6127281 L38.3547975,19.3132155 C38.1025821,19.4491964 37.796049,19.4356 37.5568633,19.2778228 C37.3176776,19.1200456 37.1845265,18.8436073 37.2102585,18.558228 C37.2359904,18.2728487 37.4164435,18.0246874 37.6799947,17.9122407 L39.1159938,17.2218715 C39.5051713,17.0331205 39.9737662,17.1927899 40.1667249,17.5798984 C40.2586039,17.7632555 40.2731039,17.9758026 40.2069776,18.1699388 C40.1408513,18.364075 39.9996242,18.5235786 39.8149246,18.6127281 L39.8149246,18.6127281 Z M35.4835776,20.6962889 L34.0468001,21.3866581 C33.7945847,21.5226391 33.4880516,21.5090427 33.2488659,21.3512655 C33.0096802,21.1934882 32.8765291,20.9170499 32.9022611,20.6316707 C32.927993,20.3462914 33.1084461,20.09813 33.3719973,19.9856834 L34.8087747,19.2945358 C35.1914574,19.1312605 35.6348802,19.2978238 35.8154293,19.6726663 C35.9959784,20.0475088 35.8498006,20.4980629 35.4835776,20.6955106 L35.4835776,20.6962889 Z M31.1755802,22.7673966 L29.739581,23.4577658 C29.4873656,23.5937468 29.1808325,23.5801504 28.9416468,23.4223732 C28.7024611,23.2645959 28.56931,22.9881576 28.595042,22.7027784 C28.6207739,22.4173991 28.801227,22.1692377 29.0647782,22.0567911 L30.5007773,21.3664218 C30.88346,21.2031466 31.3268828,21.3697098 31.5074319,21.7445523 C31.687981,22.1193948 31.5418032,22.5699489 31.1755802,22.7673966 L31.1755802,22.7673966 Z M26.8683611,24.8392826 L25.4315836,25.5296519 C25.0489009,25.6929271 24.6054781,25.5263639 24.424929,25.1515214 C24.2443799,24.7766789 24.3905577,24.3261248 24.7567808,24.1286771 L26.1935582,23.4375295 C26.5762409,23.2742543 27.0196637,23.4408175 27.2002128,23.81566 C27.3807619,24.1905025 27.2345841,24.6410566 26.8683611,24.8385043 L26.8683611,24.8392826 Z M22.5603637,26.9103903 L21.1243645,27.6007595 C20.8721491,27.7367405 20.565616,27.7231441 20.3264303,27.5653669 C20.0872446,27.4075896 19.9540935,27.1311513 19.9798255,26.8457721 C20.0055574,26.5603928 20.1860105,26.3122315 20.4495617,26.1997848 L21.8855608,25.5094155 C22.1377763,25.3734346 22.4443093,25.387031 22.683495,25.5448082 C22.9226807,25.7025855 23.0558319,25.9790238 23.0300998,26.264403 C23.0043679,26.5497823 22.8239148,26.7979436 22.5603637,26.9103903 Z M18.2531446,28.981498 L16.8163671,29.6726456 C16.4336844,29.8359208 15.9902616,29.6693576 15.8097125,29.2945151 C15.6291634,28.9196726 15.7753412,28.4691185 16.1415643,28.2716708 L17.5783417,27.5813016 C17.8305572,27.4453206 18.1370902,27.458917 18.3762759,27.6166942 C18.6154616,27.7744715 18.7486128,28.0509098 18.7228808,28.336289 C18.6971488,28.6216683 18.5166957,28.8698297 18.2531446,28.9822763 L18.2531446,28.981498 Z M13.9451472,31.0549407 L12.509148,31.7453099 C12.1264653,31.9085852 11.6830426,31.742022 11.5024934,31.3671794 C11.3219443,30.9923369 11.4681221,30.5417828 11.8343452,30.3443351 L13.2703443,29.6539659 C13.5225598,29.517985 13.8290928,29.5315813 14.0682785,29.6893586 C14.3074642,29.8471358 14.4406154,30.1235741 14.4148833,30.4089534 C14.3891514,30.6943326 14.2086983,30.942494 13.9451472,31.0549407 L13.9451472,31.0549407 Z M9.62080505,31.1646837 C9.2986323,31.3175534 8.91378212,31.2319242 8.68682187,30.9568724 C8.52595588,30.7627197 8.38975132,30.5493936 8.28131751,30.3217639 L7.8376755,29.3986772 C7.70169456,29.1464617 7.71529095,28.8399287 7.87306817,28.600743 C8.03084541,28.3615573 8.30728372,28.2284061 8.59266298,28.2541381 C8.87804224,28.2798701 9.1262036,28.4603232 9.23865027,28.7238743 L9.68384892,29.6500743 C9.73821032,29.7639624 9.80615892,29.8708509 9.88621194,29.9684069 C10.038202,30.1530132 10.0968971,30.3972397 10.0453938,30.6307517 C9.99389047,30.8642637 9.83790578,31.0611405 9.62236169,31.1646837 L9.62080505,31.1646837 Z M41.0399992,15.933753 C40.9952487,15.9551493 40.9486089,15.9723461 40.90068,15.9851221 C40.70096,16.0380075 40.4884078,16.0093156 40.3098583,15.9053685 C40.1313087,15.8014214 40.0014139,15.6307493 39.9487955,15.4309587 C39.9232775,15.3322612 39.8880826,15.2363226 39.8437224,15.1445372 L39.3502679,14.1179341 C39.189431,13.7357 39.3565336,13.2944873 39.730228,13.1146987 C40.1039225,12.9349103 40.5529543,13.0796938 40.7512427,13.4439095 L41.2509237,14.4697344 C41.3377332,14.6508965 41.4073101,14.8398224 41.458735,15.0340159 C41.5532528,15.3955626 41.3774753,15.7732555 41.0399992,15.933753 L41.0399992,15.933753 Z M7.49443668,26.8893757 C7.10733799,27.0754441 6.64268277,26.9127799 6.45615872,26.5259006 L5.75956293,25.0899014 C5.62358199,24.837686 5.63717838,24.5311529 5.79495562,24.2919672 C5.95273287,24.0527815 6.22917118,23.9196304 6.51455044,23.9453624 C6.7999297,23.9710944 7.04809107,24.1515475 7.1605377,24.4150986 L7.85090693,25.8510977 C8.0376206,26.2369463 7.87720751,26.701135 7.49210173,26.8893757 L7.49443668,26.8893757 Z M39.0109207,11.6109675 C38.8248404,11.7005186 38.6107994,11.7124488 38.4159199,11.6441315 C38.2210404,11.5758141 38.0612993,11.4328503 37.9718644,11.2467141 L37.2814952,9.81071497 C37.1206583,9.42848087 37.2877609,8.98726823 37.6614553,8.80747966 C38.0351497,8.62769117 38.4841815,8.77247467 38.68247,9.13669044 L39.3728392,10.5719113 C39.4623903,10.7579915 39.4743204,10.9720325 39.4060031,11.1669121 C39.3376858,11.3617916 39.194722,11.5215327 39.0085857,11.6109675 L39.0109207,11.6109675 Z M5.42099403,22.5821566 C5.23491373,22.6717077 5.02087272,22.6836378 4.82599321,22.6153206 C4.63111371,22.5470032 4.47137262,22.4040394 4.38193774,22.2179032 L3.89159658,21.2045314 C3.80128853,21.0169825 3.72985069,20.8209195 3.67833708,20.6192353 C3.60993266,20.3489544 3.69091749,20.0627113 3.89078536,19.868331 C4.09065323,19.6739505 4.37903946,19.6009639 4.64731175,19.6768644 C4.91558403,19.7527649 5.12298542,19.9660213 5.19138983,20.2363022 C5.21680955,20.3371425 5.25227052,20.4351816 5.29724126,20.5289503 L5.78446915,21.5407654 C5.87481209,21.7269936 5.8872549,21.9415373 5.81904648,22.136961 C5.75083806,22.3323847 5.60759707,22.4925903 5.42099403,22.5821566 L5.42099403,22.5821566 Z M36.9374781,7.30374845 C36.7513978,7.39329955 36.5373568,7.40522968 36.3424772,7.33691237 C36.1475977,7.26859506 35.9878566,7.12563121 35.8984218,6.93949501 L35.4594497,6.02574814 C35.4032172,5.90957135 35.3331819,5.80059852 35.2508601,5.70118898 C34.9751088,5.37127612 35.0190155,4.88028834 35.3489283,4.60453707 C35.6788412,4.3287858 36.1698289,4.37269244 36.4455802,4.7026053 C36.6102644,4.90095556 36.7501005,5.11868159 36.8619811,5.35094529 L37.3017315,6.26469217 C37.3912826,6.45077247 37.4032127,6.66481347 37.3348954,6.85969298 C37.2665781,7.05457249 37.1236143,7.21431358 36.9374781,7.30374845 L36.9374781,7.30374845 Z M33.2949437,5.3392705 L31.8589445,6.02963973 C31.6067291,6.16562068 31.300196,6.15202428 31.0610103,5.99424704 C30.8218246,5.8364698 30.6886735,5.56003148 30.7144055,5.27465222 C30.7401374,4.98927297 30.9205905,4.7411116 31.1841417,4.62866497 L32.6201408,3.93829573 C33.0028235,3.77502046 33.4462463,3.94158368 33.6267954,4.31642618 C33.8073445,4.69126868 33.6611667,5.14182283 33.2949437,5.3392705 L33.2949437,5.3392705 Z M28.9869462,7.41115652 L27.5509471,8.10152575 C27.1682644,8.26480103 26.7248416,8.09823782 26.5442925,7.72339531 C26.3637434,7.34855281 26.5099212,6.89799865 26.8761443,6.70055098 L28.3121434,6.01018175 C28.5643589,5.8742008 28.8708919,5.8877972 29.1100776,6.04557444 C29.3492633,6.20335168 29.4824144,6.47979 29.4566824,6.76516926 C29.4309505,7.05054852 29.2504974,7.29870989 28.9869462,7.41115652 L28.9869462,7.41115652 Z M24.6797272,9.48226421 L23.243728,10.1726334 C22.9915126,10.3086144 22.6849795,10.295018 22.4457938,10.1372408 C22.2066081,9.97946354 22.073457,9.70302523 22.099189,9.41764597 C22.1249209,9.13226671 22.305374,8.88410535 22.5689252,8.77165868 L24.0049243,8.08128945 C24.2571398,7.9453085 24.5636728,7.95890488 24.8028585,8.11668212 C25.0420442,8.27445935 25.1751954,8.55089767 25.1494633,8.83627693 C25.1237314,9.12165619 24.9432783,9.36981754 24.6797272,9.48226421 Z M20.3717298,11.5541502 L18.9357306,12.2445195 C18.5530479,12.4077947 18.1096251,12.2412315 17.929076,11.866389 C17.7485269,11.4915465 17.8947047,11.0409924 18.2609278,10.8435447 L19.6969269,10.1531755 C19.9491424,10.0171945 20.2556754,10.0307909 20.4948611,10.1885681 C20.7340468,10.3463454 20.8671979,10.6227837 20.8414659,10.9081629 C20.815734,11.1935422 20.6352809,11.4417036 20.3717298,11.5541502 Z M16.0645107,13.6252579 L14.6285115,14.3156272 C14.2458288,14.4789024 13.8024061,14.3123392 13.6218569,13.9374967 C13.4413078,13.5626542 13.5874856,13.1121001 13.9537087,12.9146524 L15.3897078,12.2242832 C15.6419233,12.0883022 15.9484563,12.1018986 16.187642,12.2596758 C16.4268277,12.4174531 16.5599789,12.6938914 16.5342468,12.9792706 C16.5085149,13.2646499 16.3280618,13.5128113 16.0645107,13.6252579 L16.0645107,13.6252579 Z M11.7565133,15.6963656 L10.3205141,16.3875132 C9.93828002,16.5483501 9.49706738,16.3812475 9.31727881,16.0075531 C9.13749032,15.6338586 9.28227382,15.1848269 9.64648959,14.9865384 L11.0817104,14.2961692 C11.3339259,14.1601882 11.6404589,14.1737846 11.8796446,14.3315618 C12.1188303,14.4893391 12.2519814,14.7657774 12.2262494,15.0511567 C12.2005175,15.3365359 12.0200644,15.5846973 11.7565133,15.6971439 L11.7565133,15.6963656 Z M7.44929416,17.7682516 L6.02574814,18.4523943 C5.6377174,18.6398493 5.17113719,18.4788757 4.98124362,18.0920325 C4.89031821,17.907343 4.87699425,17.6939697 4.94423727,17.4994035 C5.01148029,17.3048373 5.15371013,17.1452242 5.3392705,17.0560895 L6.77137804,16.3649419 C7.15406077,16.2016666 7.59748348,16.3682298 7.77803262,16.7430724 C7.95858173,17.1179149 7.81240394,17.568469 7.44618089,17.7659167 L7.44929416,17.7682516 Z" id="Shape" fill="#FFE997"></path>
            <circle id="Oval" fill="#D4D7D9" cx="34.6352095" cy="34.6352095" r="10.5073108"></circle>
            <path d="M34.6352095,45.9208396 C28.4023281,45.9208396 23.3495795,40.8680909 23.3495795,34.6352095 C23.3495795,28.4023281 28.4023281,23.3495795 34.6352095,23.3495795 C40.8680909,23.3495795 45.9208396,28.4023281 45.9208396,34.6352095 C45.9135484,40.8650683 40.8650683,45.9135484 34.6352095,45.9208396 Z M34.6352095,24.9062181 C29.2620359,24.9062181 24.9062181,29.2620359 24.9062181,34.6352095 C24.9062181,40.0083831 29.2620359,44.364201 34.6352095,44.364201 C40.0083831,44.364201 44.364201,40.0083831 44.364201,34.6352095 C44.3581959,29.2645253 40.0058938,24.9122231 34.6352095,24.9062181 Z" id="Shape" fill="#9FA0A1"></path>
            <g id="Group" transform="translate(27.241176, 26.462857)" fill="#636363">
                <circle id="Oval" cx="7.39403349" cy="1.94579829" r="1.94579829"></circle>
                <circle id="Oval" cx="7.39403349" cy="14.3989073" r="1.94579829"></circle>
                <circle id="Oval" cx="7.39403349" cy="1.94579829" r="1.94579829"></circle>
                <circle id="Oval" cx="7.39403349" cy="14.3989073" r="1.94579829"></circle>
                <circle id="Oval" cx="7.39403349" cy="8.17235281" r="1.94579829"></circle>
                <circle id="Oval" cx="7.39403349" cy="8.17235281" r="1.94579829"></circle>
                <circle id="Oval" cx="2.00183728" cy="5.05907555" r="1.94579829"></circle>
                <circle id="Oval" cx="12.7862297" cy="11.2856301" r="1.94579829"></circle>
                <circle id="Oval" cx="2.00183728" cy="5.05907555" r="1.94579829"></circle>
                <circle id="Oval" cx="12.7862297" cy="11.2856301" r="1.94579829"></circle>
                <circle id="Oval" cx="12.7862297" cy="5.05907555" r="1.94579829"></circle>
                <circle id="Oval" cx="2.00183728" cy="11.2856301" r="1.94579829"></circle>
                <circle id="Oval" cx="12.7862297" cy="5.05907555" r="1.94579829"></circle>
                <circle id="Oval" cx="2.00183728" cy="11.2856301" r="1.94579829"></circle>
            </g>
        </g>
    </g>
</svg>