<?xml version="1.0" encoding="UTF-8"?>
<svg width="46px" height="46px" viewBox="0 0 46 46" version="1.1" xmlns="http://www.w3.org/2000/svg" xmlns:xlink="http://www.w3.org/1999/xlink">
    <!-- Generator: Sketch 63.1 (92452) - https://sketch.com -->
    <!--<title>illustrazione/functional/sport</title>-->
    <desc>Created with Sketch.</desc>
    <g id="illustrazione/functional/sport" stroke="none" stroke-width="1" fill="none" fill-rule="evenodd">
        <g id="025-sports-and-competition" transform="translate(3.000000, 3.000000)">
            <path d="M38.226528,4.46724371 C37.6974765,2.91133108 36.4756299,1.68948447 34.9197173,1.16043304 C29.7769204,-0.482808187 24.2280781,-0.327478833 19.1852617,1.60088938 C5.32105138,6.60176288 -3.18992033,22.1126022 1.16043304,34.9197173 C1.68948447,36.4756299 2.91133108,37.6974765 4.46724371,38.226528 C7.28037247,39.1632427 10.2525666,39.5272788 13.208608,39.2971757 C26.5984806,38.3281717 38.3213955,26.6323619 39.2971757,13.2153842 C39.5281916,10.2570967 39.1641443,7.28250733 38.226528,4.46724371 Z" id="Shape" fill="#623718" fill-rule="nonzero"></path>
            <path d="M34.2895259,5.01612007 L31.1521215,8.1738532 C27.8990815,4.85011753 23.7353773,2.5631452 19.1852617,1.60088938 C21.4351342,0.776008086 23.7886272,0.267452922 26.1783531,0.0897853305 C29.2386501,1.0562735 32.0209327,2.74609765 34.2895259,5.01612007 L34.2895259,5.01612007 Z" id="Shape" fill="#FAE7B7" fill-rule="nonzero"></path>
            <path d="M39.2971757,13.208608 C39.1195949,15.5983464 38.6110372,17.9518512 37.7860716,20.2016994 C36.8192582,15.6222156 34.5096569,11.4347361 31.1521215,8.1738532 C34.6351147,4.67053125 34.2624209,4.98901506 34.3301834,5.05677757 C36.6205068,7.33255991 38.3248622,10.129749 39.2971757,13.208608 Z" id="Shape" fill="#F6D57D" fill-rule="nonzero"></path>
            <path d="M8.1738532,31.1521215 L5.01612007,34.2827497 C2.74289786,32.0087063 1.05282661,29.2190426 0.0897853305,26.151248 C0.266623909,23.7702114 0.775241075,21.4255547 1.60088938,19.1852617 C2.56467736,23.7348086 4.85141944,27.8980936 8.1738532,31.1521215 Z" id="Shape" fill="#FAE7B7" fill-rule="nonzero"></path>
            <path d="M20.2016994,37.7860716 C17.9513173,38.6091939 15.5980716,39.1176956 13.208608,39.2971757 C10.1105827,38.3203406 7.29818609,36.601266 5.01612007,34.2895259 L8.1738532,31.1521215 C11.434484,34.509987 15.6220708,36.8196475 20.2016994,37.7860716 L20.2016994,37.7860716 Z" id="Shape" fill="#F6D57D" fill-rule="nonzero"></path>
            <path d="M5.01612007,34.2895259 L2.38693454,36.9119352 C1.83368763,36.3483887 1.41447972,35.6674653 1.16043304,34.9197173 C0.223718365,32.1065885 -0.140317822,29.1343944 0.0897853305,26.1783531 C1.04610228,29.2432532 2.73732341,32.027836 5.01612007,34.2895259 Z" id="Shape" fill="#8A512E"></path>
            <path d="M31.1521215,8.1738532 L8.1738532,31.1521215 C4.8478318,27.9008169 2.56045452,23.7363753 1.60088938,19.1852617 C3.05989243,15.1445883 5.40809092,11.4833439 8.47200826,8.47200826 C11.4937096,5.42413351 15.1489183,3.07832233 19.1784854,1.60088938 C23.7308833,2.56227978 27.8969991,4.84928168 31.1521215,8.1738532 Z" id="Shape" fill="#8A512E"></path>
            <path d="M36.9187115,2.38693454 L34.2895259,5.01612007 C32.01515,2.74332211 29.2255969,1.05331786 26.1580243,0.0897853305 C29.1140656,-0.140317822 32.0862598,0.223718365 34.8993885,1.16043304 C35.6551508,1.41439776 36.3449288,1.83335691 36.9187115,2.38693454 L36.9187115,2.38693454 Z" id="Shape" fill="#8A512E"></path>
            <g id="Group" transform="translate(8.346330, 8.346330)" fill="#F1F1F1" fill-rule="nonzero">
                <path d="M18.3470182,0.78975092 L19.643809,2.08680902 L20.3527886,1.37928479 C20.6185004,1.113573 21.0493044,1.113573 21.3150163,1.37928479 C21.5807281,1.64499665 21.5807281,2.07580062 21.3150163,2.34151248 L20.606809,3.04880902 L21.9045501,4.34728288 C22.0951855,4.54176523 22.1508703,4.83147687 22.045917,5.08277355 C21.9409636,5.33407022 21.6957669,5.49811967 21.4234363,5.49924561 C21.2456682,5.49849711 21.0753136,5.42792164 20.9490987,5.30273432 L19.650809,4.00480902 L18.234809,5.42080902 L19.5328622,6.71897086 C19.7234975,6.9134532 19.7791823,7.20316485 19.674229,7.45446152 C19.5692756,7.70575819 19.3240789,7.86980765 19.0517483,7.87093359 C18.8739802,7.87018508 18.7036256,7.79960961 18.5774107,7.6744223 L17.279809,6.37680902 L15.863809,7.79280902 L17.1611742,9.09065883 C17.3518095,9.28514118 17.4074943,9.57485282 17.302541,9.82614949 C17.1975877,10.0774462 16.9523909,10.2414956 16.6800604,10.2426216 C16.5022922,10.2418731 16.3319376,10.1712976 16.2057228,10.0461103 L14.907809,8.74880902 L13.491809,10.164809 L14.7894862,11.4623468 C14.9801216,11.6568292 15.0358063,11.9465408 14.9308531,12.1978375 C14.8258997,12.4491341 14.5807029,12.6131836 14.3083724,12.6143095 C14.1306043,12.613561 13.9602496,12.5429856 13.8340348,12.4177982 L12.536809,11.119809 L11.119809,12.536809 L12.4177982,13.8340348 C12.6084336,14.0285171 12.6641184,14.3182288 12.5591651,14.5695254 C12.4542117,14.8208221 12.209015,14.9848716 11.9366844,14.9859975 C11.7589163,14.985249 11.5885617,14.9146735 11.4623468,14.7894862 L10.164809,13.491809 L8.74880902,14.907809 L10.0461103,16.2057228 C10.2367456,16.4002051 10.2924304,16.6899167 10.1874771,16.9412134 C10.0825237,17.1925101 9.83732699,17.3565595 9.56499643,17.3576855 C9.38722832,17.356937 9.2168737,17.2863615 9.09065883,17.1611742 L7.79280902,15.863809 L6.37680902,17.279809 L7.6744223,18.5774107 C7.86505763,18.7718931 7.92074242,19.0616047 7.81578913,19.3129014 C7.71083577,19.5641981 7.46563901,19.7282475 7.19330845,19.7293735 C7.01554034,19.728625 6.84518572,19.6580495 6.71897086,19.5328622 L5.42080902,18.234809 L4.00480902,19.650809 L5.30273432,20.9490987 C5.49336965,21.143581 5.54905445,21.4332927 5.44410116,21.6845894 C5.3391478,21.935886 5.09395104,22.0999355 4.82162048,22.1010614 C4.64385237,22.1003129 4.47349775,22.0297375 4.34728288,21.9045501 L3.04880902,20.606809 L2.34151248,21.3150163 C2.21363188,21.4418586 2.04051343,21.5125689 1.86039863,21.5115391 C1.58510319,21.5131285 1.33620138,21.348014 1.23063348,21.0937591 C1.12506565,20.8395042 1.18381711,20.5466507 1.37928479,20.3527886 L2.08680902,19.643809 L0.78975092,18.3470182 C0.55950962,18.0781634 0.574989627,17.677393 0.825283414,17.4270992 C1.07557713,17.1768055 1.47634761,17.1613254 1.74520236,17.3915667 L3.04280902,18.688809 L4.45880902,17.272809 L3.16143889,15.9753302 C2.93119759,15.7064755 2.9466776,15.305705 3.19697139,15.0554113 C3.44726511,14.8051175 3.84803558,14.7896375 4.11689034,15.0198788 L5.41380902,16.316809 L6.82980902,14.900809 L5.53312687,13.6036422 C5.30288557,13.3347875 5.31836558,12.934017 5.56865936,12.6837233 C5.81895308,12.4334295 6.21972356,12.4179495 6.48857831,12.6481908 L7.78580902,13.944809 L9.20180902,12.528809 L7.90481484,11.2319543 C7.67457354,10.9630995 7.69005355,10.562329 7.94034734,10.3120353 C8.19064106,10.0617415 8.59141153,10.0462615 8.86026629,10.2765028 L10.156809,11.573809 L11.573809,10.156809 L10.2765028,8.86026629 C10.0462615,8.59141153 10.0617415,8.19064106 10.3120353,7.94034734 C10.562329,7.69005355 10.9630995,7.67457354 11.2319543,7.90481484 L12.528809,9.20180902 L13.944809,7.78580902 L12.6481908,6.48857831 C12.4179495,6.21972356 12.4334295,5.81895308 12.6837233,5.56865936 C12.934017,5.31836558 13.3347875,5.30288557 13.6036422,5.53312687 L14.900809,6.82980902 L16.316809,5.41380902 L15.0198788,4.11689034 C14.7896375,3.84803558 14.8051175,3.44726511 15.0554113,3.19697139 C15.305705,2.9466776 15.7064755,2.93119759 15.9753302,3.16143889 L17.272809,4.45880902 L18.688809,3.04180902 L17.3915667,1.74520236 C17.1613254,1.47634761 17.1768055,1.07557713 17.4270992,0.825283414 C17.677393,0.574989627 18.0781634,0.55950962 18.3470182,0.78975092 Z" id="Combined-Shape"></path>
            </g>
        </g>
    </g>
</svg>