<?xml version="1.0" encoding="UTF-8"?>
<svg width="46px" height="46px" viewBox="0 0 46 46" version="1.1" xmlns="http://www.w3.org/2000/svg" xmlns:xlink="http://www.w3.org/1999/xlink">
    <!-- Generator: Sketch 63.1 (92452) - https://sketch.com -->
    <!--<title>illustrazione/functional/sun</title>-->
    <desc>Created with Sketch.</desc>
    <g id="illustrazione/functional/sun" stroke="none" stroke-width="1" fill="none" fill-rule="evenodd">
        <circle id="Oval" fill="#FFD949" fill-rule="nonzero" cx="23" cy="23" r="14"></circle>
        <g id="Group" fill="#FFD949" fill-rule="nonzero">
            <path d="M22.8774504,5.99592668 C23.4267897,5.99592668 23.8721546,5.54848065 23.8721546,4.99657434 L23.8721546,0.999352342 C23.8721546,0.447446029 23.4267897,0 22.8774504,0 C22.3281111,0 21.8827462,0.447446029 21.8827462,0.999352342 L21.8827462,4.99666802 C21.8828395,5.54848065 22.3281111,5.99592668 22.8774504,5.99592668 Z" id="Path"></path>
            <path d="M22.8774504,39.9728758 C22.3281111,39.9728758 21.8827462,40.4203218 21.8827462,40.9722281 L21.8827462,44.9694501 C21.8827462,45.5213564 22.3281111,45.9688024 22.8774504,45.9688024 C23.4267897,45.9688024 23.8721546,45.5213564 23.8721546,44.9694501 L23.8721546,40.9721344 C23.8721546,40.4202281 23.4267897,39.9728758 22.8774504,39.9728758 Z" id="Path"></path>
            <path d="M44.7602899,21.9850957 L40.7815664,21.9850957 C40.232227,21.9850957 39.7868622,22.4325418 39.7868622,22.9844481 C39.7868622,23.5363544 40.232227,23.9838004 40.7815664,23.9838004 L44.7602899,23.9838004 C45.3096292,23.9838004 45.7549941,23.5363544 45.7549941,22.9844481 C45.7549941,22.4324481 45.3096292,21.9850957 44.7602899,21.9850957 Z" id="Path"></path>
            <path d="M5.96803865,22.9843544 C5.96803865,22.4324481 5.52267376,21.985002 4.97333446,21.985002 L0.994704192,21.985002 C0.445364884,21.9850957 0,22.4324481 0,22.9843544 C0,23.5362607 0.445364884,23.9837067 0.994704192,23.9837067 L4.97342771,23.9837067 C5.52267376,23.9837067 5.96803865,23.5362607 5.96803865,22.9843544 Z" id="Path"></path>
            <path d="M13.0640366,7.90665988 C13.242052,8.21648065 13.5713199,8.4070387 13.9274439,8.40629609 C14.1021023,8.40694501 14.2738699,8.36075764 14.4247494,8.27241141 C14.900514,7.99641141 15.0634228,7.38529532 14.7887998,6.90730754 L12.7994846,3.44569043 C12.5216911,2.96957637 11.9122984,2.80984114 11.4383988,3.08893279 C10.968882,3.36540122 10.807745,3.96967821 11.076773,4.44494908 L13.0640366,7.90665988 Z" id="Path"></path>
            <path d="M32.6909575,38.0621426 C32.4130707,37.5860285 31.803678,37.426387 31.3297784,37.7055723 C30.8604481,37.9821344 30.6993111,38.586224 30.9681526,39.0614949 L32.9574677,42.523112 C33.1354831,42.8329328 33.464751,43.0234908 33.820875,43.0227482 C33.9955334,43.0233971 34.167301,42.9772098 34.3181805,42.8888635 C34.7939451,42.6128635 34.9568539,42.0017475 34.6822309,41.5237597 L32.6909575,38.0621426 Z" id="Path"></path>
            <path d="M38.3824148,14.9898167 C38.5570732,14.9904725 38.7288408,14.9442851 38.8797203,14.8559389 L42.3252368,12.8573279 C42.812005,12.6014705 43.0001847,11.9976619 42.7455173,11.5086191 C42.4908499,11.0195764 41.8898498,10.8305173 41.4030816,11.0863747 C41.378277,11.0993971 41.3541251,11.1134501 41.3305327,11.1285336 L37.8850161,13.1271446 C37.4092515,13.4031446 37.2463427,14.0143544 37.5209657,14.4922485 C37.6986081,14.8014134 38.0269435,14.9918778 38.3823216,14.9918778 L38.3823216,14.9898167 L38.3824148,14.9898167 Z" id="Path"></path>
            <path d="M6.87518052,31.1128635 L3.42966396,33.1114745 C2.95389938,33.3874745 2.79099057,33.9985906 3.0656136,34.4765784 C3.243256,34.7857434 3.57159138,34.9762146 3.92696943,34.9762146 C4.10162781,34.9768635 4.27339542,34.9306762 4.4242749,34.8423299 L7.86979146,32.8437189 C8.35655962,32.5878615 8.54473934,31.984053 8.29007194,31.4950102 C8.03540454,31.0059674 7.4344044,30.8169084 6.94763624,31.0727658 C6.92283158,31.0857882 6.89867968,31.0998411 6.87508727,31.1149246 L6.87518052,31.1128635 Z" id="Path"></path>
            <path d="M3.42966396,12.8572342 L6.87518052,14.8558452 C7.02559375,14.9438167 7.1965221,14.9900978 7.37052773,14.9897253 C7.91986704,14.9897253 8.36513867,14.542277 8.36513867,13.9903707 C8.36513867,13.6334257 8.1755602,13.303556 7.8678332,13.1249898 L4.42231664,11.1263788 C3.95867464,10.8303299 3.34396666,10.9678615 3.04929475,11.4335764 C2.75462284,11.8992912 2.89151473,12.5169654 3.35506348,12.8130143 C3.37865588,12.8280978 3.40280779,12.8421507 3.42761245,12.8551731 L3.42966396,12.8572342 Z" id="Path"></path>
            <path d="M42.3253301,33.1114745 L38.8798135,31.1128635 C38.4161715,30.8168147 37.8014636,30.9543462 37.5067916,31.4200611 C37.2121197,31.885776 37.3490116,32.5034501 37.8125604,32.799499 C37.8361528,32.8145825 37.8603979,32.8286354 37.8851093,32.8416578 L41.3306259,34.8402688 C41.4815986,34.9286151 41.653273,34.9748024 41.8279314,34.9741535 C42.3772707,34.9741535 42.8225423,34.5267006 42.8225423,33.9747943 C42.8225423,33.6177556 42.6329638,33.2878859 42.3252368,33.1094134 L42.3252368,33.1114745 L42.3253301,33.1114745 Z" id="Path"></path>
            <path d="M31.3322029,8.27241141 C31.4831756,8.36075764 31.65485,8.40694501 31.8295084,8.40629609 C32.1855392,8.4070387 32.5148071,8.21638697 32.6929157,7.90665988 L34.6822309,4.44504277 C34.9536834,3.96527495 34.7865783,3.35518941 34.3090419,3.08246843 C33.8359816,2.81237067 33.2347017,2.97416701 32.9594259,3.44578411 L30.9701108,6.90740122 C30.6951148,7.3847332 30.8571843,7.9957556 31.3322029,8.27241141 Z" id="Path"></path>
            <path d="M14.4227912,37.696391 C13.9470266,37.4204847 13.3387529,37.5841548 13.0640366,38.0621426 L11.0747215,41.5237597 C10.8000984,42.0017475 10.9630072,42.6128635 11.4387718,42.8888635 C11.5897446,42.9772098 11.7614189,43.0233971 11.9360773,43.0227482 C12.2921081,43.0234908 12.6214692,42.8328391 12.7994846,42.523112 L14.7887998,39.0614949 C15.0629565,38.5832261 14.899395,37.9722037 14.4233507,37.6967658 C14.4231642,37.6965784 14.4229777,37.6964847 14.4227912,37.696391 Z" id="Path"></path>
        </g>
    </g>
</svg>