<?xml version="1.0" encoding="UTF-8"?>
<svg width="46px" height="46px" viewBox="0 0 46 46" version="1.1" xmlns="http://www.w3.org/2000/svg" xmlns:xlink="http://www.w3.org/1999/xlink">
    <!-- Generator: Sketch 63.1 (92452) - https://sketch.com -->
    <!--<title>illustrazione/functional/utenze</title>-->
    <desc>Created with Sketch.</desc>
    <g id="illustrazione/functional/utenze" stroke="none" stroke-width="1" fill="none" fill-rule="evenodd">
        <g id="credit-card" transform="translate(4.000000, 1.000000)">
            <path d="M27.25,2.28574285 C25.3711451,2.28574285 25.3711451,0 23.4922903,0 C21.6134355,0 21.6134355,2.28574285 19.7422903,2.28574285 C17.8711451,2.28574285 17.8634355,0 15.9922903,0 C14.1211451,0 14.1211451,2.28574285 12.2422903,2.28574285 C10.3634355,2.28574285 10.3711451,0 8.5,0 C6.62924036,0 6.6211451,2.28574285 4.75,2.28574285 C2.87924036,2.28574285 2.8711451,0.390991975 1,0.390991975 L1,44 L31,44 L31,0.390991975 C29.1211451,0.390991975 29.1211451,2.28574285 27.25,2.28574285 Z" id="Path" fill="#E9EDF2" fill-rule="nonzero"></path>
            <rect id="Rectangle" fill="#D0D9DF" fill-rule="nonzero" x="4" y="13" width="17" height="1.5" rx="0.75"></rect>
            <rect id="Rectangle-Copy" fill="#D0D9DF" fill-rule="nonzero" x="23" y="13.024068" width="5" height="1.5" rx="0.75"></rect>
            <rect id="Rectangle-Copy-4" fill="#D0D9DF" fill-rule="nonzero" x="21" y="6" width="7" height="1" rx="0.5"></rect>
            <rect id="Rectangle" fill="#D0D9DF" fill-rule="nonzero" x="4" y="17" width="17" height="1.5" rx="0.75"></rect>
            <rect id="Rectangle-Copy-2" fill="#D0D9DF" fill-rule="nonzero" x="23" y="17.024068" width="5" height="1.5" rx="0.75"></rect>
            <rect id="Rectangle-Copy-5" fill="#D0D9DF" fill-rule="nonzero" x="21" y="8" width="7" height="1" rx="0.5"></rect>
            <rect id="Rectangle" fill="#D0D9DF" fill-rule="nonzero" x="4" y="21" width="17" height="1.5" rx="0.75"></rect>
            <rect id="Rectangle-Copy-3" fill="#D0D9DF" fill-rule="nonzero" x="23" y="21.024068" width="5" height="1.5" rx="0.75"></rect>
            <path d="M17.9641412,25.9084155 L37.4173786,25.9084155 C38.2441266,25.9084155 38.9137815,26.5805237 38.9137815,27.4094816 L38.9137815,39.4180104 C38.9137815,40.2469683 38.2441266,40.9190765 37.4173786,40.9190765 L17.9641412,40.9190765 C17.1377586,40.9190765 16.4677383,40.2469683 16.4677383,39.4180104 L16.4677383,27.4094816 C16.4677383,26.5805237 17.1377586,25.9084155 17.9641412,25.9084155 Z" id="Path" fill="#3D9AE2"></path>
            <path d="M33.3022707,35.432636 C33.6851394,35.8756997 33.7761072,36.5016325 33.5346223,37.035581 C33.2935027,37.5695296 32.7645009,37.9136461 32.1799685,37.9169443 C31.3535859,37.9169443 30.6835656,37.2448361 30.6835656,36.4158782 C30.6835656,35.5869203 31.3535859,34.9148121 32.1799685,34.9148121 C32.6117918,34.9148121 33.0216951,35.1039112 33.3022707,35.432636 L33.3022707,35.432636 Z" id="Path" fill="#EE5019" fill-rule="nonzero"></path>
            <path d="M34.4245728,34.9148121 C35.2513208,34.9148121 35.9209757,35.5869203 35.9209757,36.4158782 C35.9209757,37.2448361 35.2513208,37.9169443 34.4245728,37.9169443 C33.9931149,37.9169443 33.5832115,37.7278451 33.3022707,37.3991205 C33.8013152,36.8391525 33.8013152,35.992604 33.3022707,35.432636 C33.5832115,35.1039112 33.9931149,34.9148121 34.4245728,34.9148121 Z" id="Path" fill="#FFB900" fill-rule="nonzero"></path>
            <polygon id="Path" fill="#F6D57D" fill-rule="nonzero" points="19.4605441 28.9105477 23.9497527 28.9105477 23.9497527 31.9126799 19.4605441 31.9126799"></polygon>
            <polygon id="Path" fill="#1B7BC7" points="35.1727743 28.9105477 36.6691772 28.9105477 36.6691772 31.9126799 35.1727743 31.9126799"></polygon>
            <polygon id="Path" fill="#1B7BC7" points="32.1799685 28.9105477 33.6763714 28.9105477 33.6763714 31.9126799 32.1799685 31.9126799"></polygon>
            <polygon id="Path" fill="#1B7BC7" points="29.1871628 28.9105477 30.6835656 28.9105477 30.6835656 31.9126799 29.1871628 31.9126799"></polygon>
            <polygon id="Path" fill="#1B7BC7" points="18.7123426 37.1664112 20.2087455 37.1664112 20.2087455 38.6674773 18.7123426 38.6674773"></polygon>
            <polygon id="Path" fill="#1B7BC7" points="21.7051484 37.1664112 23.2015513 37.1664112 23.2015513 38.6674773 21.7051484 38.6674773"></polygon>
            <polygon id="Path" fill="#1B7BC7" points="24.6979541 37.1664112 26.194357 37.1664112 26.194357 38.6674773 24.6979541 38.6674773"></polygon>
            <polygon id="Path" fill="#1B7BC7" points="18.7123426 34.164279 26.194357 34.164279 26.194357 35.6653451 18.7123426 35.6653451"></polygon>
            <g id="Group" transform="translate(0.000000, 31.897655)" fill="#3D9AE2">
                <polygon id="Path" points="3.00011241 0.102345416 13.4749326 0.102345416 13.4749326 1.10234542 3.00011241 1.10234542"></polygon>
                <polygon id="Path" points="0.00730665468 0.102345416 1.50370953 0.102345416 1.50370953 1.10234542 0.00730665468 1.10234542"></polygon>
                <polygon id="Path" points="8.23752248 3.10234542 14.223134 3.10234542 14.223134 4.10234542 8.23752248 4.10234542"></polygon>
                <polygon id="Path" points="5.24471673 3.10234542 6.7411196 3.10234542 6.7411196 4.10234542 5.24471673 4.10234542"></polygon>
                <polygon id="Path" points="6.7411196 6.10234542 12.7267311 6.10234542 12.7267311 7.10234542 6.7411196 7.10234542"></polygon>
                <polygon id="Path" points="3.74831385 6.10234542 5.24471673 6.10234542 5.24471673 7.10234542 3.74831385 7.10234542"></polygon>
                <polygon id="Path" points="0.755508094 6.10234542 2.25191097 6.10234542 2.25191097 7.10234542 0.755508094 7.10234542"></polygon>
            </g>
        </g>
    </g>
</svg>