<?xml version="1.0" encoding="UTF-8"?>
<svg width="46px" height="46px" viewBox="0 0 46 46" version="1.1" xmlns="http://www.w3.org/2000/svg" xmlns:xlink="http://www.w3.org/1999/xlink">
    <!-- Generator: Sketch 63.1 (92452) - https://sketch.com -->
    <!--<title>illustrazione/functional/vault</title>-->
    <desc>Created with Sketch.</desc>
    <g id="illustrazione/functional/vault" stroke="none" stroke-width="1" fill="none" fill-rule="evenodd">
        <g id="Group-3" transform="translate(2.000000, 5.000000)" fill-rule="nonzero">
            <g id="Group-2" transform="translate(2.739130, 34.292683)" fill="#636363">
                <polygon id="Path" points="0 0 5.47826087 0 5.47826087 2.70731707 0 2.70731707"></polygon>
                <polygon id="Path-Copy" points="31.0434783 0 36.5217391 0 36.5217391 2.70731707 31.0434783 2.70731707"></polygon>
            </g>
            <path d="M34.7586094,0 L40.5517383,0 C41.3518711,0 42,0.639440975 42,1.4288483 L42,32.8638346 C42,33.653242 41.3518711,34.2926829 40.5517383,34.2926829 L1.44826172,34.2926829 C0.648128906,34.2926829 0,33.653242 0,32.8638346 L0,1.4288483 C0,0.639440975 0.648128906,0 1.44826172,0 L34.7586094,0 Z" id="Path" fill="#D0D9DF"></path>
            <polygon id="Path" fill="#E9EDF2" points="3.65217391 3.6097561 38.3478261 3.6097561 38.3478261 30.6829268 3.65217391 30.6829268"></polygon>
            <path d="M37.0169492,7.98027445 L39.1525424,7.98027445 C39.5462034,7.98027445 39.8644068,7.66353684 39.8644068,7.27168919 C39.8644068,6.87984154 39.5462034,6.56310393 39.1525424,6.56310393 L37.0169492,6.56310393 C36.6232881,6.56310393 36.3050847,6.87984154 36.3050847,7.27168919 C36.3050847,7.66353684 36.6232881,7.98027445 37.0169492,7.98027445 Z" id="Path" fill="#92A6BC"></path>
            <path d="M39.1525424,8.68885972 L37.0169492,8.68885972 C36.6232881,8.68885972 36.3050847,9.00559733 36.3050847,9.39744498 C36.3050847,9.78929263 36.6232881,10.1060302 37.0169492,10.1060302 L39.1525424,10.1060302 C39.5462034,10.1060302 39.8644068,9.78929263 39.8644068,9.39744498 C39.8644068,9.00559733 39.5462034,8.68885972 39.1525424,8.68885972 Z" id="Path" fill="#92A6BC"></path>
            <path d="M39.1525424,24.2777355 L37.0169492,24.2777355 C36.6232881,24.2777355 36.3050847,24.5944731 36.3050847,24.9863208 C36.3050847,25.3781684 36.6232881,25.694906 37.0169492,25.694906 L39.1525424,25.694906 C39.5462034,25.694906 39.8644068,25.3781684 39.8644068,24.9863208 C39.8644068,24.5944731 39.5462034,24.2777355 39.1525424,24.2777355 Z" id="Path" fill="#92A6BC"></path>
            <path d="M39.1525424,26.4034913 L37.0169492,26.4034913 C36.6232881,26.4034913 36.3050847,26.7202289 36.3050847,27.1120766 C36.3050847,27.5039242 36.6232881,27.8206618 37.0169492,27.8206618 L39.1525424,27.8206618 C39.5462034,27.8206618 39.8644068,27.5039242 39.8644068,27.1120766 C39.8644068,26.7202289 39.5462034,26.4034913 39.1525424,26.4034913 Z" id="Path" fill="#92A6BC"></path>
            <path d="M21,9.26938478 C16.6008281,9.26938478 13.0345195,12.7663674 13.0345195,17.0798435 C13.0345195,21.3933196 16.6009102,24.8903022 21,24.8903022 C25.3990898,24.8903022 28.9654805,21.3933196 28.9654805,17.0798435 C28.9654805,12.7663674 25.3991719,9.26938478 21,9.26938478 Z M21,22.0502304 C18.2005195,22.0502304 15.931043,19.8249217 15.931043,17.0799239 C15.931043,14.3349261 18.2005195,12.1096174 21,12.1096174 C23.7994805,12.1096174 26.068957,14.3349261 26.068957,17.0799239 C26.068957,19.8249217 23.7994805,22.0502304 21,22.0502304 Z" id="Shape" fill="#636363"></path>
            <g id="Group" transform="translate(10.828125, 7.078261)" fill="#92A6BC">
                <polygon id="Path" points="2.49169922 3.47421957 3.51561328 2.47023261 7.10013281 5.98426739 6.07621875 6.98825435"></polygon>
                <polygon id="Path" points="13.2436992 14.0184152 14.2676133 13.0144283 17.8521328 16.528463 16.8282188 17.53245"></polygon>
                <polygon id="Path" points="13.2443555 5.98418696 16.828875 2.46942826 17.8527891 3.47341522 14.2682695 6.98817391"></polygon>
                <polygon id="Path" points="2.49169922 16.5291065 6.07621875 13.0143478 7.10013281 14.0183348 3.51561328 17.5330935"></polygon>
                <polygon id="Path" points="9.44770313 0.06105 10.8959648 0.06105 10.8959648 5.03135652 9.44770313 5.03135652"></polygon>
                <polygon id="Path" points="9.44770313 14.9719696 10.8959648 14.9719696 10.8959648 19.9422761 9.44770313 19.9422761"></polygon>
                <polygon id="Path" points="15.240832 9.29158478 20.3097891 9.29158478 20.3097891 10.7116609 15.240832 10.7116609"></polygon>
                <polygon id="Path" points="0.0339609375 9.29158478 5.10291797 9.29158478 5.10291797 10.7116609 0.0339609375 10.7116609"></polygon>
            </g>
        </g>
    </g>
</svg>