<?xml version="1.0" encoding="UTF-8"?>
<svg width="46px" height="46px" viewBox="0 0 46 46" version="1.1" xmlns="http://www.w3.org/2000/svg" xmlns:xlink="http://www.w3.org/1999/xlink">
    <!-- Generator: Sketch 63.1 (92452) - https://sketch.com -->
    <!--<title>illustrazione/functional/viaggi</title>-->
    <desc>Created with Sketch.</desc>
    <defs>
        <polygon id="path-1" points="2.5056784e-06 0.0219824561 41.9780731 0.0219824561 41.9780731 41.877193 2.5056784e-06 41.877193"></polygon>
    </defs>
    <g id="illustrazione/functional/viaggi" stroke="none" stroke-width="1" fill="none" fill-rule="evenodd">
        <g id="Group-10" transform="translate(2.000000, 2.000000)">
            <g id="Group-3">
                <mask id="mask-2" fill="white">
                    <use xlink:href="#path-1"></use>
                </mask>
                <g id="Clip-2"></g>
                <path d="M25.699837,0.560785965 C14.4063941,-2.03375789 3.14214194,4.99190877 0.540358944,16.2523298 C-2.06167038,27.5128737 4.98459941,38.7445579 16.2780422,41.3386105 C27.571485,43.9326632 38.8362299,36.9069965 41.4378897,25.6465754 C44.0394264,14.3860316 36.9932798,3.15471579 25.699837,0.560785965" id="Fill-1" fill="#3D9AE2" mask="url(#mask-2)"></path>
            </g>
            <path d="M22.3183935,27.7890421 C19.8968041,27.1732877 18.2612674,19.4343579 12.976288,20.7423754 C11.2850798,21.1607789 6.67000645,17.3396386 7.15602405,16.2437088 C8.33485689,13.583586 5.92090381,12.6552877 7.17376012,11.0914632 C7.85462815,10.2406561 8.70029384,9.30142807 9.79795953,10.2272702 C10.8962411,11.1537263 10.4922528,13.0789719 11.4757425,13.2651474 C12.4586164,13.4514456 13.1290152,11.1748491 13.7197249,9.88832281 C15.8443584,5.25616491 21.8371795,6.75809474 23.7882704,4.90862105 C25.2715724,3.50186667 25.8760768,1.79828772 25.6368862,0.547375439 C14.4615607,-1.98490526 3.33266921,4.89228772 0.610551906,15.9611298 C2.48761935,19.0465333 6.85832903,21.6313754 8.26711496,22.5914807 C8.72812962,22.9053754 8.86977185,23.5201474 8.58648739,23.999586 C7.78306804,25.3593053 6.67912082,28.0883228 9.14012375,30.1130421 C12.5470504,32.9173404 12.5445871,34.2172526 11.1592029,37.1177088 C10.809285,37.8502526 10.5465695,38.4658842 10.3462997,38.9873228 C11.8502938,39.8687088 13.4863232,40.5749719 15.2336956,41.0704982 C16.5579889,39.1260947 18.9320358,37.4575158 20.1138246,36.9357088 C22.1502704,36.0360246 26.1968041,36.3004281 27.1903935,31.9994807 C27.6618774,29.9556035 24.7403525,28.4047965 22.3183935,27.7890421" id="Fill-4" fill="#76D37E" fill-rule="nonzero"></path>
            <path d="M41.4360053,25.6455561 C43.5516475,16.4869772 39.2847677,7.34792456 31.5417413,2.8598193 C30.238017,6.15817018 34.2398411,7.51506491 33.815407,8.60141579 C33.6396475,9.05052105 33.7501284,9.62206491 33.934017,10.1291351 C34.2076944,10.8842754 33.9896886,11.7298018 33.3641226,12.2353982 C32.2875185,13.1063456 30.828234,14.5253807 30.5443337,16.0015211 C29.848193,19.6254333 31.0913191,21.1435737 32.4397531,22.2528895 C34.5280522,23.9721877 36.1092721,23.3699421 36.9606035,24.631907 C38.8040463,27.3663281 30.2582164,34.6059246 33.1340463,38.0086614 C37.1825507,35.1451702 40.234017,30.847907 41.4360053,25.6455561" id="Fill-8" fill="#76D37E" fill-rule="nonzero"></path>
        </g>
        <g id="Group" transform="translate(2.000000, 6.000000)" fill-rule="nonzero">
            <path d="M17.8352653,21.6530183 C17.9042286,21.5040815 17.9394286,21.3390143 17.9347592,21.1705418 L17.8711837,18.8846029 C17.8714531,18.884334 17.8718122,18.8841548 17.8720816,18.8838859 L17.6821633,12.0645132 L17.599102,9.09778411 L17.5579755,7.6174664 L20.7171755,5.08500204 L21.739502,4.26549084 C22.2499918,3.85586965 22.6090857,3.31209776 22.7914612,2.7135723 C22.9738367,2.11549491 22.9803918,1.46320163 22.7854449,0.839763747 C22.7599429,0.759918534 22.7207918,0.686435845 22.6695184,0.622720978 C22.6182449,0.55900611 22.5546694,0.505507128 22.4829224,0.46392668 C21.3455673,-0.185588595 19.9262531,-0.0742892057 18.9053633,0.744505092 L17.8830367,1.56401629 L14.722849,4.09728717 L14.7224,4.09674949 L13.2855755,3.73767006 L13.2846776,3.73758045 L12.768351,3.60844807 L10.3997143,3.01736049 L3.7664,1.36050509 L1.54314286,0.805531568 C1.37926531,0.764578411 1.21017959,0.763234216 1.04953469,0.798362525 C0.888889796,0.833490835 0.736416327,0.905002037 0.605044898,1.01074542 C0.0932081633,1.42063544 0.0634857143,2.18718534 0.540661224,2.63551935 L1.58229388,3.61427291 L6.86956735,8.58197149 L8.03287347,9.67498167 L8.03332245,9.67551935 C7.24257959,10.4533605 6.49413061,11.2717067 5.7903102,12.1268839 C5.02614694,13.0548269 4.31280816,14.0265906 3.65711837,15.0364399 C3.65325714,15.0419959 3.64993469,15.0471935 3.64661224,15.052391 C3.29506122,15.5946395 3.84263673,16.2749817 4.44866939,16.048888 C4.4549551,16.0468269 4.46070204,16.0442281 4.46698776,16.0420774 C5.59706939,15.6196415 6.7012,15.1352831 7.77408163,14.5894501 C8.76291429,14.0885132 9.72498776,13.5356904 10.655902,12.9338493 L11.4744816,14.3030468 L15.1949959,20.5266721 L15.928,21.7528473 C16.2638367,22.3146314 17.0202776,22.4509328 17.5316653,22.0405051 C17.6633959,21.9351202 17.766302,21.8019552 17.8352653,21.6530183 Z" id="Path" fill="#E9EDF2"></path>
            <path d="M7.84232653,19.1266477 L7.77399184,14.5895397 C6.99770612,14.9843747 6.20498776,15.3472179 5.39790204,15.6776212 C5.39718367,15.67789 5.39628571,15.6777108 5.39556735,15.6779796 C5.39628571,15.6777108 5.39700408,15.677442 5.39772245,15.6770835 C5.89474286,14.9621507 6.42040816,14.2678289 6.97328163,13.5967169 C7.67728163,12.7414501 8.42555102,11.9231039 9.21602449,11.1451731 C9.99374694,10.3774582 10.8123265,9.64953157 11.6679918,8.9636334 L15.905551,5.56676171 L20.0881551,2.21397963 C20.8968571,1.56571894 21.9550122,1.36149084 22.9253469,1.62692464 C22.9121469,1.36355193 22.8664408,1.09910387 22.7851755,0.839584521 C22.7598531,0.759918534 22.7208816,0.686435845 22.6696082,0.622720978 C22.6183347,0.55900611 22.554849,0.505148676 22.4827429,0.463837067 C21.3453878,-0.185678208 19.9263429,-0.0741995927 18.9052735,0.744325866 L14.7226694,4.09710794 L14.7223102,4.09665988 L13.2857551,3.73775967 L13.2848571,3.73767006 L12.7682612,3.60853768 L9.47966531,6.24477393 C8.624,6.9306721 7.80542041,7.65859878 7.02769796,8.42631365 C6.97498776,8.47819959 6.92227755,8.53017515 6.86956735,8.5820611 L8.03278367,9.67507128 L8.03314286,9.67551935 C7.24266939,10.4534501 6.4944,11.2717067 5.7904,12.1270631 L1.36786122,11.0828024 C1.03902857,11.0054664 0.692416327,11.0834297 0.42922449,11.2943788 C-0.0587265306,11.6855397 -0.105420408,12.379055 0.259330612,12.8322281 C0.333053061,12.9238126 0.424016327,13.0057189 0.531681633,13.0732872 L3.65693878,15.0365295 L3.65693878,15.0364399 L3.65693878,15.0365295 C3.65352653,15.0418167 3.65011429,15.0471039 3.64661224,15.052391 C3.29461224,15.5949084 3.84191837,16.2749817 4.44866939,16.0487984 C4.45477551,16.046558 4.46088163,16.0442281 4.46689796,16.0419878 L5.71461224,19.5127902 C5.75753469,19.632334 5.81760816,19.7380774 5.89177959,19.8301996 C6.25617143,20.2829246 6.94481633,20.3869654 7.43276735,19.9958045 C7.69604898,19.7847658 7.84753469,19.46422 7.84232653,19.1266477 Z" id="Path" fill="#D0D9DF"></path>
        </g>
    </g>
</svg>