<?xml version="1.0" encoding="UTF-8"?>
<svg width="46px" height="46px" viewBox="0 0 46 46" version="1.1" xmlns="http://www.w3.org/2000/svg" xmlns:xlink="http://www.w3.org/1999/xlink">
    <!-- Generator: Sketch 63.1 (92452) - https://sketch.com -->
    <!--<title>illustrazione/functional/volontariato</title>-->
    <desc>Created with Sketch.</desc>
    <g id="illustrazione/functional/volontariato" stroke="none" stroke-width="1" fill="none" fill-rule="evenodd">
        <g id="021-solidarity" transform="translate(5.000000, 2.000000)" fill-rule="nonzero">
            <g id="XMLID_1011_" transform="translate(0.476327, 0.000000)">
                <g id="XMLID_1012_" fill="#EE5019">
                    <path d="M30.1475843,6.42433966 C30.1475843,10.5488816 28.8796414,14.5723177 26.5148378,17.9504031 L23.0922815,22.8416751 L15.3121037,33.9621381 L10.1257544,41.3758237 C9.69059391,41.9969771 8.7701778,42.0010318 8.3309626,41.3826252 L6.69247282,39.0811271 C6.52950018,38.8521021 6.22487475,38.7725778 5.97021365,38.8912103 L1.67053497,40.9069177 C0.651890565,41.3839331 -0.339809728,40.2034933 0.304233036,39.2819 L9.66901246,25.8977391 L15.2299634,17.9505339 C16.074779,16.7432807 16.7795114,15.4537564 17.3346124,14.1062892 C18.3371689,11.6835427 18.8612711,9.07493402 18.8612711,6.42447046 C18.8612711,2.946718 16.0423414,0.126480372 12.563281,0.126480372 L23.8494634,0.126480372 C25.589059,0.126480372 27.1628044,0.831212788 28.3028281,1.9711057 C29.4428519,3.11099861 30.1475843,4.68618281 30.1475843,6.42433966 Z" id="XMLID_1013_"></path>
                </g>
                <path d="M23.0924123,22.8416751 L15.3122345,33.9621381 L9.66914326,25.8977391 L15.2300941,17.9505339 C16.0749098,16.7432807 16.7796422,15.4537564 17.3347432,14.1062892 C17.7888692,15.0926269 18.3345529,16.042603 18.9678704,16.9466695 L23.0924123,22.8416751 Z" id="XMLID_1014_" fill="#CF390A"></path>
                <g id="XMLID_1015_" transform="translate(2.485137, 0.000000)" fill="#FF946F">
                    <path d="M11.4148863,6.42473205 L11.4148863,6.42473205 C11.4148863,10.5483584 12.6828291,14.5721869 15.046848,17.9509263 L29.9721859,39.2824232 C30.6167519,40.2036241 29.6246592,41.3834099 28.606538,40.9063945 L24.3062053,38.8916027 C24.0512826,38.7721854 23.747442,38.8519713 23.5842078,39.0812579 L21.945718,41.3826252 C21.505718,42.0006394 20.5863483,41.9969771 20.1514494,41.3753006 L3.76171201,17.9509263 C1.39769313,14.5721869 0.129750289,10.5483584 0.129750289,6.42473205 L0.129750289,6.42473205 C0.129750289,2.94645641 2.94946473,0.126872762 6.42760958,0.126872762 L17.7128764,0.126872762 C14.2346008,0.126872762 11.4148863,2.94645641 11.4148863,6.42473205 Z" id="XMLID_1326_"></path>
                </g>
            </g>
        </g>
    </g>
</svg>