<?xml version="1.0" encoding="UTF-8"?>
<svg width="46px" height="46px" viewBox="0 0 46 46" version="1.1" xmlns="http://www.w3.org/2000/svg" xmlns:xlink="http://www.w3.org/1999/xlink">
    <!-- Generator: Sketch 63.1 (92452) - https://sketch.com -->
    <!--<title>illustrazione/functional/wallet-color copy</title>-->
    <desc>Created with Sketch.</desc>
    <g id="illustrazione/functional/wallet-color-copy" stroke="none" stroke-width="1" fill="none" fill-rule="evenodd">
        <g id="wallet" transform="translate(4.000000, 6.000000)">
            <path d="M37.6062153,25.8541218 C37.6062153,27.15208 36.5537704,28.2045249 35.2557342,28.2045249 L2.35055917,28.2045249 C1.052601,28.2045249 0.000156079626,27.152158 0.000156079626,25.8541218 L0.000156079626,2.35040309 C0.000156079626,1.05236688 1.05252296,0 2.35055917,0 L35.2558122,0 C36.5537704,0 37.6062153,1.05236688 37.6062153,2.35040309 L37.6062153,25.8541218 L37.6062153,25.8541218 Z" id="Path" fill="#3D9AE2"></path>
            <g id="Group" transform="translate(0.000156, 0.561047)">
                <path d="M32.905253,6.49008431 L14.1022625,6.49008431 L14.1022625,5.31488277 L31.7300515,5.31488277 C32.3787965,5.31488277 32.905253,5.84133935 32.905253,6.49008431 Z" id="Path" fill="#B3E4FD"></path>
                <path d="M32.905253,13.5412155 L23.5037187,13.5412155 L23.5037187,12.366014 L31.7300515,12.366014 C32.3787965,12.366014 32.905253,12.8924706 32.905253,13.5412155 Z" id="Path" fill="#B3E4FD"></path>
                <path d="M31.7300515,25.8807147 L29.3796484,25.8807147 L29.3796484,25.2931529 L31.7300515,25.2931529 L31.7300515,25.8807147 Z M27.0293234,25.8807147 L24.6789203,25.8807147 L24.6789203,25.2931529 L27.0293234,25.2931529 L27.0293234,25.8807147 Z" id="Shape" fill="#7BC8F8"></path>
                <polygon id="Path" fill="#7BC8F8" points="35.549398 25.8807147 34.0804546 25.8807147 34.0804546 25.2930749 34.9618362 25.2930749 34.9618362 24.4116933 35.549398 24.4116933"></polygon>
                <path d="M35.549398,22.0612902 L34.9618362,22.0612902 L34.9618362,19.7108871 L35.549398,19.7108871 L35.549398,22.0612902 Z M35.549398,17.360562 L34.9618362,17.360562 L34.9618362,15.0101589 L35.549398,15.0101589 L35.549398,17.360562 Z M35.549398,12.6598339 L34.9618362,12.6598339 L34.9618362,10.3094308 L35.549398,10.3094308 L35.549398,12.6598339 Z M35.549398,7.95902771 L34.9618362,7.95902771 L34.9618362,5.60870267 L35.549398,5.60870267 L35.549398,7.95902771 Z" id="Shape" fill="#7BC8F8"></path>
                <polygon id="Path" fill="#7BC8F8" points="35.549398 3.25829958 34.9618362 3.25829958 34.9618362 2.37691793 34.0804546 2.37691793 34.0804546 1.78935618 35.549398 1.78935618"></polygon>
                <path d="M31.7300515,2.37691793 L29.3796484,2.37691793 L29.3796484,1.78935618 L31.7300515,1.78935618 L31.7300515,2.37691793 Z M27.0293234,2.37691793 L24.6789203,2.37691793 L24.6789203,1.78935618 L27.0293234,1.78935618 L27.0293234,2.37691793 Z M22.3285952,2.37691793 L19.9781921,2.37691793 L19.9781921,1.78935618 L22.3285952,1.78935618 L22.3285952,2.37691793 Z M17.627789,2.37691793 L15.277386,2.37691793 L15.277386,1.78935618 L17.627789,1.78935618 L17.627789,2.37691793 Z M12.9270609,2.37691793 L10.5766578,2.37691793 L10.5766578,1.78935618 L12.9270609,1.78935618 L12.9270609,2.37691793 Z M8.22633277,2.37691793 L5.87592968,2.37691793 L5.87592968,1.78935618 L8.22633277,1.78935618 L8.22633277,2.37691793 Z" id="Shape" fill="#7BC8F8"></path>
                <path d="M23.5037187,10.4316411 C23.5037187,9.47034673 22.9184982,8.60660208 22.0253325,8.24933582 L1.61175626,0.0841082221 C1.24980761,-0.0609677903 0.83908407,-0.0163290172 0.516467483,0.202260499 C0.193304617,0.420225697 -4.61852778e-13,0.785139862 -4.61852778e-13,1.17471461 L-4.61852778e-13,26.0522462 C-4.61852778e-13,27.0135406 0.585220558,27.8772853 1.4777619,28.2345515 L20.2807525,36.8774608 C21.0041035,37.1665203 21.8255506,37.0784133 22.47133,36.6412343 C23.1171095,36.2040553 23.5037187,35.474305 23.5037187,34.6945312 L23.5037187,10.4316411 Z" id="Path" fill="#7BC8F8"></path>
            </g>
            <path d="M11.7520154,28.7920867 C11.7520154,28.6040887 11.8425416,28.4260019 11.9958899,28.3155756 C12.1492381,28.2051492 12.3466788,28.1745576 12.5253119,28.2333216 L18.4012416,30.5537574 C18.6416043,30.6354651 18.8031467,30.8604539 18.8031467,31.1125225 L18.8031467,32.3176913 C18.8031467,32.5068598 18.7126205,32.683776 18.5592723,32.795373 C18.405924,32.9058774 18.2084833,32.9352203 18.0298502,32.8764563 L12.1539205,30.5560205 C11.9135579,30.4755615 11.7520154,30.2504947 11.7520154,29.9972555 L11.7520154,28.7920867 Z" id="Path" fill="#B3E4FD"></path>
        </g>
    </g>
</svg>