<?xml version="1.0" encoding="UTF-8"?>
<svg width="46px" height="46px" viewBox="0 0 46 46" version="1.1" xmlns="http://www.w3.org/2000/svg" xmlns:xlink="http://www.w3.org/1999/xlink">
    <!-- Generator: Sketch 63.1 (92452) - https://sketch.com -->
    <!--<title>illustrazione/functional/wallet-color edit</title>-->
    <desc>Created with Sketch.</desc>
    <g id="illustrazione/functional/wallet-color-edit" stroke="none" stroke-width="1" fill="none" fill-rule="evenodd">
        <g id="wallet-copy" transform="translate(4.000000, 6.000000)">
            <path d="M37.6062153,25.8541218 C37.6062153,27.15208 36.5537704,28.2045249 35.2557342,28.2045249 L2.35055917,28.2045249 C1.052601,28.2045249 0.000156079626,27.152158 0.000156079626,25.8541218 L0.000156079626,2.35040309 C0.000156079626,1.05236688 1.05252296,0 2.35055917,0 L35.2558122,0 C36.5537704,0 37.6062153,1.05236688 37.6062153,2.35040309 L37.6062153,25.8541218 L37.6062153,25.8541218 Z" id="Path" fill="#3D9AE2"></path>
            <g id="Group" transform="translate(0.000156, 0.561047)">
                <path d="M32.905253,6.49008431 L14.1022625,6.49008431 L14.1022625,5.31488277 L31.7300515,5.31488277 C32.3787965,5.31488277 32.905253,5.84133935 32.905253,6.49008431 Z" id="Path" fill="#B3E4FD"></path>
                <path d="M32.905253,13.5412155 L23.5037187,13.5412155 L23.5037187,12.366014 L31.7300515,12.366014 C32.3787965,12.366014 32.905253,12.8924706 32.905253,13.5412155 Z" id="Path" fill="#B3E4FD"></path>
                <path d="M31.7300515,25.8807147 L29.3796484,25.8807147 L29.3796484,25.2931529 L31.7300515,25.2931529 L31.7300515,25.8807147 Z M27.0293234,25.8807147 L24.6789203,25.8807147 L24.6789203,25.2931529 L27.0293234,25.2931529 L27.0293234,25.8807147 Z" id="Shape" fill="#7BC8F8"></path>
                <polygon id="Path" fill="#7BC8F8" points="35.549398 25.8807147 34.0804546 25.8807147 34.0804546 25.2930749 34.9618362 25.2930749 34.9618362 24.4116933 35.549398 24.4116933"></polygon>
                <path d="M35.549398,22.0612902 L34.9618362,22.0612902 L34.9618362,19.7108871 L35.549398,19.7108871 L35.549398,22.0612902 Z M35.549398,17.360562 L34.9618362,17.360562 L34.9618362,15.0101589 L35.549398,15.0101589 L35.549398,17.360562 Z M35.549398,12.6598339 L34.9618362,12.6598339 L34.9618362,10.3094308 L35.549398,10.3094308 L35.549398,12.6598339 Z M35.549398,7.95902771 L34.9618362,7.95902771 L34.9618362,5.60870267 L35.549398,5.60870267 L35.549398,7.95902771 Z" id="Shape" fill="#7BC8F8"></path>
                <polygon id="Path" fill="#7BC8F8" points="35.549398 3.25829958 34.9618362 3.25829958 34.9618362 2.37691793 34.0804546 2.37691793 34.0804546 1.78935618 35.549398 1.78935618"></polygon>
                <path d="M31.7300515,2.37691793 L29.3796484,2.37691793 L29.3796484,1.78935618 L31.7300515,1.78935618 L31.7300515,2.37691793 Z M27.0293234,2.37691793 L24.6789203,2.37691793 L24.6789203,1.78935618 L27.0293234,1.78935618 L27.0293234,2.37691793 Z M22.3285952,2.37691793 L19.9781921,2.37691793 L19.9781921,1.78935618 L22.3285952,1.78935618 L22.3285952,2.37691793 Z M17.627789,2.37691793 L15.277386,2.37691793 L15.277386,1.78935618 L17.627789,1.78935618 L17.627789,2.37691793 Z M12.9270609,2.37691793 L10.5766578,2.37691793 L10.5766578,1.78935618 L12.9270609,1.78935618 L12.9270609,2.37691793 Z M8.22633277,2.37691793 L5.87592968,2.37691793 L5.87592968,1.78935618 L8.22633277,1.78935618 L8.22633277,2.37691793 Z" id="Shape" fill="#7BC8F8"></path>
                <path d="M23.5037187,10.4316411 C23.5037187,9.47034673 22.9184982,8.60660208 22.0253325,8.24933582 L1.61175626,0.0841082221 C1.24980761,-0.0609677903 0.83908407,-0.0163290172 0.516467483,0.202260499 C0.193304617,0.420225697 -4.61852778e-13,0.785139862 -4.61852778e-13,1.17471461 L-4.61852778e-13,26.0522462 C-4.61852778e-13,27.0135406 0.585220558,27.8772853 1.4777619,28.2345515 L20.2807525,36.8774608 C21.0041035,37.1665203 21.8255506,37.0784133 22.47133,36.6412343 C23.1171095,36.2040553 23.5037187,35.474305 23.5037187,34.6945312 L23.5037187,10.4316411 Z" id="Path" fill="#7BC8F8"></path>
            </g>
            <path d="M11.7520154,28.7920867 C11.7520154,28.6040887 11.8425416,28.4260019 11.9958899,28.3155756 C12.1492381,28.2051492 12.3466788,28.1745576 12.5253119,28.2333216 L18.4012416,30.5537574 C18.6416043,30.6354651 18.8031467,30.8604539 18.8031467,31.1125225 L18.8031467,32.3176913 C18.8031467,32.5068598 18.7126205,32.683776 18.5592723,32.795373 C18.405924,32.9058774 18.2084833,32.9352203 18.0298502,32.8764563 L12.1539205,30.5560205 C11.9135579,30.4755615 11.7520154,30.2504947 11.7520154,29.9972555 L11.7520154,28.7920867 Z" id="Path" fill="#B3E4FD"></path>
        </g>
        <circle id="Oval-Copy" fill="#FFFFFF" opacity="0.995012" cx="24" cy="22" r="10"></circle>
        <g id="icon/22/plus-copy" transform="translate(19.000000, 17.000000)" fill="#1B7BC7">
            <g id="pencil">
                <path d="M9.9830634,1.57757676 C9.98268127,1.1606055 9.81964111,0.768838324 9.52392578,0.474384756 C8.91403199,-0.132949552 7.92251586,-0.132111969 7.31330871,0.476669103 L1.02020264,6.78278813 C0.815505977,6.98693349 0.659255977,7.23965947 0.568313594,7.51370614 L0.562438965,7.53152413 L0,10 L2.48016357,9.44581505 L2.49862672,9.43972343 C2.77328492,9.34895832 3.02665711,9.1931652 3.23188781,8.9884107 L9.52583312,2.68153021 C9.82101441,2.38654363 9.98344422,1.99447185 9.9830634,1.57757676 Z M1.37535096,8.89421906 L1.11236572,8.63159417 L1.30226135,7.79795626 L2.21267699,8.70713023 L1.37535096,8.89421906 Z M8.9730835,2.13130483 L2.86277771,8.25421844 L1.75628662,7.14919895 L5.94184875,2.95504386 L6.57920838,3.59116105 L7.13119508,3.04025037 L6.49269104,2.40299099 L7.08648682,1.80806834 L7.72613525,2.4464699 L8.27812195,1.89555922 L7.6373291,1.25601548 L7.86598205,1.0268945 C8.17077637,0.722313606 8.66722107,0.721856725 8.97254943,1.0259046 C9.12055969,1.17332175 9.20219422,1.36947185 9.2024233,1.57818593 C9.20257568,1.78697612 9.12132264,1.98320236 8.9730835,2.13130483 Z" id="Shape"></path>
            </g>
        </g>
    </g>
</svg>