<?xml version="1.0" encoding="UTF-8"?>
<svg width="46px" height="46px" viewBox="0 0 46 46" version="1.1" xmlns="http://www.w3.org/2000/svg" xmlns:xlink="http://www.w3.org/1999/xlink">
    <!-- Generator: Sketch 63.1 (92452) - https://sketch.com -->
    <!--<title>illustrazione/functional/woman</title>-->
    <desc>Created with Sketch.</desc>
    <g id="illustrazione/functional/woman" stroke="none" stroke-width="1" fill="none" fill-rule="evenodd">
        <g id="people-03" transform="translate(6.000000, 0.000000)">
            <path d="M30.2414395,33.7926571 C31.7009518,29.918623 32.5833137,24.6650431 32.5833137,24.6652496 L17.0483314,21.8314183 L17.0483314,21.7367343 L16.7887309,21.7840557 L16.5290893,21.7367343 L16.5290893,21.8314183 L0.993901293,24.6652496 C0.993901293,24.6650431 1.87671563,29.918623 3.33602233,33.7926571 C4.95001175,38.0772639 2.4196886,45.9629192 2.4196886,45.9629192 L16.5291304,45.9629192 L17.0484136,45.9629192 L31.15802,45.9629192 C31.1579788,45.9629192 28.6274501,38.0772639 30.2414395,33.7926571 Z" id="Path" fill="#623718" fill-rule="nonzero"></path>
            <path d="M28.4025206,36.1186715 C27.7218508,35.6011508 26.5457521,35.0432047 25.1096827,34.546991 C25.2045652,35.0564596 8.37310223,35.052991 8.46860165,34.5419946 C7.02591069,35.039447 5.84430082,35.5993752 5.16136898,36.1187127 C0.965893067,39.3088995 1.17202703,45.9629605 1.17202703,45.9629605 L16.775282,45.9629605 L16.7886486,45.9629605 L32.3919036,45.9629605 C32.3918625,45.9629605 32.5980376,39.3088582 28.4025206,36.1186715 Z" id="Path" fill="#F2BA95"></path>
            <rect id="Rectangle" fill="#F1F1F1" fill-rule="nonzero" x="10.2266627" y="39.1712711" width="12.453584" height="6.79168941"></rect>
            <polygon id="Path" fill="#373737" fill-rule="nonzero" points="5.49216216 35.2854273 10.0693067 33.4499695 13.8822914 45.9690718 4.34057579 45.9690718"></polygon>
            <polygon id="Path" fill="#373737" fill-rule="nonzero" points="27.9517979 35.2854273 23.3746533 33.4499695 19.5616686 45.9690718 29.1033843 45.9690718"></polygon>
            <path d="M16.7886075,8.0881544 C22.506275,8.0881544 27.4837192,11.0279013 30.0552938,15.3645368 L30.5988837,27.8314039 C28.2348414,32.7164883 22.9402996,36.1186715 16.7886075,36.1186715 C10.6369154,36.1186715 5.34229142,32.716447 2.97833137,27.8315278 L3.52192127,15.3646607 C6.09349589,11.0279013 11.0709401,8.0881544 16.7886075,8.0881544 Z" id="Path" fill="#FFCFAB" fill-rule="nonzero"></path>
            <g id="Group" transform="translate(9.541716, 21.885099)" fill="#636363" fill-rule="nonzero">
                <path d="M13.8088367,2.88738779 C13.4385605,2.88738779 13.1385311,2.5860754 13.1385311,2.21440036 L13.1385311,0.692601436 C13.1385311,0.320926391 13.4385605,0.0196552962 13.8088367,0.0196552962 C14.1790717,0.0196552962 14.4791011,0.320926391 14.4791011,0.692601436 L14.4791011,2.21440036 C14.4791011,2.5860754 14.1789894,2.88738779 13.8088367,2.88738779 Z" id="Path"></path>
                <path d="M0.684947121,2.88738779 C0.314712103,2.88738779 0.0146827262,2.5860754 0.0146827262,2.21440036 L0.0146827262,0.692601436 C0.0146827262,0.320926391 0.314712103,0.0196552962 0.684947121,0.0196552962 C1.05522327,0.0196552962 1.35521155,0.320926391 1.35521155,0.692601436 L1.35521155,2.21440036 C1.3553349,2.5860754 1.05522327,2.88738779 0.684947121,2.88738779 Z" id="Path"></path>
            </g>
            <path d="M27.9093948,4.89924776 C19.8313455,-3.90190664 4.44495887,-0.3814614 1.0473678,11.7640664 C-2.3499765,23.9093465 3.67549354,29.5781652 3.67549354,29.5781652 C1.36495887,22.4204991 6.75290247,15.0204039 11.3688308,14.932368 C15.9849236,14.8443321 23.2935076,12.4680233 23.2935076,12.4680233 C23.2935076,12.4680233 24.5203173,18.1811077 28.4865041,20.278939 C31.4677145,21.8558223 30.335376,26.4910449 29.5659107,29.5781652 C32.4507168,28.5739695 40.9877967,8.5077289 27.9093948,4.89924776 Z" id="Path" fill="#8A512E"></path>
            <path d="M16.7886075,31.1557504 C15.6018155,31.1557504 14.4916451,30.8625314 13.7429495,30.3511221 C13.4381904,30.1430072 13.3589365,29.7259928 13.5666334,29.4200969 C13.7735488,29.1144901 14.1891892,29.0349192 14.4939072,29.2430754 C15.0187015,29.6014129 15.8765922,29.8153914 16.7886075,29.8153914 C17.7006639,29.8153914 18.5585135,29.6013716 19.0833079,29.2430754 C19.388725,29.0342585 19.8033784,29.1141185 20.0106228,29.4200969 C20.2182374,29.7259928 20.1390247,30.1430072 19.8343067,30.3511221 C19.0856522,30.8625314 17.9754407,31.1557504 16.7886075,31.1557504 Z" id="Path" fill="#C6805A" fill-rule="nonzero"></path>
        </g>
    </g>
</svg>